<?xml version="1.0" encoding="utf-8" standalone="no"?>
<!DOCTYPE svg PUBLIC "-//W3C//DTD SVG 1.1//EN"
  "http://www.w3.org/Graphics/SVG/1.1/DTD/svg11.dtd">
<!-- Created with matplotlib (http://matplotlib.org/) -->
<svg height="288pt" version="1.1" viewBox="0 0 432 288" width="432pt" xmlns="http://www.w3.org/2000/svg" xmlns:xlink="http://www.w3.org/1999/xlink">
 <defs>
  <style type="text/css">
*{stroke-linecap:butt;stroke-linejoin:round;stroke-miterlimit:100000;}
  </style>
 </defs>
 <g id="figure_1">
  <g id="patch_1">
   <path d="M 0 288 
L 432 288 
L 432 0 
L 0 0 
z
" style="fill:#ffffff;"/>
  </g>
  <g id="axes_1">
   <g id="patch_2">
    <path d="M 27.764646 258.165354 
L 426.600354 258.165354 
L 426.600354 6.434646 
L 27.764646 6.434646 
z
" style="fill:#ffffff;"/>
   </g>
   <g id="line2d_1">
    <path clip-path="url(#pfa6765a7cf)" d="M 114.07674 -1 
L 117.50268 14.490028 
L 122.488126 36.138869 
L 127.473573 56.780787 
L 132.459019 76.415783 
L 137.444466 95.043855 
L 142.429912 112.665005 
L 147.415358 129.279231 
L 152.400805 144.886535 
L 157.386251 159.486917 
L 162.371697 173.080375 
L 167.357144 185.66691 
L 172.34259 197.246523 
L 177.328036 207.819213 
L 179.82076 212.727961 
L 182.313483 217.38498 
L 184.806206 221.790267 
L 187.298929 225.943824 
L 189.791652 229.84565 
L 192.284375 233.495745 
L 194.777099 236.894109 
L 197.269822 240.040743 
L 199.762545 242.935646 
L 202.255268 245.578819 
L 204.747991 247.970261 
L 207.240715 250.109972 
L 209.733438 251.997952 
L 212.226161 253.634202 
L 214.718884 255.01872 
L 217.211607 256.151509 
L 219.70433 257.032566 
L 222.197054 257.661893 
L 224.689777 258.039489 
L 227.1825 258.165354 
L 229.675223 258.039489 
L 232.167946 257.661893 
L 234.66067 257.032566 
L 237.153393 256.151509 
L 239.646116 255.01872 
L 242.138839 253.634202 
L 244.631562 251.997952 
L 247.124285 250.109972 
L 249.617009 247.970261 
L 252.109732 245.578819 
L 254.602455 242.935646 
L 257.095178 240.040743 
L 259.587901 236.894109 
L 262.080625 233.495745 
L 264.573348 229.84565 
L 267.066071 225.943824 
L 269.558794 221.790267 
L 272.051517 217.38498 
L 274.54424 212.727961 
L 277.036964 207.819213 
L 282.02241 197.246523 
L 287.007856 185.66691 
L 291.993303 173.080375 
L 296.978749 159.486917 
L 301.964195 144.886535 
L 306.949642 129.279231 
L 311.935088 112.665005 
L 316.920534 95.043855 
L 321.905981 76.415783 
L 326.891427 56.780787 
L 331.876874 36.138869 
L 336.86232 14.490028 
L 340.28826 -1 
L 340.28826 -1 
" style="fill:none;stroke:#00008b;stroke-dasharray:6.000000,6.000000;stroke-dashoffset:0.0;"/>
   </g>
   <g id="line2d_2">
    <path clip-path="url(#pfa6765a7cf)" d="M 27.764646 56.780787 
L 227.1825 258.165354 
L 426.600354 56.780787 
L 426.600354 56.780787 
" style="fill:none;stroke:#cc0000;stroke-linecap:round;"/>
   </g>
   <g id="patch_3">
    <path d="M 27.764646 6.434646 
L 426.600354 6.434646 
" style="fill:none;stroke:#000000;stroke-linecap:square;stroke-linejoin:miter;"/>
   </g>
   <g id="patch_4">
    <path d="M 426.600354 258.165354 
L 426.600354 6.434646 
" style="fill:none;stroke:#000000;stroke-linecap:square;stroke-linejoin:miter;"/>
   </g>
   <g id="patch_5">
    <path d="M 27.764646 258.165354 
L 426.600354 258.165354 
" style="fill:none;stroke:#000000;stroke-linecap:square;stroke-linejoin:miter;"/>
   </g>
   <g id="patch_6">
    <path d="M 27.764646 258.165354 
L 27.764646 6.434646 
" style="fill:none;stroke:#000000;stroke-linecap:square;stroke-linejoin:miter;"/>
   </g>
   <g id="matplotlib.axis_1">
    <g id="xtick_1">
     <g id="line2d_3">
      <defs>
       <path d="M 0 0 
L 0 -4 
" id="m6220f6963b" style="stroke:#000000;stroke-width:0.5;"/>
      </defs>
      <g>
       <use style="stroke:#000000;stroke-width:0.5;" x="27.7646456693" xlink:href="#m6220f6963b" y="258.165354331"/>
      </g>
     </g>
     <g id="line2d_4">
      <defs>
       <path d="M 0 0 
L 0 4 
" id="maa7e0465c7" style="stroke:#000000;stroke-width:0.5;"/>
      </defs>
      <g>
       <use style="stroke:#000000;stroke-width:0.5;" x="27.7646456693" xlink:href="#maa7e0465c7" y="6.43464566929"/>
      </g>
     </g>
     <g id="text_1">
      <!-- -4 -->
      <defs>
       <path d="M 4.890625 31.390625 
L 31.203125 31.390625 
L 31.203125 23.390625 
L 4.890625 23.390625 
z
" id="BitstreamVeraSans-Roman-2d"/>
       <path d="M 37.796875 64.3125 
L 12.890625 25.390625 
L 37.796875 25.390625 
z
M 35.203125 72.90625 
L 47.609375 72.90625 
L 47.609375 25.390625 
L 58.015625 25.390625 
L 58.015625 17.1875 
L 47.609375 17.1875 
L 47.609375 0 
L 37.796875 0 
L 37.796875 17.1875 
L 4.890625 17.1875 
L 4.890625 26.703125 
z
" id="BitstreamVeraSans-Roman-34"/>
      </defs>
      <g transform="translate(23.7765206693 268.244104331)scale(0.08 -0.08)">
       <use xlink:href="#BitstreamVeraSans-Roman-2d"/>
       <use x="36.083984375" xlink:href="#BitstreamVeraSans-Roman-34"/>
      </g>
     </g>
    </g>
    <g id="xtick_2">
     <g id="line2d_5">
      <g>
       <use style="stroke:#000000;stroke-width:0.5;" x="127.473572835" xlink:href="#m6220f6963b" y="258.165354331"/>
      </g>
     </g>
     <g id="line2d_6">
      <g>
       <use style="stroke:#000000;stroke-width:0.5;" x="127.473572835" xlink:href="#maa7e0465c7" y="6.43464566929"/>
      </g>
     </g>
     <g id="text_2">
      <!-- -2 -->
      <defs>
       <path d="M 19.1875 8.296875 
L 53.609375 8.296875 
L 53.609375 0 
L 7.328125 0 
L 7.328125 8.296875 
Q 12.9375 14.109375 22.625 23.890625 
Q 32.328125 33.6875 34.8125 36.53125 
Q 39.546875 41.84375 41.421875 45.53125 
Q 43.3125 49.21875 43.3125 52.78125 
Q 43.3125 58.59375 39.234375 62.25 
Q 35.15625 65.921875 28.609375 65.921875 
Q 23.96875 65.921875 18.8125 64.3125 
Q 13.671875 62.703125 7.8125 59.421875 
L 7.8125 69.390625 
Q 13.765625 71.78125 18.9375 73 
Q 24.125 74.21875 28.421875 74.21875 
Q 39.75 74.21875 46.484375 68.546875 
Q 53.21875 62.890625 53.21875 53.421875 
Q 53.21875 48.921875 51.53125 44.890625 
Q 49.859375 40.875 45.40625 35.40625 
Q 44.1875 33.984375 37.640625 27.21875 
Q 31.109375 20.453125 19.1875 8.296875 
" id="BitstreamVeraSans-Roman-32"/>
      </defs>
      <g transform="translate(123.485447835 268.244104331)scale(0.08 -0.08)">
       <use xlink:href="#BitstreamVeraSans-Roman-2d"/>
       <use x="36.083984375" xlink:href="#BitstreamVeraSans-Roman-32"/>
      </g>
     </g>
    </g>
    <g id="xtick_3">
     <g id="line2d_7">
      <g>
       <use style="stroke:#000000;stroke-width:0.5;" x="227.1825" xlink:href="#m6220f6963b" y="258.165354331"/>
      </g>
     </g>
     <g id="line2d_8">
      <g>
       <use style="stroke:#000000;stroke-width:0.5;" x="227.1825" xlink:href="#maa7e0465c7" y="6.43464566929"/>
      </g>
     </g>
     <g id="text_3">
      <!-- 0 -->
      <defs>
       <path d="M 31.78125 66.40625 
Q 24.171875 66.40625 20.328125 58.90625 
Q 16.5 51.421875 16.5 36.375 
Q 16.5 21.390625 20.328125 13.890625 
Q 24.171875 6.390625 31.78125 6.390625 
Q 39.453125 6.390625 43.28125 13.890625 
Q 47.125 21.390625 47.125 36.375 
Q 47.125 51.421875 43.28125 58.90625 
Q 39.453125 66.40625 31.78125 66.40625 
M 31.78125 74.21875 
Q 44.046875 74.21875 50.515625 64.515625 
Q 56.984375 54.828125 56.984375 36.375 
Q 56.984375 17.96875 50.515625 8.265625 
Q 44.046875 -1.421875 31.78125 -1.421875 
Q 19.53125 -1.421875 13.0625 8.265625 
Q 6.59375 17.96875 6.59375 36.375 
Q 6.59375 54.828125 13.0625 64.515625 
Q 19.53125 74.21875 31.78125 74.21875 
" id="BitstreamVeraSans-Roman-30"/>
      </defs>
      <g transform="translate(224.6375 268.244104331)scale(0.08 -0.08)">
       <use xlink:href="#BitstreamVeraSans-Roman-30"/>
      </g>
     </g>
    </g>
    <g id="xtick_4">
     <g id="line2d_9">
      <g>
       <use style="stroke:#000000;stroke-width:0.5;" x="326.891427165" xlink:href="#m6220f6963b" y="258.165354331"/>
      </g>
     </g>
     <g id="line2d_10">
      <g>
       <use style="stroke:#000000;stroke-width:0.5;" x="326.891427165" xlink:href="#maa7e0465c7" y="6.43464566929"/>
      </g>
     </g>
     <g id="text_4">
      <!-- 2 -->
      <g transform="translate(324.346427165 268.244104331)scale(0.08 -0.08)">
       <use xlink:href="#BitstreamVeraSans-Roman-32"/>
      </g>
     </g>
    </g>
    <g id="xtick_5">
     <g id="line2d_11">
      <g>
       <use style="stroke:#000000;stroke-width:0.5;" x="426.600354331" xlink:href="#m6220f6963b" y="258.165354331"/>
      </g>
     </g>
     <g id="line2d_12">
      <g>
       <use style="stroke:#000000;stroke-width:0.5;" x="426.600354331" xlink:href="#maa7e0465c7" y="6.43464566929"/>
      </g>
     </g>
     <g id="text_5">
      <!-- 4 -->
      <g transform="translate(424.055354331 268.244104331)scale(0.08 -0.08)">
       <use xlink:href="#BitstreamVeraSans-Roman-34"/>
      </g>
     </g>
    </g>
    <g id="text_6">
     <!-- h(x) - y -->
     <defs>
      <path id="BitstreamVeraSans-Roman-20"/>
      <path d="M 8.015625 75.875 
L 15.828125 75.875 
Q 23.140625 64.359375 26.78125 53.3125 
Q 30.421875 42.28125 30.421875 31.390625 
Q 30.421875 20.453125 26.78125 9.375 
Q 23.140625 -1.703125 15.828125 -13.1875 
L 8.015625 -13.1875 
Q 14.5 -2 17.703125 9.0625 
Q 20.90625 20.125 20.90625 31.390625 
Q 20.90625 42.671875 17.703125 53.65625 
Q 14.5 64.65625 8.015625 75.875 
" id="BitstreamVeraSans-Roman-29"/>
      <path d="M 31 75.875 
Q 24.46875 64.65625 21.28125 53.65625 
Q 18.109375 42.671875 18.109375 31.390625 
Q 18.109375 20.125 21.3125 9.0625 
Q 24.515625 -2 31 -13.1875 
L 23.1875 -13.1875 
Q 15.875 -1.703125 12.234375 9.375 
Q 8.59375 20.453125 8.59375 31.390625 
Q 8.59375 42.28125 12.203125 53.3125 
Q 15.828125 64.359375 23.1875 75.875 
z
" id="BitstreamVeraSans-Roman-28"/>
      <path d="M 54.890625 33.015625 
L 54.890625 0 
L 45.90625 0 
L 45.90625 32.71875 
Q 45.90625 40.484375 42.875 44.328125 
Q 39.84375 48.1875 33.796875 48.1875 
Q 26.515625 48.1875 22.3125 43.546875 
Q 18.109375 38.921875 18.109375 30.90625 
L 18.109375 0 
L 9.078125 0 
L 9.078125 75.984375 
L 18.109375 75.984375 
L 18.109375 46.1875 
Q 21.34375 51.125 25.703125 53.5625 
Q 30.078125 56 35.796875 56 
Q 45.21875 56 50.046875 50.171875 
Q 54.890625 44.34375 54.890625 33.015625 
" id="BitstreamVeraSans-Roman-68"/>
      <path d="M 54.890625 54.6875 
L 35.109375 28.078125 
L 55.90625 0 
L 45.3125 0 
L 29.390625 21.484375 
L 13.484375 0 
L 2.875 0 
L 24.125 28.609375 
L 4.6875 54.6875 
L 15.28125 54.6875 
L 29.78125 35.203125 
L 44.28125 54.6875 
z
" id="BitstreamVeraSans-Roman-78"/>
      <path d="M 32.171875 -5.078125 
Q 28.375 -14.84375 24.75 -17.8125 
Q 21.140625 -20.796875 15.09375 -20.796875 
L 7.90625 -20.796875 
L 7.90625 -13.28125 
L 13.1875 -13.28125 
Q 16.890625 -13.28125 18.9375 -11.515625 
Q 21 -9.765625 23.484375 -3.21875 
L 25.09375 0.875 
L 2.984375 54.6875 
L 12.5 54.6875 
L 29.59375 11.921875 
L 46.6875 54.6875 
L 56.203125 54.6875 
z
" id="BitstreamVeraSans-Roman-79"/>
     </defs>
     <g transform="translate(207.414296875 283.266135581)scale(0.11 -0.11)">
      <use xlink:href="#BitstreamVeraSans-Roman-68"/>
      <use x="63.37890625" xlink:href="#BitstreamVeraSans-Roman-28"/>
      <use x="102.392578125" xlink:href="#BitstreamVeraSans-Roman-78"/>
      <use x="161.572265625" xlink:href="#BitstreamVeraSans-Roman-29"/>
      <use x="200.5859375" xlink:href="#BitstreamVeraSans-Roman-20"/>
      <use x="232.373046875" xlink:href="#BitstreamVeraSans-Roman-2d"/>
      <use x="268.45703125" xlink:href="#BitstreamVeraSans-Roman-20"/>
      <use x="300.244140625" xlink:href="#BitstreamVeraSans-Roman-79"/>
     </g>
    </g>
   </g>
   <g id="matplotlib.axis_2">
    <g id="ytick_1">
     <g id="line2d_13">
      <defs>
       <path d="M 0 0 
L 4 0 
" id="m9eb22f2633" style="stroke:#000000;stroke-width:0.5;"/>
      </defs>
      <g>
       <use style="stroke:#000000;stroke-width:0.5;" x="27.7646456693" xlink:href="#m9eb22f2633" y="258.165354331"/>
      </g>
     </g>
     <g id="line2d_14">
      <defs>
       <path d="M 0 0 
L -4 0 
" id="m5fd33e40d2" style="stroke:#000000;stroke-width:0.5;"/>
      </defs>
      <g>
       <use style="stroke:#000000;stroke-width:0.5;" x="426.600354331" xlink:href="#m5fd33e40d2" y="258.165354331"/>
      </g>
     </g>
     <g id="text_7">
      <!-- 0 -->
      <g transform="translate(18.6746456693 260.372854331)scale(0.08 -0.08)">
       <use xlink:href="#BitstreamVeraSans-Roman-30"/>
      </g>
     </g>
    </g>
    <g id="ytick_2">
     <g id="line2d_15">
      <g>
       <use style="stroke:#000000;stroke-width:0.5;" x="27.7646456693" xlink:href="#m9eb22f2633" y="207.819212598"/>
      </g>
     </g>
     <g id="line2d_16">
      <g>
       <use style="stroke:#000000;stroke-width:0.5;" x="426.600354331" xlink:href="#m5fd33e40d2" y="207.819212598"/>
      </g>
     </g>
     <g id="text_8">
      <!-- 1 -->
      <defs>
       <path d="M 12.40625 8.296875 
L 28.515625 8.296875 
L 28.515625 63.921875 
L 10.984375 60.40625 
L 10.984375 69.390625 
L 28.421875 72.90625 
L 38.28125 72.90625 
L 38.28125 8.296875 
L 54.390625 8.296875 
L 54.390625 0 
L 12.40625 0 
z
" id="BitstreamVeraSans-Roman-31"/>
      </defs>
      <g transform="translate(18.6746456693 210.026712598)scale(0.08 -0.08)">
       <use xlink:href="#BitstreamVeraSans-Roman-31"/>
      </g>
     </g>
    </g>
    <g id="ytick_3">
     <g id="line2d_17">
      <g>
       <use style="stroke:#000000;stroke-width:0.5;" x="27.7646456693" xlink:href="#m9eb22f2633" y="157.473070866"/>
      </g>
     </g>
     <g id="line2d_18">
      <g>
       <use style="stroke:#000000;stroke-width:0.5;" x="426.600354331" xlink:href="#m5fd33e40d2" y="157.473070866"/>
      </g>
     </g>
     <g id="text_9">
      <!-- 2 -->
      <g transform="translate(18.6746456693 159.680570866)scale(0.08 -0.08)">
       <use xlink:href="#BitstreamVeraSans-Roman-32"/>
      </g>
     </g>
    </g>
    <g id="ytick_4">
     <g id="line2d_19">
      <g>
       <use style="stroke:#000000;stroke-width:0.5;" x="27.7646456693" xlink:href="#m9eb22f2633" y="107.126929134"/>
      </g>
     </g>
     <g id="line2d_20">
      <g>
       <use style="stroke:#000000;stroke-width:0.5;" x="426.600354331" xlink:href="#m5fd33e40d2" y="107.126929134"/>
      </g>
     </g>
     <g id="text_10">
      <!-- 3 -->
      <defs>
       <path d="M 40.578125 39.3125 
Q 47.65625 37.796875 51.625 33 
Q 55.609375 28.21875 55.609375 21.1875 
Q 55.609375 10.40625 48.1875 4.484375 
Q 40.765625 -1.421875 27.09375 -1.421875 
Q 22.515625 -1.421875 17.65625 -0.515625 
Q 12.796875 0.390625 7.625 2.203125 
L 7.625 11.71875 
Q 11.71875 9.328125 16.59375 8.109375 
Q 21.484375 6.890625 26.8125 6.890625 
Q 36.078125 6.890625 40.9375 10.546875 
Q 45.796875 14.203125 45.796875 21.1875 
Q 45.796875 27.640625 41.28125 31.265625 
Q 36.765625 34.90625 28.71875 34.90625 
L 20.21875 34.90625 
L 20.21875 43.015625 
L 29.109375 43.015625 
Q 36.375 43.015625 40.234375 45.921875 
Q 44.09375 48.828125 44.09375 54.296875 
Q 44.09375 59.90625 40.109375 62.90625 
Q 36.140625 65.921875 28.71875 65.921875 
Q 24.65625 65.921875 20.015625 65.03125 
Q 15.375 64.15625 9.8125 62.3125 
L 9.8125 71.09375 
Q 15.4375 72.65625 20.34375 73.4375 
Q 25.25 74.21875 29.59375 74.21875 
Q 40.828125 74.21875 47.359375 69.109375 
Q 53.90625 64.015625 53.90625 55.328125 
Q 53.90625 49.265625 50.4375 45.09375 
Q 46.96875 40.921875 40.578125 39.3125 
" id="BitstreamVeraSans-Roman-33"/>
      </defs>
      <g transform="translate(18.6746456693 109.334429134)scale(0.08 -0.08)">
       <use xlink:href="#BitstreamVeraSans-Roman-33"/>
      </g>
     </g>
    </g>
    <g id="ytick_5">
     <g id="line2d_21">
      <g>
       <use style="stroke:#000000;stroke-width:0.5;" x="27.7646456693" xlink:href="#m9eb22f2633" y="56.7807874016"/>
      </g>
     </g>
     <g id="line2d_22">
      <g>
       <use style="stroke:#000000;stroke-width:0.5;" x="426.600354331" xlink:href="#m5fd33e40d2" y="56.7807874016"/>
      </g>
     </g>
     <g id="text_11">
      <!-- 4 -->
      <g transform="translate(18.6746456693 58.9882874016)scale(0.08 -0.08)">
       <use xlink:href="#BitstreamVeraSans-Roman-34"/>
      </g>
     </g>
    </g>
    <g id="ytick_6">
     <g id="line2d_23">
      <g>
       <use style="stroke:#000000;stroke-width:0.5;" x="27.7646456693" xlink:href="#m9eb22f2633" y="6.43464566929"/>
      </g>
     </g>
     <g id="line2d_24">
      <g>
       <use style="stroke:#000000;stroke-width:0.5;" x="426.600354331" xlink:href="#m5fd33e40d2" y="6.43464566929"/>
      </g>
     </g>
     <g id="text_12">
      <!-- 5 -->
      <defs>
       <path d="M 10.796875 72.90625 
L 49.515625 72.90625 
L 49.515625 64.59375 
L 19.828125 64.59375 
L 19.828125 46.734375 
Q 21.96875 47.46875 24.109375 47.828125 
Q 26.265625 48.1875 28.421875 48.1875 
Q 40.625 48.1875 47.75 41.5 
Q 54.890625 34.8125 54.890625 23.390625 
Q 54.890625 11.625 47.5625 5.09375 
Q 40.234375 -1.421875 26.90625 -1.421875 
Q 22.3125 -1.421875 17.546875 -0.640625 
Q 12.796875 0.140625 7.71875 1.703125 
L 7.71875 11.625 
Q 12.109375 9.234375 16.796875 8.0625 
Q 21.484375 6.890625 26.703125 6.890625 
Q 35.15625 6.890625 40.078125 11.328125 
Q 45.015625 15.765625 45.015625 23.390625 
Q 45.015625 31 40.078125 35.4375 
Q 35.15625 39.890625 26.703125 39.890625 
Q 22.75 39.890625 18.8125 39.015625 
Q 14.890625 38.140625 10.796875 36.28125 
z
" id="BitstreamVeraSans-Roman-35"/>
      </defs>
      <g transform="translate(18.6746456693 8.64214566929)scale(0.08 -0.08)">
       <use xlink:href="#BitstreamVeraSans-Roman-35"/>
      </g>
     </g>
    </g>
    <g id="text_13">
     <!-- L(y, h(x)) -->
     <defs>
      <path d="M 11.71875 12.40625 
L 22.015625 12.40625 
L 22.015625 4 
L 14.015625 -11.625 
L 7.71875 -11.625 
L 11.71875 4 
z
" id="BitstreamVeraSans-Roman-2c"/>
      <path d="M 9.8125 72.90625 
L 19.671875 72.90625 
L 19.671875 8.296875 
L 55.171875 8.296875 
L 55.171875 0 
L 9.8125 0 
z
" id="BitstreamVeraSans-Roman-4c"/>
     </defs>
     <g transform="translate(11.3869894193 157.44015625)rotate(-90.0)scale(0.11 -0.11)">
      <use xlink:href="#BitstreamVeraSans-Roman-4c"/>
      <use x="55.712890625" xlink:href="#BitstreamVeraSans-Roman-28"/>
      <use x="94.7265625" xlink:href="#BitstreamVeraSans-Roman-79"/>
      <use x="153.90625" xlink:href="#BitstreamVeraSans-Roman-2c"/>
      <use x="185.693359375" xlink:href="#BitstreamVeraSans-Roman-20"/>
      <use x="217.48046875" xlink:href="#BitstreamVeraSans-Roman-68"/>
      <use x="280.859375" xlink:href="#BitstreamVeraSans-Roman-28"/>
      <use x="319.873046875" xlink:href="#BitstreamVeraSans-Roman-78"/>
      <use x="379.052734375" xlink:href="#BitstreamVeraSans-Roman-29"/>
      <use x="418.06640625" xlink:href="#BitstreamVeraSans-Roman-29"/>
     </g>
    </g>
   </g>
   <g id="line2d_25">
    <path clip-path="url(#pfa6765a7cf)" d="M 27.764646 157.473071 
L 45.213708 161.979186 
L 62.66277 166.707046 
L 77.619109 170.963279 
L 92.575448 175.438202 
L 107.531787 180.169447 
L 119.995403 184.343419 
L 132.459019 188.767987 
L 142.429912 192.522017 
L 152.400805 196.504175 
L 162.371697 200.761921 
L 169.849867 204.175132 
L 177.328036 207.819213 
L 184.806206 211.748505 
L 189.791652 214.564317 
L 194.777099 217.574997 
L 199.762545 220.827656 
L 204.747991 224.392136 
L 209.733438 228.380175 
L 212.226161 230.589637 
L 214.718884 232.992283 
L 217.211607 235.649875 
L 219.70433 238.666377 
L 222.197054 242.244506 
L 224.689777 246.907615 
L 227.1825 258.165354 
L 229.675223 246.907615 
L 232.167946 242.244506 
L 234.66067 238.666377 
L 237.153393 235.649875 
L 239.646116 232.992283 
L 242.138839 230.589637 
L 244.631562 228.380175 
L 249.617009 224.392136 
L 254.602455 220.827656 
L 259.587901 217.574997 
L 264.573348 214.564317 
L 269.558794 211.748505 
L 277.036964 207.819213 
L 284.515133 204.175132 
L 291.993303 200.761921 
L 301.964195 196.504175 
L 311.935088 192.522017 
L 321.905981 188.767987 
L 334.369597 184.343419 
L 346.833213 180.169447 
L 359.296828 176.207773 
L 374.253168 171.693016 
L 389.209507 167.402557 
L 406.658569 162.640267 
L 424.107631 158.104377 
L 426.600354 157.473071 
L 426.600354 157.473071 
" style="fill:none;stroke:#008000;stroke-linecap:round;"/>
   </g>
   <g id="line2d_26">
    <path clip-path="url(#pfa6765a7cf)" d="M 27.764646 124.747802 
L 47.706431 143.999445 
L 62.66277 158.170659 
L 77.619109 172.02913 
L 90.082725 183.268379 
L 100.053618 192.006895 
L 110.024511 200.474288 
L 119.995403 208.620983 
L 127.473573 214.486972 
L 134.951742 220.114926 
L 142.429912 225.476727 
L 149.908081 230.542512 
L 157.386251 235.280996 
L 164.864421 239.659935 
L 169.849867 242.363372 
L 174.835313 244.882904 
L 179.82076 247.209105 
L 184.806206 249.33284 
L 189.791652 251.245395 
L 194.777099 252.938604 
L 199.762545 254.404971 
L 204.747991 255.6378 
L 209.733438 256.63131 
L 214.718884 257.380736 
L 219.70433 257.882422 
L 224.689777 258.133891 
L 229.675223 258.133891 
L 234.66067 257.882422 
L 239.646116 257.380736 
L 244.631562 256.63131 
L 249.617009 255.6378 
L 254.602455 254.404971 
L 259.587901 252.938604 
L 264.573348 251.245395 
L 269.558794 249.33284 
L 274.54424 247.209105 
L 279.529687 244.882904 
L 284.515133 242.363372 
L 289.500579 239.659935 
L 296.978749 235.280996 
L 304.456919 230.542512 
L 311.935088 225.476727 
L 319.413258 220.114926 
L 326.891427 214.486972 
L 334.369597 208.620983 
L 344.340489 200.474288 
L 354.311382 192.006895 
L 364.282275 183.268379 
L 376.745891 172.02913 
L 389.209507 160.504494 
L 404.165846 146.379536 
L 421.614908 129.592124 
L 426.600354 124.747802 
L 426.600354 124.747802 
" style="fill:none;stroke:#455bb6;stroke-dasharray:3.000000,5.000000,1.000000,5.000000;stroke-dashoffset:0.0;"/>
   </g>
   <g id="line2d_27">
    <path clip-path="url(#pfa6765a7cf)" d="M 27.764646 81.953858 
L 179.82076 235.446658 
L 184.806206 239.977811 
L 189.791652 244.005502 
L 194.777099 247.529732 
L 199.762545 250.5505 
L 202.255268 251.872087 
L 204.747991 253.067807 
L 207.240715 254.137663 
L 209.733438 255.081653 
L 212.226161 255.899778 
L 214.718884 256.592037 
L 217.211607 257.158431 
L 219.70433 257.59896 
L 222.197054 257.913624 
L 224.689777 258.102422 
L 227.1825 258.165354 
L 229.675223 258.102422 
L 232.167946 257.913624 
L 234.66067 257.59896 
L 237.153393 257.158431 
L 239.646116 256.592037 
L 242.138839 255.899778 
L 244.631562 255.081653 
L 247.124285 254.137663 
L 249.617009 253.067807 
L 252.109732 251.872087 
L 254.602455 250.5505 
L 259.587901 247.529732 
L 264.573348 244.005502 
L 269.558794 239.977811 
L 274.54424 235.446658 
L 282.02241 227.957669 
L 426.600354 81.953858 
L 426.600354 81.953858 
" style="fill:none;stroke:#d9ac00;stroke-dasharray:6.000000,6.000000;stroke-dashoffset:0.0;"/>
   </g>
   <g id="line2d_28">
    <path clip-path="url(#pfa6765a7cf)" d="M 27.764646 107.126929 
L 177.328036 258.165354 
L 277.036964 258.165354 
L 426.600354 107.126929 
L 426.600354 107.126929 
" style="fill:none;stroke:#6820cc;stroke-linecap:round;"/>
   </g>
   <g id="line2d_29">
    <path clip-path="url(#pfa6765a7cf)" d="M 64.222277 -1 
L 67.648217 14.490028 
L 72.633663 36.138869 
L 77.619109 56.780787 
L 82.604556 76.415783 
L 87.590002 95.043855 
L 92.575448 112.665005 
L 97.560895 129.279231 
L 102.546341 144.886535 
L 107.531787 159.486917 
L 112.517234 173.080375 
L 117.50268 185.66691 
L 122.488126 197.246523 
L 127.473573 207.819213 
L 129.966296 212.727961 
L 132.459019 217.38498 
L 134.951742 221.790267 
L 137.444466 225.943824 
L 139.937189 229.84565 
L 142.429912 233.495745 
L 144.922635 236.894109 
L 147.415358 240.040743 
L 149.908081 242.935646 
L 152.400805 245.578819 
L 154.893528 247.970261 
L 157.386251 250.109972 
L 159.878974 251.997952 
L 162.371697 253.634202 
L 164.864421 255.01872 
L 167.357144 256.151509 
L 169.849867 257.032566 
L 172.34259 257.661893 
L 174.835313 258.039489 
L 177.328036 258.165354 
L 277.036964 258.165354 
L 279.529687 258.039489 
L 282.02241 257.661893 
L 284.515133 257.032566 
L 287.007856 256.151509 
L 289.500579 255.01872 
L 291.993303 253.634202 
L 294.486026 251.997952 
L 296.978749 250.109972 
L 299.471472 247.970261 
L 301.964195 245.578819 
L 304.456919 242.935646 
L 306.949642 240.040743 
L 309.442365 236.894109 
L 311.935088 233.495745 
L 314.427811 229.84565 
L 316.920534 225.943824 
L 319.413258 221.790267 
L 321.905981 217.38498 
L 324.398704 212.727961 
L 326.891427 207.819213 
L 331.876874 197.246523 
L 336.86232 185.66691 
L 341.847766 173.080375 
L 346.833213 159.486917 
L 351.818659 144.886535 
L 356.804105 129.279231 
L 361.789552 112.665005 
L 366.774998 95.043855 
L 371.760444 76.415783 
L 376.745891 56.780787 
L 381.731337 36.138869 
L 386.716783 14.490028 
L 390.142723 -1 
L 390.142723 -1 
" style="fill:none;stroke:#86a600;stroke-linecap:round;"/>
   </g>
   <g id="line2d_30">
    <path clip-path="url(#pfa6765a7cf)" d="M 27.764646 117.196157 
L 227.1825 258.165354 
L 426.600354 197.749984 
L 426.600354 197.749984 
" style="fill:none;stroke:#008868;stroke-linecap:round;"/>
   </g>
   <g id="legend_1">
    <g id="patch_7">
     <path d="M 153.8625 106.809646 
L 300.5025 106.809646 
L 300.5025 10.434646 
L 153.8625 10.434646 
z
" style="fill:#ffffff;stroke:#000000;stroke-linejoin:miter;"/>
    </g>
    <g id="line2d_31">
     <path d="M 159.4625 16.913396 
L 170.6625 16.913396 
" style="fill:none;stroke:#00008b;stroke-dasharray:6.000000,6.000000;stroke-dashoffset:0.0;"/>
    </g>
    <g id="line2d_32"/>
    <g id="text_14">
     <!-- L2DistLoss -->
     <defs>
      <path d="M 18.3125 70.21875 
L 18.3125 54.6875 
L 36.8125 54.6875 
L 36.8125 47.703125 
L 18.3125 47.703125 
L 18.3125 18.015625 
Q 18.3125 11.328125 20.140625 9.421875 
Q 21.96875 7.515625 27.59375 7.515625 
L 36.8125 7.515625 
L 36.8125 0 
L 27.59375 0 
Q 17.1875 0 13.234375 3.875 
Q 9.28125 7.765625 9.28125 18.015625 
L 9.28125 47.703125 
L 2.6875 47.703125 
L 2.6875 54.6875 
L 9.28125 54.6875 
L 9.28125 70.21875 
z
" id="BitstreamVeraSans-Roman-74"/>
      <path d="M 19.671875 64.796875 
L 19.671875 8.109375 
L 31.59375 8.109375 
Q 46.6875 8.109375 53.6875 14.9375 
Q 60.6875 21.78125 60.6875 36.53125 
Q 60.6875 51.171875 53.6875 57.984375 
Q 46.6875 64.796875 31.59375 64.796875 
z
M 9.8125 72.90625 
L 30.078125 72.90625 
Q 51.265625 72.90625 61.171875 64.09375 
Q 71.09375 55.28125 71.09375 36.53125 
Q 71.09375 17.671875 61.125 8.828125 
Q 51.171875 0 30.078125 0 
L 9.8125 0 
z
" id="BitstreamVeraSans-Roman-44"/>
      <path d="M 9.421875 54.6875 
L 18.40625 54.6875 
L 18.40625 0 
L 9.421875 0 
z
M 9.421875 75.984375 
L 18.40625 75.984375 
L 18.40625 64.59375 
L 9.421875 64.59375 
z
" id="BitstreamVeraSans-Roman-69"/>
      <path d="M 44.28125 53.078125 
L 44.28125 44.578125 
Q 40.484375 46.53125 36.375 47.5 
Q 32.28125 48.484375 27.875 48.484375 
Q 21.1875 48.484375 17.84375 46.4375 
Q 14.5 44.390625 14.5 40.28125 
Q 14.5 37.15625 16.890625 35.375 
Q 19.28125 33.59375 26.515625 31.984375 
L 29.59375 31.296875 
Q 39.15625 29.25 43.1875 25.515625 
Q 47.21875 21.78125 47.21875 15.09375 
Q 47.21875 7.46875 41.1875 3.015625 
Q 35.15625 -1.421875 24.609375 -1.421875 
Q 20.21875 -1.421875 15.453125 -0.5625 
Q 10.6875 0.296875 5.421875 2 
L 5.421875 11.28125 
Q 10.40625 8.6875 15.234375 7.390625 
Q 20.0625 6.109375 24.8125 6.109375 
Q 31.15625 6.109375 34.5625 8.28125 
Q 37.984375 10.453125 37.984375 14.40625 
Q 37.984375 18.0625 35.515625 20.015625 
Q 33.0625 21.96875 24.703125 23.78125 
L 21.578125 24.515625 
Q 13.234375 26.265625 9.515625 29.90625 
Q 5.8125 33.546875 5.8125 39.890625 
Q 5.8125 47.609375 11.28125 51.796875 
Q 16.75 56 26.8125 56 
Q 31.78125 56 36.171875 55.265625 
Q 40.578125 54.546875 44.28125 53.078125 
" id="BitstreamVeraSans-Roman-73"/>
      <path d="M 30.609375 48.390625 
Q 23.390625 48.390625 19.1875 42.75 
Q 14.984375 37.109375 14.984375 27.296875 
Q 14.984375 17.484375 19.15625 11.84375 
Q 23.34375 6.203125 30.609375 6.203125 
Q 37.796875 6.203125 41.984375 11.859375 
Q 46.1875 17.53125 46.1875 27.296875 
Q 46.1875 37.015625 41.984375 42.703125 
Q 37.796875 48.390625 30.609375 48.390625 
M 30.609375 56 
Q 42.328125 56 49.015625 48.375 
Q 55.71875 40.765625 55.71875 27.296875 
Q 55.71875 13.875 49.015625 6.21875 
Q 42.328125 -1.421875 30.609375 -1.421875 
Q 18.84375 -1.421875 12.171875 6.21875 
Q 5.515625 13.875 5.515625 27.296875 
Q 5.515625 40.765625 12.171875 48.375 
Q 18.84375 56 30.609375 56 
" id="BitstreamVeraSans-Roman-6f"/>
     </defs>
     <g transform="translate(179.4625 19.7133956693)scale(0.08 -0.08)">
      <use xlink:href="#BitstreamVeraSans-Roman-4c"/>
      <use x="55.712890625" xlink:href="#BitstreamVeraSans-Roman-32"/>
      <use x="119.3359375" xlink:href="#BitstreamVeraSans-Roman-44"/>
      <use x="196.337890625" xlink:href="#BitstreamVeraSans-Roman-69"/>
      <use x="224.12109375" xlink:href="#BitstreamVeraSans-Roman-73"/>
      <use x="276.220703125" xlink:href="#BitstreamVeraSans-Roman-74"/>
      <use x="315.4296875" xlink:href="#BitstreamVeraSans-Roman-4c"/>
      <use x="371.126953125" xlink:href="#BitstreamVeraSans-Roman-6f"/>
      <use x="432.30859375" xlink:href="#BitstreamVeraSans-Roman-73"/>
      <use x="484.408203125" xlink:href="#BitstreamVeraSans-Roman-73"/>
     </g>
    </g>
    <g id="line2d_33">
     <path d="M 159.4625 28.655896 
L 170.6625 28.655896 
" style="fill:none;stroke:#cc0000;stroke-linecap:round;"/>
    </g>
    <g id="line2d_34"/>
    <g id="text_15">
     <!-- L1DistLoss -->
     <g transform="translate(179.4625 31.4558956693)scale(0.08 -0.08)">
      <use xlink:href="#BitstreamVeraSans-Roman-4c"/>
      <use x="55.712890625" xlink:href="#BitstreamVeraSans-Roman-31"/>
      <use x="119.3359375" xlink:href="#BitstreamVeraSans-Roman-44"/>
      <use x="196.337890625" xlink:href="#BitstreamVeraSans-Roman-69"/>
      <use x="224.12109375" xlink:href="#BitstreamVeraSans-Roman-73"/>
      <use x="276.220703125" xlink:href="#BitstreamVeraSans-Roman-74"/>
      <use x="315.4296875" xlink:href="#BitstreamVeraSans-Roman-4c"/>
      <use x="371.126953125" xlink:href="#BitstreamVeraSans-Roman-6f"/>
      <use x="432.30859375" xlink:href="#BitstreamVeraSans-Roman-73"/>
      <use x="484.408203125" xlink:href="#BitstreamVeraSans-Roman-73"/>
     </g>
    </g>
    <g id="line2d_35">
     <path d="M 159.4625 40.398396 
L 170.6625 40.398396 
" style="fill:none;stroke:#008000;stroke-linecap:round;"/>
    </g>
    <g id="line2d_36"/>
    <g id="text_16">
     <!-- LPDistLoss with P = 0.5 -->
     <defs>
      <path d="M 19.671875 64.796875 
L 19.671875 37.40625 
L 32.078125 37.40625 
Q 38.96875 37.40625 42.71875 40.96875 
Q 46.484375 44.53125 46.484375 51.125 
Q 46.484375 57.671875 42.71875 61.234375 
Q 38.96875 64.796875 32.078125 64.796875 
z
M 9.8125 72.90625 
L 32.078125 72.90625 
Q 44.34375 72.90625 50.609375 67.359375 
Q 56.890625 61.8125 56.890625 51.125 
Q 56.890625 40.328125 50.609375 34.8125 
Q 44.34375 29.296875 32.078125 29.296875 
L 19.671875 29.296875 
L 19.671875 0 
L 9.8125 0 
z
" id="BitstreamVeraSans-Roman-50"/>
      <path d="M 4.203125 54.6875 
L 13.1875 54.6875 
L 24.421875 12.015625 
L 35.59375 54.6875 
L 46.1875 54.6875 
L 57.421875 12.015625 
L 68.609375 54.6875 
L 77.59375 54.6875 
L 63.28125 0 
L 52.6875 0 
L 40.921875 44.828125 
L 29.109375 0 
L 18.5 0 
z
" id="BitstreamVeraSans-Roman-77"/>
      <path d="M 10.6875 12.40625 
L 21 12.40625 
L 21 0 
L 10.6875 0 
z
" id="BitstreamVeraSans-Roman-2e"/>
      <path d="M 10.59375 45.40625 
L 73.1875 45.40625 
L 73.1875 37.203125 
L 10.59375 37.203125 
z
M 10.59375 25.484375 
L 73.1875 25.484375 
L 73.1875 17.1875 
L 10.59375 17.1875 
z
" id="BitstreamVeraSans-Roman-3d"/>
     </defs>
     <g transform="translate(179.4625 43.1983956693)scale(0.08 -0.08)">
      <use xlink:href="#BitstreamVeraSans-Roman-4c"/>
      <use x="55.712890625" xlink:href="#BitstreamVeraSans-Roman-50"/>
      <use x="116.015625" xlink:href="#BitstreamVeraSans-Roman-44"/>
      <use x="193.017578125" xlink:href="#BitstreamVeraSans-Roman-69"/>
      <use x="220.80078125" xlink:href="#BitstreamVeraSans-Roman-73"/>
      <use x="272.900390625" xlink:href="#BitstreamVeraSans-Roman-74"/>
      <use x="312.109375" xlink:href="#BitstreamVeraSans-Roman-4c"/>
      <use x="367.806640625" xlink:href="#BitstreamVeraSans-Roman-6f"/>
      <use x="428.98828125" xlink:href="#BitstreamVeraSans-Roman-73"/>
      <use x="481.087890625" xlink:href="#BitstreamVeraSans-Roman-73"/>
      <use x="533.1875" xlink:href="#BitstreamVeraSans-Roman-20"/>
      <use x="564.974609375" xlink:href="#BitstreamVeraSans-Roman-77"/>
      <use x="646.76171875" xlink:href="#BitstreamVeraSans-Roman-69"/>
      <use x="674.544921875" xlink:href="#BitstreamVeraSans-Roman-74"/>
      <use x="713.75390625" xlink:href="#BitstreamVeraSans-Roman-68"/>
      <use x="777.1328125" xlink:href="#BitstreamVeraSans-Roman-20"/>
      <use x="808.919921875" xlink:href="#BitstreamVeraSans-Roman-50"/>
      <use x="869.22265625" xlink:href="#BitstreamVeraSans-Roman-20"/>
      <use x="901.009765625" xlink:href="#BitstreamVeraSans-Roman-3d"/>
      <use x="984.798828125" xlink:href="#BitstreamVeraSans-Roman-20"/>
      <use x="1016.5859375" xlink:href="#BitstreamVeraSans-Roman-30"/>
      <use x="1080.20898438" xlink:href="#BitstreamVeraSans-Roman-2e"/>
      <use x="1111.99609375" xlink:href="#BitstreamVeraSans-Roman-35"/>
     </g>
    </g>
    <g id="line2d_37">
     <path d="M 159.4625 52.140896 
L 170.6625 52.140896 
" style="fill:none;stroke:#455bb6;stroke-dasharray:3.000000,5.000000,1.000000,5.000000;stroke-dashoffset:0.0;"/>
    </g>
    <g id="line2d_38"/>
    <g id="text_17">
     <!-- LogitDistLoss -->
     <defs>
      <path d="M 45.40625 27.984375 
Q 45.40625 37.75 41.375 43.109375 
Q 37.359375 48.484375 30.078125 48.484375 
Q 22.859375 48.484375 18.828125 43.109375 
Q 14.796875 37.75 14.796875 27.984375 
Q 14.796875 18.265625 18.828125 12.890625 
Q 22.859375 7.515625 30.078125 7.515625 
Q 37.359375 7.515625 41.375 12.890625 
Q 45.40625 18.265625 45.40625 27.984375 
M 54.390625 6.78125 
Q 54.390625 -7.171875 48.1875 -13.984375 
Q 42 -20.796875 29.203125 -20.796875 
Q 24.46875 -20.796875 20.265625 -20.09375 
Q 16.0625 -19.390625 12.109375 -17.921875 
L 12.109375 -9.1875 
Q 16.0625 -11.328125 19.921875 -12.34375 
Q 23.78125 -13.375 27.78125 -13.375 
Q 36.625 -13.375 41.015625 -8.765625 
Q 45.40625 -4.15625 45.40625 5.171875 
L 45.40625 9.625 
Q 42.625 4.78125 38.28125 2.390625 
Q 33.9375 0 27.875 0 
Q 17.828125 0 11.671875 7.65625 
Q 5.515625 15.328125 5.515625 27.984375 
Q 5.515625 40.671875 11.671875 48.328125 
Q 17.828125 56 27.875 56 
Q 33.9375 56 38.28125 53.609375 
Q 42.625 51.21875 45.40625 46.390625 
L 45.40625 54.6875 
L 54.390625 54.6875 
z
" id="BitstreamVeraSans-Roman-67"/>
     </defs>
     <g transform="translate(179.4625 54.9408956693)scale(0.08 -0.08)">
      <use xlink:href="#BitstreamVeraSans-Roman-4c"/>
      <use x="55.697265625" xlink:href="#BitstreamVeraSans-Roman-6f"/>
      <use x="116.87890625" xlink:href="#BitstreamVeraSans-Roman-67"/>
      <use x="180.35546875" xlink:href="#BitstreamVeraSans-Roman-69"/>
      <use x="208.138671875" xlink:href="#BitstreamVeraSans-Roman-74"/>
      <use x="247.34765625" xlink:href="#BitstreamVeraSans-Roman-44"/>
      <use x="324.349609375" xlink:href="#BitstreamVeraSans-Roman-69"/>
      <use x="352.1328125" xlink:href="#BitstreamVeraSans-Roman-73"/>
      <use x="404.232421875" xlink:href="#BitstreamVeraSans-Roman-74"/>
      <use x="443.44140625" xlink:href="#BitstreamVeraSans-Roman-4c"/>
      <use x="499.138671875" xlink:href="#BitstreamVeraSans-Roman-6f"/>
      <use x="560.3203125" xlink:href="#BitstreamVeraSans-Roman-73"/>
      <use x="612.419921875" xlink:href="#BitstreamVeraSans-Roman-73"/>
     </g>
    </g>
    <g id="line2d_39">
     <path d="M 159.4625 63.883396 
L 170.6625 63.883396 
" style="fill:none;stroke:#d9ac00;stroke-dasharray:6.000000,6.000000;stroke-dashoffset:0.0;"/>
    </g>
    <g id="line2d_40"/>
    <g id="text_18">
     <!-- HuberLoss -->
     <defs>
      <path d="M 56.203125 29.59375 
L 56.203125 25.203125 
L 14.890625 25.203125 
Q 15.484375 15.921875 20.484375 11.0625 
Q 25.484375 6.203125 34.421875 6.203125 
Q 39.59375 6.203125 44.453125 7.46875 
Q 49.3125 8.734375 54.109375 11.28125 
L 54.109375 2.78125 
Q 49.265625 0.734375 44.1875 -0.34375 
Q 39.109375 -1.421875 33.890625 -1.421875 
Q 20.796875 -1.421875 13.15625 6.1875 
Q 5.515625 13.8125 5.515625 26.8125 
Q 5.515625 40.234375 12.765625 48.109375 
Q 20.015625 56 32.328125 56 
Q 43.359375 56 49.78125 48.890625 
Q 56.203125 41.796875 56.203125 29.59375 
M 47.21875 32.234375 
Q 47.125 39.59375 43.09375 43.984375 
Q 39.0625 48.390625 32.421875 48.390625 
Q 24.90625 48.390625 20.390625 44.140625 
Q 15.875 39.890625 15.1875 32.171875 
z
" id="BitstreamVeraSans-Roman-65"/>
      <path d="M 41.109375 46.296875 
Q 39.59375 47.171875 37.8125 47.578125 
Q 36.03125 48 33.890625 48 
Q 26.265625 48 22.1875 43.046875 
Q 18.109375 38.09375 18.109375 28.8125 
L 18.109375 0 
L 9.078125 0 
L 9.078125 54.6875 
L 18.109375 54.6875 
L 18.109375 46.1875 
Q 20.953125 51.171875 25.484375 53.578125 
Q 30.03125 56 36.53125 56 
Q 37.453125 56 38.578125 55.875 
Q 39.703125 55.765625 41.0625 55.515625 
z
" id="BitstreamVeraSans-Roman-72"/>
      <path d="M 8.5 21.578125 
L 8.5 54.6875 
L 17.484375 54.6875 
L 17.484375 21.921875 
Q 17.484375 14.15625 20.5 10.265625 
Q 23.53125 6.390625 29.59375 6.390625 
Q 36.859375 6.390625 41.078125 11.03125 
Q 45.3125 15.671875 45.3125 23.6875 
L 45.3125 54.6875 
L 54.296875 54.6875 
L 54.296875 0 
L 45.3125 0 
L 45.3125 8.40625 
Q 42.046875 3.421875 37.71875 1 
Q 33.40625 -1.421875 27.6875 -1.421875 
Q 18.265625 -1.421875 13.375 4.4375 
Q 8.5 10.296875 8.5 21.578125 
" id="BitstreamVeraSans-Roman-75"/>
      <path d="M 48.6875 27.296875 
Q 48.6875 37.203125 44.609375 42.84375 
Q 40.53125 48.484375 33.40625 48.484375 
Q 26.265625 48.484375 22.1875 42.84375 
Q 18.109375 37.203125 18.109375 27.296875 
Q 18.109375 17.390625 22.1875 11.75 
Q 26.265625 6.109375 33.40625 6.109375 
Q 40.53125 6.109375 44.609375 11.75 
Q 48.6875 17.390625 48.6875 27.296875 
M 18.109375 46.390625 
Q 20.953125 51.265625 25.265625 53.625 
Q 29.59375 56 35.59375 56 
Q 45.5625 56 51.78125 48.09375 
Q 58.015625 40.1875 58.015625 27.296875 
Q 58.015625 14.40625 51.78125 6.484375 
Q 45.5625 -1.421875 35.59375 -1.421875 
Q 29.59375 -1.421875 25.265625 0.953125 
Q 20.953125 3.328125 18.109375 8.203125 
L 18.109375 0 
L 9.078125 0 
L 9.078125 75.984375 
L 18.109375 75.984375 
z
" id="BitstreamVeraSans-Roman-62"/>
      <path d="M 9.8125 72.90625 
L 19.671875 72.90625 
L 19.671875 43.015625 
L 55.515625 43.015625 
L 55.515625 72.90625 
L 65.375 72.90625 
L 65.375 0 
L 55.515625 0 
L 55.515625 34.71875 
L 19.671875 34.71875 
L 19.671875 0 
L 9.8125 0 
z
" id="BitstreamVeraSans-Roman-48"/>
     </defs>
     <g transform="translate(179.4625 66.6833956693)scale(0.08 -0.08)">
      <use xlink:href="#BitstreamVeraSans-Roman-48"/>
      <use x="75.1953125" xlink:href="#BitstreamVeraSans-Roman-75"/>
      <use x="138.57421875" xlink:href="#BitstreamVeraSans-Roman-62"/>
      <use x="202.05078125" xlink:href="#BitstreamVeraSans-Roman-65"/>
      <use x="263.57421875" xlink:href="#BitstreamVeraSans-Roman-72"/>
      <use x="304.6875" xlink:href="#BitstreamVeraSans-Roman-4c"/>
      <use x="360.384765625" xlink:href="#BitstreamVeraSans-Roman-6f"/>
      <use x="421.56640625" xlink:href="#BitstreamVeraSans-Roman-73"/>
      <use x="473.666015625" xlink:href="#BitstreamVeraSans-Roman-73"/>
     </g>
    </g>
    <g id="line2d_41">
     <path d="M 159.4625 75.627146 
L 170.6625 75.627146 
" style="fill:none;stroke:#6820cc;stroke-linecap:round;"/>
    </g>
    <g id="line2d_42"/>
    <g id="text_19">
     <!-- L1EpsilonInsLoss with $\varepsilon$ = 1.0 -->
     <defs>
      <path d="M 54.890625 33.015625 
L 54.890625 0 
L 45.90625 0 
L 45.90625 32.71875 
Q 45.90625 40.484375 42.875 44.328125 
Q 39.84375 48.1875 33.796875 48.1875 
Q 26.515625 48.1875 22.3125 43.546875 
Q 18.109375 38.921875 18.109375 30.90625 
L 18.109375 0 
L 9.078125 0 
L 9.078125 54.6875 
L 18.109375 54.6875 
L 18.109375 46.1875 
Q 21.34375 51.125 25.703125 53.5625 
Q 30.078125 56 35.796875 56 
Q 45.21875 56 50.046875 50.171875 
Q 54.890625 44.34375 54.890625 33.015625 
" id="BitstreamVeraSans-Roman-6e"/>
      <path d="M 9.421875 75.984375 
L 18.40625 75.984375 
L 18.40625 0 
L 9.421875 0 
z
" id="BitstreamVeraSans-Roman-6c"/>
      <path d="M 2.6875 10.40625 
Q 2.6875 13.140625 3.875 15.71875 
Q 5.078125 18.3125 7 20.359375 
Q 8.9375 22.40625 11.53125 24.03125 
Q 7.71875 26.65625 7.71875 30.8125 
Q 7.71875 35.25 11.421875 38.59375 
Q 15.140625 41.9375 20.5 43.625 
Q 25.875 45.3125 30.171875 45.3125 
Q 31.984375 45.3125 35.03125 44.5 
Q 38.09375 43.703125 40.375 42.375 
Q 42.671875 41.0625 42.671875 39.5 
Q 42.671875 38.328125 41.765625 37.421875 
Q 40.875 36.53125 39.796875 36.53125 
Q 39.359375 36.53125 37.578125 37.578125 
Q 35.796875 38.625 33.78125 39.453125 
Q 31.78125 40.28125 29.390625 40.28125 
Q 25.78125 40.28125 21.453125 39.421875 
Q 17.140625 38.578125 13.859375 36.453125 
Q 10.59375 34.328125 10.59375 30.90625 
Q 10.59375 27.640625 14.3125 25.390625 
Q 18.5 27.296875 22.90625 27.296875 
Q 30.71875 27.296875 30.71875 24.515625 
Q 30.71875 22.3125 28.046875 21.703125 
Q 25.390625 21.09375 21.921875 21.09375 
Q 17.234375 21.09375 14.203125 22.515625 
Q 10.890625 20.75 8.296875 17.578125 
Q 5.71875 14.40625 5.71875 10.984375 
Q 5.71875 7.765625 7.890625 5.953125 
Q 10.0625 4.15625 13.234375 3.46875 
Q 16.40625 2.78125 19.578125 2.78125 
Q 25.09375 2.78125 29.34375 3.96875 
Q 33.59375 5.171875 35.5 8.984375 
Q 35.796875 9.625 36.625 9.625 
Q 37.703125 9.28125 37.703125 8.296875 
Q 37.703125 8.203125 37.40625 7.328125 
Q 35.796875 4.15625 32.84375 2 
Q 29.890625 -0.140625 26.25 -1.171875 
Q 22.609375 -2.203125 18.796875 -2.203125 
Q 12.59375 -2.203125 7.640625 1.109375 
Q 2.6875 4.4375 2.6875 10.40625 
M 18.109375 24.03125 
Q 19.875 23.6875 22.125 23.6875 
Q 26.515625 23.6875 27.59375 24.3125 
Q 26.21875 24.703125 22.796875 24.703125 
Q 20.3125 24.703125 18.109375 24.03125 
" id="Cmmi10-22"/>
      <path d="M 9.8125 72.90625 
L 55.90625 72.90625 
L 55.90625 64.59375 
L 19.671875 64.59375 
L 19.671875 43.015625 
L 54.390625 43.015625 
L 54.390625 34.71875 
L 19.671875 34.71875 
L 19.671875 8.296875 
L 56.78125 8.296875 
L 56.78125 0 
L 9.8125 0 
z
" id="BitstreamVeraSans-Roman-45"/>
      <path d="M 18.109375 8.203125 
L 18.109375 -20.796875 
L 9.078125 -20.796875 
L 9.078125 54.6875 
L 18.109375 54.6875 
L 18.109375 46.390625 
Q 20.953125 51.265625 25.265625 53.625 
Q 29.59375 56 35.59375 56 
Q 45.5625 56 51.78125 48.09375 
Q 58.015625 40.1875 58.015625 27.296875 
Q 58.015625 14.40625 51.78125 6.484375 
Q 45.5625 -1.421875 35.59375 -1.421875 
Q 29.59375 -1.421875 25.265625 0.953125 
Q 20.953125 3.328125 18.109375 8.203125 
M 48.6875 27.296875 
Q 48.6875 37.203125 44.609375 42.84375 
Q 40.53125 48.484375 33.40625 48.484375 
Q 26.265625 48.484375 22.1875 42.84375 
Q 18.109375 37.203125 18.109375 27.296875 
Q 18.109375 17.390625 22.1875 11.75 
Q 26.265625 6.109375 33.40625 6.109375 
Q 40.53125 6.109375 44.609375 11.75 
Q 48.6875 17.390625 48.6875 27.296875 
" id="BitstreamVeraSans-Roman-70"/>
      <path d="M 9.8125 72.90625 
L 19.671875 72.90625 
L 19.671875 0 
L 9.8125 0 
z
" id="BitstreamVeraSans-Roman-49"/>
     </defs>
     <g transform="translate(179.4625 78.4271456693)scale(0.08 -0.08)">
      <use transform="translate(0.0 0.015625)" xlink:href="#BitstreamVeraSans-Roman-4c"/>
      <use transform="translate(55.712890625 0.015625)" xlink:href="#BitstreamVeraSans-Roman-31"/>
      <use transform="translate(119.3359375 0.015625)" xlink:href="#BitstreamVeraSans-Roman-45"/>
      <use transform="translate(182.51953125 0.015625)" xlink:href="#BitstreamVeraSans-Roman-70"/>
      <use transform="translate(245.99609375 0.015625)" xlink:href="#BitstreamVeraSans-Roman-73"/>
      <use transform="translate(298.095703125 0.015625)" xlink:href="#BitstreamVeraSans-Roman-69"/>
      <use transform="translate(325.87890625 0.015625)" xlink:href="#BitstreamVeraSans-Roman-6c"/>
      <use transform="translate(353.662109375 0.015625)" xlink:href="#BitstreamVeraSans-Roman-6f"/>
      <use transform="translate(414.84375 0.015625)" xlink:href="#BitstreamVeraSans-Roman-6e"/>
      <use transform="translate(478.22265625 0.015625)" xlink:href="#BitstreamVeraSans-Roman-49"/>
      <use transform="translate(507.71484375 0.015625)" xlink:href="#BitstreamVeraSans-Roman-6e"/>
      <use transform="translate(571.09375 0.015625)" xlink:href="#BitstreamVeraSans-Roman-73"/>
      <use transform="translate(623.193359375 0.015625)" xlink:href="#BitstreamVeraSans-Roman-4c"/>
      <use transform="translate(678.90625 0.015625)" xlink:href="#BitstreamVeraSans-Roman-6f"/>
      <use transform="translate(740.087890625 0.015625)" xlink:href="#BitstreamVeraSans-Roman-73"/>
      <use transform="translate(792.1875 0.015625)" xlink:href="#BitstreamVeraSans-Roman-73"/>
      <use transform="translate(844.287109375 0.015625)" xlink:href="#BitstreamVeraSans-Roman-20"/>
      <use transform="translate(876.07421875 0.015625)" xlink:href="#BitstreamVeraSans-Roman-77"/>
      <use transform="translate(957.861328125 0.015625)" xlink:href="#BitstreamVeraSans-Roman-69"/>
      <use transform="translate(985.64453125 0.015625)" xlink:href="#BitstreamVeraSans-Roman-74"/>
      <use transform="translate(1024.85351562 0.015625)" xlink:href="#BitstreamVeraSans-Roman-68"/>
      <use transform="translate(1088.23242188 0.015625)" xlink:href="#BitstreamVeraSans-Roman-20"/>
      <use transform="translate(1120.01953125 0.015625)" xlink:href="#Cmmi10-22"/>
      <use transform="translate(1166.6015625 0.015625)" xlink:href="#BitstreamVeraSans-Roman-20"/>
      <use transform="translate(1198.38867188 0.015625)" xlink:href="#BitstreamVeraSans-Roman-3d"/>
      <use transform="translate(1282.17773438 0.015625)" xlink:href="#BitstreamVeraSans-Roman-20"/>
      <use transform="translate(1313.96484375 0.015625)" xlink:href="#BitstreamVeraSans-Roman-31"/>
      <use transform="translate(1377.58789062 0.015625)" xlink:href="#BitstreamVeraSans-Roman-2e"/>
      <use transform="translate(1409.375 0.015625)" xlink:href="#BitstreamVeraSans-Roman-30"/>
     </g>
    </g>
    <g id="line2d_43">
     <path d="M 159.4625 87.387146 
L 170.6625 87.387146 
" style="fill:none;stroke:#86a600;stroke-linecap:round;"/>
    </g>
    <g id="line2d_44"/>
    <g id="text_20">
     <!-- L2EpsilonInsLoss with $\varepsilon$ = 1.0 -->
     <g transform="translate(179.4625 90.1871456693)scale(0.08 -0.08)">
      <use transform="translate(0.0 0.015625)" xlink:href="#BitstreamVeraSans-Roman-4c"/>
      <use transform="translate(55.712890625 0.015625)" xlink:href="#BitstreamVeraSans-Roman-32"/>
      <use transform="translate(119.3359375 0.015625)" xlink:href="#BitstreamVeraSans-Roman-45"/>
      <use transform="translate(182.51953125 0.015625)" xlink:href="#BitstreamVeraSans-Roman-70"/>
      <use transform="translate(245.99609375 0.015625)" xlink:href="#BitstreamVeraSans-Roman-73"/>
      <use transform="translate(298.095703125 0.015625)" xlink:href="#BitstreamVeraSans-Roman-69"/>
      <use transform="translate(325.87890625 0.015625)" xlink:href="#BitstreamVeraSans-Roman-6c"/>
      <use transform="translate(353.662109375 0.015625)" xlink:href="#BitstreamVeraSans-Roman-6f"/>
      <use transform="translate(414.84375 0.015625)" xlink:href="#BitstreamVeraSans-Roman-6e"/>
      <use transform="translate(478.22265625 0.015625)" xlink:href="#BitstreamVeraSans-Roman-49"/>
      <use transform="translate(507.71484375 0.015625)" xlink:href="#BitstreamVeraSans-Roman-6e"/>
      <use transform="translate(571.09375 0.015625)" xlink:href="#BitstreamVeraSans-Roman-73"/>
      <use transform="translate(623.193359375 0.015625)" xlink:href="#BitstreamVeraSans-Roman-4c"/>
      <use transform="translate(678.90625 0.015625)" xlink:href="#BitstreamVeraSans-Roman-6f"/>
      <use transform="translate(740.087890625 0.015625)" xlink:href="#BitstreamVeraSans-Roman-73"/>
      <use transform="translate(792.1875 0.015625)" xlink:href="#BitstreamVeraSans-Roman-73"/>
      <use transform="translate(844.287109375 0.015625)" xlink:href="#BitstreamVeraSans-Roman-20"/>
      <use transform="translate(876.07421875 0.015625)" xlink:href="#BitstreamVeraSans-Roman-77"/>
      <use transform="translate(957.861328125 0.015625)" xlink:href="#BitstreamVeraSans-Roman-69"/>
      <use transform="translate(985.64453125 0.015625)" xlink:href="#BitstreamVeraSans-Roman-74"/>
      <use transform="translate(1024.85351562 0.015625)" xlink:href="#BitstreamVeraSans-Roman-68"/>
      <use transform="translate(1088.23242188 0.015625)" xlink:href="#BitstreamVeraSans-Roman-20"/>
      <use transform="translate(1120.01953125 0.015625)" xlink:href="#Cmmi10-22"/>
      <use transform="translate(1166.6015625 0.015625)" xlink:href="#BitstreamVeraSans-Roman-20"/>
      <use transform="translate(1198.38867188 0.015625)" xlink:href="#BitstreamVeraSans-Roman-3d"/>
      <use transform="translate(1282.17773438 0.015625)" xlink:href="#BitstreamVeraSans-Roman-20"/>
      <use transform="translate(1313.96484375 0.015625)" xlink:href="#BitstreamVeraSans-Roman-31"/>
      <use transform="translate(1377.58789062 0.015625)" xlink:href="#BitstreamVeraSans-Roman-2e"/>
      <use transform="translate(1409.375 0.015625)" xlink:href="#BitstreamVeraSans-Roman-30"/>
     </g>
    </g>
    <g id="line2d_45">
     <path d="M 159.4625 99.145896 
L 170.6625 99.145896 
" style="fill:none;stroke:#008868;stroke-linecap:round;"/>
    </g>
    <g id="line2d_46"/>
    <g id="text_21">
     <!-- QuantileLoss with $\tau$ = 0.7 -->
     <defs>
      <path d="M 39.40625 66.21875 
Q 28.65625 66.21875 22.328125 58.203125 
Q 16.015625 50.203125 16.015625 36.375 
Q 16.015625 22.609375 22.328125 14.59375 
Q 28.65625 6.59375 39.40625 6.59375 
Q 50.140625 6.59375 56.421875 14.59375 
Q 62.703125 22.609375 62.703125 36.375 
Q 62.703125 50.203125 56.421875 58.203125 
Q 50.140625 66.21875 39.40625 66.21875 
M 53.21875 1.3125 
L 66.21875 -12.890625 
L 54.296875 -12.890625 
L 43.5 -1.21875 
Q 41.890625 -1.3125 41.03125 -1.359375 
Q 40.1875 -1.421875 39.40625 -1.421875 
Q 24.03125 -1.421875 14.8125 8.859375 
Q 5.609375 19.140625 5.609375 36.375 
Q 5.609375 53.65625 14.8125 63.9375 
Q 24.03125 74.21875 39.40625 74.21875 
Q 54.734375 74.21875 63.90625 63.9375 
Q 73.09375 53.65625 73.09375 36.375 
Q 73.09375 23.6875 67.984375 14.640625 
Q 62.890625 5.609375 53.21875 1.3125 
" id="BitstreamVeraSans-Roman-51"/>
      <path d="M 15.578125 1.515625 
Q 15.578125 2.203125 15.71875 2.59375 
L 26.21875 36.921875 
L 17.1875 36.921875 
Q 13.53125 36.921875 10.34375 34.625 
Q 7.171875 32.328125 5.078125 28.8125 
Q 4.890625 28.421875 4.5 28.421875 
L 3.328125 28.421875 
Q 2.390625 28.421875 2.390625 29.390625 
Q 2.390625 29.59375 2.59375 29.984375 
Q 5.859375 35.546875 9.59375 39.328125 
Q 13.328125 43.109375 18.015625 43.109375 
L 48.6875 43.109375 
Q 49.75 43.109375 50.484375 42.375 
Q 51.21875 41.65625 51.21875 40.578125 
Q 51.21875 39.109375 50.171875 38.015625 
Q 49.125 36.921875 47.609375 36.921875 
L 29.5 36.921875 
L 22.796875 2.390625 
Q 22.40625 0.78125 21.328125 -0.265625 
Q 20.265625 -1.3125 18.609375 -1.3125 
Q 17.328125 -1.3125 16.453125 -0.5 
Q 15.578125 0.296875 15.578125 1.515625 
" id="Cmmi10-bf"/>
      <path d="M 34.28125 27.484375 
Q 23.390625 27.484375 19.1875 25 
Q 14.984375 22.515625 14.984375 16.5 
Q 14.984375 11.71875 18.140625 8.90625 
Q 21.296875 6.109375 26.703125 6.109375 
Q 34.1875 6.109375 38.703125 11.40625 
Q 43.21875 16.703125 43.21875 25.484375 
L 43.21875 27.484375 
z
M 52.203125 31.203125 
L 52.203125 0 
L 43.21875 0 
L 43.21875 8.296875 
Q 40.140625 3.328125 35.546875 0.953125 
Q 30.953125 -1.421875 24.3125 -1.421875 
Q 15.921875 -1.421875 10.953125 3.296875 
Q 6 8.015625 6 15.921875 
Q 6 25.140625 12.171875 29.828125 
Q 18.359375 34.515625 30.609375 34.515625 
L 43.21875 34.515625 
L 43.21875 35.40625 
Q 43.21875 41.609375 39.140625 45 
Q 35.0625 48.390625 27.6875 48.390625 
Q 23 48.390625 18.546875 47.265625 
Q 14.109375 46.140625 10.015625 43.890625 
L 10.015625 52.203125 
Q 14.9375 54.109375 19.578125 55.046875 
Q 24.21875 56 28.609375 56 
Q 40.484375 56 46.34375 49.84375 
Q 52.203125 43.703125 52.203125 31.203125 
" id="BitstreamVeraSans-Roman-61"/>
      <path d="M 8.203125 72.90625 
L 55.078125 72.90625 
L 55.078125 68.703125 
L 28.609375 0 
L 18.3125 0 
L 43.21875 64.59375 
L 8.203125 64.59375 
z
" id="BitstreamVeraSans-Roman-37"/>
     </defs>
     <g transform="translate(179.4625 101.945895669)scale(0.08 -0.08)">
      <use transform="translate(0.0 0.015625)" xlink:href="#BitstreamVeraSans-Roman-51"/>
      <use transform="translate(78.7109375 0.015625)" xlink:href="#BitstreamVeraSans-Roman-75"/>
      <use transform="translate(142.08984375 0.015625)" xlink:href="#BitstreamVeraSans-Roman-61"/>
      <use transform="translate(203.369140625 0.015625)" xlink:href="#BitstreamVeraSans-Roman-6e"/>
      <use transform="translate(266.748046875 0.015625)" xlink:href="#BitstreamVeraSans-Roman-74"/>
      <use transform="translate(305.95703125 0.015625)" xlink:href="#BitstreamVeraSans-Roman-69"/>
      <use transform="translate(333.740234375 0.015625)" xlink:href="#BitstreamVeraSans-Roman-6c"/>
      <use transform="translate(361.5234375 0.015625)" xlink:href="#BitstreamVeraSans-Roman-65"/>
      <use transform="translate(423.046875 0.015625)" xlink:href="#BitstreamVeraSans-Roman-4c"/>
      <use transform="translate(478.759765625 0.015625)" xlink:href="#BitstreamVeraSans-Roman-6f"/>
      <use transform="translate(539.94140625 0.015625)" xlink:href="#BitstreamVeraSans-Roman-73"/>
      <use transform="translate(592.041015625 0.015625)" xlink:href="#BitstreamVeraSans-Roman-73"/>
      <use transform="translate(644.140625 0.015625)" xlink:href="#BitstreamVeraSans-Roman-20"/>
      <use transform="translate(675.927734375 0.015625)" xlink:href="#BitstreamVeraSans-Roman-77"/>
      <use transform="translate(757.71484375 0.015625)" xlink:href="#BitstreamVeraSans-Roman-69"/>
      <use transform="translate(785.498046875 0.015625)" xlink:href="#BitstreamVeraSans-Roman-74"/>
      <use transform="translate(824.70703125 0.015625)" xlink:href="#BitstreamVeraSans-Roman-68"/>
      <use transform="translate(888.0859375 0.015625)" xlink:href="#BitstreamVeraSans-Roman-20"/>
      <use transform="translate(919.873046875 0.015625)" xlink:href="#Cmmi10-bf"/>
      <use transform="translate(963.57421875 0.015625)" xlink:href="#BitstreamVeraSans-Roman-20"/>
      <use transform="translate(995.361328125 0.015625)" xlink:href="#BitstreamVeraSans-Roman-3d"/>
      <use transform="translate(1079.15039062 0.015625)" xlink:href="#BitstreamVeraSans-Roman-20"/>
      <use transform="translate(1110.9375 0.015625)" xlink:href="#BitstreamVeraSans-Roman-30"/>
      <use transform="translate(1174.56054688 0.015625)" xlink:href="#BitstreamVeraSans-Roman-2e"/>
      <use transform="translate(1206.23828125 0.015625)" xlink:href="#BitstreamVeraSans-Roman-37"/>
     </g>
    </g>
   </g>
  </g>
 </g>
 <defs>
  <clipPath id="pfa6765a7cf">
   <rect height="251.730708661" width="398.835708661" x="27.7646456693" y="6.43464566929"/>
  </clipPath>
 </defs>
</svg>
