<?xml version="1.0" encoding="utf-8" standalone="no"?>
<!DOCTYPE svg PUBLIC "-//W3C//DTD SVG 1.1//EN"
  "http://www.w3.org/Graphics/SVG/1.1/DTD/svg11.dtd">
<!-- Created with matplotlib (http://matplotlib.org/) -->
<svg height="288pt" version="1.1" viewBox="0 0 432 288" width="432pt" xmlns="http://www.w3.org/2000/svg" xmlns:xlink="http://www.w3.org/1999/xlink">
 <defs>
  <style type="text/css">
*{stroke-linecap:butt;stroke-linejoin:round;stroke-miterlimit:100000;}
  </style>
 </defs>
 <g id="figure_1">
  <g id="patch_1">
   <path d="M 0 288 
L 432 288 
L 432 0 
L 0 0 
L 0 288 
z
" style="fill:none;"/>
  </g>
  <g id="axes_1">
   <g id="patch_2">
    <path d="M 31.364646 255.755354 
L 426.600354 255.755354 
L 426.600354 6.434646 
L 31.364646 6.434646 
z
" style="fill:#ffffff;"/>
   </g>
   <g id="line2d_1">
    <path clip-path="url(#p8907ffa7b6)" d="M 116.875832 -1 
L 121.774814 20.950097 
L 126.71526 42.092493 
L 131.655707 62.237607 
L 136.596153 81.385437 
L 141.042555 97.765808 
L 145.488957 113.338379 
L 149.935358 128.103151 
L 154.38176 142.060125 
L 158.334117 153.788171 
L 162.286474 164.877956 
L 166.238831 175.32948 
L 170.191188 185.142743 
L 174.143545 194.317745 
L 177.601858 201.822299 
L 181.06017 208.838183 
L 184.518483 215.3654 
L 187.976795 221.403947 
L 191.435108 226.953826 
L 194.399375 231.321925 
L 197.363643 235.331002 
L 200.327911 238.981057 
L 203.292179 242.27209 
L 206.256447 245.204102 
L 209.220715 247.777092 
L 211.690938 249.646997 
L 214.161161 251.267582 
L 216.631384 252.638845 
L 219.101607 253.760789 
L 221.57183 254.633411 
L 224.042054 255.256713 
L 226.512277 255.630694 
L 228.9825 255.755354 
L 231.452723 255.630694 
L 233.922946 255.256713 
L 236.39317 254.633411 
L 238.863393 253.760789 
L 241.333616 252.638845 
L 243.803839 251.267582 
L 246.274062 249.646997 
L 248.744285 247.777092 
L 251.214509 245.657866 
L 254.178776 242.785691 
L 257.143044 239.554495 
L 260.107312 235.964276 
L 263.07158 232.015036 
L 266.035848 227.706775 
L 269.000116 223.039491 
L 272.458428 217.140563 
L 275.91674 210.752966 
L 279.375053 203.876701 
L 282.833365 196.511768 
L 286.291678 188.658165 
L 290.244035 179.08425 
L 294.196392 168.872074 
L 298.148749 158.021637 
L 302.101106 146.532938 
L 306.053463 134.405979 
L 310.499865 120.000228 
L 314.946267 104.786679 
L 319.392668 88.76533 
L 323.83907 71.936182 
L 328.285472 54.299235 
L 333.225918 33.755209 
L 338.166365 12.2139 
L 341.089168 -1 
L 341.089168 -1 
" style="fill:none;stroke:#00008b;stroke-dasharray:6.000000,6.000000;stroke-dashoffset:0.0;"/>
   </g>
   <g id="line2d_2">
    <path clip-path="url(#p8907ffa7b6)" d="M 31.364646 56.298787 
L 228.9825 255.755354 
L 426.600354 56.298787 
L 426.600354 56.298787 
" style="fill:none;stroke:#cc0000;stroke-linecap:round;"/>
   </g>
   <g id="patch_3">
    <path d="M 31.364646 6.434646 
L 426.600354 6.434646 
" style="fill:none;stroke:#000000;stroke-linecap:square;stroke-linejoin:miter;"/>
   </g>
   <g id="patch_4">
    <path d="M 426.600354 255.755354 
L 426.600354 6.434646 
" style="fill:none;stroke:#000000;stroke-linecap:square;stroke-linejoin:miter;"/>
   </g>
   <g id="patch_5">
    <path d="M 31.364646 255.755354 
L 426.600354 255.755354 
" style="fill:none;stroke:#000000;stroke-linecap:square;stroke-linejoin:miter;"/>
   </g>
   <g id="patch_6">
    <path d="M 31.364646 255.755354 
L 31.364646 6.434646 
" style="fill:none;stroke:#000000;stroke-linecap:square;stroke-linejoin:miter;"/>
   </g>
   <g id="matplotlib.axis_1">
    <g id="xtick_1">
     <g id="line2d_3">
      <defs>
       <path d="M 0 0 
L 0 -4 
" id="m7da196b3be" style="stroke:#000000;stroke-width:0.5;"/>
      </defs>
      <g>
       <use style="stroke:#000000;stroke-width:0.5;" x="31.3646456693" xlink:href="#m7da196b3be" y="255.755354331"/>
      </g>
     </g>
     <g id="line2d_4">
      <defs>
       <path d="M 0 0 
L 0 4 
" id="m509e98158a" style="stroke:#000000;stroke-width:0.5;"/>
      </defs>
      <g>
       <use style="stroke:#000000;stroke-width:0.5;" x="31.3646456693" xlink:href="#m509e98158a" y="6.43464566929"/>
      </g>
     </g>
     <g id="text_1">
      <!-- -4 -->
      <defs>
       <path d="M 4.890625 31.390625 
L 31.203125 31.390625 
L 31.203125 23.390625 
L 4.890625 23.390625 
z
" id="BitstreamVeraSans-Roman-2d"/>
       <path d="M 37.796875 64.3125 
L 12.890625 25.390625 
L 37.796875 25.390625 
z
M 35.203125 72.90625 
L 47.609375 72.90625 
L 47.609375 25.390625 
L 58.015625 25.390625 
L 58.015625 17.1875 
L 47.609375 17.1875 
L 47.609375 0 
L 37.796875 0 
L 37.796875 17.1875 
L 4.890625 17.1875 
L 4.890625 26.703125 
z
" id="BitstreamVeraSans-Roman-34"/>
      </defs>
      <g transform="translate(27.3765206693 265.834104331)scale(0.08 -0.08)">
       <use xlink:href="#BitstreamVeraSans-Roman-2d"/>
       <use x="36.083984375" xlink:href="#BitstreamVeraSans-Roman-34"/>
      </g>
     </g>
    </g>
    <g id="xtick_2">
     <g id="line2d_5">
      <g>
       <use style="stroke:#000000;stroke-width:0.5;" x="130.173572835" xlink:href="#m7da196b3be" y="255.755354331"/>
      </g>
     </g>
     <g id="line2d_6">
      <g>
       <use style="stroke:#000000;stroke-width:0.5;" x="130.173572835" xlink:href="#m509e98158a" y="6.43464566929"/>
      </g>
     </g>
     <g id="text_2">
      <!-- -2 -->
      <defs>
       <path d="M 19.1875 8.296875 
L 53.609375 8.296875 
L 53.609375 0 
L 7.328125 0 
L 7.328125 8.296875 
Q 12.9375 14.109375 22.625 23.890625 
Q 32.328125 33.6875 34.8125 36.53125 
Q 39.546875 41.84375 41.421875 45.53125 
Q 43.3125 49.21875 43.3125 52.78125 
Q 43.3125 58.59375 39.234375 62.25 
Q 35.15625 65.921875 28.609375 65.921875 
Q 23.96875 65.921875 18.8125 64.3125 
Q 13.671875 62.703125 7.8125 59.421875 
L 7.8125 69.390625 
Q 13.765625 71.78125 18.9375 73 
Q 24.125 74.21875 28.421875 74.21875 
Q 39.75 74.21875 46.484375 68.546875 
Q 53.21875 62.890625 53.21875 53.421875 
Q 53.21875 48.921875 51.53125 44.890625 
Q 49.859375 40.875 45.40625 35.40625 
Q 44.1875 33.984375 37.640625 27.21875 
Q 31.109375 20.453125 19.1875 8.296875 
" id="BitstreamVeraSans-Roman-32"/>
      </defs>
      <g transform="translate(126.185447835 265.834104331)scale(0.08 -0.08)">
       <use xlink:href="#BitstreamVeraSans-Roman-2d"/>
       <use x="36.083984375" xlink:href="#BitstreamVeraSans-Roman-32"/>
      </g>
     </g>
    </g>
    <g id="xtick_3">
     <g id="line2d_7">
      <g>
       <use style="stroke:#000000;stroke-width:0.5;" x="228.9825" xlink:href="#m7da196b3be" y="255.755354331"/>
      </g>
     </g>
     <g id="line2d_8">
      <g>
       <use style="stroke:#000000;stroke-width:0.5;" x="228.9825" xlink:href="#m509e98158a" y="6.43464566929"/>
      </g>
     </g>
     <g id="text_3">
      <!-- 0 -->
      <defs>
       <path d="M 31.78125 66.40625 
Q 24.171875 66.40625 20.328125 58.90625 
Q 16.5 51.421875 16.5 36.375 
Q 16.5 21.390625 20.328125 13.890625 
Q 24.171875 6.390625 31.78125 6.390625 
Q 39.453125 6.390625 43.28125 13.890625 
Q 47.125 21.390625 47.125 36.375 
Q 47.125 51.421875 43.28125 58.90625 
Q 39.453125 66.40625 31.78125 66.40625 
M 31.78125 74.21875 
Q 44.046875 74.21875 50.515625 64.515625 
Q 56.984375 54.828125 56.984375 36.375 
Q 56.984375 17.96875 50.515625 8.265625 
Q 44.046875 -1.421875 31.78125 -1.421875 
Q 19.53125 -1.421875 13.0625 8.265625 
Q 6.59375 17.96875 6.59375 36.375 
Q 6.59375 54.828125 13.0625 64.515625 
Q 19.53125 74.21875 31.78125 74.21875 
" id="BitstreamVeraSans-Roman-30"/>
      </defs>
      <g transform="translate(226.4375 265.834104331)scale(0.08 -0.08)">
       <use xlink:href="#BitstreamVeraSans-Roman-30"/>
      </g>
     </g>
    </g>
    <g id="xtick_4">
     <g id="line2d_9">
      <g>
       <use style="stroke:#000000;stroke-width:0.5;" x="327.791427165" xlink:href="#m7da196b3be" y="255.755354331"/>
      </g>
     </g>
     <g id="line2d_10">
      <g>
       <use style="stroke:#000000;stroke-width:0.5;" x="327.791427165" xlink:href="#m509e98158a" y="6.43464566929"/>
      </g>
     </g>
     <g id="text_4">
      <!-- 2 -->
      <g transform="translate(325.246427165 265.834104331)scale(0.08 -0.08)">
       <use xlink:href="#BitstreamVeraSans-Roman-32"/>
      </g>
     </g>
    </g>
    <g id="xtick_5">
     <g id="line2d_11">
      <g>
       <use style="stroke:#000000;stroke-width:0.5;" x="426.600354331" xlink:href="#m7da196b3be" y="255.755354331"/>
      </g>
     </g>
     <g id="line2d_12">
      <g>
       <use style="stroke:#000000;stroke-width:0.5;" x="426.600354331" xlink:href="#m509e98158a" y="6.43464566929"/>
      </g>
     </g>
     <g id="text_5">
      <!-- 4 -->
      <g transform="translate(424.055354331 265.834104331)scale(0.08 -0.08)">
       <use xlink:href="#BitstreamVeraSans-Roman-34"/>
      </g>
     </g>
    </g>
    <g id="text_6">
     <!-- $\hat{y} - y$ -->
     <defs>
      <path d="M 13.484375 53.8125 
L 11.53125 55.90625 
L 25 69.390625 
L 38.375 55.90625 
L 36.375 53.8125 
L 25 63.8125 
z
" id="Cmr10-5e"/>
      <path d="M 10.203125 23 
Q 9.375 23 8.828125 23.625 
Q 8.296875 24.265625 8.296875 25 
Q 8.296875 25.734375 8.828125 26.359375 
Q 9.375 27 10.203125 27 
L 67.578125 27 
Q 68.359375 27 68.875 26.359375 
Q 69.390625 25.734375 69.390625 25 
Q 69.390625 24.265625 68.875 23.625 
Q 68.359375 23 67.578125 23 
z
" id="Cmsy10-a1"/>
      <path d="M 8.40625 -14.3125 
Q 10.5 -17.921875 15.71875 -17.921875 
Q 20.453125 -17.921875 23.921875 -14.59375 
Q 27.390625 -11.28125 29.515625 -6.5625 
Q 31.640625 -1.859375 32.8125 3.078125 
Q 28.375 -1.125 23.1875 -1.125 
Q 19.234375 -1.125 16.453125 0.234375 
Q 13.671875 1.609375 12.125 4.3125 
Q 10.59375 7.03125 10.59375 10.890625 
Q 10.59375 14.15625 11.46875 17.59375 
Q 12.359375 21.046875 13.9375 25.265625 
Q 15.53125 29.5 16.703125 32.625 
Q 18.015625 36.28125 18.015625 38.625 
Q 18.015625 41.609375 15.828125 41.609375 
Q 11.859375 41.609375 9.296875 37.53125 
Q 6.734375 33.453125 5.515625 28.421875 
Q 5.328125 27.78125 4.6875 27.78125 
L 3.515625 27.78125 
Q 2.6875 27.78125 2.6875 28.71875 
L 2.6875 29 
Q 4.296875 34.96875 7.609375 39.578125 
Q 10.9375 44.1875 16.015625 44.1875 
Q 19.578125 44.1875 22.046875 41.84375 
Q 24.515625 39.5 24.515625 35.890625 
Q 24.515625 34.03125 23.6875 31.984375 
Q 23.25 30.765625 21.6875 26.65625 
Q 20.125 22.5625 19.28125 19.875 
Q 18.453125 17.1875 17.921875 14.59375 
Q 17.390625 12.015625 17.390625 9.421875 
Q 17.390625 6.109375 18.796875 3.8125 
Q 20.21875 1.515625 23.296875 1.515625 
Q 29.5 1.515625 34.421875 9.078125 
L 42 39.890625 
Q 42.328125 41.21875 43.546875 42.15625 
Q 44.78125 43.109375 46.1875 43.109375 
Q 47.40625 43.109375 48.3125 42.328125 
Q 49.21875 41.546875 49.21875 40.28125 
Q 49.21875 39.703125 49.125 39.5 
L 39.203125 -0.296875 
Q 37.890625 -5.421875 34.375 -10.109375 
Q 30.859375 -14.796875 25.90625 -17.65625 
Q 20.953125 -20.515625 15.578125 -20.515625 
Q 12.984375 -20.515625 10.4375 -19.5 
Q 7.90625 -18.5 6.34375 -16.5 
Q 4.78125 -14.5 4.78125 -11.8125 
Q 4.78125 -9.078125 6.390625 -7.078125 
Q 8.015625 -5.078125 10.6875 -5.078125 
Q 12.3125 -5.078125 13.40625 -6.078125 
Q 14.5 -7.078125 14.5 -8.6875 
Q 14.5 -10.984375 12.78125 -12.6875 
Q 11.078125 -14.40625 8.796875 -14.40625 
Q 8.6875 -14.359375 8.59375 -14.328125 
Q 8.5 -14.3125 8.40625 -14.3125 
" id="Cmmi10-79"/>
     </defs>
     <g transform="translate(217.3775 280.833791831)scale(0.11 -0.11)">
      <use transform="translate(5.724609375 3.609375)" xlink:href="#Cmr10-5e"/>
      <use transform="translate(0.0 0.734375)" xlink:href="#Cmmi10-79"/>
      <use transform="translate(66.58203125 0.734375)" xlink:href="#Cmsy10-a1"/>
      <use transform="translate(161.826171875 0.734375)" xlink:href="#Cmmi10-79"/>
     </g>
    </g>
   </g>
   <g id="matplotlib.axis_2">
    <g id="ytick_1">
     <g id="line2d_13">
      <defs>
       <path d="M 0 0 
L 4 0 
" id="mffe25eec87" style="stroke:#000000;stroke-width:0.5;"/>
      </defs>
      <g>
       <use style="stroke:#000000;stroke-width:0.5;" x="31.3646456693" xlink:href="#mffe25eec87" y="255.755354331"/>
      </g>
     </g>
     <g id="line2d_14">
      <defs>
       <path d="M 0 0 
L -4 0 
" id="mb36c897b0b" style="stroke:#000000;stroke-width:0.5;"/>
      </defs>
      <g>
       <use style="stroke:#000000;stroke-width:0.5;" x="426.600354331" xlink:href="#mb36c897b0b" y="255.755354331"/>
      </g>
     </g>
     <g id="text_7">
      <!-- 0 -->
      <g transform="translate(22.2746456693 257.962854331)scale(0.08 -0.08)">
       <use xlink:href="#BitstreamVeraSans-Roman-30"/>
      </g>
     </g>
    </g>
    <g id="ytick_2">
     <g id="line2d_15">
      <g>
       <use style="stroke:#000000;stroke-width:0.5;" x="31.3646456693" xlink:href="#mffe25eec87" y="205.891212598"/>
      </g>
     </g>
     <g id="line2d_16">
      <g>
       <use style="stroke:#000000;stroke-width:0.5;" x="426.600354331" xlink:href="#mb36c897b0b" y="205.891212598"/>
      </g>
     </g>
     <g id="text_8">
      <!-- 1 -->
      <defs>
       <path d="M 12.40625 8.296875 
L 28.515625 8.296875 
L 28.515625 63.921875 
L 10.984375 60.40625 
L 10.984375 69.390625 
L 28.421875 72.90625 
L 38.28125 72.90625 
L 38.28125 8.296875 
L 54.390625 8.296875 
L 54.390625 0 
L 12.40625 0 
z
" id="BitstreamVeraSans-Roman-31"/>
      </defs>
      <g transform="translate(22.2746456693 208.098712598)scale(0.08 -0.08)">
       <use xlink:href="#BitstreamVeraSans-Roman-31"/>
      </g>
     </g>
    </g>
    <g id="ytick_3">
     <g id="line2d_17">
      <g>
       <use style="stroke:#000000;stroke-width:0.5;" x="31.3646456693" xlink:href="#mffe25eec87" y="156.027070866"/>
      </g>
     </g>
     <g id="line2d_18">
      <g>
       <use style="stroke:#000000;stroke-width:0.5;" x="426.600354331" xlink:href="#mb36c897b0b" y="156.027070866"/>
      </g>
     </g>
     <g id="text_9">
      <!-- 2 -->
      <g transform="translate(22.2746456693 158.234570866)scale(0.08 -0.08)">
       <use xlink:href="#BitstreamVeraSans-Roman-32"/>
      </g>
     </g>
    </g>
    <g id="ytick_4">
     <g id="line2d_19">
      <g>
       <use style="stroke:#000000;stroke-width:0.5;" x="31.3646456693" xlink:href="#mffe25eec87" y="106.162929134"/>
      </g>
     </g>
     <g id="line2d_20">
      <g>
       <use style="stroke:#000000;stroke-width:0.5;" x="426.600354331" xlink:href="#mb36c897b0b" y="106.162929134"/>
      </g>
     </g>
     <g id="text_10">
      <!-- 3 -->
      <defs>
       <path d="M 40.578125 39.3125 
Q 47.65625 37.796875 51.625 33 
Q 55.609375 28.21875 55.609375 21.1875 
Q 55.609375 10.40625 48.1875 4.484375 
Q 40.765625 -1.421875 27.09375 -1.421875 
Q 22.515625 -1.421875 17.65625 -0.515625 
Q 12.796875 0.390625 7.625 2.203125 
L 7.625 11.71875 
Q 11.71875 9.328125 16.59375 8.109375 
Q 21.484375 6.890625 26.8125 6.890625 
Q 36.078125 6.890625 40.9375 10.546875 
Q 45.796875 14.203125 45.796875 21.1875 
Q 45.796875 27.640625 41.28125 31.265625 
Q 36.765625 34.90625 28.71875 34.90625 
L 20.21875 34.90625 
L 20.21875 43.015625 
L 29.109375 43.015625 
Q 36.375 43.015625 40.234375 45.921875 
Q 44.09375 48.828125 44.09375 54.296875 
Q 44.09375 59.90625 40.109375 62.90625 
Q 36.140625 65.921875 28.71875 65.921875 
Q 24.65625 65.921875 20.015625 65.03125 
Q 15.375 64.15625 9.8125 62.3125 
L 9.8125 71.09375 
Q 15.4375 72.65625 20.34375 73.4375 
Q 25.25 74.21875 29.59375 74.21875 
Q 40.828125 74.21875 47.359375 69.109375 
Q 53.90625 64.015625 53.90625 55.328125 
Q 53.90625 49.265625 50.4375 45.09375 
Q 46.96875 40.921875 40.578125 39.3125 
" id="BitstreamVeraSans-Roman-33"/>
      </defs>
      <g transform="translate(22.2746456693 108.370429134)scale(0.08 -0.08)">
       <use xlink:href="#BitstreamVeraSans-Roman-33"/>
      </g>
     </g>
    </g>
    <g id="ytick_5">
     <g id="line2d_21">
      <g>
       <use style="stroke:#000000;stroke-width:0.5;" x="31.3646456693" xlink:href="#mffe25eec87" y="56.2987874016"/>
      </g>
     </g>
     <g id="line2d_22">
      <g>
       <use style="stroke:#000000;stroke-width:0.5;" x="426.600354331" xlink:href="#mb36c897b0b" y="56.2987874016"/>
      </g>
     </g>
     <g id="text_11">
      <!-- 4 -->
      <g transform="translate(22.2746456693 58.5062874016)scale(0.08 -0.08)">
       <use xlink:href="#BitstreamVeraSans-Roman-34"/>
      </g>
     </g>
    </g>
    <g id="ytick_6">
     <g id="line2d_23">
      <g>
       <use style="stroke:#000000;stroke-width:0.5;" x="31.3646456693" xlink:href="#mffe25eec87" y="6.43464566929"/>
      </g>
     </g>
     <g id="line2d_24">
      <g>
       <use style="stroke:#000000;stroke-width:0.5;" x="426.600354331" xlink:href="#mb36c897b0b" y="6.43464566929"/>
      </g>
     </g>
     <g id="text_12">
      <!-- 5 -->
      <defs>
       <path d="M 10.796875 72.90625 
L 49.515625 72.90625 
L 49.515625 64.59375 
L 19.828125 64.59375 
L 19.828125 46.734375 
Q 21.96875 47.46875 24.109375 47.828125 
Q 26.265625 48.1875 28.421875 48.1875 
Q 40.625 48.1875 47.75 41.5 
Q 54.890625 34.8125 54.890625 23.390625 
Q 54.890625 11.625 47.5625 5.09375 
Q 40.234375 -1.421875 26.90625 -1.421875 
Q 22.3125 -1.421875 17.546875 -0.640625 
Q 12.796875 0.140625 7.71875 1.703125 
L 7.71875 11.625 
Q 12.109375 9.234375 16.796875 8.0625 
Q 21.484375 6.890625 26.703125 6.890625 
Q 35.15625 6.890625 40.078125 11.328125 
Q 45.015625 15.765625 45.015625 23.390625 
Q 45.015625 31 40.078125 35.4375 
Q 35.15625 39.890625 26.703125 39.890625 
Q 22.75 39.890625 18.8125 39.015625 
Q 14.890625 38.140625 10.796875 36.28125 
z
" id="BitstreamVeraSans-Roman-35"/>
      </defs>
      <g transform="translate(22.2746456693 8.64214566929)scale(0.08 -0.08)">
       <use xlink:href="#BitstreamVeraSans-Roman-35"/>
      </g>
     </g>
    </g>
    <g id="text_13">
     <!-- $L(\hat{y} - y)$ -->
     <defs>
      <path d="M 31 -24.8125 
Q 25.4375 -20.40625 21.40625 -14.71875 
Q 17.390625 -9.03125 14.8125 -2.578125 
Q 12.25 3.859375 10.984375 10.890625 
Q 9.71875 17.921875 9.71875 25 
Q 9.71875 32.171875 10.984375 39.203125 
Q 12.25 46.234375 14.859375 52.734375 
Q 17.484375 59.234375 21.53125 64.890625 
Q 25.59375 70.5625 31 74.8125 
Q 31 75 31.5 75 
L 32.421875 75 
Q 32.71875 75 32.953125 74.734375 
Q 33.203125 74.46875 33.203125 74.125 
Q 33.203125 73.6875 33.015625 73.484375 
Q 28.125 68.703125 24.875 63.234375 
Q 21.625 57.765625 19.640625 51.578125 
Q 17.671875 45.40625 16.796875 38.78125 
Q 15.921875 32.171875 15.921875 25 
Q 15.921875 -6.78125 32.90625 -23.296875 
Q 33.203125 -23.578125 33.203125 -24.125 
Q 33.203125 -24.359375 32.9375 -24.671875 
Q 32.671875 -25 32.421875 -25 
L 31.5 -25 
Q 31 -25 31 -24.8125 
" id="Cmr10-28"/>
      <path d="M 6.5 -25 
Q 5.609375 -25 5.609375 -24.125 
Q 5.609375 -23.6875 5.8125 -23.484375 
Q 22.90625 -6.78125 22.90625 25 
Q 22.90625 56.78125 6 73.296875 
Q 5.609375 73.53125 5.609375 74.125 
Q 5.609375 74.46875 5.875 74.734375 
Q 6.15625 75 6.5 75 
L 7.421875 75 
Q 7.71875 75 7.90625 74.8125 
Q 15.09375 69.140625 19.875 61.03125 
Q 24.65625 52.9375 26.875 43.75 
Q 29.109375 34.578125 29.109375 25 
Q 29.109375 17.921875 27.90625 11.0625 
Q 26.703125 4.203125 24.09375 -2.453125 
Q 21.484375 -9.125 17.484375 -14.765625 
Q 13.484375 -20.40625 7.90625 -24.8125 
Q 7.71875 -25 7.421875 -25 
z
" id="Cmr10-29"/>
      <path d="M 4.6875 0 
Q 3.71875 0 3.71875 1.3125 
Q 3.765625 1.5625 3.90625 2.171875 
Q 4.046875 2.78125 4.3125 3.140625 
Q 4.59375 3.515625 4.984375 3.515625 
Q 11.078125 3.515625 13.484375 4.203125 
Q 14.796875 4.640625 15.375 6.890625 
L 29.109375 61.8125 
Q 29.296875 62.796875 29.296875 63.1875 
Q 29.296875 64.265625 28.078125 64.40625 
Q 26.21875 64.796875 20.90625 64.796875 
Q 19.921875 64.796875 19.921875 66.109375 
Q 20.265625 67.390625 20.453125 67.84375 
Q 20.65625 68.3125 21.578125 68.3125 
L 51.125 68.3125 
Q 52 68.3125 52 67 
Q 51.859375 65.96875 51.65625 65.375 
Q 51.46875 64.796875 50.6875 64.796875 
Q 43.3125 64.796875 40.828125 64.3125 
Q 38.375 63.875 37.796875 61.375 
L 24.125 6.5 
Q 23.6875 5.28125 23.6875 4.296875 
Q 23.6875 3.515625 27.09375 3.515625 
L 36.375 3.515625 
Q 44.234375 3.515625 49.109375 6.640625 
Q 54 9.765625 56.34375 13.6875 
Q 58.6875 17.625 60.265625 21.84375 
Q 61.859375 26.078125 62.59375 26.21875 
L 63.484375 26.21875 
Q 64.5 26.21875 64.5 24.90625 
L 55.609375 0.6875 
Q 55.46875 0 54.6875 0 
z
" id="Cmmi10-4c"/>
     </defs>
     <g transform="translate(14.5246456693 150.73)rotate(-90.0)scale(0.11 -0.11)">
      <use xlink:href="#Cmmi10-4c"/>
      <use transform="translate(68.017578125 0.0)" xlink:href="#Cmr10-28"/>
      <use transform="translate(112.560546875 2.875)" xlink:href="#Cmr10-5e"/>
      <use transform="translate(106.8359375 0.0)" xlink:href="#Cmmi10-79"/>
      <use transform="translate(173.41796875 0.0)" xlink:href="#Cmsy10-a1"/>
      <use transform="translate(268.662109375 0.0)" xlink:href="#Cmmi10-79"/>
      <use transform="translate(317.685546875 0.0)" xlink:href="#Cmr10-29"/>
     </g>
    </g>
   </g>
   <g id="line2d_25">
    <path clip-path="url(#p8907ffa7b6)" d="M 31.364646 156.027071 
L 49.644297 160.751405 
L 66.935859 165.447553 
L 82.745288 169.965841 
L 97.566627 174.4294 
L 111.399877 178.828703 
L 123.750993 182.981035 
L 135.114019 187.022378 
L 145.983001 191.12404 
L 155.863894 195.093008 
L 164.756697 198.901485 
L 172.661412 202.51502 
L 180.072081 206.14116 
L 186.494661 209.513252 
L 192.423197 212.860598 
L 197.857688 216.176919 
L 202.798134 219.453711 
L 207.244536 222.679225 
L 211.196893 225.836869 
L 214.655206 228.902692 
L 217.619473 231.841352 
L 220.089697 234.599791 
L 222.065875 237.097901 
L 224.042054 239.986928 
L 225.524188 242.562542 
L 226.512277 244.605393 
L 227.500366 247.118632 
L 227.994411 248.7035 
L 228.488455 250.76894 
L 228.9825 255.755354 
L 229.476545 250.76894 
L 229.970589 248.7035 
L 230.958679 245.782526 
L 231.946768 243.541184 
L 233.428902 240.796112 
L 234.911036 238.481909 
L 236.887214 235.809698 
L 239.357437 232.904734 
L 241.827661 230.329531 
L 244.791928 227.547936 
L 248.250241 224.615208 
L 252.202598 221.570221 
L 256.649 218.440447 
L 261.589446 215.245534 
L 267.023937 211.999748 
L 272.952473 208.713617 
L 279.869097 205.148778 
L 287.279767 201.589032 
L 295.184481 198.033437 
L 304.077285 194.278712 
L 313.958177 190.359146 
L 324.333115 186.481875 
L 335.696141 182.470332 
L 348.047257 178.34539 
L 361.386462 174.124236 
L 375.713757 169.821049 
L 391.523185 165.309993 
L 408.320703 160.751405 
L 426.600354 156.027071 
L 426.600354 156.027071 
" style="fill:none;stroke:#008000;stroke-linecap:round;"/>
   </g>
   <g id="line2d_26">
    <path clip-path="url(#p8907ffa7b6)" d="M 31.364646 123.615105 
L 50.632386 142.210193 
L 66.935859 157.643626 
L 80.769109 170.443774 
L 93.120225 181.575422 
L 103.989207 191.081753 
L 113.8701 199.438637 
L 122.762903 206.685307 
L 131.161662 213.252557 
L 139.066376 219.153315 
L 146.477046 224.407565 
L 153.393671 229.042134 
L 159.816251 233.090084 
L 166.238831 236.870568 
L 172.167367 240.104655 
L 178.095903 243.076466 
L 183.530394 245.556475 
L 188.964884 247.790663 
L 194.399375 249.767781 
L 199.339822 251.333325 
L 204.280268 252.670778 
L 209.220715 253.773946 
L 214.161161 254.637593 
L 219.101607 255.257542 
L 224.042054 255.630746 
L 228.488455 255.754108 
L 232.934857 255.675593 
L 237.381259 255.395519 
L 242.321705 254.849327 
L 247.262152 254.058401 
L 252.202598 253.026586 
L 257.143044 251.75881 
L 262.083491 250.26099 
L 267.023937 248.539926 
L 272.458428 246.397957 
L 277.892919 244.00599 
L 283.32741 241.375718 
L 289.255946 238.248928 
L 295.184481 234.869431 
L 301.607061 230.942319 
L 308.029642 226.759001 
L 314.946267 221.990971 
L 322.356936 216.607382 
L 330.26165 210.583401 
L 338.660409 203.900736 
L 348.047257 196.131698 
L 357.92815 187.659951 
L 368.797132 178.048071 
L 381.148248 166.818944 
L 394.981498 153.932934 
L 410.790926 138.897447 
L 426.600354 123.615105 
L 426.600354 123.615105 
" style="fill:none;stroke:#455bb6;stroke-dasharray:3.000000,5.000000,1.000000,5.000000;stroke-dashoffset:0.0;"/>
   </g>
   <g id="line2d_27">
    <path clip-path="url(#p8907ffa7b6)" d="M 31.364646 81.230858 
L 183.036349 234.191606 
L 186.988706 237.741933 
L 190.941063 240.97313 
L 194.89342 243.885195 
L 198.351733 246.171466 
L 201.810045 248.213403 
L 205.268357 250.011005 
L 208.72667 251.564273 
L 212.184982 252.873207 
L 215.643295 253.937806 
L 219.101607 254.758071 
L 222.55992 255.334002 
L 226.018232 255.665599 
L 229.476545 255.752861 
L 232.934857 255.595789 
L 236.39317 255.194383 
L 239.851482 254.548642 
L 243.309794 253.658567 
L 246.768107 252.524158 
L 250.226419 251.145414 
L 253.684732 249.522337 
L 257.143044 247.654925 
L 260.601357 245.543178 
L 264.059669 243.187097 
L 267.517982 240.586682 
L 271.470339 237.315595 
L 275.422696 233.725377 
L 279.375053 229.826001 
L 426.600354 81.230858 
L 426.600354 81.230858 
" style="fill:none;stroke:#d9ac00;stroke-dasharray:6.000000,6.000000;stroke-dashoffset:0.0;"/>
   </g>
   <g id="line2d_28">
    <path clip-path="url(#p8907ffa7b6)" d="M 31.364646 106.162929 
L 179.578036 255.755354 
L 278.386964 255.755354 
L 426.600354 106.162929 
L 426.600354 106.162929 
" style="fill:none;stroke:#6820cc;stroke-linecap:round;"/>
   </g>
   <g id="line2d_29">
    <path clip-path="url(#p8907ffa7b6)" d="M 67.471369 -1 
L 72.37035 20.950097 
L 77.310797 42.092493 
L 82.251243 62.237607 
L 87.19169 81.385437 
L 91.638091 97.765808 
L 96.084493 113.338379 
L 100.530895 128.103151 
L 104.977296 142.060125 
L 108.929653 153.788171 
L 112.882011 164.877956 
L 116.834368 175.32948 
L 120.786725 185.142743 
L 124.739082 194.317745 
L 128.197394 201.822299 
L 131.655707 208.838183 
L 135.114019 215.3654 
L 138.572332 221.403947 
L 142.030644 226.953826 
L 144.994912 231.321925 
L 147.95918 235.331002 
L 150.923448 238.981057 
L 153.887715 242.27209 
L 156.851983 245.204102 
L 159.816251 247.777092 
L 162.286474 249.646997 
L 164.756697 251.267582 
L 167.226921 252.638845 
L 169.697144 253.760789 
L 172.167367 254.633411 
L 174.63759 255.256713 
L 177.107813 255.630694 
L 179.578036 255.755354 
L 280.363142 255.675572 
L 282.833365 255.351455 
L 285.303588 254.778017 
L 287.773812 253.955259 
L 290.244035 252.88318 
L 292.714258 251.56178 
L 295.184481 249.99106 
L 297.654704 248.171018 
L 300.124928 246.101656 
L 302.595151 243.782974 
L 305.559419 240.671451 
L 308.523686 237.200907 
L 311.487954 233.371341 
L 314.452222 229.182753 
L 317.41649 224.635143 
L 320.874802 218.875835 
L 324.333115 212.627858 
L 327.791427 205.891213 
L 331.24974 198.665898 
L 334.708052 190.951916 
L 338.660409 181.537566 
L 342.612766 171.484955 
L 346.565123 160.794083 
L 350.51748 149.46495 
L 354.469837 137.497556 
L 358.916239 123.271316 
L 363.362641 108.237277 
L 367.809043 92.39544 
L 372.255444 75.745803 
L 376.701846 58.288367 
L 381.642292 37.943797 
L 386.582739 16.601944 
L 390.493631 -1 
L 390.493631 -1 
" style="fill:none;stroke:#86a600;stroke-linecap:round;"/>
   </g>
   <g id="line2d_30">
    <path clip-path="url(#p8907ffa7b6)" d="M 31.364646 116.135757 
L 228.9825 255.755354 
L 426.600354 195.918384 
L 426.600354 195.918384 
" style="fill:none;stroke:#008868;stroke-linecap:round;"/>
   </g>
   <g id="legend_1">
    <g id="patch_7">
     <path d="M 155.6625 106.809646 
L 302.3025 106.809646 
L 302.3025 10.434646 
L 155.6625 10.434646 
z
" style="fill:#ffffff;stroke:#000000;stroke-linejoin:miter;"/>
    </g>
    <g id="line2d_31">
     <path d="M 161.2625 16.913396 
L 172.4625 16.913396 
" style="fill:none;stroke:#00008b;stroke-dasharray:6.000000,6.000000;stroke-dashoffset:0.0;"/>
    </g>
    <g id="line2d_32"/>
    <g id="text_14">
     <!-- L2DistLoss -->
     <defs>
      <path d="M 9.8125 72.90625 
L 19.671875 72.90625 
L 19.671875 8.296875 
L 55.171875 8.296875 
L 55.171875 0 
L 9.8125 0 
z
" id="BitstreamVeraSans-Roman-4c"/>
      <path d="M 30.609375 48.390625 
Q 23.390625 48.390625 19.1875 42.75 
Q 14.984375 37.109375 14.984375 27.296875 
Q 14.984375 17.484375 19.15625 11.84375 
Q 23.34375 6.203125 30.609375 6.203125 
Q 37.796875 6.203125 41.984375 11.859375 
Q 46.1875 17.53125 46.1875 27.296875 
Q 46.1875 37.015625 41.984375 42.703125 
Q 37.796875 48.390625 30.609375 48.390625 
M 30.609375 56 
Q 42.328125 56 49.015625 48.375 
Q 55.71875 40.765625 55.71875 27.296875 
Q 55.71875 13.875 49.015625 6.21875 
Q 42.328125 -1.421875 30.609375 -1.421875 
Q 18.84375 -1.421875 12.171875 6.21875 
Q 5.515625 13.875 5.515625 27.296875 
Q 5.515625 40.765625 12.171875 48.375 
Q 18.84375 56 30.609375 56 
" id="BitstreamVeraSans-Roman-6f"/>
      <path d="M 19.671875 64.796875 
L 19.671875 8.109375 
L 31.59375 8.109375 
Q 46.6875 8.109375 53.6875 14.9375 
Q 60.6875 21.78125 60.6875 36.53125 
Q 60.6875 51.171875 53.6875 57.984375 
Q 46.6875 64.796875 31.59375 64.796875 
z
M 9.8125 72.90625 
L 30.078125 72.90625 
Q 51.265625 72.90625 61.171875 64.09375 
Q 71.09375 55.28125 71.09375 36.53125 
Q 71.09375 17.671875 61.125 8.828125 
Q 51.171875 0 30.078125 0 
L 9.8125 0 
z
" id="BitstreamVeraSans-Roman-44"/>
      <path d="M 9.421875 54.6875 
L 18.40625 54.6875 
L 18.40625 0 
L 9.421875 0 
z
M 9.421875 75.984375 
L 18.40625 75.984375 
L 18.40625 64.59375 
L 9.421875 64.59375 
z
" id="BitstreamVeraSans-Roman-69"/>
      <path d="M 18.3125 70.21875 
L 18.3125 54.6875 
L 36.8125 54.6875 
L 36.8125 47.703125 
L 18.3125 47.703125 
L 18.3125 18.015625 
Q 18.3125 11.328125 20.140625 9.421875 
Q 21.96875 7.515625 27.59375 7.515625 
L 36.8125 7.515625 
L 36.8125 0 
L 27.59375 0 
Q 17.1875 0 13.234375 3.875 
Q 9.28125 7.765625 9.28125 18.015625 
L 9.28125 47.703125 
L 2.6875 47.703125 
L 2.6875 54.6875 
L 9.28125 54.6875 
L 9.28125 70.21875 
z
" id="BitstreamVeraSans-Roman-74"/>
      <path d="M 44.28125 53.078125 
L 44.28125 44.578125 
Q 40.484375 46.53125 36.375 47.5 
Q 32.28125 48.484375 27.875 48.484375 
Q 21.1875 48.484375 17.84375 46.4375 
Q 14.5 44.390625 14.5 40.28125 
Q 14.5 37.15625 16.890625 35.375 
Q 19.28125 33.59375 26.515625 31.984375 
L 29.59375 31.296875 
Q 39.15625 29.25 43.1875 25.515625 
Q 47.21875 21.78125 47.21875 15.09375 
Q 47.21875 7.46875 41.1875 3.015625 
Q 35.15625 -1.421875 24.609375 -1.421875 
Q 20.21875 -1.421875 15.453125 -0.5625 
Q 10.6875 0.296875 5.421875 2 
L 5.421875 11.28125 
Q 10.40625 8.6875 15.234375 7.390625 
Q 20.0625 6.109375 24.8125 6.109375 
Q 31.15625 6.109375 34.5625 8.28125 
Q 37.984375 10.453125 37.984375 14.40625 
Q 37.984375 18.0625 35.515625 20.015625 
Q 33.0625 21.96875 24.703125 23.78125 
L 21.578125 24.515625 
Q 13.234375 26.265625 9.515625 29.90625 
Q 5.8125 33.546875 5.8125 39.890625 
Q 5.8125 47.609375 11.28125 51.796875 
Q 16.75 56 26.8125 56 
Q 31.78125 56 36.171875 55.265625 
Q 40.578125 54.546875 44.28125 53.078125 
" id="BitstreamVeraSans-Roman-73"/>
     </defs>
     <g transform="translate(181.2625 19.7133956693)scale(0.08 -0.08)">
      <use xlink:href="#BitstreamVeraSans-Roman-4c"/>
      <use x="55.712890625" xlink:href="#BitstreamVeraSans-Roman-32"/>
      <use x="119.3359375" xlink:href="#BitstreamVeraSans-Roman-44"/>
      <use x="196.337890625" xlink:href="#BitstreamVeraSans-Roman-69"/>
      <use x="224.12109375" xlink:href="#BitstreamVeraSans-Roman-73"/>
      <use x="276.220703125" xlink:href="#BitstreamVeraSans-Roman-74"/>
      <use x="315.4296875" xlink:href="#BitstreamVeraSans-Roman-4c"/>
      <use x="371.126953125" xlink:href="#BitstreamVeraSans-Roman-6f"/>
      <use x="432.30859375" xlink:href="#BitstreamVeraSans-Roman-73"/>
      <use x="484.408203125" xlink:href="#BitstreamVeraSans-Roman-73"/>
     </g>
    </g>
    <g id="line2d_33">
     <path d="M 161.2625 28.655896 
L 172.4625 28.655896 
" style="fill:none;stroke:#cc0000;stroke-linecap:round;"/>
    </g>
    <g id="line2d_34"/>
    <g id="text_15">
     <!-- L1DistLoss -->
     <g transform="translate(181.2625 31.4558956693)scale(0.08 -0.08)">
      <use xlink:href="#BitstreamVeraSans-Roman-4c"/>
      <use x="55.712890625" xlink:href="#BitstreamVeraSans-Roman-31"/>
      <use x="119.3359375" xlink:href="#BitstreamVeraSans-Roman-44"/>
      <use x="196.337890625" xlink:href="#BitstreamVeraSans-Roman-69"/>
      <use x="224.12109375" xlink:href="#BitstreamVeraSans-Roman-73"/>
      <use x="276.220703125" xlink:href="#BitstreamVeraSans-Roman-74"/>
      <use x="315.4296875" xlink:href="#BitstreamVeraSans-Roman-4c"/>
      <use x="371.126953125" xlink:href="#BitstreamVeraSans-Roman-6f"/>
      <use x="432.30859375" xlink:href="#BitstreamVeraSans-Roman-73"/>
      <use x="484.408203125" xlink:href="#BitstreamVeraSans-Roman-73"/>
     </g>
    </g>
    <g id="line2d_35">
     <path d="M 161.2625 40.398396 
L 172.4625 40.398396 
" style="fill:none;stroke:#008000;stroke-linecap:round;"/>
    </g>
    <g id="line2d_36"/>
    <g id="text_16">
     <!-- LPDistLoss with P = 0.5 -->
     <defs>
      <path id="BitstreamVeraSans-Roman-20"/>
      <path d="M 19.671875 64.796875 
L 19.671875 37.40625 
L 32.078125 37.40625 
Q 38.96875 37.40625 42.71875 40.96875 
Q 46.484375 44.53125 46.484375 51.125 
Q 46.484375 57.671875 42.71875 61.234375 
Q 38.96875 64.796875 32.078125 64.796875 
z
M 9.8125 72.90625 
L 32.078125 72.90625 
Q 44.34375 72.90625 50.609375 67.359375 
Q 56.890625 61.8125 56.890625 51.125 
Q 56.890625 40.328125 50.609375 34.8125 
Q 44.34375 29.296875 32.078125 29.296875 
L 19.671875 29.296875 
L 19.671875 0 
L 9.8125 0 
z
" id="BitstreamVeraSans-Roman-50"/>
      <path d="M 10.6875 12.40625 
L 21 12.40625 
L 21 0 
L 10.6875 0 
z
" id="BitstreamVeraSans-Roman-2e"/>
      <path d="M 54.890625 33.015625 
L 54.890625 0 
L 45.90625 0 
L 45.90625 32.71875 
Q 45.90625 40.484375 42.875 44.328125 
Q 39.84375 48.1875 33.796875 48.1875 
Q 26.515625 48.1875 22.3125 43.546875 
Q 18.109375 38.921875 18.109375 30.90625 
L 18.109375 0 
L 9.078125 0 
L 9.078125 75.984375 
L 18.109375 75.984375 
L 18.109375 46.1875 
Q 21.34375 51.125 25.703125 53.5625 
Q 30.078125 56 35.796875 56 
Q 45.21875 56 50.046875 50.171875 
Q 54.890625 44.34375 54.890625 33.015625 
" id="BitstreamVeraSans-Roman-68"/>
      <path d="M 10.59375 45.40625 
L 73.1875 45.40625 
L 73.1875 37.203125 
L 10.59375 37.203125 
z
M 10.59375 25.484375 
L 73.1875 25.484375 
L 73.1875 17.1875 
L 10.59375 17.1875 
z
" id="BitstreamVeraSans-Roman-3d"/>
      <path d="M 4.203125 54.6875 
L 13.1875 54.6875 
L 24.421875 12.015625 
L 35.59375 54.6875 
L 46.1875 54.6875 
L 57.421875 12.015625 
L 68.609375 54.6875 
L 77.59375 54.6875 
L 63.28125 0 
L 52.6875 0 
L 40.921875 44.828125 
L 29.109375 0 
L 18.5 0 
z
" id="BitstreamVeraSans-Roman-77"/>
     </defs>
     <g transform="translate(181.2625 43.1983956693)scale(0.08 -0.08)">
      <use xlink:href="#BitstreamVeraSans-Roman-4c"/>
      <use x="55.712890625" xlink:href="#BitstreamVeraSans-Roman-50"/>
      <use x="116.015625" xlink:href="#BitstreamVeraSans-Roman-44"/>
      <use x="193.017578125" xlink:href="#BitstreamVeraSans-Roman-69"/>
      <use x="220.80078125" xlink:href="#BitstreamVeraSans-Roman-73"/>
      <use x="272.900390625" xlink:href="#BitstreamVeraSans-Roman-74"/>
      <use x="312.109375" xlink:href="#BitstreamVeraSans-Roman-4c"/>
      <use x="367.806640625" xlink:href="#BitstreamVeraSans-Roman-6f"/>
      <use x="428.98828125" xlink:href="#BitstreamVeraSans-Roman-73"/>
      <use x="481.087890625" xlink:href="#BitstreamVeraSans-Roman-73"/>
      <use x="533.1875" xlink:href="#BitstreamVeraSans-Roman-20"/>
      <use x="564.974609375" xlink:href="#BitstreamVeraSans-Roman-77"/>
      <use x="646.76171875" xlink:href="#BitstreamVeraSans-Roman-69"/>
      <use x="674.544921875" xlink:href="#BitstreamVeraSans-Roman-74"/>
      <use x="713.75390625" xlink:href="#BitstreamVeraSans-Roman-68"/>
      <use x="777.1328125" xlink:href="#BitstreamVeraSans-Roman-20"/>
      <use x="808.919921875" xlink:href="#BitstreamVeraSans-Roman-50"/>
      <use x="869.22265625" xlink:href="#BitstreamVeraSans-Roman-20"/>
      <use x="901.009765625" xlink:href="#BitstreamVeraSans-Roman-3d"/>
      <use x="984.798828125" xlink:href="#BitstreamVeraSans-Roman-20"/>
      <use x="1016.5859375" xlink:href="#BitstreamVeraSans-Roman-30"/>
      <use x="1080.20898438" xlink:href="#BitstreamVeraSans-Roman-2e"/>
      <use x="1111.99609375" xlink:href="#BitstreamVeraSans-Roman-35"/>
     </g>
    </g>
    <g id="line2d_37">
     <path d="M 161.2625 52.140896 
L 172.4625 52.140896 
" style="fill:none;stroke:#455bb6;stroke-dasharray:3.000000,5.000000,1.000000,5.000000;stroke-dashoffset:0.0;"/>
    </g>
    <g id="line2d_38"/>
    <g id="text_17">
     <!-- LogitDistLoss -->
     <defs>
      <path d="M 45.40625 27.984375 
Q 45.40625 37.75 41.375 43.109375 
Q 37.359375 48.484375 30.078125 48.484375 
Q 22.859375 48.484375 18.828125 43.109375 
Q 14.796875 37.75 14.796875 27.984375 
Q 14.796875 18.265625 18.828125 12.890625 
Q 22.859375 7.515625 30.078125 7.515625 
Q 37.359375 7.515625 41.375 12.890625 
Q 45.40625 18.265625 45.40625 27.984375 
M 54.390625 6.78125 
Q 54.390625 -7.171875 48.1875 -13.984375 
Q 42 -20.796875 29.203125 -20.796875 
Q 24.46875 -20.796875 20.265625 -20.09375 
Q 16.0625 -19.390625 12.109375 -17.921875 
L 12.109375 -9.1875 
Q 16.0625 -11.328125 19.921875 -12.34375 
Q 23.78125 -13.375 27.78125 -13.375 
Q 36.625 -13.375 41.015625 -8.765625 
Q 45.40625 -4.15625 45.40625 5.171875 
L 45.40625 9.625 
Q 42.625 4.78125 38.28125 2.390625 
Q 33.9375 0 27.875 0 
Q 17.828125 0 11.671875 7.65625 
Q 5.515625 15.328125 5.515625 27.984375 
Q 5.515625 40.671875 11.671875 48.328125 
Q 17.828125 56 27.875 56 
Q 33.9375 56 38.28125 53.609375 
Q 42.625 51.21875 45.40625 46.390625 
L 45.40625 54.6875 
L 54.390625 54.6875 
z
" id="BitstreamVeraSans-Roman-67"/>
     </defs>
     <g transform="translate(181.2625 54.9408956693)scale(0.08 -0.08)">
      <use xlink:href="#BitstreamVeraSans-Roman-4c"/>
      <use x="55.697265625" xlink:href="#BitstreamVeraSans-Roman-6f"/>
      <use x="116.87890625" xlink:href="#BitstreamVeraSans-Roman-67"/>
      <use x="180.35546875" xlink:href="#BitstreamVeraSans-Roman-69"/>
      <use x="208.138671875" xlink:href="#BitstreamVeraSans-Roman-74"/>
      <use x="247.34765625" xlink:href="#BitstreamVeraSans-Roman-44"/>
      <use x="324.349609375" xlink:href="#BitstreamVeraSans-Roman-69"/>
      <use x="352.1328125" xlink:href="#BitstreamVeraSans-Roman-73"/>
      <use x="404.232421875" xlink:href="#BitstreamVeraSans-Roman-74"/>
      <use x="443.44140625" xlink:href="#BitstreamVeraSans-Roman-4c"/>
      <use x="499.138671875" xlink:href="#BitstreamVeraSans-Roman-6f"/>
      <use x="560.3203125" xlink:href="#BitstreamVeraSans-Roman-73"/>
      <use x="612.419921875" xlink:href="#BitstreamVeraSans-Roman-73"/>
     </g>
    </g>
    <g id="line2d_39">
     <path d="M 161.2625 63.883396 
L 172.4625 63.883396 
" style="fill:none;stroke:#d9ac00;stroke-dasharray:6.000000,6.000000;stroke-dashoffset:0.0;"/>
    </g>
    <g id="line2d_40"/>
    <g id="text_18">
     <!-- HuberLoss with $\alpha$ = 1.0 -->
     <defs>
      <path d="M 20.125 -1.125 
Q 15.375 -1.125 11.6875 1.125 
Q 8.015625 3.375 6 7.171875 
Q 4 10.984375 4 15.828125 
Q 4 22.609375 7.78125 29.25 
Q 11.578125 35.890625 17.84375 40.03125 
Q 24.125 44.1875 31 44.1875 
Q 36.078125 44.1875 39.9375 41.53125 
Q 43.796875 38.875 45.796875 34.453125 
Q 47.796875 30.03125 47.796875 25 
L 47.90625 18.3125 
Q 51.3125 23.046875 53.6875 28.140625 
Q 56.0625 33.25 57.328125 38.71875 
Q 57.515625 39.3125 58.109375 39.3125 
L 59.28125 39.3125 
Q 60.203125 39.3125 60.203125 38.375 
Q 60.203125 38.28125 60.109375 38.09375 
Q 58.9375 33.5 57.171875 29.265625 
Q 55.421875 25.046875 53.046875 21.09375 
Q 50.6875 17.140625 47.90625 13.921875 
Q 47.90625 1.515625 50.78125 1.515625 
Q 52.640625 1.515625 53.828125 2.609375 
Q 55.03125 3.71875 55.9375 5.328125 
Q 56.84375 6.9375 57.078125 6.984375 
L 58.296875 6.984375 
Q 59.078125 6.984375 59.078125 6 
Q 59.078125 3.515625 56.21875 1.1875 
Q 53.375 -1.125 50.59375 -1.125 
Q 46.96875 -1.125 44.578125 1.21875 
Q 42.1875 3.5625 41.3125 7.328125 
Q 36.625 3.328125 31.15625 1.09375 
Q 25.6875 -1.125 20.125 -1.125 
M 20.3125 1.515625 
Q 31 1.515625 40.828125 10.296875 
Q 40.765625 10.890625 40.671875 11.734375 
Q 40.578125 12.59375 40.578125 12.703125 
L 40.578125 23.484375 
Q 40.578125 41.609375 30.8125 41.609375 
Q 24.953125 41.609375 20.546875 36.59375 
Q 16.15625 31.59375 13.9375 24.625 
Q 11.71875 17.671875 11.71875 11.921875 
Q 11.71875 7.5625 13.9375 4.53125 
Q 16.15625 1.515625 20.3125 1.515625 
" id="Cmmi10-ae"/>
      <path d="M 9.8125 72.90625 
L 19.671875 72.90625 
L 19.671875 43.015625 
L 55.515625 43.015625 
L 55.515625 72.90625 
L 65.375 72.90625 
L 65.375 0 
L 55.515625 0 
L 55.515625 34.71875 
L 19.671875 34.71875 
L 19.671875 0 
L 9.8125 0 
z
" id="BitstreamVeraSans-Roman-48"/>
      <path d="M 56.203125 29.59375 
L 56.203125 25.203125 
L 14.890625 25.203125 
Q 15.484375 15.921875 20.484375 11.0625 
Q 25.484375 6.203125 34.421875 6.203125 
Q 39.59375 6.203125 44.453125 7.46875 
Q 49.3125 8.734375 54.109375 11.28125 
L 54.109375 2.78125 
Q 49.265625 0.734375 44.1875 -0.34375 
Q 39.109375 -1.421875 33.890625 -1.421875 
Q 20.796875 -1.421875 13.15625 6.1875 
Q 5.515625 13.8125 5.515625 26.8125 
Q 5.515625 40.234375 12.765625 48.109375 
Q 20.015625 56 32.328125 56 
Q 43.359375 56 49.78125 48.890625 
Q 56.203125 41.796875 56.203125 29.59375 
M 47.21875 32.234375 
Q 47.125 39.59375 43.09375 43.984375 
Q 39.0625 48.390625 32.421875 48.390625 
Q 24.90625 48.390625 20.390625 44.140625 
Q 15.875 39.890625 15.1875 32.171875 
z
" id="BitstreamVeraSans-Roman-65"/>
      <path d="M 8.5 21.578125 
L 8.5 54.6875 
L 17.484375 54.6875 
L 17.484375 21.921875 
Q 17.484375 14.15625 20.5 10.265625 
Q 23.53125 6.390625 29.59375 6.390625 
Q 36.859375 6.390625 41.078125 11.03125 
Q 45.3125 15.671875 45.3125 23.6875 
L 45.3125 54.6875 
L 54.296875 54.6875 
L 54.296875 0 
L 45.3125 0 
L 45.3125 8.40625 
Q 42.046875 3.421875 37.71875 1 
Q 33.40625 -1.421875 27.6875 -1.421875 
Q 18.265625 -1.421875 13.375 4.4375 
Q 8.5 10.296875 8.5 21.578125 
" id="BitstreamVeraSans-Roman-75"/>
      <path d="M 41.109375 46.296875 
Q 39.59375 47.171875 37.8125 47.578125 
Q 36.03125 48 33.890625 48 
Q 26.265625 48 22.1875 43.046875 
Q 18.109375 38.09375 18.109375 28.8125 
L 18.109375 0 
L 9.078125 0 
L 9.078125 54.6875 
L 18.109375 54.6875 
L 18.109375 46.1875 
Q 20.953125 51.171875 25.484375 53.578125 
Q 30.03125 56 36.53125 56 
Q 37.453125 56 38.578125 55.875 
Q 39.703125 55.765625 41.0625 55.515625 
z
" id="BitstreamVeraSans-Roman-72"/>
      <path d="M 48.6875 27.296875 
Q 48.6875 37.203125 44.609375 42.84375 
Q 40.53125 48.484375 33.40625 48.484375 
Q 26.265625 48.484375 22.1875 42.84375 
Q 18.109375 37.203125 18.109375 27.296875 
Q 18.109375 17.390625 22.1875 11.75 
Q 26.265625 6.109375 33.40625 6.109375 
Q 40.53125 6.109375 44.609375 11.75 
Q 48.6875 17.390625 48.6875 27.296875 
M 18.109375 46.390625 
Q 20.953125 51.265625 25.265625 53.625 
Q 29.59375 56 35.59375 56 
Q 45.5625 56 51.78125 48.09375 
Q 58.015625 40.1875 58.015625 27.296875 
Q 58.015625 14.40625 51.78125 6.484375 
Q 45.5625 -1.421875 35.59375 -1.421875 
Q 29.59375 -1.421875 25.265625 0.953125 
Q 20.953125 3.328125 18.109375 8.203125 
L 18.109375 0 
L 9.078125 0 
L 9.078125 75.984375 
L 18.109375 75.984375 
z
" id="BitstreamVeraSans-Roman-62"/>
     </defs>
     <g transform="translate(181.2625 66.6833956693)scale(0.08 -0.08)">
      <use transform="translate(0.0 0.015625)" xlink:href="#BitstreamVeraSans-Roman-48"/>
      <use transform="translate(75.1953125 0.015625)" xlink:href="#BitstreamVeraSans-Roman-75"/>
      <use transform="translate(138.57421875 0.015625)" xlink:href="#BitstreamVeraSans-Roman-62"/>
      <use transform="translate(202.05078125 0.015625)" xlink:href="#BitstreamVeraSans-Roman-65"/>
      <use transform="translate(263.57421875 0.015625)" xlink:href="#BitstreamVeraSans-Roman-72"/>
      <use transform="translate(304.6875 0.015625)" xlink:href="#BitstreamVeraSans-Roman-4c"/>
      <use transform="translate(360.400390625 0.015625)" xlink:href="#BitstreamVeraSans-Roman-6f"/>
      <use transform="translate(421.58203125 0.015625)" xlink:href="#BitstreamVeraSans-Roman-73"/>
      <use transform="translate(473.681640625 0.015625)" xlink:href="#BitstreamVeraSans-Roman-73"/>
      <use transform="translate(525.78125 0.015625)" xlink:href="#BitstreamVeraSans-Roman-20"/>
      <use transform="translate(557.568359375 0.015625)" xlink:href="#BitstreamVeraSans-Roman-77"/>
      <use transform="translate(639.35546875 0.015625)" xlink:href="#BitstreamVeraSans-Roman-69"/>
      <use transform="translate(667.138671875 0.015625)" xlink:href="#BitstreamVeraSans-Roman-74"/>
      <use transform="translate(706.34765625 0.015625)" xlink:href="#BitstreamVeraSans-Roman-68"/>
      <use transform="translate(769.7265625 0.015625)" xlink:href="#BitstreamVeraSans-Roman-20"/>
      <use transform="translate(801.513671875 0.015625)" xlink:href="#Cmmi10-ae"/>
      <use transform="translate(865.4296875 0.015625)" xlink:href="#BitstreamVeraSans-Roman-20"/>
      <use transform="translate(897.216796875 0.015625)" xlink:href="#BitstreamVeraSans-Roman-3d"/>
      <use transform="translate(981.005859375 0.015625)" xlink:href="#BitstreamVeraSans-Roman-20"/>
      <use transform="translate(1012.79296875 0.015625)" xlink:href="#BitstreamVeraSans-Roman-31"/>
      <use transform="translate(1076.41601562 0.015625)" xlink:href="#BitstreamVeraSans-Roman-2e"/>
      <use transform="translate(1108.203125 0.015625)" xlink:href="#BitstreamVeraSans-Roman-30"/>
     </g>
    </g>
    <g id="line2d_41">
     <path d="M 161.2625 75.627146 
L 172.4625 75.627146 
" style="fill:none;stroke:#6820cc;stroke-linecap:round;"/>
    </g>
    <g id="line2d_42"/>
    <g id="text_19">
     <!-- L1EpsilonInsLoss with $\varepsilon$ = 1.0 -->
     <defs>
      <path d="M 54.890625 33.015625 
L 54.890625 0 
L 45.90625 0 
L 45.90625 32.71875 
Q 45.90625 40.484375 42.875 44.328125 
Q 39.84375 48.1875 33.796875 48.1875 
Q 26.515625 48.1875 22.3125 43.546875 
Q 18.109375 38.921875 18.109375 30.90625 
L 18.109375 0 
L 9.078125 0 
L 9.078125 54.6875 
L 18.109375 54.6875 
L 18.109375 46.1875 
Q 21.34375 51.125 25.703125 53.5625 
Q 30.078125 56 35.796875 56 
Q 45.21875 56 50.046875 50.171875 
Q 54.890625 44.34375 54.890625 33.015625 
" id="BitstreamVeraSans-Roman-6e"/>
      <path d="M 9.421875 75.984375 
L 18.40625 75.984375 
L 18.40625 0 
L 9.421875 0 
z
" id="BitstreamVeraSans-Roman-6c"/>
      <path d="M 2.6875 10.40625 
Q 2.6875 13.140625 3.875 15.71875 
Q 5.078125 18.3125 7 20.359375 
Q 8.9375 22.40625 11.53125 24.03125 
Q 7.71875 26.65625 7.71875 30.8125 
Q 7.71875 35.25 11.421875 38.59375 
Q 15.140625 41.9375 20.5 43.625 
Q 25.875 45.3125 30.171875 45.3125 
Q 31.984375 45.3125 35.03125 44.5 
Q 38.09375 43.703125 40.375 42.375 
Q 42.671875 41.0625 42.671875 39.5 
Q 42.671875 38.328125 41.765625 37.421875 
Q 40.875 36.53125 39.796875 36.53125 
Q 39.359375 36.53125 37.578125 37.578125 
Q 35.796875 38.625 33.78125 39.453125 
Q 31.78125 40.28125 29.390625 40.28125 
Q 25.78125 40.28125 21.453125 39.421875 
Q 17.140625 38.578125 13.859375 36.453125 
Q 10.59375 34.328125 10.59375 30.90625 
Q 10.59375 27.640625 14.3125 25.390625 
Q 18.5 27.296875 22.90625 27.296875 
Q 30.71875 27.296875 30.71875 24.515625 
Q 30.71875 22.3125 28.046875 21.703125 
Q 25.390625 21.09375 21.921875 21.09375 
Q 17.234375 21.09375 14.203125 22.515625 
Q 10.890625 20.75 8.296875 17.578125 
Q 5.71875 14.40625 5.71875 10.984375 
Q 5.71875 7.765625 7.890625 5.953125 
Q 10.0625 4.15625 13.234375 3.46875 
Q 16.40625 2.78125 19.578125 2.78125 
Q 25.09375 2.78125 29.34375 3.96875 
Q 33.59375 5.171875 35.5 8.984375 
Q 35.796875 9.625 36.625 9.625 
Q 37.703125 9.28125 37.703125 8.296875 
Q 37.703125 8.203125 37.40625 7.328125 
Q 35.796875 4.15625 32.84375 2 
Q 29.890625 -0.140625 26.25 -1.171875 
Q 22.609375 -2.203125 18.796875 -2.203125 
Q 12.59375 -2.203125 7.640625 1.109375 
Q 2.6875 4.4375 2.6875 10.40625 
M 18.109375 24.03125 
Q 19.875 23.6875 22.125 23.6875 
Q 26.515625 23.6875 27.59375 24.3125 
Q 26.21875 24.703125 22.796875 24.703125 
Q 20.3125 24.703125 18.109375 24.03125 
" id="Cmmi10-22"/>
      <path d="M 9.8125 72.90625 
L 55.90625 72.90625 
L 55.90625 64.59375 
L 19.671875 64.59375 
L 19.671875 43.015625 
L 54.390625 43.015625 
L 54.390625 34.71875 
L 19.671875 34.71875 
L 19.671875 8.296875 
L 56.78125 8.296875 
L 56.78125 0 
L 9.8125 0 
z
" id="BitstreamVeraSans-Roman-45"/>
      <path d="M 18.109375 8.203125 
L 18.109375 -20.796875 
L 9.078125 -20.796875 
L 9.078125 54.6875 
L 18.109375 54.6875 
L 18.109375 46.390625 
Q 20.953125 51.265625 25.265625 53.625 
Q 29.59375 56 35.59375 56 
Q 45.5625 56 51.78125 48.09375 
Q 58.015625 40.1875 58.015625 27.296875 
Q 58.015625 14.40625 51.78125 6.484375 
Q 45.5625 -1.421875 35.59375 -1.421875 
Q 29.59375 -1.421875 25.265625 0.953125 
Q 20.953125 3.328125 18.109375 8.203125 
M 48.6875 27.296875 
Q 48.6875 37.203125 44.609375 42.84375 
Q 40.53125 48.484375 33.40625 48.484375 
Q 26.265625 48.484375 22.1875 42.84375 
Q 18.109375 37.203125 18.109375 27.296875 
Q 18.109375 17.390625 22.1875 11.75 
Q 26.265625 6.109375 33.40625 6.109375 
Q 40.53125 6.109375 44.609375 11.75 
Q 48.6875 17.390625 48.6875 27.296875 
" id="BitstreamVeraSans-Roman-70"/>
      <path d="M 9.8125 72.90625 
L 19.671875 72.90625 
L 19.671875 0 
L 9.8125 0 
z
" id="BitstreamVeraSans-Roman-49"/>
     </defs>
     <g transform="translate(181.2625 78.4271456693)scale(0.08 -0.08)">
      <use transform="translate(0.0 0.015625)" xlink:href="#BitstreamVeraSans-Roman-4c"/>
      <use transform="translate(55.712890625 0.015625)" xlink:href="#BitstreamVeraSans-Roman-31"/>
      <use transform="translate(119.3359375 0.015625)" xlink:href="#BitstreamVeraSans-Roman-45"/>
      <use transform="translate(182.51953125 0.015625)" xlink:href="#BitstreamVeraSans-Roman-70"/>
      <use transform="translate(245.99609375 0.015625)" xlink:href="#BitstreamVeraSans-Roman-73"/>
      <use transform="translate(298.095703125 0.015625)" xlink:href="#BitstreamVeraSans-Roman-69"/>
      <use transform="translate(325.87890625 0.015625)" xlink:href="#BitstreamVeraSans-Roman-6c"/>
      <use transform="translate(353.662109375 0.015625)" xlink:href="#BitstreamVeraSans-Roman-6f"/>
      <use transform="translate(414.84375 0.015625)" xlink:href="#BitstreamVeraSans-Roman-6e"/>
      <use transform="translate(478.22265625 0.015625)" xlink:href="#BitstreamVeraSans-Roman-49"/>
      <use transform="translate(507.71484375 0.015625)" xlink:href="#BitstreamVeraSans-Roman-6e"/>
      <use transform="translate(571.09375 0.015625)" xlink:href="#BitstreamVeraSans-Roman-73"/>
      <use transform="translate(623.193359375 0.015625)" xlink:href="#BitstreamVeraSans-Roman-4c"/>
      <use transform="translate(678.90625 0.015625)" xlink:href="#BitstreamVeraSans-Roman-6f"/>
      <use transform="translate(740.087890625 0.015625)" xlink:href="#BitstreamVeraSans-Roman-73"/>
      <use transform="translate(792.1875 0.015625)" xlink:href="#BitstreamVeraSans-Roman-73"/>
      <use transform="translate(844.287109375 0.015625)" xlink:href="#BitstreamVeraSans-Roman-20"/>
      <use transform="translate(876.07421875 0.015625)" xlink:href="#BitstreamVeraSans-Roman-77"/>
      <use transform="translate(957.861328125 0.015625)" xlink:href="#BitstreamVeraSans-Roman-69"/>
      <use transform="translate(985.64453125 0.015625)" xlink:href="#BitstreamVeraSans-Roman-74"/>
      <use transform="translate(1024.85351562 0.015625)" xlink:href="#BitstreamVeraSans-Roman-68"/>
      <use transform="translate(1088.23242188 0.015625)" xlink:href="#BitstreamVeraSans-Roman-20"/>
      <use transform="translate(1120.01953125 0.015625)" xlink:href="#Cmmi10-22"/>
      <use transform="translate(1166.6015625 0.015625)" xlink:href="#BitstreamVeraSans-Roman-20"/>
      <use transform="translate(1198.38867188 0.015625)" xlink:href="#BitstreamVeraSans-Roman-3d"/>
      <use transform="translate(1282.17773438 0.015625)" xlink:href="#BitstreamVeraSans-Roman-20"/>
      <use transform="translate(1313.96484375 0.015625)" xlink:href="#BitstreamVeraSans-Roman-31"/>
      <use transform="translate(1377.58789062 0.015625)" xlink:href="#BitstreamVeraSans-Roman-2e"/>
      <use transform="translate(1409.375 0.015625)" xlink:href="#BitstreamVeraSans-Roman-30"/>
     </g>
    </g>
    <g id="line2d_43">
     <path d="M 161.2625 87.387146 
L 172.4625 87.387146 
" style="fill:none;stroke:#86a600;stroke-linecap:round;"/>
    </g>
    <g id="line2d_44"/>
    <g id="text_20">
     <!-- L2EpsilonInsLoss with $\varepsilon$ = 1.0 -->
     <g transform="translate(181.2625 90.1871456693)scale(0.08 -0.08)">
      <use transform="translate(0.0 0.015625)" xlink:href="#BitstreamVeraSans-Roman-4c"/>
      <use transform="translate(55.712890625 0.015625)" xlink:href="#BitstreamVeraSans-Roman-32"/>
      <use transform="translate(119.3359375 0.015625)" xlink:href="#BitstreamVeraSans-Roman-45"/>
      <use transform="translate(182.51953125 0.015625)" xlink:href="#BitstreamVeraSans-Roman-70"/>
      <use transform="translate(245.99609375 0.015625)" xlink:href="#BitstreamVeraSans-Roman-73"/>
      <use transform="translate(298.095703125 0.015625)" xlink:href="#BitstreamVeraSans-Roman-69"/>
      <use transform="translate(325.87890625 0.015625)" xlink:href="#BitstreamVeraSans-Roman-6c"/>
      <use transform="translate(353.662109375 0.015625)" xlink:href="#BitstreamVeraSans-Roman-6f"/>
      <use transform="translate(414.84375 0.015625)" xlink:href="#BitstreamVeraSans-Roman-6e"/>
      <use transform="translate(478.22265625 0.015625)" xlink:href="#BitstreamVeraSans-Roman-49"/>
      <use transform="translate(507.71484375 0.015625)" xlink:href="#BitstreamVeraSans-Roman-6e"/>
      <use transform="translate(571.09375 0.015625)" xlink:href="#BitstreamVeraSans-Roman-73"/>
      <use transform="translate(623.193359375 0.015625)" xlink:href="#BitstreamVeraSans-Roman-4c"/>
      <use transform="translate(678.90625 0.015625)" xlink:href="#BitstreamVeraSans-Roman-6f"/>
      <use transform="translate(740.087890625 0.015625)" xlink:href="#BitstreamVeraSans-Roman-73"/>
      <use transform="translate(792.1875 0.015625)" xlink:href="#BitstreamVeraSans-Roman-73"/>
      <use transform="translate(844.287109375 0.015625)" xlink:href="#BitstreamVeraSans-Roman-20"/>
      <use transform="translate(876.07421875 0.015625)" xlink:href="#BitstreamVeraSans-Roman-77"/>
      <use transform="translate(957.861328125 0.015625)" xlink:href="#BitstreamVeraSans-Roman-69"/>
      <use transform="translate(985.64453125 0.015625)" xlink:href="#BitstreamVeraSans-Roman-74"/>
      <use transform="translate(1024.85351562 0.015625)" xlink:href="#BitstreamVeraSans-Roman-68"/>
      <use transform="translate(1088.23242188 0.015625)" xlink:href="#BitstreamVeraSans-Roman-20"/>
      <use transform="translate(1120.01953125 0.015625)" xlink:href="#Cmmi10-22"/>
      <use transform="translate(1166.6015625 0.015625)" xlink:href="#BitstreamVeraSans-Roman-20"/>
      <use transform="translate(1198.38867188 0.015625)" xlink:href="#BitstreamVeraSans-Roman-3d"/>
      <use transform="translate(1282.17773438 0.015625)" xlink:href="#BitstreamVeraSans-Roman-20"/>
      <use transform="translate(1313.96484375 0.015625)" xlink:href="#BitstreamVeraSans-Roman-31"/>
      <use transform="translate(1377.58789062 0.015625)" xlink:href="#BitstreamVeraSans-Roman-2e"/>
      <use transform="translate(1409.375 0.015625)" xlink:href="#BitstreamVeraSans-Roman-30"/>
     </g>
    </g>
    <g id="line2d_45">
     <path d="M 161.2625 99.145896 
L 172.4625 99.145896 
" style="fill:none;stroke:#008868;stroke-linecap:round;"/>
    </g>
    <g id="line2d_46"/>
    <g id="text_21">
     <!-- QuantileLoss with $\tau$ = 0.7 -->
     <defs>
      <path d="M 39.40625 66.21875 
Q 28.65625 66.21875 22.328125 58.203125 
Q 16.015625 50.203125 16.015625 36.375 
Q 16.015625 22.609375 22.328125 14.59375 
Q 28.65625 6.59375 39.40625 6.59375 
Q 50.140625 6.59375 56.421875 14.59375 
Q 62.703125 22.609375 62.703125 36.375 
Q 62.703125 50.203125 56.421875 58.203125 
Q 50.140625 66.21875 39.40625 66.21875 
M 53.21875 1.3125 
L 66.21875 -12.890625 
L 54.296875 -12.890625 
L 43.5 -1.21875 
Q 41.890625 -1.3125 41.03125 -1.359375 
Q 40.1875 -1.421875 39.40625 -1.421875 
Q 24.03125 -1.421875 14.8125 8.859375 
Q 5.609375 19.140625 5.609375 36.375 
Q 5.609375 53.65625 14.8125 63.9375 
Q 24.03125 74.21875 39.40625 74.21875 
Q 54.734375 74.21875 63.90625 63.9375 
Q 73.09375 53.65625 73.09375 36.375 
Q 73.09375 23.6875 67.984375 14.640625 
Q 62.890625 5.609375 53.21875 1.3125 
" id="BitstreamVeraSans-Roman-51"/>
      <path d="M 15.578125 1.515625 
Q 15.578125 2.203125 15.71875 2.59375 
L 26.21875 36.921875 
L 17.1875 36.921875 
Q 13.53125 36.921875 10.34375 34.625 
Q 7.171875 32.328125 5.078125 28.8125 
Q 4.890625 28.421875 4.5 28.421875 
L 3.328125 28.421875 
Q 2.390625 28.421875 2.390625 29.390625 
Q 2.390625 29.59375 2.59375 29.984375 
Q 5.859375 35.546875 9.59375 39.328125 
Q 13.328125 43.109375 18.015625 43.109375 
L 48.6875 43.109375 
Q 49.75 43.109375 50.484375 42.375 
Q 51.21875 41.65625 51.21875 40.578125 
Q 51.21875 39.109375 50.171875 38.015625 
Q 49.125 36.921875 47.609375 36.921875 
L 29.5 36.921875 
L 22.796875 2.390625 
Q 22.40625 0.78125 21.328125 -0.265625 
Q 20.265625 -1.3125 18.609375 -1.3125 
Q 17.328125 -1.3125 16.453125 -0.5 
Q 15.578125 0.296875 15.578125 1.515625 
" id="Cmmi10-bf"/>
      <path d="M 34.28125 27.484375 
Q 23.390625 27.484375 19.1875 25 
Q 14.984375 22.515625 14.984375 16.5 
Q 14.984375 11.71875 18.140625 8.90625 
Q 21.296875 6.109375 26.703125 6.109375 
Q 34.1875 6.109375 38.703125 11.40625 
Q 43.21875 16.703125 43.21875 25.484375 
L 43.21875 27.484375 
z
M 52.203125 31.203125 
L 52.203125 0 
L 43.21875 0 
L 43.21875 8.296875 
Q 40.140625 3.328125 35.546875 0.953125 
Q 30.953125 -1.421875 24.3125 -1.421875 
Q 15.921875 -1.421875 10.953125 3.296875 
Q 6 8.015625 6 15.921875 
Q 6 25.140625 12.171875 29.828125 
Q 18.359375 34.515625 30.609375 34.515625 
L 43.21875 34.515625 
L 43.21875 35.40625 
Q 43.21875 41.609375 39.140625 45 
Q 35.0625 48.390625 27.6875 48.390625 
Q 23 48.390625 18.546875 47.265625 
Q 14.109375 46.140625 10.015625 43.890625 
L 10.015625 52.203125 
Q 14.9375 54.109375 19.578125 55.046875 
Q 24.21875 56 28.609375 56 
Q 40.484375 56 46.34375 49.84375 
Q 52.203125 43.703125 52.203125 31.203125 
" id="BitstreamVeraSans-Roman-61"/>
      <path d="M 8.203125 72.90625 
L 55.078125 72.90625 
L 55.078125 68.703125 
L 28.609375 0 
L 18.3125 0 
L 43.21875 64.59375 
L 8.203125 64.59375 
z
" id="BitstreamVeraSans-Roman-37"/>
     </defs>
     <g transform="translate(181.2625 101.945895669)scale(0.08 -0.08)">
      <use transform="translate(0.0 0.015625)" xlink:href="#BitstreamVeraSans-Roman-51"/>
      <use transform="translate(78.7109375 0.015625)" xlink:href="#BitstreamVeraSans-Roman-75"/>
      <use transform="translate(142.08984375 0.015625)" xlink:href="#BitstreamVeraSans-Roman-61"/>
      <use transform="translate(203.369140625 0.015625)" xlink:href="#BitstreamVeraSans-Roman-6e"/>
      <use transform="translate(266.748046875 0.015625)" xlink:href="#BitstreamVeraSans-Roman-74"/>
      <use transform="translate(305.95703125 0.015625)" xlink:href="#BitstreamVeraSans-Roman-69"/>
      <use transform="translate(333.740234375 0.015625)" xlink:href="#BitstreamVeraSans-Roman-6c"/>
      <use transform="translate(361.5234375 0.015625)" xlink:href="#BitstreamVeraSans-Roman-65"/>
      <use transform="translate(423.046875 0.015625)" xlink:href="#BitstreamVeraSans-Roman-4c"/>
      <use transform="translate(478.759765625 0.015625)" xlink:href="#BitstreamVeraSans-Roman-6f"/>
      <use transform="translate(539.94140625 0.015625)" xlink:href="#BitstreamVeraSans-Roman-73"/>
      <use transform="translate(592.041015625 0.015625)" xlink:href="#BitstreamVeraSans-Roman-73"/>
      <use transform="translate(644.140625 0.015625)" xlink:href="#BitstreamVeraSans-Roman-20"/>
      <use transform="translate(675.927734375 0.015625)" xlink:href="#BitstreamVeraSans-Roman-77"/>
      <use transform="translate(757.71484375 0.015625)" xlink:href="#BitstreamVeraSans-Roman-69"/>
      <use transform="translate(785.498046875 0.015625)" xlink:href="#BitstreamVeraSans-Roman-74"/>
      <use transform="translate(824.70703125 0.015625)" xlink:href="#BitstreamVeraSans-Roman-68"/>
      <use transform="translate(888.0859375 0.015625)" xlink:href="#BitstreamVeraSans-Roman-20"/>
      <use transform="translate(919.873046875 0.015625)" xlink:href="#Cmmi10-bf"/>
      <use transform="translate(963.57421875 0.015625)" xlink:href="#BitstreamVeraSans-Roman-20"/>
      <use transform="translate(995.361328125 0.015625)" xlink:href="#BitstreamVeraSans-Roman-3d"/>
      <use transform="translate(1079.15039062 0.015625)" xlink:href="#BitstreamVeraSans-Roman-20"/>
      <use transform="translate(1110.9375 0.015625)" xlink:href="#BitstreamVeraSans-Roman-30"/>
      <use transform="translate(1174.56054688 0.015625)" xlink:href="#BitstreamVeraSans-Roman-2e"/>
      <use transform="translate(1206.23828125 0.015625)" xlink:href="#BitstreamVeraSans-Roman-37"/>
     </g>
    </g>
   </g>
  </g>
 </g>
 <defs>
  <clipPath id="p8907ffa7b6">
   <rect height="249.320708661" width="395.235708661" x="31.3646456693" y="6.43464566929"/>
  </clipPath>
 </defs>
</svg>
