<?xml version="1.0" encoding="utf-8" standalone="no"?>
<!DOCTYPE svg PUBLIC "-//W3C//DTD SVG 1.1//EN"
  "http://www.w3.org/Graphics/SVG/1.1/DTD/svg11.dtd">
<!-- Created with matplotlib (http://matplotlib.org/) -->
<svg height="252pt" version="1.1" viewBox="0 0 252 252" width="252pt" xmlns="http://www.w3.org/2000/svg" xmlns:xlink="http://www.w3.org/1999/xlink">
 <defs>
  <style type="text/css">
*{stroke-linecap:butt;stroke-linejoin:round;stroke-miterlimit:100000;}
  </style>
 </defs>
 <g id="figure_1">
  <g id="patch_1">
   <path d="M 0 252 
L 252 252 
L 252 0 
L 0 0 
L 0 252 
z
" style="fill:none;"/>
  </g>
  <g id="axes_1">
   <g id="patch_2">
    <path d="M 34.244646 219.272854 
L 246.600354 219.272854 
L 246.600354 6.917146 
L 34.244646 6.917146 
z
" style="fill:#ffffff;"/>
   </g>
   <g id="matplotlib.axis_1">
    <g id="xtick_1">
     <g id="line2d_1">
      <path clip-path="url(#p095950f9f7)" d="M 34.244646 219.272854 
L 34.244646 6.917146 
" style="fill:none;stroke:#000000;stroke-dasharray:1.000000,3.000000;stroke-dashoffset:0.0;stroke-width:0.5;"/>
     </g>
     <g id="line2d_2">
      <defs>
       <path d="M 0 0 
L 0 -4 
" id="mb3c8ee885f" style="stroke:#000000;stroke-width:0.5;"/>
      </defs>
      <g>
       <use style="stroke:#000000;stroke-width:0.5;" x="34.2446456693" xlink:href="#mb3c8ee885f" y="219.272854331"/>
      </g>
     </g>
     <g id="line2d_3">
      <defs>
       <path d="M 0 0 
L 0 4 
" id="me8bc6be7e6" style="stroke:#000000;stroke-width:0.5;"/>
      </defs>
      <g>
       <use style="stroke:#000000;stroke-width:0.5;" x="34.2446456693" xlink:href="#me8bc6be7e6" y="6.91714566929"/>
      </g>
     </g>
     <g id="text_1">
      <!-- -2 -->
      <defs>
       <path d="M 19.1875 8.296875 
L 53.609375 8.296875 
L 53.609375 0 
L 7.328125 0 
L 7.328125 8.296875 
Q 12.9375 14.109375 22.625 23.890625 
Q 32.328125 33.6875 34.8125 36.53125 
Q 39.546875 41.84375 41.421875 45.53125 
Q 43.3125 49.21875 43.3125 52.78125 
Q 43.3125 58.59375 39.234375 62.25 
Q 35.15625 65.921875 28.609375 65.921875 
Q 23.96875 65.921875 18.8125 64.3125 
Q 13.671875 62.703125 7.8125 59.421875 
L 7.8125 69.390625 
Q 13.765625 71.78125 18.9375 73 
Q 24.125 74.21875 28.421875 74.21875 
Q 39.75 74.21875 46.484375 68.546875 
Q 53.21875 62.890625 53.21875 53.421875 
Q 53.21875 48.921875 51.53125 44.890625 
Q 49.859375 40.875 45.40625 35.40625 
Q 44.1875 33.984375 37.640625 27.21875 
Q 31.109375 20.453125 19.1875 8.296875 
" id="BitstreamVeraSans-Roman-32"/>
       <path d="M 4.890625 31.390625 
L 31.203125 31.390625 
L 31.203125 23.390625 
L 4.890625 23.390625 
z
" id="BitstreamVeraSans-Roman-2d"/>
      </defs>
      <g transform="translate(30.2565206693 229.351604331)scale(0.08 -0.08)">
       <use xlink:href="#BitstreamVeraSans-Roman-2d"/>
       <use x="36.083984375" xlink:href="#BitstreamVeraSans-Roman-32"/>
      </g>
     </g>
    </g>
    <g id="xtick_2">
     <g id="line2d_4">
      <path clip-path="url(#p095950f9f7)" d="M 87.333573 219.272854 
L 87.333573 6.917146 
" style="fill:none;stroke:#000000;stroke-dasharray:1.000000,3.000000;stroke-dashoffset:0.0;stroke-width:0.5;"/>
     </g>
     <g id="line2d_5">
      <g>
       <use style="stroke:#000000;stroke-width:0.5;" x="87.3335728346" xlink:href="#mb3c8ee885f" y="219.272854331"/>
      </g>
     </g>
     <g id="line2d_6">
      <g>
       <use style="stroke:#000000;stroke-width:0.5;" x="87.3335728346" xlink:href="#me8bc6be7e6" y="6.91714566929"/>
      </g>
     </g>
     <g id="text_2">
      <!-- -1 -->
      <defs>
       <path d="M 12.40625 8.296875 
L 28.515625 8.296875 
L 28.515625 63.921875 
L 10.984375 60.40625 
L 10.984375 69.390625 
L 28.421875 72.90625 
L 38.28125 72.90625 
L 38.28125 8.296875 
L 54.390625 8.296875 
L 54.390625 0 
L 12.40625 0 
z
" id="BitstreamVeraSans-Roman-31"/>
      </defs>
      <g transform="translate(83.3454478346 229.351604331)scale(0.08 -0.08)">
       <use xlink:href="#BitstreamVeraSans-Roman-2d"/>
       <use x="36.083984375" xlink:href="#BitstreamVeraSans-Roman-31"/>
      </g>
     </g>
    </g>
    <g id="xtick_3">
     <g id="line2d_7">
      <path clip-path="url(#p095950f9f7)" d="M 140.4225 219.272854 
L 140.4225 6.917146 
" style="fill:none;stroke:#000000;stroke-dasharray:1.000000,3.000000;stroke-dashoffset:0.0;stroke-width:0.5;"/>
     </g>
     <g id="line2d_8">
      <g>
       <use style="stroke:#000000;stroke-width:0.5;" x="140.4225" xlink:href="#mb3c8ee885f" y="219.272854331"/>
      </g>
     </g>
     <g id="line2d_9">
      <g>
       <use style="stroke:#000000;stroke-width:0.5;" x="140.4225" xlink:href="#me8bc6be7e6" y="6.91714566929"/>
      </g>
     </g>
     <g id="text_3">
      <!-- 0 -->
      <defs>
       <path d="M 31.78125 66.40625 
Q 24.171875 66.40625 20.328125 58.90625 
Q 16.5 51.421875 16.5 36.375 
Q 16.5 21.390625 20.328125 13.890625 
Q 24.171875 6.390625 31.78125 6.390625 
Q 39.453125 6.390625 43.28125 13.890625 
Q 47.125 21.390625 47.125 36.375 
Q 47.125 51.421875 43.28125 58.90625 
Q 39.453125 66.40625 31.78125 66.40625 
M 31.78125 74.21875 
Q 44.046875 74.21875 50.515625 64.515625 
Q 56.984375 54.828125 56.984375 36.375 
Q 56.984375 17.96875 50.515625 8.265625 
Q 44.046875 -1.421875 31.78125 -1.421875 
Q 19.53125 -1.421875 13.0625 8.265625 
Q 6.59375 17.96875 6.59375 36.375 
Q 6.59375 54.828125 13.0625 64.515625 
Q 19.53125 74.21875 31.78125 74.21875 
" id="BitstreamVeraSans-Roman-30"/>
      </defs>
      <g transform="translate(137.8775 229.351604331)scale(0.08 -0.08)">
       <use xlink:href="#BitstreamVeraSans-Roman-30"/>
      </g>
     </g>
    </g>
    <g id="xtick_4">
     <g id="line2d_10">
      <path clip-path="url(#p095950f9f7)" d="M 193.511427 219.272854 
L 193.511427 6.917146 
" style="fill:none;stroke:#000000;stroke-dasharray:1.000000,3.000000;stroke-dashoffset:0.0;stroke-width:0.5;"/>
     </g>
     <g id="line2d_11">
      <g>
       <use style="stroke:#000000;stroke-width:0.5;" x="193.511427165" xlink:href="#mb3c8ee885f" y="219.272854331"/>
      </g>
     </g>
     <g id="line2d_12">
      <g>
       <use style="stroke:#000000;stroke-width:0.5;" x="193.511427165" xlink:href="#me8bc6be7e6" y="6.91714566929"/>
      </g>
     </g>
     <g id="text_4">
      <!-- 1 -->
      <g transform="translate(190.966427165 229.351604331)scale(0.08 -0.08)">
       <use xlink:href="#BitstreamVeraSans-Roman-31"/>
      </g>
     </g>
    </g>
    <g id="xtick_5">
     <g id="line2d_13">
      <path clip-path="url(#p095950f9f7)" d="M 246.600354 219.272854 
L 246.600354 6.917146 
" style="fill:none;stroke:#000000;stroke-dasharray:1.000000,3.000000;stroke-dashoffset:0.0;stroke-width:0.5;"/>
     </g>
     <g id="line2d_14">
      <g>
       <use style="stroke:#000000;stroke-width:0.5;" x="246.600354331" xlink:href="#mb3c8ee885f" y="219.272854331"/>
      </g>
     </g>
     <g id="line2d_15">
      <g>
       <use style="stroke:#000000;stroke-width:0.5;" x="246.600354331" xlink:href="#me8bc6be7e6" y="6.91714566929"/>
      </g>
     </g>
     <g id="text_5">
      <!-- 2 -->
      <g transform="translate(244.055354331 229.351604331)scale(0.08 -0.08)">
       <use xlink:href="#BitstreamVeraSans-Roman-32"/>
      </g>
     </g>
    </g>
    <g id="text_6">
     <!-- $\hat{y} - y$ -->
     <defs>
      <path d="M 13.484375 53.8125 
L 11.53125 55.90625 
L 25 69.390625 
L 38.375 55.90625 
L 36.375 53.8125 
L 25 63.8125 
z
" id="Cmr10-5e"/>
      <path d="M 10.203125 23 
Q 9.375 23 8.828125 23.625 
Q 8.296875 24.265625 8.296875 25 
Q 8.296875 25.734375 8.828125 26.359375 
Q 9.375 27 10.203125 27 
L 67.578125 27 
Q 68.359375 27 68.875 26.359375 
Q 69.390625 25.734375 69.390625 25 
Q 69.390625 24.265625 68.875 23.625 
Q 68.359375 23 67.578125 23 
z
" id="Cmsy10-a1"/>
      <path d="M 8.40625 -14.3125 
Q 10.5 -17.921875 15.71875 -17.921875 
Q 20.453125 -17.921875 23.921875 -14.59375 
Q 27.390625 -11.28125 29.515625 -6.5625 
Q 31.640625 -1.859375 32.8125 3.078125 
Q 28.375 -1.125 23.1875 -1.125 
Q 19.234375 -1.125 16.453125 0.234375 
Q 13.671875 1.609375 12.125 4.3125 
Q 10.59375 7.03125 10.59375 10.890625 
Q 10.59375 14.15625 11.46875 17.59375 
Q 12.359375 21.046875 13.9375 25.265625 
Q 15.53125 29.5 16.703125 32.625 
Q 18.015625 36.28125 18.015625 38.625 
Q 18.015625 41.609375 15.828125 41.609375 
Q 11.859375 41.609375 9.296875 37.53125 
Q 6.734375 33.453125 5.515625 28.421875 
Q 5.328125 27.78125 4.6875 27.78125 
L 3.515625 27.78125 
Q 2.6875 27.78125 2.6875 28.71875 
L 2.6875 29 
Q 4.296875 34.96875 7.609375 39.578125 
Q 10.9375 44.1875 16.015625 44.1875 
Q 19.578125 44.1875 22.046875 41.84375 
Q 24.515625 39.5 24.515625 35.890625 
Q 24.515625 34.03125 23.6875 31.984375 
Q 23.25 30.765625 21.6875 26.65625 
Q 20.125 22.5625 19.28125 19.875 
Q 18.453125 17.1875 17.921875 14.59375 
Q 17.390625 12.015625 17.390625 9.421875 
Q 17.390625 6.109375 18.796875 3.8125 
Q 20.21875 1.515625 23.296875 1.515625 
Q 29.5 1.515625 34.421875 9.078125 
L 42 39.890625 
Q 42.328125 41.21875 43.546875 42.15625 
Q 44.78125 43.109375 46.1875 43.109375 
Q 47.40625 43.109375 48.3125 42.328125 
Q 49.21875 41.546875 49.21875 40.28125 
Q 49.21875 39.703125 49.125 39.5 
L 39.203125 -0.296875 
Q 37.890625 -5.421875 34.375 -10.109375 
Q 30.859375 -14.796875 25.90625 -17.65625 
Q 20.953125 -20.515625 15.578125 -20.515625 
Q 12.984375 -20.515625 10.4375 -19.5 
Q 7.90625 -18.5 6.34375 -16.5 
Q 4.78125 -14.5 4.78125 -11.8125 
Q 4.78125 -9.078125 6.390625 -7.078125 
Q 8.015625 -5.078125 10.6875 -5.078125 
Q 12.3125 -5.078125 13.40625 -6.078125 
Q 14.5 -7.078125 14.5 -8.6875 
Q 14.5 -10.984375 12.78125 -12.6875 
Q 11.078125 -14.40625 8.796875 -14.40625 
Q 8.6875 -14.359375 8.59375 -14.328125 
Q 8.5 -14.3125 8.40625 -14.3125 
" id="Cmmi10-79"/>
     </defs>
     <g transform="translate(128.8175 244.351291831)scale(0.11 -0.11)">
      <use transform="translate(5.724609375 3.609375)" xlink:href="#Cmr10-5e"/>
      <use transform="translate(0.0 0.734375)" xlink:href="#Cmmi10-79"/>
      <use transform="translate(66.58203125 0.734375)" xlink:href="#Cmsy10-a1"/>
      <use transform="translate(161.826171875 0.734375)" xlink:href="#Cmmi10-79"/>
     </g>
    </g>
   </g>
   <g id="matplotlib.axis_2">
    <g id="ytick_1">
     <g id="line2d_16">
      <path clip-path="url(#p095950f9f7)" d="M 34.244646 219.272854 
L 246.600354 219.272854 
" style="fill:none;stroke:#000000;stroke-dasharray:1.000000,3.000000;stroke-dashoffset:0.0;stroke-width:0.5;"/>
     </g>
     <g id="line2d_17">
      <defs>
       <path d="M 0 0 
L 4 0 
" id="m973a810c54" style="stroke:#000000;stroke-width:0.5;"/>
      </defs>
      <g>
       <use style="stroke:#000000;stroke-width:0.5;" x="34.2446456693" xlink:href="#m973a810c54" y="219.272854331"/>
      </g>
     </g>
     <g id="line2d_18">
      <defs>
       <path d="M 0 0 
L -4 0 
" id="m4626d542fd" style="stroke:#000000;stroke-width:0.5;"/>
      </defs>
      <g>
       <use style="stroke:#000000;stroke-width:0.5;" x="246.600354331" xlink:href="#m4626d542fd" y="219.272854331"/>
      </g>
     </g>
     <g id="text_7">
      <!-- -2 -->
      <g transform="translate(22.2683956693 221.480354331)scale(0.08 -0.08)">
       <use xlink:href="#BitstreamVeraSans-Roman-2d"/>
       <use x="36.083984375" xlink:href="#BitstreamVeraSans-Roman-32"/>
      </g>
     </g>
    </g>
    <g id="ytick_2">
     <g id="line2d_19">
      <path clip-path="url(#p095950f9f7)" d="M 34.244646 166.183927 
L 246.600354 166.183927 
" style="fill:none;stroke:#000000;stroke-dasharray:1.000000,3.000000;stroke-dashoffset:0.0;stroke-width:0.5;"/>
     </g>
     <g id="line2d_20">
      <g>
       <use style="stroke:#000000;stroke-width:0.5;" x="34.2446456693" xlink:href="#m973a810c54" y="166.183927165"/>
      </g>
     </g>
     <g id="line2d_21">
      <g>
       <use style="stroke:#000000;stroke-width:0.5;" x="246.600354331" xlink:href="#m4626d542fd" y="166.183927165"/>
      </g>
     </g>
     <g id="text_8">
      <!-- -1 -->
      <g transform="translate(22.2683956693 168.391427165)scale(0.08 -0.08)">
       <use xlink:href="#BitstreamVeraSans-Roman-2d"/>
       <use x="36.083984375" xlink:href="#BitstreamVeraSans-Roman-31"/>
      </g>
     </g>
    </g>
    <g id="ytick_3">
     <g id="line2d_22">
      <path clip-path="url(#p095950f9f7)" d="M 34.244646 113.095 
L 246.600354 113.095 
" style="fill:none;stroke:#000000;stroke-dasharray:1.000000,3.000000;stroke-dashoffset:0.0;stroke-width:0.5;"/>
     </g>
     <g id="line2d_23">
      <g>
       <use style="stroke:#000000;stroke-width:0.5;" x="34.2446456693" xlink:href="#m973a810c54" y="113.095"/>
      </g>
     </g>
     <g id="line2d_24">
      <g>
       <use style="stroke:#000000;stroke-width:0.5;" x="246.600354331" xlink:href="#m4626d542fd" y="113.095"/>
      </g>
     </g>
     <g id="text_9">
      <!-- 0 -->
      <g transform="translate(25.1546456693 115.3025)scale(0.08 -0.08)">
       <use xlink:href="#BitstreamVeraSans-Roman-30"/>
      </g>
     </g>
    </g>
    <g id="ytick_4">
     <g id="line2d_25">
      <path clip-path="url(#p095950f9f7)" d="M 34.244646 60.006073 
L 246.600354 60.006073 
" style="fill:none;stroke:#000000;stroke-dasharray:1.000000,3.000000;stroke-dashoffset:0.0;stroke-width:0.5;"/>
     </g>
     <g id="line2d_26">
      <g>
       <use style="stroke:#000000;stroke-width:0.5;" x="34.2446456693" xlink:href="#m973a810c54" y="60.0060728346"/>
      </g>
     </g>
     <g id="line2d_27">
      <g>
       <use style="stroke:#000000;stroke-width:0.5;" x="246.600354331" xlink:href="#m4626d542fd" y="60.0060728346"/>
      </g>
     </g>
     <g id="text_10">
      <!-- 1 -->
      <g transform="translate(25.1546456693 62.2135728346)scale(0.08 -0.08)">
       <use xlink:href="#BitstreamVeraSans-Roman-31"/>
      </g>
     </g>
    </g>
    <g id="ytick_5">
     <g id="line2d_28">
      <path clip-path="url(#p095950f9f7)" d="M 34.244646 6.917146 
L 246.600354 6.917146 
" style="fill:none;stroke:#000000;stroke-dasharray:1.000000,3.000000;stroke-dashoffset:0.0;stroke-width:0.5;"/>
     </g>
     <g id="line2d_29">
      <g>
       <use style="stroke:#000000;stroke-width:0.5;" x="34.2446456693" xlink:href="#m973a810c54" y="6.91714566929"/>
      </g>
     </g>
     <g id="line2d_30">
      <g>
       <use style="stroke:#000000;stroke-width:0.5;" x="246.600354331" xlink:href="#m4626d542fd" y="6.91714566929"/>
      </g>
     </g>
     <g id="text_11">
      <!-- 2 -->
      <g transform="translate(25.1546456693 9.12464566929)scale(0.08 -0.08)">
       <use xlink:href="#BitstreamVeraSans-Roman-32"/>
      </g>
     </g>
    </g>
    <g id="text_12">
     <!-- $L'(\hat{y} - y)$ -->
     <defs>
      <path d="M 3.515625 5.421875 
Q 2.875 5.609375 2.875 6.390625 
L 15.09375 51.8125 
Q 15.671875 53.65625 17.078125 54.78125 
Q 18.5 55.90625 20.3125 55.90625 
Q 22.65625 55.90625 24.4375 54.359375 
Q 26.21875 52.828125 26.21875 50.484375 
Q 26.21875 49.46875 25.6875 48.1875 
L 7.625 4.984375 
Q 7.28125 4.296875 6.6875 4.296875 
Q 6.15625 4.296875 5 4.78125 
Q 3.859375 5.28125 3.515625 5.421875 
" id="Cmsy10-30"/>
      <path d="M 31 -24.8125 
Q 25.4375 -20.40625 21.40625 -14.71875 
Q 17.390625 -9.03125 14.8125 -2.578125 
Q 12.25 3.859375 10.984375 10.890625 
Q 9.71875 17.921875 9.71875 25 
Q 9.71875 32.171875 10.984375 39.203125 
Q 12.25 46.234375 14.859375 52.734375 
Q 17.484375 59.234375 21.53125 64.890625 
Q 25.59375 70.5625 31 74.8125 
Q 31 75 31.5 75 
L 32.421875 75 
Q 32.71875 75 32.953125 74.734375 
Q 33.203125 74.46875 33.203125 74.125 
Q 33.203125 73.6875 33.015625 73.484375 
Q 28.125 68.703125 24.875 63.234375 
Q 21.625 57.765625 19.640625 51.578125 
Q 17.671875 45.40625 16.796875 38.78125 
Q 15.921875 32.171875 15.921875 25 
Q 15.921875 -6.78125 32.90625 -23.296875 
Q 33.203125 -23.578125 33.203125 -24.125 
Q 33.203125 -24.359375 32.9375 -24.671875 
Q 32.671875 -25 32.421875 -25 
L 31.5 -25 
Q 31 -25 31 -24.8125 
" id="Cmr10-28"/>
      <path d="M 4.6875 0 
Q 3.71875 0 3.71875 1.3125 
Q 3.765625 1.5625 3.90625 2.171875 
Q 4.046875 2.78125 4.3125 3.140625 
Q 4.59375 3.515625 4.984375 3.515625 
Q 11.078125 3.515625 13.484375 4.203125 
Q 14.796875 4.640625 15.375 6.890625 
L 29.109375 61.8125 
Q 29.296875 62.796875 29.296875 63.1875 
Q 29.296875 64.265625 28.078125 64.40625 
Q 26.21875 64.796875 20.90625 64.796875 
Q 19.921875 64.796875 19.921875 66.109375 
Q 20.265625 67.390625 20.453125 67.84375 
Q 20.65625 68.3125 21.578125 68.3125 
L 51.125 68.3125 
Q 52 68.3125 52 67 
Q 51.859375 65.96875 51.65625 65.375 
Q 51.46875 64.796875 50.6875 64.796875 
Q 43.3125 64.796875 40.828125 64.3125 
Q 38.375 63.875 37.796875 61.375 
L 24.125 6.5 
Q 23.6875 5.28125 23.6875 4.296875 
Q 23.6875 3.515625 27.09375 3.515625 
L 36.375 3.515625 
Q 44.234375 3.515625 49.109375 6.640625 
Q 54 9.765625 56.34375 13.6875 
Q 58.6875 17.625 60.265625 21.84375 
Q 61.859375 26.078125 62.59375 26.21875 
L 63.484375 26.21875 
Q 64.5 26.21875 64.5 24.90625 
L 55.609375 0.6875 
Q 55.46875 0 54.6875 0 
z
" id="Cmmi10-4c"/>
      <path d="M 6.5 -25 
Q 5.609375 -25 5.609375 -24.125 
Q 5.609375 -23.6875 5.8125 -23.484375 
Q 22.90625 -6.78125 22.90625 25 
Q 22.90625 56.78125 6 73.296875 
Q 5.609375 73.53125 5.609375 74.125 
Q 5.609375 74.46875 5.875 74.734375 
Q 6.15625 75 6.5 75 
L 7.421875 75 
Q 7.71875 75 7.90625 74.8125 
Q 15.09375 69.140625 19.875 61.03125 
Q 24.65625 52.9375 26.875 43.75 
Q 29.109375 34.578125 29.109375 25 
Q 29.109375 17.921875 27.90625 11.0625 
Q 26.703125 4.203125 24.09375 -2.453125 
Q 21.484375 -9.125 17.484375 -14.765625 
Q 13.484375 -20.40625 7.90625 -24.8125 
Q 7.71875 -25 7.421875 -25 
z
" id="Cmr10-29"/>
     </defs>
     <g transform="translate(14.5183956693 133.72)rotate(-90.0)scale(0.11 -0.11)">
      <use xlink:href="#Cmmi10-4c"/>
      <use transform="translate(79.387109375 38.2640625)scale(0.7)" xlink:href="#Cmsy10-30"/>
      <use transform="translate(85.764453125 0.0)" xlink:href="#Cmr10-28"/>
      <use transform="translate(130.307421875 2.875)" xlink:href="#Cmr10-5e"/>
      <use transform="translate(124.5828125 0.0)" xlink:href="#Cmmi10-79"/>
      <use transform="translate(191.16484375 0.0)" xlink:href="#Cmsy10-a1"/>
      <use transform="translate(286.408984375 0.0)" xlink:href="#Cmmi10-79"/>
      <use transform="translate(335.432421875 0.0)" xlink:href="#Cmr10-29"/>
     </g>
    </g>
   </g>
   <g id="line2d_31">
    <path clip-path="url(#p095950f9f7)" d="M 34.244646 131.86477 
L 46.985988 133.103642 
L 57.869218 134.38172 
L 67.159781 135.691148 
L 75.12312 137.029337 
L 82.02468 138.404153 
L 88.129907 139.840815 
L 93.438799 141.311446 
L 98.216803 142.865792 
L 102.463917 144.487141 
L 106.180142 146.146722 
L 109.365478 147.800317 
L 112.285369 149.556625 
L 114.939815 151.408633 
L 117.328817 153.341612 
L 119.452374 155.330283 
L 121.575931 157.646238 
L 123.434043 160.019426 
L 125.026711 162.386831 
L 126.619379 165.152976 
L 127.946602 167.852047 
L 129.273825 171.019768 
L 130.601048 174.809624 
L 131.662827 178.442952 
L 132.724606 182.804177 
L 133.786384 188.174081 
L 134.848163 195.012993 
L 135.644497 201.576545 
L 136.44083 210.021677 
L 137.237164 221.462319 
L 137.768054 231.80545 
L 138.298943 245.817318 
L 138.507001 253 
M 140.323572 253 
L 140.4225 113.095 
L 140.503177 -1 
M 143.298713 -1 
L 143.87328 8.979048 
L 144.669614 19.246149 
L 145.465948 26.973388 
L 146.527727 34.819647 
L 147.589505 40.850121 
L 148.651284 45.671995 
L 149.978507 50.529099 
L 151.30573 54.468088 
L 152.632953 57.745967 
L 154.225621 61.037024 
L 155.818289 63.803169 
L 157.676401 66.532931 
L 159.534514 68.854227 
L 161.658071 71.124518 
L 163.781628 73.077715 
L 166.17063 74.979372 
L 168.825076 76.804157 
L 171.744967 78.537052 
L 174.930303 80.170645 
L 178.646528 81.81205 
L 182.628197 83.324208 
L 187.140756 84.798507 
L 192.184204 86.212377 
L 198.023986 87.611499 
L 204.660102 88.963669 
L 212.092552 90.249163 
L 220.852225 91.529098 
L 230.939121 92.766199 
L 242.618685 93.963079 
L 246.600354 94.32523 
L 246.600354 94.32523 
" style="fill:none;stroke:#00008b;stroke-linecap:round;"/>
   </g>
   <g id="line2d_32">
    <path clip-path="url(#p095950f9f7)" d="M 34.244646 225.713621 
L 44.066097 220.378646 
L 53.091215 215.230839 
L 61.585443 210.136709 
L 69.548782 205.105172 
L 76.981232 200.147082 
L 83.882793 195.275733 
L 90.253464 190.507503 
L 96.093246 185.862666 
L 101.402139 181.366411 
L 106.445587 176.801713 
L 110.958145 172.42054 
L 115.20526 167.978527 
L 118.921484 163.77338 
L 122.372265 159.528847 
L 125.292156 155.607597 
L 127.946602 151.698718 
L 130.335604 147.80639 
L 132.459161 143.93688 
L 134.317273 140.099997 
L 135.909941 136.311924 
L 137.237164 132.601117 
L 138.298943 129.021678 
L 139.095277 125.686145 
L 139.626166 122.848059 
L 140.157055 118.725931 
L 140.687945 107.464069 
L 141.218834 103.341941 
L 142.015168 99.302092 
L 143.076946 95.288433 
L 144.40417 91.286498 
L 145.996837 87.290832 
L 147.85495 83.298914 
L 149.978507 79.309414 
L 152.367509 75.321566 
L 155.021955 71.334898 
L 157.941846 67.3491 
L 161.127182 63.363963 
L 164.843406 59.085007 
L 168.825076 54.848196 
L 173.07219 50.644954 
L 177.850194 46.231398 
L 183.159086 41.646495 
L 188.733424 37.129587 
L 194.83865 32.472337 
L 201.474766 27.697702 
L 208.641771 22.824308 
L 216.339666 17.867315 
L 224.56845 12.839123 
L 233.328123 7.749926 
L 242.618685 2.608154 
L 246.600354 0.476379 
L 246.600354 0.476379 
" style="fill:none;stroke:#cc0000;stroke-linecap:round;"/>
   </g>
   <g id="patch_3">
    <path d="M 34.244646 6.917146 
L 246.600354 6.917146 
" style="fill:none;stroke:#000000;stroke-linecap:square;stroke-linejoin:miter;"/>
   </g>
   <g id="patch_4">
    <path d="M 246.600354 219.272854 
L 246.600354 6.917146 
" style="fill:none;stroke:#000000;stroke-linecap:square;stroke-linejoin:miter;"/>
   </g>
   <g id="patch_5">
    <path d="M 34.244646 219.272854 
L 246.600354 219.272854 
" style="fill:none;stroke:#000000;stroke-linecap:square;stroke-linejoin:miter;"/>
   </g>
   <g id="patch_6">
    <path d="M 34.244646 219.272854 
L 34.244646 6.917146 
" style="fill:none;stroke:#000000;stroke-linecap:square;stroke-linejoin:miter;"/>
   </g>
   <g id="line2d_33">
    <path clip-path="url(#p095950f9f7)" d="M 90.665242 253 
L 93.969689 235.03363 
L 97.155024 218.883978 
L 100.34036 203.881047 
L 103.260251 191.135723 
L 106.180142 179.353963 
L 109.100033 168.535767 
L 111.754479 159.537193 
L 114.408926 151.334954 
L 116.797927 144.633804 
L 119.186929 138.577685 
L 121.575931 133.166596 
L 123.699488 128.898246 
L 125.823045 125.13955 
L 127.681157 122.268767 
L 129.53927 119.788186 
L 131.397382 117.69781 
L 132.99005 116.216629 
L 134.582718 115.022128 
L 136.175386 114.114307 
L 137.768054 113.493167 
L 139.095277 113.194542 
L 140.687945 113.091018 
L 142.015168 112.95166 
L 143.342391 112.613218 
L 144.669614 112.075693 
L 146.262282 111.167872 
L 147.85495 109.973371 
L 149.447618 108.49219 
L 151.040285 106.724329 
L 152.898398 104.299492 
L 154.75651 101.484452 
L 156.614623 98.279208 
L 158.73818 94.138271 
L 160.861737 89.487681 
L 162.985294 84.327438 
L 165.374296 77.912968 
L 167.763297 70.853468 
L 170.417744 62.253062 
L 173.07219 52.856322 
L 175.726637 42.663248 
L 178.646528 30.5311 
L 181.566419 17.435389 
L 184.751754 2.050218 
L 185.356299 -1 
L 185.356299 -1 
" style="fill:none;stroke:#008000;stroke-linecap:round;"/>
   </g>
   <g id="legend_1">
    <g id="patch_7">
     <path d="M 38.244646 48.544646 
L 161.089646 48.544646 
L 161.089646 10.917146 
L 38.244646 10.917146 
z
" style="fill:#ffffff;stroke:#000000;stroke-linejoin:miter;"/>
    </g>
    <g id="line2d_34">
     <path d="M 43.844646 17.395896 
L 55.044646 17.395896 
" style="fill:none;stroke:#00008b;stroke-linecap:round;"/>
    </g>
    <g id="line2d_35"/>
    <g id="text_13">
     <!-- LPDistLoss with P = 0.5 -->
     <defs>
      <path id="BitstreamVeraSans-Roman-20"/>
      <path d="M 9.8125 72.90625 
L 19.671875 72.90625 
L 19.671875 8.296875 
L 55.171875 8.296875 
L 55.171875 0 
L 9.8125 0 
z
" id="BitstreamVeraSans-Roman-4c"/>
      <path d="M 10.796875 72.90625 
L 49.515625 72.90625 
L 49.515625 64.59375 
L 19.828125 64.59375 
L 19.828125 46.734375 
Q 21.96875 47.46875 24.109375 47.828125 
Q 26.265625 48.1875 28.421875 48.1875 
Q 40.625 48.1875 47.75 41.5 
Q 54.890625 34.8125 54.890625 23.390625 
Q 54.890625 11.625 47.5625 5.09375 
Q 40.234375 -1.421875 26.90625 -1.421875 
Q 22.3125 -1.421875 17.546875 -0.640625 
Q 12.796875 0.140625 7.71875 1.703125 
L 7.71875 11.625 
Q 12.109375 9.234375 16.796875 8.0625 
Q 21.484375 6.890625 26.703125 6.890625 
Q 35.15625 6.890625 40.078125 11.328125 
Q 45.015625 15.765625 45.015625 23.390625 
Q 45.015625 31 40.078125 35.4375 
Q 35.15625 39.890625 26.703125 39.890625 
Q 22.75 39.890625 18.8125 39.015625 
Q 14.890625 38.140625 10.796875 36.28125 
z
" id="BitstreamVeraSans-Roman-35"/>
      <path d="M 30.609375 48.390625 
Q 23.390625 48.390625 19.1875 42.75 
Q 14.984375 37.109375 14.984375 27.296875 
Q 14.984375 17.484375 19.15625 11.84375 
Q 23.34375 6.203125 30.609375 6.203125 
Q 37.796875 6.203125 41.984375 11.859375 
Q 46.1875 17.53125 46.1875 27.296875 
Q 46.1875 37.015625 41.984375 42.703125 
Q 37.796875 48.390625 30.609375 48.390625 
M 30.609375 56 
Q 42.328125 56 49.015625 48.375 
Q 55.71875 40.765625 55.71875 27.296875 
Q 55.71875 13.875 49.015625 6.21875 
Q 42.328125 -1.421875 30.609375 -1.421875 
Q 18.84375 -1.421875 12.171875 6.21875 
Q 5.515625 13.875 5.515625 27.296875 
Q 5.515625 40.765625 12.171875 48.375 
Q 18.84375 56 30.609375 56 
" id="BitstreamVeraSans-Roman-6f"/>
      <path d="M 19.671875 64.796875 
L 19.671875 37.40625 
L 32.078125 37.40625 
Q 38.96875 37.40625 42.71875 40.96875 
Q 46.484375 44.53125 46.484375 51.125 
Q 46.484375 57.671875 42.71875 61.234375 
Q 38.96875 64.796875 32.078125 64.796875 
z
M 9.8125 72.90625 
L 32.078125 72.90625 
Q 44.34375 72.90625 50.609375 67.359375 
Q 56.890625 61.8125 56.890625 51.125 
Q 56.890625 40.328125 50.609375 34.8125 
Q 44.34375 29.296875 32.078125 29.296875 
L 19.671875 29.296875 
L 19.671875 0 
L 9.8125 0 
z
" id="BitstreamVeraSans-Roman-50"/>
      <path d="M 10.6875 12.40625 
L 21 12.40625 
L 21 0 
L 10.6875 0 
z
" id="BitstreamVeraSans-Roman-2e"/>
      <path d="M 19.671875 64.796875 
L 19.671875 8.109375 
L 31.59375 8.109375 
Q 46.6875 8.109375 53.6875 14.9375 
Q 60.6875 21.78125 60.6875 36.53125 
Q 60.6875 51.171875 53.6875 57.984375 
Q 46.6875 64.796875 31.59375 64.796875 
z
M 9.8125 72.90625 
L 30.078125 72.90625 
Q 51.265625 72.90625 61.171875 64.09375 
Q 71.09375 55.28125 71.09375 36.53125 
Q 71.09375 17.671875 61.125 8.828125 
Q 51.171875 0 30.078125 0 
L 9.8125 0 
z
" id="BitstreamVeraSans-Roman-44"/>
      <path d="M 9.421875 54.6875 
L 18.40625 54.6875 
L 18.40625 0 
L 9.421875 0 
z
M 9.421875 75.984375 
L 18.40625 75.984375 
L 18.40625 64.59375 
L 9.421875 64.59375 
z
" id="BitstreamVeraSans-Roman-69"/>
      <path d="M 54.890625 33.015625 
L 54.890625 0 
L 45.90625 0 
L 45.90625 32.71875 
Q 45.90625 40.484375 42.875 44.328125 
Q 39.84375 48.1875 33.796875 48.1875 
Q 26.515625 48.1875 22.3125 43.546875 
Q 18.109375 38.921875 18.109375 30.90625 
L 18.109375 0 
L 9.078125 0 
L 9.078125 75.984375 
L 18.109375 75.984375 
L 18.109375 46.1875 
Q 21.34375 51.125 25.703125 53.5625 
Q 30.078125 56 35.796875 56 
Q 45.21875 56 50.046875 50.171875 
Q 54.890625 44.34375 54.890625 33.015625 
" id="BitstreamVeraSans-Roman-68"/>
      <path d="M 10.59375 45.40625 
L 73.1875 45.40625 
L 73.1875 37.203125 
L 10.59375 37.203125 
z
M 10.59375 25.484375 
L 73.1875 25.484375 
L 73.1875 17.1875 
L 10.59375 17.1875 
z
" id="BitstreamVeraSans-Roman-3d"/>
      <path d="M 4.203125 54.6875 
L 13.1875 54.6875 
L 24.421875 12.015625 
L 35.59375 54.6875 
L 46.1875 54.6875 
L 57.421875 12.015625 
L 68.609375 54.6875 
L 77.59375 54.6875 
L 63.28125 0 
L 52.6875 0 
L 40.921875 44.828125 
L 29.109375 0 
L 18.5 0 
z
" id="BitstreamVeraSans-Roman-77"/>
      <path d="M 18.3125 70.21875 
L 18.3125 54.6875 
L 36.8125 54.6875 
L 36.8125 47.703125 
L 18.3125 47.703125 
L 18.3125 18.015625 
Q 18.3125 11.328125 20.140625 9.421875 
Q 21.96875 7.515625 27.59375 7.515625 
L 36.8125 7.515625 
L 36.8125 0 
L 27.59375 0 
Q 17.1875 0 13.234375 3.875 
Q 9.28125 7.765625 9.28125 18.015625 
L 9.28125 47.703125 
L 2.6875 47.703125 
L 2.6875 54.6875 
L 9.28125 54.6875 
L 9.28125 70.21875 
z
" id="BitstreamVeraSans-Roman-74"/>
      <path d="M 44.28125 53.078125 
L 44.28125 44.578125 
Q 40.484375 46.53125 36.375 47.5 
Q 32.28125 48.484375 27.875 48.484375 
Q 21.1875 48.484375 17.84375 46.4375 
Q 14.5 44.390625 14.5 40.28125 
Q 14.5 37.15625 16.890625 35.375 
Q 19.28125 33.59375 26.515625 31.984375 
L 29.59375 31.296875 
Q 39.15625 29.25 43.1875 25.515625 
Q 47.21875 21.78125 47.21875 15.09375 
Q 47.21875 7.46875 41.1875 3.015625 
Q 35.15625 -1.421875 24.609375 -1.421875 
Q 20.21875 -1.421875 15.453125 -0.5625 
Q 10.6875 0.296875 5.421875 2 
L 5.421875 11.28125 
Q 10.40625 8.6875 15.234375 7.390625 
Q 20.0625 6.109375 24.8125 6.109375 
Q 31.15625 6.109375 34.5625 8.28125 
Q 37.984375 10.453125 37.984375 14.40625 
Q 37.984375 18.0625 35.515625 20.015625 
Q 33.0625 21.96875 24.703125 23.78125 
L 21.578125 24.515625 
Q 13.234375 26.265625 9.515625 29.90625 
Q 5.8125 33.546875 5.8125 39.890625 
Q 5.8125 47.609375 11.28125 51.796875 
Q 16.75 56 26.8125 56 
Q 31.78125 56 36.171875 55.265625 
Q 40.578125 54.546875 44.28125 53.078125 
" id="BitstreamVeraSans-Roman-73"/>
     </defs>
     <g transform="translate(63.8446456693 20.1958956693)scale(0.08 -0.08)">
      <use xlink:href="#BitstreamVeraSans-Roman-4c"/>
      <use x="55.712890625" xlink:href="#BitstreamVeraSans-Roman-50"/>
      <use x="116.015625" xlink:href="#BitstreamVeraSans-Roman-44"/>
      <use x="193.017578125" xlink:href="#BitstreamVeraSans-Roman-69"/>
      <use x="220.80078125" xlink:href="#BitstreamVeraSans-Roman-73"/>
      <use x="272.900390625" xlink:href="#BitstreamVeraSans-Roman-74"/>
      <use x="312.109375" xlink:href="#BitstreamVeraSans-Roman-4c"/>
      <use x="367.806640625" xlink:href="#BitstreamVeraSans-Roman-6f"/>
      <use x="428.98828125" xlink:href="#BitstreamVeraSans-Roman-73"/>
      <use x="481.087890625" xlink:href="#BitstreamVeraSans-Roman-73"/>
      <use x="533.1875" xlink:href="#BitstreamVeraSans-Roman-20"/>
      <use x="564.974609375" xlink:href="#BitstreamVeraSans-Roman-77"/>
      <use x="646.76171875" xlink:href="#BitstreamVeraSans-Roman-69"/>
      <use x="674.544921875" xlink:href="#BitstreamVeraSans-Roman-74"/>
      <use x="713.75390625" xlink:href="#BitstreamVeraSans-Roman-68"/>
      <use x="777.1328125" xlink:href="#BitstreamVeraSans-Roman-20"/>
      <use x="808.919921875" xlink:href="#BitstreamVeraSans-Roman-50"/>
      <use x="869.22265625" xlink:href="#BitstreamVeraSans-Roman-20"/>
      <use x="901.009765625" xlink:href="#BitstreamVeraSans-Roman-3d"/>
      <use x="984.798828125" xlink:href="#BitstreamVeraSans-Roman-20"/>
      <use x="1016.5859375" xlink:href="#BitstreamVeraSans-Roman-30"/>
      <use x="1080.20898438" xlink:href="#BitstreamVeraSans-Roman-2e"/>
      <use x="1111.99609375" xlink:href="#BitstreamVeraSans-Roman-35"/>
     </g>
    </g>
    <g id="line2d_36">
     <path d="M 43.844646 29.138396 
L 55.044646 29.138396 
" style="fill:none;stroke:#cc0000;stroke-linecap:round;"/>
    </g>
    <g id="line2d_37"/>
    <g id="text_14">
     <!-- LPDistLoss with P = 1.5 -->
     <g transform="translate(63.8446456693 31.9383956693)scale(0.08 -0.08)">
      <use xlink:href="#BitstreamVeraSans-Roman-4c"/>
      <use x="55.712890625" xlink:href="#BitstreamVeraSans-Roman-50"/>
      <use x="116.015625" xlink:href="#BitstreamVeraSans-Roman-44"/>
      <use x="193.017578125" xlink:href="#BitstreamVeraSans-Roman-69"/>
      <use x="220.80078125" xlink:href="#BitstreamVeraSans-Roman-73"/>
      <use x="272.900390625" xlink:href="#BitstreamVeraSans-Roman-74"/>
      <use x="312.109375" xlink:href="#BitstreamVeraSans-Roman-4c"/>
      <use x="367.806640625" xlink:href="#BitstreamVeraSans-Roman-6f"/>
      <use x="428.98828125" xlink:href="#BitstreamVeraSans-Roman-73"/>
      <use x="481.087890625" xlink:href="#BitstreamVeraSans-Roman-73"/>
      <use x="533.1875" xlink:href="#BitstreamVeraSans-Roman-20"/>
      <use x="564.974609375" xlink:href="#BitstreamVeraSans-Roman-77"/>
      <use x="646.76171875" xlink:href="#BitstreamVeraSans-Roman-69"/>
      <use x="674.544921875" xlink:href="#BitstreamVeraSans-Roman-74"/>
      <use x="713.75390625" xlink:href="#BitstreamVeraSans-Roman-68"/>
      <use x="777.1328125" xlink:href="#BitstreamVeraSans-Roman-20"/>
      <use x="808.919921875" xlink:href="#BitstreamVeraSans-Roman-50"/>
      <use x="869.22265625" xlink:href="#BitstreamVeraSans-Roman-20"/>
      <use x="901.009765625" xlink:href="#BitstreamVeraSans-Roman-3d"/>
      <use x="984.798828125" xlink:href="#BitstreamVeraSans-Roman-20"/>
      <use x="1016.5859375" xlink:href="#BitstreamVeraSans-Roman-31"/>
      <use x="1080.20898438" xlink:href="#BitstreamVeraSans-Roman-2e"/>
      <use x="1111.99609375" xlink:href="#BitstreamVeraSans-Roman-35"/>
     </g>
    </g>
    <g id="line2d_38">
     <path d="M 43.844646 40.880896 
L 55.044646 40.880896 
" style="fill:none;stroke:#008000;stroke-linecap:round;"/>
    </g>
    <g id="line2d_39"/>
    <g id="text_15">
     <!-- LPDistLoss with P = 3 -->
     <defs>
      <path d="M 40.578125 39.3125 
Q 47.65625 37.796875 51.625 33 
Q 55.609375 28.21875 55.609375 21.1875 
Q 55.609375 10.40625 48.1875 4.484375 
Q 40.765625 -1.421875 27.09375 -1.421875 
Q 22.515625 -1.421875 17.65625 -0.515625 
Q 12.796875 0.390625 7.625 2.203125 
L 7.625 11.71875 
Q 11.71875 9.328125 16.59375 8.109375 
Q 21.484375 6.890625 26.8125 6.890625 
Q 36.078125 6.890625 40.9375 10.546875 
Q 45.796875 14.203125 45.796875 21.1875 
Q 45.796875 27.640625 41.28125 31.265625 
Q 36.765625 34.90625 28.71875 34.90625 
L 20.21875 34.90625 
L 20.21875 43.015625 
L 29.109375 43.015625 
Q 36.375 43.015625 40.234375 45.921875 
Q 44.09375 48.828125 44.09375 54.296875 
Q 44.09375 59.90625 40.109375 62.90625 
Q 36.140625 65.921875 28.71875 65.921875 
Q 24.65625 65.921875 20.015625 65.03125 
Q 15.375 64.15625 9.8125 62.3125 
L 9.8125 71.09375 
Q 15.4375 72.65625 20.34375 73.4375 
Q 25.25 74.21875 29.59375 74.21875 
Q 40.828125 74.21875 47.359375 69.109375 
Q 53.90625 64.015625 53.90625 55.328125 
Q 53.90625 49.265625 50.4375 45.09375 
Q 46.96875 40.921875 40.578125 39.3125 
" id="BitstreamVeraSans-Roman-33"/>
     </defs>
     <g transform="translate(63.8446456693 43.6808956693)scale(0.08 -0.08)">
      <use xlink:href="#BitstreamVeraSans-Roman-4c"/>
      <use x="55.712890625" xlink:href="#BitstreamVeraSans-Roman-50"/>
      <use x="116.015625" xlink:href="#BitstreamVeraSans-Roman-44"/>
      <use x="193.017578125" xlink:href="#BitstreamVeraSans-Roman-69"/>
      <use x="220.80078125" xlink:href="#BitstreamVeraSans-Roman-73"/>
      <use x="272.900390625" xlink:href="#BitstreamVeraSans-Roman-74"/>
      <use x="312.109375" xlink:href="#BitstreamVeraSans-Roman-4c"/>
      <use x="367.806640625" xlink:href="#BitstreamVeraSans-Roman-6f"/>
      <use x="428.98828125" xlink:href="#BitstreamVeraSans-Roman-73"/>
      <use x="481.087890625" xlink:href="#BitstreamVeraSans-Roman-73"/>
      <use x="533.1875" xlink:href="#BitstreamVeraSans-Roman-20"/>
      <use x="564.974609375" xlink:href="#BitstreamVeraSans-Roman-77"/>
      <use x="646.76171875" xlink:href="#BitstreamVeraSans-Roman-69"/>
      <use x="674.544921875" xlink:href="#BitstreamVeraSans-Roman-74"/>
      <use x="713.75390625" xlink:href="#BitstreamVeraSans-Roman-68"/>
      <use x="777.1328125" xlink:href="#BitstreamVeraSans-Roman-20"/>
      <use x="808.919921875" xlink:href="#BitstreamVeraSans-Roman-50"/>
      <use x="869.22265625" xlink:href="#BitstreamVeraSans-Roman-20"/>
      <use x="901.009765625" xlink:href="#BitstreamVeraSans-Roman-3d"/>
      <use x="984.798828125" xlink:href="#BitstreamVeraSans-Roman-20"/>
      <use x="1016.5859375" xlink:href="#BitstreamVeraSans-Roman-33"/>
     </g>
    </g>
   </g>
  </g>
 </g>
 <defs>
  <clipPath id="p095950f9f7">
   <rect height="212.355708661" width="212.355708661" x="34.2446456693" y="6.91714566929"/>
  </clipPath>
 </defs>
</svg>
