<?xml version="1.0" encoding="utf-8" standalone="no"?>
<!DOCTYPE svg PUBLIC "-//W3C//DTD SVG 1.1//EN"
  "http://www.w3.org/Graphics/SVG/1.1/DTD/svg11.dtd">
<!-- Created with matplotlib (http://matplotlib.org/) -->
<svg height="288pt" version="1.1" viewBox="0 0 432 288" width="432pt" xmlns="http://www.w3.org/2000/svg" xmlns:xlink="http://www.w3.org/1999/xlink">
 <defs>
  <style type="text/css">
*{stroke-linecap:butt;stroke-linejoin:round;stroke-miterlimit:100000;}
  </style>
 </defs>
 <g id="figure_1">
  <g id="patch_1">
   <path d="M 0 288 
L 432 288 
L 432 0 
L 0 0 
z
" style="fill:#ffffff;"/>
  </g>
  <g id="axes_1">
   <g id="patch_2">
    <path d="M 27.764646 258.165354 
L 426.600354 258.165354 
L 426.600354 6.434646 
L 27.764646 6.434646 
z
" style="fill:#ffffff;"/>
   </g>
   <g id="line2d_1">
    <path clip-path="url(#p1466f3a327)" d="M 27.764646 222.203825 
L 227.082791 222.203825 
L 227.282209 258.165354 
L 426.600354 258.165354 
L 426.600354 258.165354 
" style="fill:none;stroke:#00008b;stroke-dasharray:6.000000,6.000000;stroke-dashoffset:0.0;"/>
   </g>
   <g id="line2d_2">
    <path clip-path="url(#p1466f3a327)" d="M 27.764646 150.280765 
L 327.190554 258.165354 
L 426.600354 258.165354 
L 426.600354 258.165354 
" style="fill:none;stroke:#cc0000;stroke-linecap:round;"/>
   </g>
   <g id="patch_3">
    <path d="M 27.764646 6.434646 
L 426.600354 6.434646 
" style="fill:none;stroke:#000000;stroke-linecap:square;stroke-linejoin:miter;"/>
   </g>
   <g id="patch_4">
    <path d="M 426.600354 258.165354 
L 426.600354 6.434646 
" style="fill:none;stroke:#000000;stroke-linecap:square;stroke-linejoin:miter;"/>
   </g>
   <g id="patch_5">
    <path d="M 27.764646 258.165354 
L 426.600354 258.165354 
" style="fill:none;stroke:#000000;stroke-linecap:square;stroke-linejoin:miter;"/>
   </g>
   <g id="patch_6">
    <path d="M 27.764646 258.165354 
L 27.764646 6.434646 
" style="fill:none;stroke:#000000;stroke-linecap:square;stroke-linejoin:miter;"/>
   </g>
   <g id="matplotlib.axis_1">
    <g id="xtick_1">
     <g id="line2d_3">
      <defs>
       <path d="M 0 0 
L 0 -4 
" id="mf152f4823d" style="stroke:#000000;stroke-width:0.5;"/>
      </defs>
      <g>
       <use style="stroke:#000000;stroke-width:0.5;" x="27.7646456693" xlink:href="#mf152f4823d" y="258.165354331"/>
      </g>
     </g>
     <g id="line2d_4">
      <defs>
       <path d="M 0 0 
L 0 4 
" id="m51d059ee15" style="stroke:#000000;stroke-width:0.5;"/>
      </defs>
      <g>
       <use style="stroke:#000000;stroke-width:0.5;" x="27.7646456693" xlink:href="#m51d059ee15" y="6.43464566929"/>
      </g>
     </g>
     <g id="text_1">
      <!-- -2 -->
      <defs>
       <path d="M 19.1875 8.296875 
L 53.609375 8.296875 
L 53.609375 0 
L 7.328125 0 
L 7.328125 8.296875 
Q 12.9375 14.109375 22.625 23.890625 
Q 32.328125 33.6875 34.8125 36.53125 
Q 39.546875 41.84375 41.421875 45.53125 
Q 43.3125 49.21875 43.3125 52.78125 
Q 43.3125 58.59375 39.234375 62.25 
Q 35.15625 65.921875 28.609375 65.921875 
Q 23.96875 65.921875 18.8125 64.3125 
Q 13.671875 62.703125 7.8125 59.421875 
L 7.8125 69.390625 
Q 13.765625 71.78125 18.9375 73 
Q 24.125 74.21875 28.421875 74.21875 
Q 39.75 74.21875 46.484375 68.546875 
Q 53.21875 62.890625 53.21875 53.421875 
Q 53.21875 48.921875 51.53125 44.890625 
Q 49.859375 40.875 45.40625 35.40625 
Q 44.1875 33.984375 37.640625 27.21875 
Q 31.109375 20.453125 19.1875 8.296875 
" id="BitstreamVeraSans-Roman-32"/>
       <path d="M 4.890625 31.390625 
L 31.203125 31.390625 
L 31.203125 23.390625 
L 4.890625 23.390625 
z
" id="BitstreamVeraSans-Roman-2d"/>
      </defs>
      <g transform="translate(23.7765206693 268.244104331)scale(0.08 -0.08)">
       <use xlink:href="#BitstreamVeraSans-Roman-2d"/>
       <use x="36.083984375" xlink:href="#BitstreamVeraSans-Roman-32"/>
      </g>
     </g>
    </g>
    <g id="xtick_2">
     <g id="line2d_5">
      <g>
       <use style="stroke:#000000;stroke-width:0.5;" x="127.473572835" xlink:href="#mf152f4823d" y="258.165354331"/>
      </g>
     </g>
     <g id="line2d_6">
      <g>
       <use style="stroke:#000000;stroke-width:0.5;" x="127.473572835" xlink:href="#m51d059ee15" y="6.43464566929"/>
      </g>
     </g>
     <g id="text_2">
      <!-- -1 -->
      <defs>
       <path d="M 12.40625 8.296875 
L 28.515625 8.296875 
L 28.515625 63.921875 
L 10.984375 60.40625 
L 10.984375 69.390625 
L 28.421875 72.90625 
L 38.28125 72.90625 
L 38.28125 8.296875 
L 54.390625 8.296875 
L 54.390625 0 
L 12.40625 0 
z
" id="BitstreamVeraSans-Roman-31"/>
      </defs>
      <g transform="translate(123.485447835 268.244104331)scale(0.08 -0.08)">
       <use xlink:href="#BitstreamVeraSans-Roman-2d"/>
       <use x="36.083984375" xlink:href="#BitstreamVeraSans-Roman-31"/>
      </g>
     </g>
    </g>
    <g id="xtick_3">
     <g id="line2d_7">
      <g>
       <use style="stroke:#000000;stroke-width:0.5;" x="227.1825" xlink:href="#mf152f4823d" y="258.165354331"/>
      </g>
     </g>
     <g id="line2d_8">
      <g>
       <use style="stroke:#000000;stroke-width:0.5;" x="227.1825" xlink:href="#m51d059ee15" y="6.43464566929"/>
      </g>
     </g>
     <g id="text_3">
      <!-- 0 -->
      <defs>
       <path d="M 31.78125 66.40625 
Q 24.171875 66.40625 20.328125 58.90625 
Q 16.5 51.421875 16.5 36.375 
Q 16.5 21.390625 20.328125 13.890625 
Q 24.171875 6.390625 31.78125 6.390625 
Q 39.453125 6.390625 43.28125 13.890625 
Q 47.125 21.390625 47.125 36.375 
Q 47.125 51.421875 43.28125 58.90625 
Q 39.453125 66.40625 31.78125 66.40625 
M 31.78125 74.21875 
Q 44.046875 74.21875 50.515625 64.515625 
Q 56.984375 54.828125 56.984375 36.375 
Q 56.984375 17.96875 50.515625 8.265625 
Q 44.046875 -1.421875 31.78125 -1.421875 
Q 19.53125 -1.421875 13.0625 8.265625 
Q 6.59375 17.96875 6.59375 36.375 
Q 6.59375 54.828125 13.0625 64.515625 
Q 19.53125 74.21875 31.78125 74.21875 
" id="BitstreamVeraSans-Roman-30"/>
      </defs>
      <g transform="translate(224.6375 268.244104331)scale(0.08 -0.08)">
       <use xlink:href="#BitstreamVeraSans-Roman-30"/>
      </g>
     </g>
    </g>
    <g id="xtick_4">
     <g id="line2d_9">
      <g>
       <use style="stroke:#000000;stroke-width:0.5;" x="326.891427165" xlink:href="#mf152f4823d" y="258.165354331"/>
      </g>
     </g>
     <g id="line2d_10">
      <g>
       <use style="stroke:#000000;stroke-width:0.5;" x="326.891427165" xlink:href="#m51d059ee15" y="6.43464566929"/>
      </g>
     </g>
     <g id="text_4">
      <!-- 1 -->
      <g transform="translate(324.346427165 268.244104331)scale(0.08 -0.08)">
       <use xlink:href="#BitstreamVeraSans-Roman-31"/>
      </g>
     </g>
    </g>
    <g id="xtick_5">
     <g id="line2d_11">
      <g>
       <use style="stroke:#000000;stroke-width:0.5;" x="426.600354331" xlink:href="#mf152f4823d" y="258.165354331"/>
      </g>
     </g>
     <g id="line2d_12">
      <g>
       <use style="stroke:#000000;stroke-width:0.5;" x="426.600354331" xlink:href="#m51d059ee15" y="6.43464566929"/>
      </g>
     </g>
     <g id="text_5">
      <!-- 2 -->
      <g transform="translate(424.055354331 268.244104331)scale(0.08 -0.08)">
       <use xlink:href="#BitstreamVeraSans-Roman-32"/>
      </g>
     </g>
    </g>
    <g id="text_6">
     <!-- y * h(x) -->
     <defs>
      <path id="BitstreamVeraSans-Roman-20"/>
      <path d="M 8.015625 75.875 
L 15.828125 75.875 
Q 23.140625 64.359375 26.78125 53.3125 
Q 30.421875 42.28125 30.421875 31.390625 
Q 30.421875 20.453125 26.78125 9.375 
Q 23.140625 -1.703125 15.828125 -13.1875 
L 8.015625 -13.1875 
Q 14.5 -2 17.703125 9.0625 
Q 20.90625 20.125 20.90625 31.390625 
Q 20.90625 42.671875 17.703125 53.65625 
Q 14.5 64.65625 8.015625 75.875 
" id="BitstreamVeraSans-Roman-29"/>
      <path d="M 31 75.875 
Q 24.46875 64.65625 21.28125 53.65625 
Q 18.109375 42.671875 18.109375 31.390625 
Q 18.109375 20.125 21.3125 9.0625 
Q 24.515625 -2 31 -13.1875 
L 23.1875 -13.1875 
Q 15.875 -1.703125 12.234375 9.375 
Q 8.59375 20.453125 8.59375 31.390625 
Q 8.59375 42.28125 12.203125 53.3125 
Q 15.828125 64.359375 23.1875 75.875 
z
" id="BitstreamVeraSans-Roman-28"/>
      <path d="M 47.015625 60.890625 
L 29.5 51.421875 
L 47.015625 41.890625 
L 44.1875 37.109375 
L 27.78125 47.015625 
L 27.78125 28.609375 
L 22.21875 28.609375 
L 22.21875 47.015625 
L 5.8125 37.109375 
L 2.984375 41.890625 
L 20.515625 51.421875 
L 2.984375 60.890625 
L 5.8125 65.71875 
L 22.21875 55.8125 
L 22.21875 74.21875 
L 27.78125 74.21875 
L 27.78125 55.8125 
L 44.1875 65.71875 
z
" id="BitstreamVeraSans-Roman-2a"/>
      <path d="M 54.890625 33.015625 
L 54.890625 0 
L 45.90625 0 
L 45.90625 32.71875 
Q 45.90625 40.484375 42.875 44.328125 
Q 39.84375 48.1875 33.796875 48.1875 
Q 26.515625 48.1875 22.3125 43.546875 
Q 18.109375 38.921875 18.109375 30.90625 
L 18.109375 0 
L 9.078125 0 
L 9.078125 75.984375 
L 18.109375 75.984375 
L 18.109375 46.1875 
Q 21.34375 51.125 25.703125 53.5625 
Q 30.078125 56 35.796875 56 
Q 45.21875 56 50.046875 50.171875 
Q 54.890625 44.34375 54.890625 33.015625 
" id="BitstreamVeraSans-Roman-68"/>
      <path d="M 54.890625 54.6875 
L 35.109375 28.078125 
L 55.90625 0 
L 45.3125 0 
L 29.390625 21.484375 
L 13.484375 0 
L 2.875 0 
L 24.125 28.609375 
L 4.6875 54.6875 
L 15.28125 54.6875 
L 29.78125 35.203125 
L 44.28125 54.6875 
z
" id="BitstreamVeraSans-Roman-78"/>
      <path d="M 32.171875 -5.078125 
Q 28.375 -14.84375 24.75 -17.8125 
Q 21.140625 -20.796875 15.09375 -20.796875 
L 7.90625 -20.796875 
L 7.90625 -13.28125 
L 13.1875 -13.28125 
Q 16.890625 -13.28125 18.9375 -11.515625 
Q 21 -9.765625 23.484375 -3.21875 
L 25.09375 0.875 
L 2.984375 54.6875 
L 12.5 54.6875 
L 29.59375 11.921875 
L 46.6875 54.6875 
L 56.203125 54.6875 
z
" id="BitstreamVeraSans-Roman-79"/>
     </defs>
     <g transform="translate(206.64859375 283.266135581)scale(0.11 -0.11)">
      <use xlink:href="#BitstreamVeraSans-Roman-79"/>
      <use x="59.1796875" xlink:href="#BitstreamVeraSans-Roman-20"/>
      <use x="90.966796875" xlink:href="#BitstreamVeraSans-Roman-2a"/>
      <use x="140.966796875" xlink:href="#BitstreamVeraSans-Roman-20"/>
      <use x="172.75390625" xlink:href="#BitstreamVeraSans-Roman-68"/>
      <use x="236.1328125" xlink:href="#BitstreamVeraSans-Roman-28"/>
      <use x="275.146484375" xlink:href="#BitstreamVeraSans-Roman-78"/>
      <use x="334.326171875" xlink:href="#BitstreamVeraSans-Roman-29"/>
     </g>
    </g>
   </g>
   <g id="matplotlib.axis_2">
    <g id="ytick_1">
     <g id="line2d_13">
      <defs>
       <path d="M 0 0 
L 4 0 
" id="m36e6b260ed" style="stroke:#000000;stroke-width:0.5;"/>
      </defs>
      <g>
       <use style="stroke:#000000;stroke-width:0.5;" x="27.7646456693" xlink:href="#m36e6b260ed" y="258.165354331"/>
      </g>
     </g>
     <g id="line2d_14">
      <defs>
       <path d="M 0 0 
L -4 0 
" id="md994846857" style="stroke:#000000;stroke-width:0.5;"/>
      </defs>
      <g>
       <use style="stroke:#000000;stroke-width:0.5;" x="426.600354331" xlink:href="#md994846857" y="258.165354331"/>
      </g>
     </g>
     <g id="text_7">
      <!-- 0 -->
      <g transform="translate(18.6746456693 260.372854331)scale(0.08 -0.08)">
       <use xlink:href="#BitstreamVeraSans-Roman-30"/>
      </g>
     </g>
    </g>
    <g id="ytick_2">
     <g id="line2d_15">
      <g>
       <use style="stroke:#000000;stroke-width:0.5;" x="27.7646456693" xlink:href="#m36e6b260ed" y="222.203824522"/>
      </g>
     </g>
     <g id="line2d_16">
      <g>
       <use style="stroke:#000000;stroke-width:0.5;" x="426.600354331" xlink:href="#md994846857" y="222.203824522"/>
      </g>
     </g>
     <g id="text_8">
      <!-- 1 -->
      <g transform="translate(18.6746456693 224.411324522)scale(0.08 -0.08)">
       <use xlink:href="#BitstreamVeraSans-Roman-31"/>
      </g>
     </g>
    </g>
    <g id="ytick_3">
     <g id="line2d_17">
      <g>
       <use style="stroke:#000000;stroke-width:0.5;" x="27.7646456693" xlink:href="#m36e6b260ed" y="186.242294713"/>
      </g>
     </g>
     <g id="line2d_18">
      <g>
       <use style="stroke:#000000;stroke-width:0.5;" x="426.600354331" xlink:href="#md994846857" y="186.242294713"/>
      </g>
     </g>
     <g id="text_9">
      <!-- 2 -->
      <g transform="translate(18.6746456693 188.449794713)scale(0.08 -0.08)">
       <use xlink:href="#BitstreamVeraSans-Roman-32"/>
      </g>
     </g>
    </g>
    <g id="ytick_4">
     <g id="line2d_19">
      <g>
       <use style="stroke:#000000;stroke-width:0.5;" x="27.7646456693" xlink:href="#m36e6b260ed" y="150.280764904"/>
      </g>
     </g>
     <g id="line2d_20">
      <g>
       <use style="stroke:#000000;stroke-width:0.5;" x="426.600354331" xlink:href="#md994846857" y="150.280764904"/>
      </g>
     </g>
     <g id="text_10">
      <!-- 3 -->
      <defs>
       <path d="M 40.578125 39.3125 
Q 47.65625 37.796875 51.625 33 
Q 55.609375 28.21875 55.609375 21.1875 
Q 55.609375 10.40625 48.1875 4.484375 
Q 40.765625 -1.421875 27.09375 -1.421875 
Q 22.515625 -1.421875 17.65625 -0.515625 
Q 12.796875 0.390625 7.625 2.203125 
L 7.625 11.71875 
Q 11.71875 9.328125 16.59375 8.109375 
Q 21.484375 6.890625 26.8125 6.890625 
Q 36.078125 6.890625 40.9375 10.546875 
Q 45.796875 14.203125 45.796875 21.1875 
Q 45.796875 27.640625 41.28125 31.265625 
Q 36.765625 34.90625 28.71875 34.90625 
L 20.21875 34.90625 
L 20.21875 43.015625 
L 29.109375 43.015625 
Q 36.375 43.015625 40.234375 45.921875 
Q 44.09375 48.828125 44.09375 54.296875 
Q 44.09375 59.90625 40.109375 62.90625 
Q 36.140625 65.921875 28.71875 65.921875 
Q 24.65625 65.921875 20.015625 65.03125 
Q 15.375 64.15625 9.8125 62.3125 
L 9.8125 71.09375 
Q 15.4375 72.65625 20.34375 73.4375 
Q 25.25 74.21875 29.59375 74.21875 
Q 40.828125 74.21875 47.359375 69.109375 
Q 53.90625 64.015625 53.90625 55.328125 
Q 53.90625 49.265625 50.4375 45.09375 
Q 46.96875 40.921875 40.578125 39.3125 
" id="BitstreamVeraSans-Roman-33"/>
      </defs>
      <g transform="translate(18.6746456693 152.488264904)scale(0.08 -0.08)">
       <use xlink:href="#BitstreamVeraSans-Roman-33"/>
      </g>
     </g>
    </g>
    <g id="ytick_5">
     <g id="line2d_21">
      <g>
       <use style="stroke:#000000;stroke-width:0.5;" x="27.7646456693" xlink:href="#m36e6b260ed" y="114.319235096"/>
      </g>
     </g>
     <g id="line2d_22">
      <g>
       <use style="stroke:#000000;stroke-width:0.5;" x="426.600354331" xlink:href="#md994846857" y="114.319235096"/>
      </g>
     </g>
     <g id="text_11">
      <!-- 4 -->
      <defs>
       <path d="M 37.796875 64.3125 
L 12.890625 25.390625 
L 37.796875 25.390625 
z
M 35.203125 72.90625 
L 47.609375 72.90625 
L 47.609375 25.390625 
L 58.015625 25.390625 
L 58.015625 17.1875 
L 47.609375 17.1875 
L 47.609375 0 
L 37.796875 0 
L 37.796875 17.1875 
L 4.890625 17.1875 
L 4.890625 26.703125 
z
" id="BitstreamVeraSans-Roman-34"/>
      </defs>
      <g transform="translate(18.6746456693 116.526735096)scale(0.08 -0.08)">
       <use xlink:href="#BitstreamVeraSans-Roman-34"/>
      </g>
     </g>
    </g>
    <g id="ytick_6">
     <g id="line2d_23">
      <g>
       <use style="stroke:#000000;stroke-width:0.5;" x="27.7646456693" xlink:href="#m36e6b260ed" y="78.3577052868"/>
      </g>
     </g>
     <g id="line2d_24">
      <g>
       <use style="stroke:#000000;stroke-width:0.5;" x="426.600354331" xlink:href="#md994846857" y="78.3577052868"/>
      </g>
     </g>
     <g id="text_12">
      <!-- 5 -->
      <defs>
       <path d="M 10.796875 72.90625 
L 49.515625 72.90625 
L 49.515625 64.59375 
L 19.828125 64.59375 
L 19.828125 46.734375 
Q 21.96875 47.46875 24.109375 47.828125 
Q 26.265625 48.1875 28.421875 48.1875 
Q 40.625 48.1875 47.75 41.5 
Q 54.890625 34.8125 54.890625 23.390625 
Q 54.890625 11.625 47.5625 5.09375 
Q 40.234375 -1.421875 26.90625 -1.421875 
Q 22.3125 -1.421875 17.546875 -0.640625 
Q 12.796875 0.140625 7.71875 1.703125 
L 7.71875 11.625 
Q 12.109375 9.234375 16.796875 8.0625 
Q 21.484375 6.890625 26.703125 6.890625 
Q 35.15625 6.890625 40.078125 11.328125 
Q 45.015625 15.765625 45.015625 23.390625 
Q 45.015625 31 40.078125 35.4375 
Q 35.15625 39.890625 26.703125 39.890625 
Q 22.75 39.890625 18.8125 39.015625 
Q 14.890625 38.140625 10.796875 36.28125 
z
" id="BitstreamVeraSans-Roman-35"/>
      </defs>
      <g transform="translate(18.6746456693 80.5652052868)scale(0.08 -0.08)">
       <use xlink:href="#BitstreamVeraSans-Roman-35"/>
      </g>
     </g>
    </g>
    <g id="ytick_7">
     <g id="line2d_25">
      <g>
       <use style="stroke:#000000;stroke-width:0.5;" x="27.7646456693" xlink:href="#m36e6b260ed" y="42.3961754781"/>
      </g>
     </g>
     <g id="line2d_26">
      <g>
       <use style="stroke:#000000;stroke-width:0.5;" x="426.600354331" xlink:href="#md994846857" y="42.3961754781"/>
      </g>
     </g>
     <g id="text_13">
      <!-- 6 -->
      <defs>
       <path d="M 33.015625 40.375 
Q 26.375 40.375 22.484375 35.828125 
Q 18.609375 31.296875 18.609375 23.390625 
Q 18.609375 15.53125 22.484375 10.953125 
Q 26.375 6.390625 33.015625 6.390625 
Q 39.65625 6.390625 43.53125 10.953125 
Q 47.40625 15.53125 47.40625 23.390625 
Q 47.40625 31.296875 43.53125 35.828125 
Q 39.65625 40.375 33.015625 40.375 
M 52.59375 71.296875 
L 52.59375 62.3125 
Q 48.875 64.0625 45.09375 64.984375 
Q 41.3125 65.921875 37.59375 65.921875 
Q 27.828125 65.921875 22.671875 59.328125 
Q 17.53125 52.734375 16.796875 39.40625 
Q 19.671875 43.65625 24.015625 45.921875 
Q 28.375 48.1875 33.59375 48.1875 
Q 44.578125 48.1875 50.953125 41.515625 
Q 57.328125 34.859375 57.328125 23.390625 
Q 57.328125 12.15625 50.6875 5.359375 
Q 44.046875 -1.421875 33.015625 -1.421875 
Q 20.359375 -1.421875 13.671875 8.265625 
Q 6.984375 17.96875 6.984375 36.375 
Q 6.984375 53.65625 15.1875 63.9375 
Q 23.390625 74.21875 37.203125 74.21875 
Q 40.921875 74.21875 44.703125 73.484375 
Q 48.484375 72.75 52.59375 71.296875 
" id="BitstreamVeraSans-Roman-36"/>
      </defs>
      <g transform="translate(18.6746456693 44.6036754781)scale(0.08 -0.08)">
       <use xlink:href="#BitstreamVeraSans-Roman-36"/>
      </g>
     </g>
    </g>
    <g id="ytick_8">
     <g id="line2d_27">
      <g>
       <use style="stroke:#000000;stroke-width:0.5;" x="27.7646456693" xlink:href="#m36e6b260ed" y="6.43464566929"/>
      </g>
     </g>
     <g id="line2d_28">
      <g>
       <use style="stroke:#000000;stroke-width:0.5;" x="426.600354331" xlink:href="#md994846857" y="6.43464566929"/>
      </g>
     </g>
     <g id="text_14">
      <!-- 7 -->
      <defs>
       <path d="M 8.203125 72.90625 
L 55.078125 72.90625 
L 55.078125 68.703125 
L 28.609375 0 
L 18.3125 0 
L 43.21875 64.59375 
L 8.203125 64.59375 
z
" id="BitstreamVeraSans-Roman-37"/>
      </defs>
      <g transform="translate(18.6746456693 8.64214566929)scale(0.08 -0.08)">
       <use xlink:href="#BitstreamVeraSans-Roman-37"/>
      </g>
     </g>
    </g>
    <g id="text_15">
     <!-- L(y, h(x)) -->
     <defs>
      <path d="M 11.71875 12.40625 
L 22.015625 12.40625 
L 22.015625 4 
L 14.015625 -11.625 
L 7.71875 -11.625 
L 11.71875 4 
z
" id="BitstreamVeraSans-Roman-2c"/>
      <path d="M 9.8125 72.90625 
L 19.671875 72.90625 
L 19.671875 8.296875 
L 55.171875 8.296875 
L 55.171875 0 
L 9.8125 0 
z
" id="BitstreamVeraSans-Roman-4c"/>
     </defs>
     <g transform="translate(11.3869894193 157.44015625)rotate(-90.0)scale(0.11 -0.11)">
      <use xlink:href="#BitstreamVeraSans-Roman-4c"/>
      <use x="55.712890625" xlink:href="#BitstreamVeraSans-Roman-28"/>
      <use x="94.7265625" xlink:href="#BitstreamVeraSans-Roman-79"/>
      <use x="153.90625" xlink:href="#BitstreamVeraSans-Roman-2c"/>
      <use x="185.693359375" xlink:href="#BitstreamVeraSans-Roman-20"/>
      <use x="217.48046875" xlink:href="#BitstreamVeraSans-Roman-68"/>
      <use x="280.859375" xlink:href="#BitstreamVeraSans-Roman-28"/>
      <use x="319.873046875" xlink:href="#BitstreamVeraSans-Roman-78"/>
      <use x="379.052734375" xlink:href="#BitstreamVeraSans-Roman-29"/>
      <use x="418.06640625" xlink:href="#BitstreamVeraSans-Roman-29"/>
     </g>
    </g>
   </g>
   <g id="line2d_29">
    <path clip-path="url(#p1466f3a327)" d="M 59.219128 -1 
L 67.34909 14.504089 
L 75.425513 29.432619 
L 83.402227 43.713662 
L 91.279232 57.364479 
L 99.056529 70.402116 
L 106.734116 82.843403 
L 114.311994 94.704954 
L 121.790164 106.003167 
L 129.168625 116.754226 
L 136.447376 126.974097 
L 143.726128 136.810691 
L 150.905171 146.137098 
L 157.984505 154.968854 
L 164.964129 163.321279 
L 171.844045 171.209476 
L 178.624252 178.648334 
L 185.304751 185.652526 
L 191.985249 192.333854 
L 198.566038 198.599791 
L 205.047118 204.464577 
L 211.42849 209.942237 
L 217.710152 215.046581 
L 223.991814 219.865462 
L 230.173768 224.329151 
L 236.256012 228.451026 
L 242.338257 232.305274 
L 248.320793 235.835258 
L 254.303328 239.106319 
L 260.186155 242.070376 
L 266.068982 244.784069 
L 271.852099 247.207732 
L 277.635217 249.389446 
L 283.318626 251.297817 
L 289.002035 252.972509 
L 294.685444 254.413524 
L 300.269144 255.601693 
L 305.852844 256.564311 
L 311.436543 257.301379 
L 317.020243 257.812895 
L 322.603943 258.098861 
L 328.387061 258.165354 
L 426.600354 258.165354 
L 426.600354 258.165354 
" style="fill:none;stroke:#008000;stroke-linecap:round;"/>
   </g>
   <g id="line2d_30">
    <path clip-path="url(#p1466f3a327)" d="M 27.764646 181.677769 
L 51.794497 189.194851 
L 73.83017 195.858842 
L 94.370209 201.840939 
L 113.713741 207.244561 
L 132.060183 212.140261 
L 149.608955 216.594792 
L 166.559472 220.669687 
L 183.011445 224.398186 
L 199.164291 227.832343 
L 215.11772 230.997275 
L 230.971439 233.9155 
L 246.825159 236.60676 
L 262.778587 239.087964 
L 278.831724 241.359839 
L 295.183988 243.450088 
L 312.034797 245.378666 
L 329.38415 247.139572 
L 347.431466 248.747144 
L 366.376162 250.210306 
L 386.417657 251.533857 
L 407.855076 252.724945 
L 426.600354 253.600829 
L 426.600354 253.600829 
" style="fill:none;stroke:#455bb6;stroke-dasharray:3.000000,5.000000,1.000000,5.000000;stroke-dashoffset:0.0;"/>
   </g>
   <g id="line2d_31">
    <path clip-path="url(#p1466f3a327)" d="M 47.53845 -1 
L 134.752325 124.628363 
L 142.031076 134.554213 
L 149.210119 143.968653 
L 156.289453 152.887221 
L 163.269078 161.325234 
L 170.148994 169.297797 
L 176.929201 176.819799 
L 183.709408 184.009228 
L 190.389906 190.767658 
L 196.970695 197.109545 
L 203.451775 203.049131 
L 209.833147 208.600441 
L 216.214518 213.857153 
L 222.49618 218.744002 
L 228.678134 223.274579 
L 234.860087 227.528684 
L 240.942332 231.444355 
L 246.924868 235.034755 
L 252.907403 238.366231 
L 258.79023 241.389696 
L 264.673057 244.162798 
L 270.456174 246.644862 
L 276.239292 248.884978 
L 281.922701 250.850743 
L 287.60611 252.58283 
L 293.289519 254.081239 
L 298.873219 255.325796 
L 304.456919 256.344802 
L 310.040618 257.138257 
L 315.624318 257.706162 
L 321.208018 258.048515 
L 326.791718 258.165318 
L 426.600354 258.165354 
L 426.600354 258.165354 
" style="fill:none;stroke:#d9ac00;stroke-dasharray:6.000000,6.000000;stroke-dashoffset:0.0;"/>
   </g>
   <g id="line2d_32">
    <path clip-path="url(#p1466f3a327)" d="M 27.764646 186.242295 
L 227.481627 258.165354 
L 426.600354 258.165354 
L 426.600354 258.165354 
" style="fill:none;stroke:#6820cc;stroke-linecap:round;"/>
   </g>
   <g id="line2d_33">
    <path clip-path="url(#p1466f3a327)" d="M 27.764646 168.26153 
L 235.258923 242.979502 
L 243.335346 245.53847 
L 251.31206 247.834254 
L 259.288775 249.899884 
L 267.265489 251.735361 
L 275.242203 253.340684 
L 283.119208 254.700083 
L 290.996213 255.835047 
L 298.873219 256.745575 
L 306.750224 257.431667 
L 314.627229 257.893323 
L 322.504234 258.130544 
L 331.777165 258.165354 
L 426.600354 258.165354 
L 426.600354 258.165354 
" style="fill:none;stroke:#86a600;stroke-linecap:round;"/>
   </g>
   <g id="line2d_34">
    <path clip-path="url(#p1466f3a327)" d="M 59.219128 -1 
L 67.34909 14.504089 
L 75.425513 29.432619 
L 83.402227 43.713662 
L 91.279232 57.364479 
L 99.056529 70.402116 
L 106.734116 82.843403 
L 114.311994 94.704954 
L 121.790164 106.003167 
L 129.168625 116.754226 
L 136.447376 126.974097 
L 143.726128 136.810691 
L 150.905171 146.137098 
L 157.984505 154.968854 
L 164.964129 163.321279 
L 171.844045 171.209476 
L 178.624252 178.648334 
L 185.304751 185.652526 
L 191.985249 192.333854 
L 198.566038 198.599791 
L 205.047118 204.464577 
L 211.42849 209.942237 
L 217.710152 215.046581 
L 223.991814 219.865462 
L 230.173768 224.329151 
L 236.256012 228.451026 
L 242.338257 232.305274 
L 248.320793 235.835258 
L 254.303328 239.106319 
L 260.186155 242.070376 
L 266.068982 244.784069 
L 271.852099 247.207732 
L 277.635217 249.389446 
L 283.318626 251.297817 
L 289.002035 252.972509 
L 294.685444 254.413524 
L 300.269144 255.601693 
L 305.852844 256.564311 
L 311.436543 257.301379 
L 317.020243 257.812895 
L 322.603943 258.098861 
L 328.187643 258.159277 
L 333.771343 257.994141 
L 339.355043 257.603455 
L 344.938743 256.987219 
L 350.522443 256.145431 
L 356.106143 255.078093 
L 361.689843 253.785204 
L 367.273543 252.266764 
L 372.956952 250.489582 
L 378.64036 248.478721 
L 384.323769 246.234182 
L 390.106887 243.710402 
L 395.890005 240.944672 
L 401.772831 237.883016 
L 407.655658 234.570995 
L 413.638194 230.946072 
L 419.620729 227.062227 
L 425.702974 222.848219 
L 426.600354 222.203825 
L 426.600354 222.203825 
" style="fill:none;stroke:#008868;stroke-dasharray:6.000000,6.000000;stroke-dashoffset:0.0;"/>
   </g>
   <g id="line2d_35">
    <path clip-path="url(#p1466f3a327)" d="M 30.25572 -1 
L 35.043397 11.150185 
L 39.929135 22.962171 
L 44.914581 34.433166 
L 49.900027 45.344713 
L 54.885474 55.724098 
L 59.87092 65.597275 
L 64.956076 75.172016 
L 70.041231 84.270688 
L 75.126386 92.916962 
L 80.211541 101.133332 
L 85.396406 109.090322 
L 90.58127 116.644123 
L 95.865843 123.949447 
L 101.150416 130.877671 
L 106.534698 137.568916 
L 111.91898 143.908417 
L 117.402971 150.02286 
L 122.986671 155.912394 
L 128.570371 161.481178 
L 134.25378 166.838055 
L 140.036898 171.984353 
L 145.919724 176.921941 
L 151.90226 181.653189 
L 157.984505 186.180931 
L 164.166458 190.508427 
L 170.547829 194.702818 
L 177.02891 198.696677 
L 183.709408 202.550532 
L 190.489615 206.206624 
L 197.46924 209.719356 
L 204.648282 213.084856 
L 212.026743 216.300371 
L 219.70433 219.402991 
L 227.581336 222.347383 
L 235.757468 225.167262 
L 244.232727 227.856201 
L 253.106821 230.43716 
L 262.379751 232.899604 
L 272.051517 235.235271 
L 282.122119 237.438094 
L 292.790974 239.541379 
L 303.958374 241.514696 
L 315.823736 243.38277 
L 328.387061 245.132809 
L 341.748057 246.767219 
L 356.006434 248.285974 
L 371.361609 249.696038 
L 388.013 250.998622 
L 406.160024 252.191157 
L 426.10181 253.274095 
L 426.600354 253.298491 
L 426.600354 253.298491 
" style="fill:none;stroke:#f27c00;stroke-linecap:round;"/>
   </g>
   <g id="line2d_36">
    <path clip-path="url(#p1466f3a327)" d="M 27.764646 187.535918 
L 47.706431 188.155232 
L 64.55724 188.896117 
L 79.214452 189.758803 
L 92.276322 190.746134 
L 104.141684 191.861799 
L 115.109666 193.112538 
L 125.379685 194.50361 
L 135.15116 196.048517 
L 144.623508 197.771538 
L 153.79673 199.665929 
L 162.870242 201.767089 
L 171.943754 204.096758 
L 181.216685 206.708041 
L 190.988159 209.694471 
L 201.657015 213.193649 
L 214.419757 217.625724 
L 258.092267 233.008002 
L 268.561705 236.326272 
L 278.233471 239.159759 
L 287.506401 241.644552 
L 296.579913 243.846289 
L 305.653426 245.819984 
L 314.926356 247.607744 
L 324.398704 249.207096 
L 334.269888 250.648081 
L 344.739325 251.948901 
L 355.906725 253.108739 
L 367.971505 254.134717 
L 381.232792 255.035145 
L 396.089423 255.815441 
L 413.03994 256.476854 
L 426.600354 256.871731 
L 426.600354 256.871731 
" style="fill:none;stroke:#3410ac;stroke-dasharray:1.000000,3.000000;stroke-dashoffset:0.0;"/>
   </g>
   <g id="line2d_37">
    <path clip-path="url(#p1466f3a327)" d="M 27.764646 150.280765 
L 281.224739 241.577933 
L 285.911058 242.901547 
L 291.195631 244.161643 
L 297.277876 245.376759 
L 304.157792 246.519781 
L 312.134506 247.613262 
L 321.307727 248.641644 
L 332.076291 249.619363 
L 344.739325 250.539924 
L 359.795373 251.405668 
L 377.942398 252.219334 
L 400.07778 252.980589 
L 426.600354 253.670163 
L 426.600354 253.670163 
" style="fill:none;stroke:#439300;stroke-dasharray:1.000000,3.000000;stroke-dashoffset:0.0;"/>
   </g>
   <g id="legend_1">
    <g id="patch_7">
     <path d="M 251.640354 142.099646 
L 422.600354 142.099646 
L 422.600354 10.434646 
L 251.640354 10.434646 
z
" style="fill:#ffffff;stroke:#000000;stroke-linejoin:miter;"/>
    </g>
    <g id="line2d_38">
     <path d="M 257.240354 16.913396 
L 268.440354 16.913396 
" style="fill:none;stroke:#00008b;stroke-dasharray:6.000000,6.000000;stroke-dashoffset:0.0;"/>
    </g>
    <g id="line2d_39"/>
    <g id="text_16">
     <!-- ZeroOneLoss -->
     <defs>
      <path d="M 5.609375 72.90625 
L 62.890625 72.90625 
L 62.890625 65.375 
L 16.796875 8.296875 
L 64.015625 8.296875 
L 64.015625 0 
L 4.5 0 
L 4.5 7.515625 
L 50.59375 64.59375 
L 5.609375 64.59375 
z
" id="BitstreamVeraSans-Roman-5a"/>
      <path d="M 39.40625 66.21875 
Q 28.65625 66.21875 22.328125 58.203125 
Q 16.015625 50.203125 16.015625 36.375 
Q 16.015625 22.609375 22.328125 14.59375 
Q 28.65625 6.59375 39.40625 6.59375 
Q 50.140625 6.59375 56.421875 14.59375 
Q 62.703125 22.609375 62.703125 36.375 
Q 62.703125 50.203125 56.421875 58.203125 
Q 50.140625 66.21875 39.40625 66.21875 
M 39.40625 74.21875 
Q 54.734375 74.21875 63.90625 63.9375 
Q 73.09375 53.65625 73.09375 36.375 
Q 73.09375 19.140625 63.90625 8.859375 
Q 54.734375 -1.421875 39.40625 -1.421875 
Q 24.03125 -1.421875 14.8125 8.828125 
Q 5.609375 19.09375 5.609375 36.375 
Q 5.609375 53.65625 14.8125 63.9375 
Q 24.03125 74.21875 39.40625 74.21875 
" id="BitstreamVeraSans-Roman-4f"/>
      <path d="M 54.890625 33.015625 
L 54.890625 0 
L 45.90625 0 
L 45.90625 32.71875 
Q 45.90625 40.484375 42.875 44.328125 
Q 39.84375 48.1875 33.796875 48.1875 
Q 26.515625 48.1875 22.3125 43.546875 
Q 18.109375 38.921875 18.109375 30.90625 
L 18.109375 0 
L 9.078125 0 
L 9.078125 54.6875 
L 18.109375 54.6875 
L 18.109375 46.1875 
Q 21.34375 51.125 25.703125 53.5625 
Q 30.078125 56 35.796875 56 
Q 45.21875 56 50.046875 50.171875 
Q 54.890625 44.34375 54.890625 33.015625 
" id="BitstreamVeraSans-Roman-6e"/>
      <path d="M 30.609375 48.390625 
Q 23.390625 48.390625 19.1875 42.75 
Q 14.984375 37.109375 14.984375 27.296875 
Q 14.984375 17.484375 19.15625 11.84375 
Q 23.34375 6.203125 30.609375 6.203125 
Q 37.796875 6.203125 41.984375 11.859375 
Q 46.1875 17.53125 46.1875 27.296875 
Q 46.1875 37.015625 41.984375 42.703125 
Q 37.796875 48.390625 30.609375 48.390625 
M 30.609375 56 
Q 42.328125 56 49.015625 48.375 
Q 55.71875 40.765625 55.71875 27.296875 
Q 55.71875 13.875 49.015625 6.21875 
Q 42.328125 -1.421875 30.609375 -1.421875 
Q 18.84375 -1.421875 12.171875 6.21875 
Q 5.515625 13.875 5.515625 27.296875 
Q 5.515625 40.765625 12.171875 48.375 
Q 18.84375 56 30.609375 56 
" id="BitstreamVeraSans-Roman-6f"/>
      <path d="M 56.203125 29.59375 
L 56.203125 25.203125 
L 14.890625 25.203125 
Q 15.484375 15.921875 20.484375 11.0625 
Q 25.484375 6.203125 34.421875 6.203125 
Q 39.59375 6.203125 44.453125 7.46875 
Q 49.3125 8.734375 54.109375 11.28125 
L 54.109375 2.78125 
Q 49.265625 0.734375 44.1875 -0.34375 
Q 39.109375 -1.421875 33.890625 -1.421875 
Q 20.796875 -1.421875 13.15625 6.1875 
Q 5.515625 13.8125 5.515625 26.8125 
Q 5.515625 40.234375 12.765625 48.109375 
Q 20.015625 56 32.328125 56 
Q 43.359375 56 49.78125 48.890625 
Q 56.203125 41.796875 56.203125 29.59375 
M 47.21875 32.234375 
Q 47.125 39.59375 43.09375 43.984375 
Q 39.0625 48.390625 32.421875 48.390625 
Q 24.90625 48.390625 20.390625 44.140625 
Q 15.875 39.890625 15.1875 32.171875 
z
" id="BitstreamVeraSans-Roman-65"/>
      <path d="M 41.109375 46.296875 
Q 39.59375 47.171875 37.8125 47.578125 
Q 36.03125 48 33.890625 48 
Q 26.265625 48 22.1875 43.046875 
Q 18.109375 38.09375 18.109375 28.8125 
L 18.109375 0 
L 9.078125 0 
L 9.078125 54.6875 
L 18.109375 54.6875 
L 18.109375 46.1875 
Q 20.953125 51.171875 25.484375 53.578125 
Q 30.03125 56 36.53125 56 
Q 37.453125 56 38.578125 55.875 
Q 39.703125 55.765625 41.0625 55.515625 
z
" id="BitstreamVeraSans-Roman-72"/>
      <path d="M 44.28125 53.078125 
L 44.28125 44.578125 
Q 40.484375 46.53125 36.375 47.5 
Q 32.28125 48.484375 27.875 48.484375 
Q 21.1875 48.484375 17.84375 46.4375 
Q 14.5 44.390625 14.5 40.28125 
Q 14.5 37.15625 16.890625 35.375 
Q 19.28125 33.59375 26.515625 31.984375 
L 29.59375 31.296875 
Q 39.15625 29.25 43.1875 25.515625 
Q 47.21875 21.78125 47.21875 15.09375 
Q 47.21875 7.46875 41.1875 3.015625 
Q 35.15625 -1.421875 24.609375 -1.421875 
Q 20.21875 -1.421875 15.453125 -0.5625 
Q 10.6875 0.296875 5.421875 2 
L 5.421875 11.28125 
Q 10.40625 8.6875 15.234375 7.390625 
Q 20.0625 6.109375 24.8125 6.109375 
Q 31.15625 6.109375 34.5625 8.28125 
Q 37.984375 10.453125 37.984375 14.40625 
Q 37.984375 18.0625 35.515625 20.015625 
Q 33.0625 21.96875 24.703125 23.78125 
L 21.578125 24.515625 
Q 13.234375 26.265625 9.515625 29.90625 
Q 5.8125 33.546875 5.8125 39.890625 
Q 5.8125 47.609375 11.28125 51.796875 
Q 16.75 56 26.8125 56 
Q 31.78125 56 36.171875 55.265625 
Q 40.578125 54.546875 44.28125 53.078125 
" id="BitstreamVeraSans-Roman-73"/>
     </defs>
     <g transform="translate(277.240354331 19.7133956693)scale(0.08 -0.08)">
      <use xlink:href="#BitstreamVeraSans-Roman-5a"/>
      <use x="68.505859375" xlink:href="#BitstreamVeraSans-Roman-65"/>
      <use x="130.029296875" xlink:href="#BitstreamVeraSans-Roman-72"/>
      <use x="171.111328125" xlink:href="#BitstreamVeraSans-Roman-6f"/>
      <use x="232.29296875" xlink:href="#BitstreamVeraSans-Roman-4f"/>
      <use x="311.00390625" xlink:href="#BitstreamVeraSans-Roman-6e"/>
      <use x="374.3828125" xlink:href="#BitstreamVeraSans-Roman-65"/>
      <use x="435.90625" xlink:href="#BitstreamVeraSans-Roman-4c"/>
      <use x="491.603515625" xlink:href="#BitstreamVeraSans-Roman-6f"/>
      <use x="552.78515625" xlink:href="#BitstreamVeraSans-Roman-73"/>
      <use x="604.884765625" xlink:href="#BitstreamVeraSans-Roman-73"/>
     </g>
    </g>
    <g id="line2d_40">
     <path d="M 257.240354 28.655896 
L 268.440354 28.655896 
" style="fill:none;stroke:#cc0000;stroke-linecap:round;"/>
    </g>
    <g id="line2d_41"/>
    <g id="text_17">
     <!-- L1HingeLoss -->
     <defs>
      <path d="M 45.40625 27.984375 
Q 45.40625 37.75 41.375 43.109375 
Q 37.359375 48.484375 30.078125 48.484375 
Q 22.859375 48.484375 18.828125 43.109375 
Q 14.796875 37.75 14.796875 27.984375 
Q 14.796875 18.265625 18.828125 12.890625 
Q 22.859375 7.515625 30.078125 7.515625 
Q 37.359375 7.515625 41.375 12.890625 
Q 45.40625 18.265625 45.40625 27.984375 
M 54.390625 6.78125 
Q 54.390625 -7.171875 48.1875 -13.984375 
Q 42 -20.796875 29.203125 -20.796875 
Q 24.46875 -20.796875 20.265625 -20.09375 
Q 16.0625 -19.390625 12.109375 -17.921875 
L 12.109375 -9.1875 
Q 16.0625 -11.328125 19.921875 -12.34375 
Q 23.78125 -13.375 27.78125 -13.375 
Q 36.625 -13.375 41.015625 -8.765625 
Q 45.40625 -4.15625 45.40625 5.171875 
L 45.40625 9.625 
Q 42.625 4.78125 38.28125 2.390625 
Q 33.9375 0 27.875 0 
Q 17.828125 0 11.671875 7.65625 
Q 5.515625 15.328125 5.515625 27.984375 
Q 5.515625 40.671875 11.671875 48.328125 
Q 17.828125 56 27.875 56 
Q 33.9375 56 38.28125 53.609375 
Q 42.625 51.21875 45.40625 46.390625 
L 45.40625 54.6875 
L 54.390625 54.6875 
z
" id="BitstreamVeraSans-Roman-67"/>
      <path d="M 9.421875 54.6875 
L 18.40625 54.6875 
L 18.40625 0 
L 9.421875 0 
z
M 9.421875 75.984375 
L 18.40625 75.984375 
L 18.40625 64.59375 
L 9.421875 64.59375 
z
" id="BitstreamVeraSans-Roman-69"/>
      <path d="M 9.8125 72.90625 
L 19.671875 72.90625 
L 19.671875 43.015625 
L 55.515625 43.015625 
L 55.515625 72.90625 
L 65.375 72.90625 
L 65.375 0 
L 55.515625 0 
L 55.515625 34.71875 
L 19.671875 34.71875 
L 19.671875 0 
L 9.8125 0 
z
" id="BitstreamVeraSans-Roman-48"/>
     </defs>
     <g transform="translate(277.240354331 31.4558956693)scale(0.08 -0.08)">
      <use xlink:href="#BitstreamVeraSans-Roman-4c"/>
      <use x="55.712890625" xlink:href="#BitstreamVeraSans-Roman-31"/>
      <use x="119.3359375" xlink:href="#BitstreamVeraSans-Roman-48"/>
      <use x="194.53125" xlink:href="#BitstreamVeraSans-Roman-69"/>
      <use x="222.314453125" xlink:href="#BitstreamVeraSans-Roman-6e"/>
      <use x="285.693359375" xlink:href="#BitstreamVeraSans-Roman-67"/>
      <use x="349.169921875" xlink:href="#BitstreamVeraSans-Roman-65"/>
      <use x="410.693359375" xlink:href="#BitstreamVeraSans-Roman-4c"/>
      <use x="466.390625" xlink:href="#BitstreamVeraSans-Roman-6f"/>
      <use x="527.572265625" xlink:href="#BitstreamVeraSans-Roman-73"/>
      <use x="579.671875" xlink:href="#BitstreamVeraSans-Roman-73"/>
     </g>
    </g>
    <g id="line2d_42">
     <path d="M 257.240354 40.398396 
L 268.440354 40.398396 
" style="fill:none;stroke:#008000;stroke-linecap:round;"/>
    </g>
    <g id="line2d_43"/>
    <g id="text_18">
     <!-- L2HingeLoss -->
     <g transform="translate(277.240354331 43.1983956693)scale(0.08 -0.08)">
      <use xlink:href="#BitstreamVeraSans-Roman-4c"/>
      <use x="55.712890625" xlink:href="#BitstreamVeraSans-Roman-32"/>
      <use x="119.3359375" xlink:href="#BitstreamVeraSans-Roman-48"/>
      <use x="194.53125" xlink:href="#BitstreamVeraSans-Roman-69"/>
      <use x="222.314453125" xlink:href="#BitstreamVeraSans-Roman-6e"/>
      <use x="285.693359375" xlink:href="#BitstreamVeraSans-Roman-67"/>
      <use x="349.169921875" xlink:href="#BitstreamVeraSans-Roman-65"/>
      <use x="410.693359375" xlink:href="#BitstreamVeraSans-Roman-4c"/>
      <use x="466.390625" xlink:href="#BitstreamVeraSans-Roman-6f"/>
      <use x="527.572265625" xlink:href="#BitstreamVeraSans-Roman-73"/>
      <use x="579.671875" xlink:href="#BitstreamVeraSans-Roman-73"/>
     </g>
    </g>
    <g id="line2d_44">
     <path d="M 257.240354 52.140896 
L 268.440354 52.140896 
" style="fill:none;stroke:#455bb6;stroke-dasharray:3.000000,5.000000,1.000000,5.000000;stroke-dashoffset:0.0;"/>
    </g>
    <g id="line2d_45"/>
    <g id="text_19">
     <!-- LogitMarginLoss -->
     <defs>
      <path d="M 18.3125 70.21875 
L 18.3125 54.6875 
L 36.8125 54.6875 
L 36.8125 47.703125 
L 18.3125 47.703125 
L 18.3125 18.015625 
Q 18.3125 11.328125 20.140625 9.421875 
Q 21.96875 7.515625 27.59375 7.515625 
L 36.8125 7.515625 
L 36.8125 0 
L 27.59375 0 
Q 17.1875 0 13.234375 3.875 
Q 9.28125 7.765625 9.28125 18.015625 
L 9.28125 47.703125 
L 2.6875 47.703125 
L 2.6875 54.6875 
L 9.28125 54.6875 
L 9.28125 70.21875 
z
" id="BitstreamVeraSans-Roman-74"/>
      <path d="M 9.8125 72.90625 
L 24.515625 72.90625 
L 43.109375 23.296875 
L 61.8125 72.90625 
L 76.515625 72.90625 
L 76.515625 0 
L 66.890625 0 
L 66.890625 64.015625 
L 48.09375 14.015625 
L 38.1875 14.015625 
L 19.390625 64.015625 
L 19.390625 0 
L 9.8125 0 
z
" id="BitstreamVeraSans-Roman-4d"/>
      <path d="M 34.28125 27.484375 
Q 23.390625 27.484375 19.1875 25 
Q 14.984375 22.515625 14.984375 16.5 
Q 14.984375 11.71875 18.140625 8.90625 
Q 21.296875 6.109375 26.703125 6.109375 
Q 34.1875 6.109375 38.703125 11.40625 
Q 43.21875 16.703125 43.21875 25.484375 
L 43.21875 27.484375 
z
M 52.203125 31.203125 
L 52.203125 0 
L 43.21875 0 
L 43.21875 8.296875 
Q 40.140625 3.328125 35.546875 0.953125 
Q 30.953125 -1.421875 24.3125 -1.421875 
Q 15.921875 -1.421875 10.953125 3.296875 
Q 6 8.015625 6 15.921875 
Q 6 25.140625 12.171875 29.828125 
Q 18.359375 34.515625 30.609375 34.515625 
L 43.21875 34.515625 
L 43.21875 35.40625 
Q 43.21875 41.609375 39.140625 45 
Q 35.0625 48.390625 27.6875 48.390625 
Q 23 48.390625 18.546875 47.265625 
Q 14.109375 46.140625 10.015625 43.890625 
L 10.015625 52.203125 
Q 14.9375 54.109375 19.578125 55.046875 
Q 24.21875 56 28.609375 56 
Q 40.484375 56 46.34375 49.84375 
Q 52.203125 43.703125 52.203125 31.203125 
" id="BitstreamVeraSans-Roman-61"/>
     </defs>
     <g transform="translate(277.240354331 54.9408956693)scale(0.08 -0.08)">
      <use xlink:href="#BitstreamVeraSans-Roman-4c"/>
      <use x="55.697265625" xlink:href="#BitstreamVeraSans-Roman-6f"/>
      <use x="116.87890625" xlink:href="#BitstreamVeraSans-Roman-67"/>
      <use x="180.35546875" xlink:href="#BitstreamVeraSans-Roman-69"/>
      <use x="208.138671875" xlink:href="#BitstreamVeraSans-Roman-74"/>
      <use x="247.34765625" xlink:href="#BitstreamVeraSans-Roman-4d"/>
      <use x="333.626953125" xlink:href="#BitstreamVeraSans-Roman-61"/>
      <use x="394.90625" xlink:href="#BitstreamVeraSans-Roman-72"/>
      <use x="436.00390625" xlink:href="#BitstreamVeraSans-Roman-67"/>
      <use x="499.48046875" xlink:href="#BitstreamVeraSans-Roman-69"/>
      <use x="527.263671875" xlink:href="#BitstreamVeraSans-Roman-6e"/>
      <use x="590.642578125" xlink:href="#BitstreamVeraSans-Roman-4c"/>
      <use x="646.33984375" xlink:href="#BitstreamVeraSans-Roman-6f"/>
      <use x="707.521484375" xlink:href="#BitstreamVeraSans-Roman-73"/>
      <use x="759.62109375" xlink:href="#BitstreamVeraSans-Roman-73"/>
     </g>
    </g>
    <g id="line2d_46">
     <path d="M 257.240354 63.883396 
L 268.440354 63.883396 
" style="fill:none;stroke:#d9ac00;stroke-dasharray:6.000000,6.000000;stroke-dashoffset:0.0;"/>
    </g>
    <g id="line2d_47"/>
    <g id="text_20">
     <!-- ModifiedHuberLoss -->
     <defs>
      <path d="M 45.40625 46.390625 
L 45.40625 75.984375 
L 54.390625 75.984375 
L 54.390625 0 
L 45.40625 0 
L 45.40625 8.203125 
Q 42.578125 3.328125 38.25 0.953125 
Q 33.9375 -1.421875 27.875 -1.421875 
Q 17.96875 -1.421875 11.734375 6.484375 
Q 5.515625 14.40625 5.515625 27.296875 
Q 5.515625 40.1875 11.734375 48.09375 
Q 17.96875 56 27.875 56 
Q 33.9375 56 38.25 53.625 
Q 42.578125 51.265625 45.40625 46.390625 
M 14.796875 27.296875 
Q 14.796875 17.390625 18.875 11.75 
Q 22.953125 6.109375 30.078125 6.109375 
Q 37.203125 6.109375 41.296875 11.75 
Q 45.40625 17.390625 45.40625 27.296875 
Q 45.40625 37.203125 41.296875 42.84375 
Q 37.203125 48.484375 30.078125 48.484375 
Q 22.953125 48.484375 18.875 42.84375 
Q 14.796875 37.203125 14.796875 27.296875 
" id="BitstreamVeraSans-Roman-64"/>
      <path d="M 8.5 21.578125 
L 8.5 54.6875 
L 17.484375 54.6875 
L 17.484375 21.921875 
Q 17.484375 14.15625 20.5 10.265625 
Q 23.53125 6.390625 29.59375 6.390625 
Q 36.859375 6.390625 41.078125 11.03125 
Q 45.3125 15.671875 45.3125 23.6875 
L 45.3125 54.6875 
L 54.296875 54.6875 
L 54.296875 0 
L 45.3125 0 
L 45.3125 8.40625 
Q 42.046875 3.421875 37.71875 1 
Q 33.40625 -1.421875 27.6875 -1.421875 
Q 18.265625 -1.421875 13.375 4.4375 
Q 8.5 10.296875 8.5 21.578125 
" id="BitstreamVeraSans-Roman-75"/>
      <path d="M 37.109375 75.984375 
L 37.109375 68.5 
L 28.515625 68.5 
Q 23.6875 68.5 21.796875 66.546875 
Q 19.921875 64.59375 19.921875 59.515625 
L 19.921875 54.6875 
L 34.71875 54.6875 
L 34.71875 47.703125 
L 19.921875 47.703125 
L 19.921875 0 
L 10.890625 0 
L 10.890625 47.703125 
L 2.296875 47.703125 
L 2.296875 54.6875 
L 10.890625 54.6875 
L 10.890625 58.5 
Q 10.890625 67.625 15.140625 71.796875 
Q 19.390625 75.984375 28.609375 75.984375 
z
" id="BitstreamVeraSans-Roman-66"/>
      <path d="M 48.6875 27.296875 
Q 48.6875 37.203125 44.609375 42.84375 
Q 40.53125 48.484375 33.40625 48.484375 
Q 26.265625 48.484375 22.1875 42.84375 
Q 18.109375 37.203125 18.109375 27.296875 
Q 18.109375 17.390625 22.1875 11.75 
Q 26.265625 6.109375 33.40625 6.109375 
Q 40.53125 6.109375 44.609375 11.75 
Q 48.6875 17.390625 48.6875 27.296875 
M 18.109375 46.390625 
Q 20.953125 51.265625 25.265625 53.625 
Q 29.59375 56 35.59375 56 
Q 45.5625 56 51.78125 48.09375 
Q 58.015625 40.1875 58.015625 27.296875 
Q 58.015625 14.40625 51.78125 6.484375 
Q 45.5625 -1.421875 35.59375 -1.421875 
Q 29.59375 -1.421875 25.265625 0.953125 
Q 20.953125 3.328125 18.109375 8.203125 
L 18.109375 0 
L 9.078125 0 
L 9.078125 75.984375 
L 18.109375 75.984375 
z
" id="BitstreamVeraSans-Roman-62"/>
     </defs>
     <g transform="translate(277.240354331 66.6833956693)scale(0.08 -0.08)">
      <use xlink:href="#BitstreamVeraSans-Roman-4d"/>
      <use x="86.279296875" xlink:href="#BitstreamVeraSans-Roman-6f"/>
      <use x="147.4609375" xlink:href="#BitstreamVeraSans-Roman-64"/>
      <use x="210.9375" xlink:href="#BitstreamVeraSans-Roman-69"/>
      <use x="238.720703125" xlink:href="#BitstreamVeraSans-Roman-66"/>
      <use x="273.92578125" xlink:href="#BitstreamVeraSans-Roman-69"/>
      <use x="301.708984375" xlink:href="#BitstreamVeraSans-Roman-65"/>
      <use x="363.232421875" xlink:href="#BitstreamVeraSans-Roman-64"/>
      <use x="426.708984375" xlink:href="#BitstreamVeraSans-Roman-48"/>
      <use x="501.904296875" xlink:href="#BitstreamVeraSans-Roman-75"/>
      <use x="565.283203125" xlink:href="#BitstreamVeraSans-Roman-62"/>
      <use x="628.759765625" xlink:href="#BitstreamVeraSans-Roman-65"/>
      <use x="690.283203125" xlink:href="#BitstreamVeraSans-Roman-72"/>
      <use x="731.396484375" xlink:href="#BitstreamVeraSans-Roman-4c"/>
      <use x="787.09375" xlink:href="#BitstreamVeraSans-Roman-6f"/>
      <use x="848.275390625" xlink:href="#BitstreamVeraSans-Roman-73"/>
      <use x="900.375" xlink:href="#BitstreamVeraSans-Roman-73"/>
     </g>
    </g>
    <g id="line2d_48">
     <path d="M 257.240354 75.625896 
L 268.440354 75.625896 
" style="fill:none;stroke:#6820cc;stroke-linecap:round;"/>
    </g>
    <g id="line2d_49"/>
    <g id="text_21">
     <!-- PerceptronLoss -->
     <defs>
      <path d="M 19.671875 64.796875 
L 19.671875 37.40625 
L 32.078125 37.40625 
Q 38.96875 37.40625 42.71875 40.96875 
Q 46.484375 44.53125 46.484375 51.125 
Q 46.484375 57.671875 42.71875 61.234375 
Q 38.96875 64.796875 32.078125 64.796875 
z
M 9.8125 72.90625 
L 32.078125 72.90625 
Q 44.34375 72.90625 50.609375 67.359375 
Q 56.890625 61.8125 56.890625 51.125 
Q 56.890625 40.328125 50.609375 34.8125 
Q 44.34375 29.296875 32.078125 29.296875 
L 19.671875 29.296875 
L 19.671875 0 
L 9.8125 0 
z
" id="BitstreamVeraSans-Roman-50"/>
      <path d="M 18.109375 8.203125 
L 18.109375 -20.796875 
L 9.078125 -20.796875 
L 9.078125 54.6875 
L 18.109375 54.6875 
L 18.109375 46.390625 
Q 20.953125 51.265625 25.265625 53.625 
Q 29.59375 56 35.59375 56 
Q 45.5625 56 51.78125 48.09375 
Q 58.015625 40.1875 58.015625 27.296875 
Q 58.015625 14.40625 51.78125 6.484375 
Q 45.5625 -1.421875 35.59375 -1.421875 
Q 29.59375 -1.421875 25.265625 0.953125 
Q 20.953125 3.328125 18.109375 8.203125 
M 48.6875 27.296875 
Q 48.6875 37.203125 44.609375 42.84375 
Q 40.53125 48.484375 33.40625 48.484375 
Q 26.265625 48.484375 22.1875 42.84375 
Q 18.109375 37.203125 18.109375 27.296875 
Q 18.109375 17.390625 22.1875 11.75 
Q 26.265625 6.109375 33.40625 6.109375 
Q 40.53125 6.109375 44.609375 11.75 
Q 48.6875 17.390625 48.6875 27.296875 
" id="BitstreamVeraSans-Roman-70"/>
      <path d="M 48.78125 52.59375 
L 48.78125 44.1875 
Q 44.96875 46.296875 41.140625 47.34375 
Q 37.3125 48.390625 33.40625 48.390625 
Q 24.65625 48.390625 19.8125 42.84375 
Q 14.984375 37.3125 14.984375 27.296875 
Q 14.984375 17.28125 19.8125 11.734375 
Q 24.65625 6.203125 33.40625 6.203125 
Q 37.3125 6.203125 41.140625 7.25 
Q 44.96875 8.296875 48.78125 10.40625 
L 48.78125 2.09375 
Q 45.015625 0.34375 40.984375 -0.53125 
Q 36.96875 -1.421875 32.421875 -1.421875 
Q 20.0625 -1.421875 12.78125 6.34375 
Q 5.515625 14.109375 5.515625 27.296875 
Q 5.515625 40.671875 12.859375 48.328125 
Q 20.21875 56 33.015625 56 
Q 37.15625 56 41.109375 55.140625 
Q 45.0625 54.296875 48.78125 52.59375 
" id="BitstreamVeraSans-Roman-63"/>
     </defs>
     <g transform="translate(277.240354331 78.4258956693)scale(0.08 -0.08)">
      <use xlink:href="#BitstreamVeraSans-Roman-50"/>
      <use x="60.255859375" xlink:href="#BitstreamVeraSans-Roman-65"/>
      <use x="121.779296875" xlink:href="#BitstreamVeraSans-Roman-72"/>
      <use x="162.861328125" xlink:href="#BitstreamVeraSans-Roman-63"/>
      <use x="217.841796875" xlink:href="#BitstreamVeraSans-Roman-65"/>
      <use x="279.365234375" xlink:href="#BitstreamVeraSans-Roman-70"/>
      <use x="342.841796875" xlink:href="#BitstreamVeraSans-Roman-74"/>
      <use x="382.05078125" xlink:href="#BitstreamVeraSans-Roman-72"/>
      <use x="423.1328125" xlink:href="#BitstreamVeraSans-Roman-6f"/>
      <use x="484.314453125" xlink:href="#BitstreamVeraSans-Roman-6e"/>
      <use x="547.693359375" xlink:href="#BitstreamVeraSans-Roman-4c"/>
      <use x="603.390625" xlink:href="#BitstreamVeraSans-Roman-6f"/>
      <use x="664.572265625" xlink:href="#BitstreamVeraSans-Roman-73"/>
      <use x="716.671875" xlink:href="#BitstreamVeraSans-Roman-73"/>
     </g>
    </g>
    <g id="line2d_50">
     <path d="M 257.240354 87.369646 
L 268.440354 87.369646 
" style="fill:none;stroke:#86a600;stroke-linecap:round;"/>
    </g>
    <g id="line2d_51"/>
    <g id="text_22">
     <!-- SmoothedL1HingeLoss with $\gamma$ = 1.0 -->
     <defs>
      <path d="M 52 44.1875 
Q 55.375 50.25 60.0625 53.125 
Q 64.75 56 71.09375 56 
Q 79.640625 56 84.28125 50.015625 
Q 88.921875 44.046875 88.921875 33.015625 
L 88.921875 0 
L 79.890625 0 
L 79.890625 32.71875 
Q 79.890625 40.578125 77.09375 44.375 
Q 74.3125 48.1875 68.609375 48.1875 
Q 61.625 48.1875 57.5625 43.546875 
Q 53.515625 38.921875 53.515625 30.90625 
L 53.515625 0 
L 44.484375 0 
L 44.484375 32.71875 
Q 44.484375 40.625 41.703125 44.40625 
Q 38.921875 48.1875 33.109375 48.1875 
Q 26.21875 48.1875 22.15625 43.53125 
Q 18.109375 38.875 18.109375 30.90625 
L 18.109375 0 
L 9.078125 0 
L 9.078125 54.6875 
L 18.109375 54.6875 
L 18.109375 46.1875 
Q 21.1875 51.21875 25.484375 53.609375 
Q 29.78125 56 35.6875 56 
Q 41.65625 56 45.828125 52.96875 
Q 50 49.953125 52 44.1875 
" id="BitstreamVeraSans-Roman-6d"/>
      <path d="M 53.515625 70.515625 
L 53.515625 60.890625 
Q 47.90625 63.578125 42.921875 64.890625 
Q 37.9375 66.21875 33.296875 66.21875 
Q 25.25 66.21875 20.875 63.09375 
Q 16.5 59.96875 16.5 54.203125 
Q 16.5 49.359375 19.40625 46.890625 
Q 22.3125 44.4375 30.421875 42.921875 
L 36.375 41.703125 
Q 47.40625 39.59375 52.65625 34.296875 
Q 57.90625 29 57.90625 20.125 
Q 57.90625 9.515625 50.796875 4.046875 
Q 43.703125 -1.421875 29.984375 -1.421875 
Q 24.8125 -1.421875 18.96875 -0.25 
Q 13.140625 0.921875 6.890625 3.21875 
L 6.890625 13.375 
Q 12.890625 10.015625 18.65625 8.296875 
Q 24.421875 6.59375 29.984375 6.59375 
Q 38.421875 6.59375 43.015625 9.90625 
Q 47.609375 13.234375 47.609375 19.390625 
Q 47.609375 24.75 44.3125 27.78125 
Q 41.015625 30.8125 33.5 32.328125 
L 27.484375 33.5 
Q 16.453125 35.6875 11.515625 40.375 
Q 6.59375 45.0625 6.59375 53.421875 
Q 6.59375 63.09375 13.40625 68.65625 
Q 20.21875 74.21875 32.171875 74.21875 
Q 37.3125 74.21875 42.625 73.28125 
Q 47.953125 72.359375 53.515625 70.515625 
" id="BitstreamVeraSans-Roman-53"/>
      <path d="M 10.6875 12.40625 
L 21 12.40625 
L 21 0 
L 10.6875 0 
z
" id="BitstreamVeraSans-Roman-2e"/>
      <path d="M 10.59375 45.40625 
L 73.1875 45.40625 
L 73.1875 37.203125 
L 10.59375 37.203125 
z
M 10.59375 25.484375 
L 73.1875 25.484375 
L 73.1875 17.1875 
L 10.59375 17.1875 
z
" id="BitstreamVeraSans-Roman-3d"/>
      <path d="M 4.203125 54.6875 
L 13.1875 54.6875 
L 24.421875 12.015625 
L 35.59375 54.6875 
L 46.1875 54.6875 
L 57.421875 12.015625 
L 68.609375 54.6875 
L 77.59375 54.6875 
L 63.28125 0 
L 52.6875 0 
L 40.921875 44.828125 
L 29.109375 0 
L 18.5 0 
z
" id="BitstreamVeraSans-Roman-77"/>
      <path d="M 29.5 -19.578125 
Q 29.5 -17.328125 30.5 -13.03125 
Q 31.5 -8.734375 32.9375 -3.875 
Q 34.375 0.984375 35.40625 4.109375 
Q 35.796875 9.078125 35.796875 11.625 
Q 35.796875 18.0625 34.515625 23.609375 
Q 33.25 29.15625 29.734375 32.890625 
Q 26.21875 36.625 19.921875 36.625 
Q 16.609375 36.625 13.3125 35.203125 
Q 10.015625 33.796875 7.640625 31.25 
Q 5.28125 28.71875 4.390625 25.484375 
Q 4.203125 24.90625 3.609375 24.90625 
L 2.390625 24.90625 
Q 1.609375 24.90625 1.609375 25.78125 
L 1.609375 26.125 
Q 2.734375 30.609375 5.59375 34.78125 
Q 8.453125 38.96875 12.578125 41.578125 
Q 16.703125 44.1875 21.296875 44.1875 
Q 25.984375 44.1875 29.390625 41.015625 
Q 32.8125 37.84375 34.859375 32.953125 
Q 36.921875 28.078125 37.8125 23.09375 
Q 38.71875 18.109375 38.71875 13.71875 
Q 43.75 27.390625 50 39.59375 
L 51.515625 42.828125 
Q 51.8125 43.109375 52.203125 43.109375 
L 53.421875 43.109375 
Q 54.203125 43.109375 54.203125 42.1875 
Q 54.203125 42 54 41.609375 
L 52.484375 38.484375 
Q 48.140625 29.828125 44.5 20.9375 
Q 40.875 12.0625 38.28125 3.8125 
Q 37.890625 0.4375 36.78125 -5.421875 
Q 35.6875 -11.28125 34.125 -16.328125 
Q 32.5625 -21.390625 31 -21.578125 
Q 29.5 -21.578125 29.5 -19.578125 
" id="Cmmi10-b0"/>
     </defs>
     <g transform="translate(277.240354331 90.1696456693)scale(0.08 -0.08)">
      <use transform="translate(0.0 0.015625)" xlink:href="#BitstreamVeraSans-Roman-53"/>
      <use transform="translate(63.4765625 0.015625)" xlink:href="#BitstreamVeraSans-Roman-6d"/>
      <use transform="translate(160.888671875 0.015625)" xlink:href="#BitstreamVeraSans-Roman-6f"/>
      <use transform="translate(222.0703125 0.015625)" xlink:href="#BitstreamVeraSans-Roman-6f"/>
      <use transform="translate(283.251953125 0.015625)" xlink:href="#BitstreamVeraSans-Roman-74"/>
      <use transform="translate(322.4609375 0.015625)" xlink:href="#BitstreamVeraSans-Roman-68"/>
      <use transform="translate(385.83984375 0.015625)" xlink:href="#BitstreamVeraSans-Roman-65"/>
      <use transform="translate(447.36328125 0.015625)" xlink:href="#BitstreamVeraSans-Roman-64"/>
      <use transform="translate(510.83984375 0.015625)" xlink:href="#BitstreamVeraSans-Roman-4c"/>
      <use transform="translate(566.552734375 0.015625)" xlink:href="#BitstreamVeraSans-Roman-31"/>
      <use transform="translate(630.17578125 0.015625)" xlink:href="#BitstreamVeraSans-Roman-48"/>
      <use transform="translate(705.37109375 0.015625)" xlink:href="#BitstreamVeraSans-Roman-69"/>
      <use transform="translate(733.154296875 0.015625)" xlink:href="#BitstreamVeraSans-Roman-6e"/>
      <use transform="translate(796.533203125 0.015625)" xlink:href="#BitstreamVeraSans-Roman-67"/>
      <use transform="translate(860.009765625 0.015625)" xlink:href="#BitstreamVeraSans-Roman-65"/>
      <use transform="translate(921.533203125 0.015625)" xlink:href="#BitstreamVeraSans-Roman-4c"/>
      <use transform="translate(977.24609375 0.015625)" xlink:href="#BitstreamVeraSans-Roman-6f"/>
      <use transform="translate(1038.42773438 0.015625)" xlink:href="#BitstreamVeraSans-Roman-73"/>
      <use transform="translate(1090.52734375 0.015625)" xlink:href="#BitstreamVeraSans-Roman-73"/>
      <use transform="translate(1142.62695312 0.015625)" xlink:href="#BitstreamVeraSans-Roman-20"/>
      <use transform="translate(1174.4140625 0.015625)" xlink:href="#BitstreamVeraSans-Roman-77"/>
      <use transform="translate(1256.20117188 0.015625)" xlink:href="#BitstreamVeraSans-Roman-69"/>
      <use transform="translate(1283.984375 0.015625)" xlink:href="#BitstreamVeraSans-Roman-74"/>
      <use transform="translate(1323.19335938 0.015625)" xlink:href="#BitstreamVeraSans-Roman-68"/>
      <use transform="translate(1386.57226562 0.015625)" xlink:href="#BitstreamVeraSans-Roman-20"/>
      <use transform="translate(1418.359375 0.015625)" xlink:href="#Cmmi10-b0"/>
      <use transform="translate(1470.06835938 0.015625)" xlink:href="#BitstreamVeraSans-Roman-20"/>
      <use transform="translate(1501.85546875 0.015625)" xlink:href="#BitstreamVeraSans-Roman-3d"/>
      <use transform="translate(1585.64453125 0.015625)" xlink:href="#BitstreamVeraSans-Roman-20"/>
      <use transform="translate(1617.43164062 0.015625)" xlink:href="#BitstreamVeraSans-Roman-31"/>
      <use transform="translate(1681.0546875 0.015625)" xlink:href="#BitstreamVeraSans-Roman-2e"/>
      <use transform="translate(1712.84179688 0.015625)" xlink:href="#BitstreamVeraSans-Roman-30"/>
     </g>
    </g>
    <g id="line2d_52">
     <path d="M 257.240354 99.208396 
L 268.440354 99.208396 
" style="fill:none;stroke:#008868;stroke-dasharray:6.000000,6.000000;stroke-dashoffset:0.0;"/>
    </g>
    <g id="line2d_53"/>
    <g id="text_23">
     <!-- L2MarginLoss -->
     <g transform="translate(277.240354331 102.008395669)scale(0.08 -0.08)">
      <use xlink:href="#BitstreamVeraSans-Roman-4c"/>
      <use x="55.712890625" xlink:href="#BitstreamVeraSans-Roman-32"/>
      <use x="119.3359375" xlink:href="#BitstreamVeraSans-Roman-4d"/>
      <use x="205.615234375" xlink:href="#BitstreamVeraSans-Roman-61"/>
      <use x="266.89453125" xlink:href="#BitstreamVeraSans-Roman-72"/>
      <use x="307.9921875" xlink:href="#BitstreamVeraSans-Roman-67"/>
      <use x="371.46875" xlink:href="#BitstreamVeraSans-Roman-69"/>
      <use x="399.251953125" xlink:href="#BitstreamVeraSans-Roman-6e"/>
      <use x="462.630859375" xlink:href="#BitstreamVeraSans-Roman-4c"/>
      <use x="518.328125" xlink:href="#BitstreamVeraSans-Roman-6f"/>
      <use x="579.509765625" xlink:href="#BitstreamVeraSans-Roman-73"/>
      <use x="631.609375" xlink:href="#BitstreamVeraSans-Roman-73"/>
     </g>
    </g>
    <g id="line2d_54">
     <path d="M 257.240354 110.950896 
L 268.440354 110.950896 
" style="fill:none;stroke:#f27c00;stroke-linecap:round;"/>
    </g>
    <g id="line2d_55"/>
    <g id="text_24">
     <!-- ExpLoss -->
     <defs>
      <path d="M 9.8125 72.90625 
L 55.90625 72.90625 
L 55.90625 64.59375 
L 19.671875 64.59375 
L 19.671875 43.015625 
L 54.390625 43.015625 
L 54.390625 34.71875 
L 19.671875 34.71875 
L 19.671875 8.296875 
L 56.78125 8.296875 
L 56.78125 0 
L 9.8125 0 
z
" id="BitstreamVeraSans-Roman-45"/>
     </defs>
     <g transform="translate(277.240354331 113.750895669)scale(0.08 -0.08)">
      <use xlink:href="#BitstreamVeraSans-Roman-45"/>
      <use x="63.18359375" xlink:href="#BitstreamVeraSans-Roman-78"/>
      <use x="122.36328125" xlink:href="#BitstreamVeraSans-Roman-70"/>
      <use x="185.83984375" xlink:href="#BitstreamVeraSans-Roman-4c"/>
      <use x="241.537109375" xlink:href="#BitstreamVeraSans-Roman-6f"/>
      <use x="302.71875" xlink:href="#BitstreamVeraSans-Roman-73"/>
      <use x="354.818359375" xlink:href="#BitstreamVeraSans-Roman-73"/>
     </g>
    </g>
    <g id="line2d_56">
     <path d="M 257.240354 122.693396 
L 268.440354 122.693396 
" style="fill:none;stroke:#3410ac;stroke-dasharray:1.000000,3.000000;stroke-dashoffset:0.0;"/>
    </g>
    <g id="line2d_57"/>
    <g id="text_25">
     <!-- SigmoidLoss -->
     <g transform="translate(277.240354331 125.493395669)scale(0.08 -0.08)">
      <use xlink:href="#BitstreamVeraSans-Roman-53"/>
      <use x="63.4765625" xlink:href="#BitstreamVeraSans-Roman-69"/>
      <use x="91.259765625" xlink:href="#BitstreamVeraSans-Roman-67"/>
      <use x="154.736328125" xlink:href="#BitstreamVeraSans-Roman-6d"/>
      <use x="252.1484375" xlink:href="#BitstreamVeraSans-Roman-6f"/>
      <use x="313.330078125" xlink:href="#BitstreamVeraSans-Roman-69"/>
      <use x="341.11328125" xlink:href="#BitstreamVeraSans-Roman-64"/>
      <use x="404.58984375" xlink:href="#BitstreamVeraSans-Roman-4c"/>
      <use x="460.287109375" xlink:href="#BitstreamVeraSans-Roman-6f"/>
      <use x="521.46875" xlink:href="#BitstreamVeraSans-Roman-73"/>
      <use x="573.568359375" xlink:href="#BitstreamVeraSans-Roman-73"/>
     </g>
    </g>
    <g id="line2d_58">
     <path d="M 257.240354 134.435896 
L 268.440354 134.435896 
" style="fill:none;stroke:#439300;stroke-dasharray:1.000000,3.000000;stroke-dashoffset:0.0;"/>
    </g>
    <g id="line2d_59"/>
    <g id="text_26">
     <!-- DWDMarginLoss with q = 1.0 -->
     <defs>
      <path d="M 14.796875 27.296875 
Q 14.796875 17.390625 18.875 11.75 
Q 22.953125 6.109375 30.078125 6.109375 
Q 37.203125 6.109375 41.296875 11.75 
Q 45.40625 17.390625 45.40625 27.296875 
Q 45.40625 37.203125 41.296875 42.84375 
Q 37.203125 48.484375 30.078125 48.484375 
Q 22.953125 48.484375 18.875 42.84375 
Q 14.796875 37.203125 14.796875 27.296875 
M 45.40625 8.203125 
Q 42.578125 3.328125 38.25 0.953125 
Q 33.9375 -1.421875 27.875 -1.421875 
Q 17.96875 -1.421875 11.734375 6.484375 
Q 5.515625 14.40625 5.515625 27.296875 
Q 5.515625 40.1875 11.734375 48.09375 
Q 17.96875 56 27.875 56 
Q 33.9375 56 38.25 53.625 
Q 42.578125 51.265625 45.40625 46.390625 
L 45.40625 54.6875 
L 54.390625 54.6875 
L 54.390625 -20.796875 
L 45.40625 -20.796875 
z
" id="BitstreamVeraSans-Roman-71"/>
      <path d="M 19.671875 64.796875 
L 19.671875 8.109375 
L 31.59375 8.109375 
Q 46.6875 8.109375 53.6875 14.9375 
Q 60.6875 21.78125 60.6875 36.53125 
Q 60.6875 51.171875 53.6875 57.984375 
Q 46.6875 64.796875 31.59375 64.796875 
z
M 9.8125 72.90625 
L 30.078125 72.90625 
Q 51.265625 72.90625 61.171875 64.09375 
Q 71.09375 55.28125 71.09375 36.53125 
Q 71.09375 17.671875 61.125 8.828125 
Q 51.171875 0 30.078125 0 
L 9.8125 0 
z
" id="BitstreamVeraSans-Roman-44"/>
      <path d="M 3.328125 72.90625 
L 13.28125 72.90625 
L 28.609375 11.28125 
L 43.890625 72.90625 
L 54.984375 72.90625 
L 70.3125 11.28125 
L 85.59375 72.90625 
L 95.609375 72.90625 
L 77.296875 0 
L 64.890625 0 
L 49.515625 63.28125 
L 33.984375 0 
L 21.578125 0 
z
" id="BitstreamVeraSans-Roman-57"/>
     </defs>
     <g transform="translate(277.240354331 137.235895669)scale(0.08 -0.08)">
      <use xlink:href="#BitstreamVeraSans-Roman-44"/>
      <use x="77.001953125" xlink:href="#BitstreamVeraSans-Roman-57"/>
      <use x="175.87890625" xlink:href="#BitstreamVeraSans-Roman-44"/>
      <use x="252.880859375" xlink:href="#BitstreamVeraSans-Roman-4d"/>
      <use x="339.16015625" xlink:href="#BitstreamVeraSans-Roman-61"/>
      <use x="400.439453125" xlink:href="#BitstreamVeraSans-Roman-72"/>
      <use x="441.537109375" xlink:href="#BitstreamVeraSans-Roman-67"/>
      <use x="505.013671875" xlink:href="#BitstreamVeraSans-Roman-69"/>
      <use x="532.796875" xlink:href="#BitstreamVeraSans-Roman-6e"/>
      <use x="596.17578125" xlink:href="#BitstreamVeraSans-Roman-4c"/>
      <use x="651.873046875" xlink:href="#BitstreamVeraSans-Roman-6f"/>
      <use x="713.0546875" xlink:href="#BitstreamVeraSans-Roman-73"/>
      <use x="765.154296875" xlink:href="#BitstreamVeraSans-Roman-73"/>
      <use x="817.25390625" xlink:href="#BitstreamVeraSans-Roman-20"/>
      <use x="849.041015625" xlink:href="#BitstreamVeraSans-Roman-77"/>
      <use x="930.828125" xlink:href="#BitstreamVeraSans-Roman-69"/>
      <use x="958.611328125" xlink:href="#BitstreamVeraSans-Roman-74"/>
      <use x="997.8203125" xlink:href="#BitstreamVeraSans-Roman-68"/>
      <use x="1061.19921875" xlink:href="#BitstreamVeraSans-Roman-20"/>
      <use x="1092.98632812" xlink:href="#BitstreamVeraSans-Roman-71"/>
      <use x="1156.46289062" xlink:href="#BitstreamVeraSans-Roman-20"/>
      <use x="1188.25" xlink:href="#BitstreamVeraSans-Roman-3d"/>
      <use x="1272.0390625" xlink:href="#BitstreamVeraSans-Roman-20"/>
      <use x="1303.82617188" xlink:href="#BitstreamVeraSans-Roman-31"/>
      <use x="1367.44921875" xlink:href="#BitstreamVeraSans-Roman-2e"/>
      <use x="1399.23632812" xlink:href="#BitstreamVeraSans-Roman-30"/>
     </g>
    </g>
   </g>
  </g>
 </g>
 <defs>
  <clipPath id="p1466f3a327">
   <rect height="251.730708661" width="398.835708661" x="27.7646456693" y="6.43464566929"/>
  </clipPath>
 </defs>
</svg>
