<?xml version="1.0" encoding="utf-8" standalone="no"?>
<!DOCTYPE svg PUBLIC "-//W3C//DTD SVG 1.1//EN"
  "http://www.w3.org/Graphics/SVG/1.1/DTD/svg11.dtd">
<!-- Created with matplotlib (http://matplotlib.org/) -->
<svg height="288pt" version="1.1" viewBox="0 0 432 288" width="432pt" xmlns="http://www.w3.org/2000/svg" xmlns:xlink="http://www.w3.org/1999/xlink">
 <defs>
  <style type="text/css">
*{stroke-linecap:butt;stroke-linejoin:round;stroke-miterlimit:100000;}
  </style>
 </defs>
 <g id="figure_1">
  <g id="patch_1">
   <path d="M 0 288 
L 432 288 
L 432 0 
L 0 0 
L 0 288 
z
" style="fill:none;"/>
  </g>
  <g id="axes_1">
   <g id="patch_2">
    <path d="M 31.364646 255.755354 
L 426.600354 255.755354 
L 426.600354 6.434646 
L 31.364646 6.434646 
z
" style="fill:#ffffff;"/>
   </g>
   <g id="line2d_1">
    <path clip-path="url(#p3f89d7dbac)" d="M 31.364646 220.13811 
L 228.883691 220.13811 
L 229.081309 255.755354 
L 426.600354 255.755354 
L 426.600354 255.755354 
" style="fill:none;stroke:#00008b;stroke-dasharray:6.000000,6.000000;stroke-dashoffset:0.0;"/>
   </g>
   <g id="line2d_2">
    <path clip-path="url(#p3f89d7dbac)" d="M 31.364646 148.903622 
L 328.087854 255.755354 
L 426.600354 255.755354 
L 426.600354 255.755354 
" style="fill:none;stroke:#cc0000;stroke-linecap:round;"/>
   </g>
   <g id="patch_3">
    <path d="M 31.364646 6.434646 
L 426.600354 6.434646 
" style="fill:none;stroke:#000000;stroke-linecap:square;stroke-linejoin:miter;"/>
   </g>
   <g id="patch_4">
    <path d="M 426.600354 255.755354 
L 426.600354 6.434646 
" style="fill:none;stroke:#000000;stroke-linecap:square;stroke-linejoin:miter;"/>
   </g>
   <g id="patch_5">
    <path d="M 31.364646 255.755354 
L 426.600354 255.755354 
" style="fill:none;stroke:#000000;stroke-linecap:square;stroke-linejoin:miter;"/>
   </g>
   <g id="patch_6">
    <path d="M 31.364646 255.755354 
L 31.364646 6.434646 
" style="fill:none;stroke:#000000;stroke-linecap:square;stroke-linejoin:miter;"/>
   </g>
   <g id="matplotlib.axis_1">
    <g id="xtick_1">
     <g id="line2d_3">
      <defs>
       <path d="M 0 0 
L 0 -4 
" id="m6db2410e7f" style="stroke:#000000;stroke-width:0.5;"/>
      </defs>
      <g>
       <use style="stroke:#000000;stroke-width:0.5;" x="31.3646456693" xlink:href="#m6db2410e7f" y="255.755354331"/>
      </g>
     </g>
     <g id="line2d_4">
      <defs>
       <path d="M 0 0 
L 0 4 
" id="m3d25df4050" style="stroke:#000000;stroke-width:0.5;"/>
      </defs>
      <g>
       <use style="stroke:#000000;stroke-width:0.5;" x="31.3646456693" xlink:href="#m3d25df4050" y="6.43464566929"/>
      </g>
     </g>
     <g id="text_1">
      <!-- -2 -->
      <defs>
       <path d="M 19.1875 8.296875 
L 53.609375 8.296875 
L 53.609375 0 
L 7.328125 0 
L 7.328125 8.296875 
Q 12.9375 14.109375 22.625 23.890625 
Q 32.328125 33.6875 34.8125 36.53125 
Q 39.546875 41.84375 41.421875 45.53125 
Q 43.3125 49.21875 43.3125 52.78125 
Q 43.3125 58.59375 39.234375 62.25 
Q 35.15625 65.921875 28.609375 65.921875 
Q 23.96875 65.921875 18.8125 64.3125 
Q 13.671875 62.703125 7.8125 59.421875 
L 7.8125 69.390625 
Q 13.765625 71.78125 18.9375 73 
Q 24.125 74.21875 28.421875 74.21875 
Q 39.75 74.21875 46.484375 68.546875 
Q 53.21875 62.890625 53.21875 53.421875 
Q 53.21875 48.921875 51.53125 44.890625 
Q 49.859375 40.875 45.40625 35.40625 
Q 44.1875 33.984375 37.640625 27.21875 
Q 31.109375 20.453125 19.1875 8.296875 
" id="BitstreamVeraSans-Roman-32"/>
       <path d="M 4.890625 31.390625 
L 31.203125 31.390625 
L 31.203125 23.390625 
L 4.890625 23.390625 
z
" id="BitstreamVeraSans-Roman-2d"/>
      </defs>
      <g transform="translate(27.3765206693 265.834104331)scale(0.08 -0.08)">
       <use xlink:href="#BitstreamVeraSans-Roman-2d"/>
       <use x="36.083984375" xlink:href="#BitstreamVeraSans-Roman-32"/>
      </g>
     </g>
    </g>
    <g id="xtick_2">
     <g id="line2d_5">
      <g>
       <use style="stroke:#000000;stroke-width:0.5;" x="130.173572835" xlink:href="#m6db2410e7f" y="255.755354331"/>
      </g>
     </g>
     <g id="line2d_6">
      <g>
       <use style="stroke:#000000;stroke-width:0.5;" x="130.173572835" xlink:href="#m3d25df4050" y="6.43464566929"/>
      </g>
     </g>
     <g id="text_2">
      <!-- -1 -->
      <defs>
       <path d="M 12.40625 8.296875 
L 28.515625 8.296875 
L 28.515625 63.921875 
L 10.984375 60.40625 
L 10.984375 69.390625 
L 28.421875 72.90625 
L 38.28125 72.90625 
L 38.28125 8.296875 
L 54.390625 8.296875 
L 54.390625 0 
L 12.40625 0 
z
" id="BitstreamVeraSans-Roman-31"/>
      </defs>
      <g transform="translate(126.185447835 265.834104331)scale(0.08 -0.08)">
       <use xlink:href="#BitstreamVeraSans-Roman-2d"/>
       <use x="36.083984375" xlink:href="#BitstreamVeraSans-Roman-31"/>
      </g>
     </g>
    </g>
    <g id="xtick_3">
     <g id="line2d_7">
      <g>
       <use style="stroke:#000000;stroke-width:0.5;" x="228.9825" xlink:href="#m6db2410e7f" y="255.755354331"/>
      </g>
     </g>
     <g id="line2d_8">
      <g>
       <use style="stroke:#000000;stroke-width:0.5;" x="228.9825" xlink:href="#m3d25df4050" y="6.43464566929"/>
      </g>
     </g>
     <g id="text_3">
      <!-- 0 -->
      <defs>
       <path d="M 31.78125 66.40625 
Q 24.171875 66.40625 20.328125 58.90625 
Q 16.5 51.421875 16.5 36.375 
Q 16.5 21.390625 20.328125 13.890625 
Q 24.171875 6.390625 31.78125 6.390625 
Q 39.453125 6.390625 43.28125 13.890625 
Q 47.125 21.390625 47.125 36.375 
Q 47.125 51.421875 43.28125 58.90625 
Q 39.453125 66.40625 31.78125 66.40625 
M 31.78125 74.21875 
Q 44.046875 74.21875 50.515625 64.515625 
Q 56.984375 54.828125 56.984375 36.375 
Q 56.984375 17.96875 50.515625 8.265625 
Q 44.046875 -1.421875 31.78125 -1.421875 
Q 19.53125 -1.421875 13.0625 8.265625 
Q 6.59375 17.96875 6.59375 36.375 
Q 6.59375 54.828125 13.0625 64.515625 
Q 19.53125 74.21875 31.78125 74.21875 
" id="BitstreamVeraSans-Roman-30"/>
      </defs>
      <g transform="translate(226.4375 265.834104331)scale(0.08 -0.08)">
       <use xlink:href="#BitstreamVeraSans-Roman-30"/>
      </g>
     </g>
    </g>
    <g id="xtick_4">
     <g id="line2d_9">
      <g>
       <use style="stroke:#000000;stroke-width:0.5;" x="327.791427165" xlink:href="#m6db2410e7f" y="255.755354331"/>
      </g>
     </g>
     <g id="line2d_10">
      <g>
       <use style="stroke:#000000;stroke-width:0.5;" x="327.791427165" xlink:href="#m3d25df4050" y="6.43464566929"/>
      </g>
     </g>
     <g id="text_4">
      <!-- 1 -->
      <g transform="translate(325.246427165 265.834104331)scale(0.08 -0.08)">
       <use xlink:href="#BitstreamVeraSans-Roman-31"/>
      </g>
     </g>
    </g>
    <g id="xtick_5">
     <g id="line2d_11">
      <g>
       <use style="stroke:#000000;stroke-width:0.5;" x="426.600354331" xlink:href="#m6db2410e7f" y="255.755354331"/>
      </g>
     </g>
     <g id="line2d_12">
      <g>
       <use style="stroke:#000000;stroke-width:0.5;" x="426.600354331" xlink:href="#m3d25df4050" y="6.43464566929"/>
      </g>
     </g>
     <g id="text_5">
      <!-- 2 -->
      <g transform="translate(424.055354331 265.834104331)scale(0.08 -0.08)">
       <use xlink:href="#BitstreamVeraSans-Roman-32"/>
      </g>
     </g>
    </g>
    <g id="text_6">
     <!-- $y \cdot \hat{y}$ -->
     <defs>
      <path d="M 8.40625 25 
Q 8.40625 26.421875 9.125 27.6875 
Q 9.859375 28.953125 11.15625 29.734375 
Q 12.453125 30.515625 13.921875 30.515625 
Q 15.328125 30.515625 16.625 29.734375 
Q 17.921875 28.953125 18.65625 27.6875 
Q 19.390625 26.421875 19.390625 25 
Q 19.390625 22.75 17.796875 21.109375 
Q 16.21875 19.484375 13.921875 19.484375 
Q 11.671875 19.484375 10.03125 21.109375 
Q 8.40625 22.75 8.40625 25 
" id="Cmsy10-a2"/>
      <path d="M 13.484375 53.8125 
L 11.53125 55.90625 
L 25 69.390625 
L 38.375 55.90625 
L 36.375 53.8125 
L 25 63.8125 
z
" id="Cmr10-5e"/>
      <path d="M 8.40625 -14.3125 
Q 10.5 -17.921875 15.71875 -17.921875 
Q 20.453125 -17.921875 23.921875 -14.59375 
Q 27.390625 -11.28125 29.515625 -6.5625 
Q 31.640625 -1.859375 32.8125 3.078125 
Q 28.375 -1.125 23.1875 -1.125 
Q 19.234375 -1.125 16.453125 0.234375 
Q 13.671875 1.609375 12.125 4.3125 
Q 10.59375 7.03125 10.59375 10.890625 
Q 10.59375 14.15625 11.46875 17.59375 
Q 12.359375 21.046875 13.9375 25.265625 
Q 15.53125 29.5 16.703125 32.625 
Q 18.015625 36.28125 18.015625 38.625 
Q 18.015625 41.609375 15.828125 41.609375 
Q 11.859375 41.609375 9.296875 37.53125 
Q 6.734375 33.453125 5.515625 28.421875 
Q 5.328125 27.78125 4.6875 27.78125 
L 3.515625 27.78125 
Q 2.6875 27.78125 2.6875 28.71875 
L 2.6875 29 
Q 4.296875 34.96875 7.609375 39.578125 
Q 10.9375 44.1875 16.015625 44.1875 
Q 19.578125 44.1875 22.046875 41.84375 
Q 24.515625 39.5 24.515625 35.890625 
Q 24.515625 34.03125 23.6875 31.984375 
Q 23.25 30.765625 21.6875 26.65625 
Q 20.125 22.5625 19.28125 19.875 
Q 18.453125 17.1875 17.921875 14.59375 
Q 17.390625 12.015625 17.390625 9.421875 
Q 17.390625 6.109375 18.796875 3.8125 
Q 20.21875 1.515625 23.296875 1.515625 
Q 29.5 1.515625 34.421875 9.078125 
L 42 39.890625 
Q 42.328125 41.21875 43.546875 42.15625 
Q 44.78125 43.109375 46.1875 43.109375 
Q 47.40625 43.109375 48.3125 42.328125 
Q 49.21875 41.546875 49.21875 40.28125 
Q 49.21875 39.703125 49.125 39.5 
L 39.203125 -0.296875 
Q 37.890625 -5.421875 34.375 -10.109375 
Q 30.859375 -14.796875 25.90625 -17.65625 
Q 20.953125 -20.515625 15.578125 -20.515625 
Q 12.984375 -20.515625 10.4375 -19.5 
Q 7.90625 -18.5 6.34375 -16.5 
Q 4.78125 -14.5 4.78125 -11.8125 
Q 4.78125 -9.078125 6.390625 -7.078125 
Q 8.015625 -5.078125 10.6875 -5.078125 
Q 12.3125 -5.078125 13.40625 -6.078125 
Q 14.5 -7.078125 14.5 -8.6875 
Q 14.5 -10.984375 12.78125 -12.6875 
Q 11.078125 -14.40625 8.796875 -14.40625 
Q 8.6875 -14.359375 8.59375 -14.328125 
Q 8.5 -14.3125 8.40625 -14.3125 
" id="Cmmi10-79"/>
     </defs>
     <g transform="translate(220.1275 280.833791831)scale(0.11 -0.11)">
      <use transform="translate(0.0 0.734375)" xlink:href="#Cmmi10-79"/>
      <use transform="translate(66.58203125 0.734375)" xlink:href="#Cmsy10-a2"/>
      <use transform="translate(117.55078125 3.609375)" xlink:href="#Cmr10-5e"/>
      <use transform="translate(111.826171875 0.734375)" xlink:href="#Cmmi10-79"/>
     </g>
    </g>
   </g>
   <g id="matplotlib.axis_2">
    <g id="ytick_1">
     <g id="line2d_13">
      <defs>
       <path d="M 0 0 
L 4 0 
" id="m0b4f86d42f" style="stroke:#000000;stroke-width:0.5;"/>
      </defs>
      <g>
       <use style="stroke:#000000;stroke-width:0.5;" x="31.3646456693" xlink:href="#m0b4f86d42f" y="255.755354331"/>
      </g>
     </g>
     <g id="line2d_14">
      <defs>
       <path d="M 0 0 
L -4 0 
" id="m0381572cfd" style="stroke:#000000;stroke-width:0.5;"/>
      </defs>
      <g>
       <use style="stroke:#000000;stroke-width:0.5;" x="426.600354331" xlink:href="#m0381572cfd" y="255.755354331"/>
      </g>
     </g>
     <g id="text_7">
      <!-- 0 -->
      <g transform="translate(22.2746456693 257.962854331)scale(0.08 -0.08)">
       <use xlink:href="#BitstreamVeraSans-Roman-30"/>
      </g>
     </g>
    </g>
    <g id="ytick_2">
     <g id="line2d_15">
      <g>
       <use style="stroke:#000000;stroke-width:0.5;" x="31.3646456693" xlink:href="#m0b4f86d42f" y="220.138110236"/>
      </g>
     </g>
     <g id="line2d_16">
      <g>
       <use style="stroke:#000000;stroke-width:0.5;" x="426.600354331" xlink:href="#m0381572cfd" y="220.138110236"/>
      </g>
     </g>
     <g id="text_8">
      <!-- 1 -->
      <g transform="translate(22.2746456693 222.345610236)scale(0.08 -0.08)">
       <use xlink:href="#BitstreamVeraSans-Roman-31"/>
      </g>
     </g>
    </g>
    <g id="ytick_3">
     <g id="line2d_17">
      <g>
       <use style="stroke:#000000;stroke-width:0.5;" x="31.3646456693" xlink:href="#m0b4f86d42f" y="184.520866142"/>
      </g>
     </g>
     <g id="line2d_18">
      <g>
       <use style="stroke:#000000;stroke-width:0.5;" x="426.600354331" xlink:href="#m0381572cfd" y="184.520866142"/>
      </g>
     </g>
     <g id="text_9">
      <!-- 2 -->
      <g transform="translate(22.2746456693 186.728366142)scale(0.08 -0.08)">
       <use xlink:href="#BitstreamVeraSans-Roman-32"/>
      </g>
     </g>
    </g>
    <g id="ytick_4">
     <g id="line2d_19">
      <g>
       <use style="stroke:#000000;stroke-width:0.5;" x="31.3646456693" xlink:href="#m0b4f86d42f" y="148.903622047"/>
      </g>
     </g>
     <g id="line2d_20">
      <g>
       <use style="stroke:#000000;stroke-width:0.5;" x="426.600354331" xlink:href="#m0381572cfd" y="148.903622047"/>
      </g>
     </g>
     <g id="text_10">
      <!-- 3 -->
      <defs>
       <path d="M 40.578125 39.3125 
Q 47.65625 37.796875 51.625 33 
Q 55.609375 28.21875 55.609375 21.1875 
Q 55.609375 10.40625 48.1875 4.484375 
Q 40.765625 -1.421875 27.09375 -1.421875 
Q 22.515625 -1.421875 17.65625 -0.515625 
Q 12.796875 0.390625 7.625 2.203125 
L 7.625 11.71875 
Q 11.71875 9.328125 16.59375 8.109375 
Q 21.484375 6.890625 26.8125 6.890625 
Q 36.078125 6.890625 40.9375 10.546875 
Q 45.796875 14.203125 45.796875 21.1875 
Q 45.796875 27.640625 41.28125 31.265625 
Q 36.765625 34.90625 28.71875 34.90625 
L 20.21875 34.90625 
L 20.21875 43.015625 
L 29.109375 43.015625 
Q 36.375 43.015625 40.234375 45.921875 
Q 44.09375 48.828125 44.09375 54.296875 
Q 44.09375 59.90625 40.109375 62.90625 
Q 36.140625 65.921875 28.71875 65.921875 
Q 24.65625 65.921875 20.015625 65.03125 
Q 15.375 64.15625 9.8125 62.3125 
L 9.8125 71.09375 
Q 15.4375 72.65625 20.34375 73.4375 
Q 25.25 74.21875 29.59375 74.21875 
Q 40.828125 74.21875 47.359375 69.109375 
Q 53.90625 64.015625 53.90625 55.328125 
Q 53.90625 49.265625 50.4375 45.09375 
Q 46.96875 40.921875 40.578125 39.3125 
" id="BitstreamVeraSans-Roman-33"/>
      </defs>
      <g transform="translate(22.2746456693 151.111122047)scale(0.08 -0.08)">
       <use xlink:href="#BitstreamVeraSans-Roman-33"/>
      </g>
     </g>
    </g>
    <g id="ytick_5">
     <g id="line2d_21">
      <g>
       <use style="stroke:#000000;stroke-width:0.5;" x="31.3646456693" xlink:href="#m0b4f86d42f" y="113.286377953"/>
      </g>
     </g>
     <g id="line2d_22">
      <g>
       <use style="stroke:#000000;stroke-width:0.5;" x="426.600354331" xlink:href="#m0381572cfd" y="113.286377953"/>
      </g>
     </g>
     <g id="text_11">
      <!-- 4 -->
      <defs>
       <path d="M 37.796875 64.3125 
L 12.890625 25.390625 
L 37.796875 25.390625 
z
M 35.203125 72.90625 
L 47.609375 72.90625 
L 47.609375 25.390625 
L 58.015625 25.390625 
L 58.015625 17.1875 
L 47.609375 17.1875 
L 47.609375 0 
L 37.796875 0 
L 37.796875 17.1875 
L 4.890625 17.1875 
L 4.890625 26.703125 
z
" id="BitstreamVeraSans-Roman-34"/>
      </defs>
      <g transform="translate(22.2746456693 115.493877953)scale(0.08 -0.08)">
       <use xlink:href="#BitstreamVeraSans-Roman-34"/>
      </g>
     </g>
    </g>
    <g id="ytick_6">
     <g id="line2d_23">
      <g>
       <use style="stroke:#000000;stroke-width:0.5;" x="31.3646456693" xlink:href="#m0b4f86d42f" y="77.6691338583"/>
      </g>
     </g>
     <g id="line2d_24">
      <g>
       <use style="stroke:#000000;stroke-width:0.5;" x="426.600354331" xlink:href="#m0381572cfd" y="77.6691338583"/>
      </g>
     </g>
     <g id="text_12">
      <!-- 5 -->
      <defs>
       <path d="M 10.796875 72.90625 
L 49.515625 72.90625 
L 49.515625 64.59375 
L 19.828125 64.59375 
L 19.828125 46.734375 
Q 21.96875 47.46875 24.109375 47.828125 
Q 26.265625 48.1875 28.421875 48.1875 
Q 40.625 48.1875 47.75 41.5 
Q 54.890625 34.8125 54.890625 23.390625 
Q 54.890625 11.625 47.5625 5.09375 
Q 40.234375 -1.421875 26.90625 -1.421875 
Q 22.3125 -1.421875 17.546875 -0.640625 
Q 12.796875 0.140625 7.71875 1.703125 
L 7.71875 11.625 
Q 12.109375 9.234375 16.796875 8.0625 
Q 21.484375 6.890625 26.703125 6.890625 
Q 35.15625 6.890625 40.078125 11.328125 
Q 45.015625 15.765625 45.015625 23.390625 
Q 45.015625 31 40.078125 35.4375 
Q 35.15625 39.890625 26.703125 39.890625 
Q 22.75 39.890625 18.8125 39.015625 
Q 14.890625 38.140625 10.796875 36.28125 
z
" id="BitstreamVeraSans-Roman-35"/>
      </defs>
      <g transform="translate(22.2746456693 79.8766338583)scale(0.08 -0.08)">
       <use xlink:href="#BitstreamVeraSans-Roman-35"/>
      </g>
     </g>
    </g>
    <g id="ytick_7">
     <g id="line2d_25">
      <g>
       <use style="stroke:#000000;stroke-width:0.5;" x="31.3646456693" xlink:href="#m0b4f86d42f" y="42.0518897638"/>
      </g>
     </g>
     <g id="line2d_26">
      <g>
       <use style="stroke:#000000;stroke-width:0.5;" x="426.600354331" xlink:href="#m0381572cfd" y="42.0518897638"/>
      </g>
     </g>
     <g id="text_13">
      <!-- 6 -->
      <defs>
       <path d="M 33.015625 40.375 
Q 26.375 40.375 22.484375 35.828125 
Q 18.609375 31.296875 18.609375 23.390625 
Q 18.609375 15.53125 22.484375 10.953125 
Q 26.375 6.390625 33.015625 6.390625 
Q 39.65625 6.390625 43.53125 10.953125 
Q 47.40625 15.53125 47.40625 23.390625 
Q 47.40625 31.296875 43.53125 35.828125 
Q 39.65625 40.375 33.015625 40.375 
M 52.59375 71.296875 
L 52.59375 62.3125 
Q 48.875 64.0625 45.09375 64.984375 
Q 41.3125 65.921875 37.59375 65.921875 
Q 27.828125 65.921875 22.671875 59.328125 
Q 17.53125 52.734375 16.796875 39.40625 
Q 19.671875 43.65625 24.015625 45.921875 
Q 28.375 48.1875 33.59375 48.1875 
Q 44.578125 48.1875 50.953125 41.515625 
Q 57.328125 34.859375 57.328125 23.390625 
Q 57.328125 12.15625 50.6875 5.359375 
Q 44.046875 -1.421875 33.015625 -1.421875 
Q 20.359375 -1.421875 13.671875 8.265625 
Q 6.984375 17.96875 6.984375 36.375 
Q 6.984375 53.65625 15.1875 63.9375 
Q 23.390625 74.21875 37.203125 74.21875 
Q 40.921875 74.21875 44.703125 73.484375 
Q 48.484375 72.75 52.59375 71.296875 
" id="BitstreamVeraSans-Roman-36"/>
      </defs>
      <g transform="translate(22.2746456693 44.2593897638)scale(0.08 -0.08)">
       <use xlink:href="#BitstreamVeraSans-Roman-36"/>
      </g>
     </g>
    </g>
    <g id="ytick_8">
     <g id="line2d_27">
      <g>
       <use style="stroke:#000000;stroke-width:0.5;" x="31.3646456693" xlink:href="#m0b4f86d42f" y="6.43464566929"/>
      </g>
     </g>
     <g id="line2d_28">
      <g>
       <use style="stroke:#000000;stroke-width:0.5;" x="426.600354331" xlink:href="#m0381572cfd" y="6.43464566929"/>
      </g>
     </g>
     <g id="text_14">
      <!-- 7 -->
      <defs>
       <path d="M 8.203125 72.90625 
L 55.078125 72.90625 
L 55.078125 68.703125 
L 28.609375 0 
L 18.3125 0 
L 43.21875 64.59375 
L 8.203125 64.59375 
z
" id="BitstreamVeraSans-Roman-37"/>
      </defs>
      <g transform="translate(22.2746456693 8.64214566929)scale(0.08 -0.08)">
       <use xlink:href="#BitstreamVeraSans-Roman-37"/>
      </g>
     </g>
    </g>
    <g id="text_15">
     <!-- $L(y \cdot \hat{y})$ -->
     <defs>
      <path d="M 31 -24.8125 
Q 25.4375 -20.40625 21.40625 -14.71875 
Q 17.390625 -9.03125 14.8125 -2.578125 
Q 12.25 3.859375 10.984375 10.890625 
Q 9.71875 17.921875 9.71875 25 
Q 9.71875 32.171875 10.984375 39.203125 
Q 12.25 46.234375 14.859375 52.734375 
Q 17.484375 59.234375 21.53125 64.890625 
Q 25.59375 70.5625 31 74.8125 
Q 31 75 31.5 75 
L 32.421875 75 
Q 32.71875 75 32.953125 74.734375 
Q 33.203125 74.46875 33.203125 74.125 
Q 33.203125 73.6875 33.015625 73.484375 
Q 28.125 68.703125 24.875 63.234375 
Q 21.625 57.765625 19.640625 51.578125 
Q 17.671875 45.40625 16.796875 38.78125 
Q 15.921875 32.171875 15.921875 25 
Q 15.921875 -6.78125 32.90625 -23.296875 
Q 33.203125 -23.578125 33.203125 -24.125 
Q 33.203125 -24.359375 32.9375 -24.671875 
Q 32.671875 -25 32.421875 -25 
L 31.5 -25 
Q 31 -25 31 -24.8125 
" id="Cmr10-28"/>
      <path d="M 6.5 -25 
Q 5.609375 -25 5.609375 -24.125 
Q 5.609375 -23.6875 5.8125 -23.484375 
Q 22.90625 -6.78125 22.90625 25 
Q 22.90625 56.78125 6 73.296875 
Q 5.609375 73.53125 5.609375 74.125 
Q 5.609375 74.46875 5.875 74.734375 
Q 6.15625 75 6.5 75 
L 7.421875 75 
Q 7.71875 75 7.90625 74.8125 
Q 15.09375 69.140625 19.875 61.03125 
Q 24.65625 52.9375 26.875 43.75 
Q 29.109375 34.578125 29.109375 25 
Q 29.109375 17.921875 27.90625 11.0625 
Q 26.703125 4.203125 24.09375 -2.453125 
Q 21.484375 -9.125 17.484375 -14.765625 
Q 13.484375 -20.40625 7.90625 -24.8125 
Q 7.71875 -25 7.421875 -25 
z
" id="Cmr10-29"/>
      <path d="M 4.6875 0 
Q 3.71875 0 3.71875 1.3125 
Q 3.765625 1.5625 3.90625 2.171875 
Q 4.046875 2.78125 4.3125 3.140625 
Q 4.59375 3.515625 4.984375 3.515625 
Q 11.078125 3.515625 13.484375 4.203125 
Q 14.796875 4.640625 15.375 6.890625 
L 29.109375 61.8125 
Q 29.296875 62.796875 29.296875 63.1875 
Q 29.296875 64.265625 28.078125 64.40625 
Q 26.21875 64.796875 20.90625 64.796875 
Q 19.921875 64.796875 19.921875 66.109375 
Q 20.265625 67.390625 20.453125 67.84375 
Q 20.65625 68.3125 21.578125 68.3125 
L 51.125 68.3125 
Q 52 68.3125 52 67 
Q 51.859375 65.96875 51.65625 65.375 
Q 51.46875 64.796875 50.6875 64.796875 
Q 43.3125 64.796875 40.828125 64.3125 
Q 38.375 63.875 37.796875 61.375 
L 24.125 6.5 
Q 23.6875 5.28125 23.6875 4.296875 
Q 23.6875 3.515625 27.09375 3.515625 
L 36.375 3.515625 
Q 44.234375 3.515625 49.109375 6.640625 
Q 54 9.765625 56.34375 13.6875 
Q 58.6875 17.625 60.265625 21.84375 
Q 61.859375 26.078125 62.59375 26.21875 
L 63.484375 26.21875 
Q 64.5 26.21875 64.5 24.90625 
L 55.609375 0.6875 
Q 55.46875 0 54.6875 0 
z
" id="Cmmi10-4c"/>
     </defs>
     <g transform="translate(14.5246456693 147.98)rotate(-90.0)scale(0.11 -0.11)">
      <use xlink:href="#Cmmi10-4c"/>
      <use transform="translate(68.017578125 0.0)" xlink:href="#Cmr10-28"/>
      <use transform="translate(106.8359375 0.0)" xlink:href="#Cmmi10-79"/>
      <use transform="translate(173.41796875 0.0)" xlink:href="#Cmsy10-a2"/>
      <use transform="translate(224.38671875 2.875)" xlink:href="#Cmr10-5e"/>
      <use transform="translate(218.662109375 0.0)" xlink:href="#Cmmi10-79"/>
      <use transform="translate(267.685546875 0.0)" xlink:href="#Cmr10-29"/>
     </g>
    </g>
   </g>
   <g id="line2d_29">
    <path clip-path="url(#p3f89d7dbac)" d="M 62.498434 -1 
L 70.59179 14.426835 
L 78.595313 29.212443 
L 86.500027 43.356763 
L 94.305932 56.876891 
L 102.013029 69.789709 
L 109.720125 82.269137 
L 117.328412 94.16348 
L 124.837891 105.489193 
L 132.24856 116.262519 
L 139.560421 126.499485 
L 146.773473 136.215905 
L 153.887715 145.427379 
L 160.903149 154.149294 
L 167.819774 162.396823 
L 174.63759 170.184925 
L 181.356597 177.528346 
L 188.075604 184.542379 
L 194.695802 191.131106 
L 201.217191 197.308846 
L 207.639772 203.089703 
L 213.963543 208.487567 
L 220.287314 213.593655 
L 226.512277 218.334987 
L 232.63843 222.725026 
L 238.764584 226.84124 
L 244.791928 230.623827 
L 250.720464 234.085823 
L 256.649 237.291375 
L 262.478726 240.193432 
L 268.308453 242.847523 
L 274.039371 245.21493 
L 279.770289 247.342704 
L 285.402397 249.200321 
L 291.034506 250.826498 
L 296.666615 252.221233 
L 302.298724 253.384528 
L 307.832024 254.302028 
L 313.365324 254.996137 
L 318.898624 255.466855 
L 324.431924 255.714181 
L 330.656886 255.755354 
L 426.600354 255.755354 
L 426.600354 255.755354 
" style="fill:none;stroke:#008000;stroke-linecap:round;"/>
   </g>
   <g id="line2d_30">
    <path clip-path="url(#p3f89d7dbac)" d="M 31.364646 180.00004 
L 55.276406 187.475537 
L 77.211988 194.103975 
L 97.665436 200.054684 
L 116.834368 205.402953 
L 135.114019 210.273686 
L 152.603199 214.704714 
L 169.499526 218.756883 
L 185.901808 222.463086 
L 202.007663 225.874819 
L 217.9159 229.016978 
L 233.62652 231.894533 
L 249.337139 234.54734 
L 265.146567 236.992224 
L 281.153614 239.24328 
L 297.555895 241.323927 
L 314.353413 243.229 
L 331.743784 244.975427 
L 349.825818 246.565913 
L 368.797132 248.009745 
L 388.954153 249.3181 
L 410.494499 250.490709 
L 426.600354 251.234528 
L 426.600354 251.234528 
" style="fill:none;stroke:#455bb6;stroke-dasharray:3.000000,5.000000,1.000000,5.000000;stroke-dashoffset:0.0;"/>
   </g>
   <g id="line2d_31">
    <path clip-path="url(#p3f89d7dbac)" d="M 50.910601 -1 
L 137.386625 123.496809 
L 144.599676 133.327631 
L 151.713919 142.651941 
L 158.729353 151.485124 
L 165.645978 159.842354 
L 172.562603 167.850536 
L 179.380419 175.402709 
L 186.099426 182.513621 
L 192.719624 189.197802 
L 199.241013 195.469571 
L 205.663593 201.343033 
L 212.086173 206.915529 
L 218.409945 212.108238 
L 224.634907 216.934838 
L 230.761061 221.408791 
L 236.887214 225.608919 
L 242.914559 229.474067 
L 248.941903 233.074151 
L 254.870439 236.356636 
L 260.700166 239.334344 
L 266.529892 242.064086 
L 272.26081 244.505861 
L 277.991728 246.708004 
L 283.722646 248.670515 
L 289.354754 250.365717 
L 294.986863 251.829479 
L 300.618972 253.0618 
L 306.152272 254.047116 
L 311.685572 254.80904 
L 317.218872 255.347573 
L 322.752172 255.662714 
L 328.285472 255.755354 
L 426.600354 255.755354 
L 426.600354 255.755354 
" style="fill:none;stroke:#d9ac00;stroke-dasharray:6.000000,6.000000;stroke-dashoffset:0.0;"/>
   </g>
   <g id="line2d_32">
    <path clip-path="url(#p3f89d7dbac)" d="M 31.364646 184.520866 
L 229.278927 255.755354 
L 426.600354 255.755354 
L 426.600354 255.755354 
" style="fill:none;stroke:#6820cc;stroke-linecap:round;"/>
   </g>
   <g id="line2d_33">
    <path clip-path="url(#p3f89d7dbac)" d="M 31.364646 166.712244 
L 236.986023 240.714887 
L 244.989546 243.249356 
L 252.993069 245.550141 
L 260.897783 247.593146 
L 268.802498 249.408201 
L 276.707212 250.995306 
L 284.611926 252.35446 
L 292.417831 253.47293 
L 300.223736 254.369113 
L 308.029642 255.043009 
L 315.835547 255.494618 
L 323.641452 255.72394 
L 333.127109 255.755354 
L 426.600354 255.755354 
L 426.600354 255.755354 
" style="fill:none;stroke:#86a600;stroke-linecap:round;"/>
   </g>
   <g id="line2d_34">
    <path clip-path="url(#p3f89d7dbac)" d="M 62.498434 -1 
L 70.59179 14.426835 
L 78.595313 29.212443 
L 86.500027 43.356763 
L 94.305932 56.876891 
L 102.013029 69.789709 
L 109.720125 82.269137 
L 117.328412 94.16348 
L 124.837891 105.489193 
L 132.24856 116.262519 
L 139.560421 126.499485 
L 146.773473 136.215905 
L 153.887715 145.427379 
L 160.903149 154.149294 
L 167.819774 162.396823 
L 174.63759 170.184925 
L 181.356597 177.528346 
L 188.075604 184.542379 
L 194.695802 191.131106 
L 201.217191 197.308846 
L 207.639772 203.089703 
L 213.963543 208.487567 
L 220.287314 213.593655 
L 226.512277 218.334987 
L 232.63843 222.725026 
L 238.764584 226.84124 
L 244.791928 230.623827 
L 250.720464 234.085823 
L 256.649 237.291375 
L 262.478726 240.193432 
L 268.308453 242.847523 
L 274.039371 245.21493 
L 279.770289 247.342704 
L 285.402397 249.200321 
L 291.034506 250.826498 
L 296.666615 252.221233 
L 302.298724 253.384528 
L 307.832024 254.302028 
L 313.365324 254.996137 
L 318.898624 255.466855 
L 324.431924 255.714181 
L 329.965224 255.738116 
L 335.498523 255.538659 
L 341.031823 255.115811 
L 346.565123 254.469572 
L 352.098423 253.599941 
L 357.631723 252.506919 
L 363.263832 251.164968 
L 368.895941 249.591577 
L 374.52805 247.786744 
L 380.160159 245.75047 
L 385.891076 243.440906 
L 391.621994 240.891708 
L 397.451721 238.052694 
L 403.281448 234.965711 
L 409.209983 231.5721 
L 415.138519 227.922045 
L 421.165863 223.948265 
L 426.600354 220.13811 
L 426.600354 220.13811 
" style="fill:none;stroke:#008868;stroke-dasharray:6.000000,6.000000;stroke-dashoffset:0.0;"/>
   </g>
   <g id="line2d_35">
    <path clip-path="url(#p3f89d7dbac)" d="M 33.805849 -1 
L 38.577697 11.105039 
L 43.518144 23.036776 
L 48.45859 34.386595 
L 53.399036 45.182877 
L 58.339483 55.452618 
L 63.378738 65.411936 
L 68.417993 74.876064 
L 73.457249 83.869623 
L 78.496504 92.41601 
L 83.634568 100.692599 
L 88.772632 108.549805 
L 94.009505 116.148554 
L 99.246379 123.355055 
L 104.483252 130.189557 
L 109.818934 136.790286 
L 115.253425 143.156684 
L 120.687916 149.182385 
L 126.221216 154.986441 
L 131.853325 160.569637 
L 137.485433 165.84349 
L 143.216351 170.910028 
L 149.046078 175.771091 
L 154.974614 180.429012 
L 161.100767 184.957414 
L 167.325729 189.280091 
L 173.649501 193.401225 
L 180.17089 197.383729 
L 186.791088 201.16649 
L 193.608904 204.806111 
L 200.624338 208.298076 
L 207.83739 211.639029 
L 215.248059 214.826721 
L 222.955155 217.897824 
L 230.85987 220.808449 
L 239.061011 223.59193 
L 247.558578 226.242382 
L 256.451382 228.782529 
L 265.739421 231.202456 
L 275.422696 233.494496 
L 285.600015 235.673234 
L 296.271379 237.729089 
L 307.535597 239.671275 
L 319.491477 241.504314 
L 332.13902 243.216528 
L 345.675843 244.821871 
L 360.200755 246.316544 
L 375.812566 247.696029 
L 392.708892 248.962781 
L 411.186162 250.121297 
L 426.600354 250.935085 
L 426.600354 250.935085 
" style="fill:none;stroke:#f27c00;stroke-linecap:round;"/>
   </g>
   <g id="line2d_36">
    <path clip-path="url(#p3f89d7dbac)" d="M 31.364646 185.802105 
L 51.22524 186.419181 
L 67.923949 187.154349 
L 82.54767 188.016983 
L 95.590448 189.006741 
L 107.44752 190.127757 
L 118.415311 191.38713 
L 128.691439 192.790401 
L 138.374714 194.334304 
L 147.761562 196.055262 
L 156.851983 197.94624 
L 165.843596 200.04221 
L 174.934017 202.391163 
L 184.222056 205.023509 
L 194.00414 208.031162 
L 204.774313 211.58239 
L 217.817091 216.130405 
L 257.637089 230.186975 
L 268.308453 233.609848 
L 277.991728 236.485199 
L 287.279767 239.011531 
L 296.370188 241.252656 
L 305.46061 243.262583 
L 314.64984 245.064721 
L 324.036688 246.678928 
L 333.818772 248.134913 
L 344.0949 249.439087 
L 355.062691 250.605654 
L 366.919762 251.640992 
L 379.962541 252.552713 
L 394.487453 253.34085 
L 411.087353 254.01304 
L 426.600354 254.474116 
L 426.600354 254.474116 
" style="fill:none;stroke:#3410ac;stroke-dasharray:1.000000,3.000000;stroke-dashoffset:0.0;"/>
   </g>
   <g id="line2d_37">
    <path clip-path="url(#p3f89d7dbac)" d="M 31.364646 148.903622 
L 282.536939 239.326736 
L 287.279767 240.663302 
L 292.615449 241.928784 
L 298.642794 243.125126 
L 305.559419 244.265921 
L 313.562942 245.353122 
L 322.850981 246.382395 
L 333.719963 247.355061 
L 346.466314 248.266447 
L 361.682889 249.12519 
L 380.06135 249.931737 
L 402.392167 250.681673 
L 426.600354 251.303199 
L 426.600354 251.303199 
" style="fill:none;stroke:#439300;stroke-dasharray:1.000000,3.000000;stroke-dashoffset:0.0;"/>
   </g>
   <g id="legend_1">
    <g id="patch_7">
     <path d="M 251.640354 142.099646 
L 422.600354 142.099646 
L 422.600354 10.434646 
L 251.640354 10.434646 
z
" style="fill:#ffffff;stroke:#000000;stroke-linejoin:miter;"/>
    </g>
    <g id="line2d_38">
     <path d="M 257.240354 16.913396 
L 268.440354 16.913396 
" style="fill:none;stroke:#00008b;stroke-dasharray:6.000000,6.000000;stroke-dashoffset:0.0;"/>
    </g>
    <g id="line2d_39"/>
    <g id="text_16">
     <!-- ZeroOneLoss -->
     <defs>
      <path d="M 5.609375 72.90625 
L 62.890625 72.90625 
L 62.890625 65.375 
L 16.796875 8.296875 
L 64.015625 8.296875 
L 64.015625 0 
L 4.5 0 
L 4.5 7.515625 
L 50.59375 64.59375 
L 5.609375 64.59375 
z
" id="BitstreamVeraSans-Roman-5a"/>
      <path d="M 9.8125 72.90625 
L 19.671875 72.90625 
L 19.671875 8.296875 
L 55.171875 8.296875 
L 55.171875 0 
L 9.8125 0 
z
" id="BitstreamVeraSans-Roman-4c"/>
      <path d="M 39.40625 66.21875 
Q 28.65625 66.21875 22.328125 58.203125 
Q 16.015625 50.203125 16.015625 36.375 
Q 16.015625 22.609375 22.328125 14.59375 
Q 28.65625 6.59375 39.40625 6.59375 
Q 50.140625 6.59375 56.421875 14.59375 
Q 62.703125 22.609375 62.703125 36.375 
Q 62.703125 50.203125 56.421875 58.203125 
Q 50.140625 66.21875 39.40625 66.21875 
M 39.40625 74.21875 
Q 54.734375 74.21875 63.90625 63.9375 
Q 73.09375 53.65625 73.09375 36.375 
Q 73.09375 19.140625 63.90625 8.859375 
Q 54.734375 -1.421875 39.40625 -1.421875 
Q 24.03125 -1.421875 14.8125 8.828125 
Q 5.609375 19.09375 5.609375 36.375 
Q 5.609375 53.65625 14.8125 63.9375 
Q 24.03125 74.21875 39.40625 74.21875 
" id="BitstreamVeraSans-Roman-4f"/>
      <path d="M 54.890625 33.015625 
L 54.890625 0 
L 45.90625 0 
L 45.90625 32.71875 
Q 45.90625 40.484375 42.875 44.328125 
Q 39.84375 48.1875 33.796875 48.1875 
Q 26.515625 48.1875 22.3125 43.546875 
Q 18.109375 38.921875 18.109375 30.90625 
L 18.109375 0 
L 9.078125 0 
L 9.078125 54.6875 
L 18.109375 54.6875 
L 18.109375 46.1875 
Q 21.34375 51.125 25.703125 53.5625 
Q 30.078125 56 35.796875 56 
Q 45.21875 56 50.046875 50.171875 
Q 54.890625 44.34375 54.890625 33.015625 
" id="BitstreamVeraSans-Roman-6e"/>
      <path d="M 30.609375 48.390625 
Q 23.390625 48.390625 19.1875 42.75 
Q 14.984375 37.109375 14.984375 27.296875 
Q 14.984375 17.484375 19.15625 11.84375 
Q 23.34375 6.203125 30.609375 6.203125 
Q 37.796875 6.203125 41.984375 11.859375 
Q 46.1875 17.53125 46.1875 27.296875 
Q 46.1875 37.015625 41.984375 42.703125 
Q 37.796875 48.390625 30.609375 48.390625 
M 30.609375 56 
Q 42.328125 56 49.015625 48.375 
Q 55.71875 40.765625 55.71875 27.296875 
Q 55.71875 13.875 49.015625 6.21875 
Q 42.328125 -1.421875 30.609375 -1.421875 
Q 18.84375 -1.421875 12.171875 6.21875 
Q 5.515625 13.875 5.515625 27.296875 
Q 5.515625 40.765625 12.171875 48.375 
Q 18.84375 56 30.609375 56 
" id="BitstreamVeraSans-Roman-6f"/>
      <path d="M 56.203125 29.59375 
L 56.203125 25.203125 
L 14.890625 25.203125 
Q 15.484375 15.921875 20.484375 11.0625 
Q 25.484375 6.203125 34.421875 6.203125 
Q 39.59375 6.203125 44.453125 7.46875 
Q 49.3125 8.734375 54.109375 11.28125 
L 54.109375 2.78125 
Q 49.265625 0.734375 44.1875 -0.34375 
Q 39.109375 -1.421875 33.890625 -1.421875 
Q 20.796875 -1.421875 13.15625 6.1875 
Q 5.515625 13.8125 5.515625 26.8125 
Q 5.515625 40.234375 12.765625 48.109375 
Q 20.015625 56 32.328125 56 
Q 43.359375 56 49.78125 48.890625 
Q 56.203125 41.796875 56.203125 29.59375 
M 47.21875 32.234375 
Q 47.125 39.59375 43.09375 43.984375 
Q 39.0625 48.390625 32.421875 48.390625 
Q 24.90625 48.390625 20.390625 44.140625 
Q 15.875 39.890625 15.1875 32.171875 
z
" id="BitstreamVeraSans-Roman-65"/>
      <path d="M 41.109375 46.296875 
Q 39.59375 47.171875 37.8125 47.578125 
Q 36.03125 48 33.890625 48 
Q 26.265625 48 22.1875 43.046875 
Q 18.109375 38.09375 18.109375 28.8125 
L 18.109375 0 
L 9.078125 0 
L 9.078125 54.6875 
L 18.109375 54.6875 
L 18.109375 46.1875 
Q 20.953125 51.171875 25.484375 53.578125 
Q 30.03125 56 36.53125 56 
Q 37.453125 56 38.578125 55.875 
Q 39.703125 55.765625 41.0625 55.515625 
z
" id="BitstreamVeraSans-Roman-72"/>
      <path d="M 44.28125 53.078125 
L 44.28125 44.578125 
Q 40.484375 46.53125 36.375 47.5 
Q 32.28125 48.484375 27.875 48.484375 
Q 21.1875 48.484375 17.84375 46.4375 
Q 14.5 44.390625 14.5 40.28125 
Q 14.5 37.15625 16.890625 35.375 
Q 19.28125 33.59375 26.515625 31.984375 
L 29.59375 31.296875 
Q 39.15625 29.25 43.1875 25.515625 
Q 47.21875 21.78125 47.21875 15.09375 
Q 47.21875 7.46875 41.1875 3.015625 
Q 35.15625 -1.421875 24.609375 -1.421875 
Q 20.21875 -1.421875 15.453125 -0.5625 
Q 10.6875 0.296875 5.421875 2 
L 5.421875 11.28125 
Q 10.40625 8.6875 15.234375 7.390625 
Q 20.0625 6.109375 24.8125 6.109375 
Q 31.15625 6.109375 34.5625 8.28125 
Q 37.984375 10.453125 37.984375 14.40625 
Q 37.984375 18.0625 35.515625 20.015625 
Q 33.0625 21.96875 24.703125 23.78125 
L 21.578125 24.515625 
Q 13.234375 26.265625 9.515625 29.90625 
Q 5.8125 33.546875 5.8125 39.890625 
Q 5.8125 47.609375 11.28125 51.796875 
Q 16.75 56 26.8125 56 
Q 31.78125 56 36.171875 55.265625 
Q 40.578125 54.546875 44.28125 53.078125 
" id="BitstreamVeraSans-Roman-73"/>
     </defs>
     <g transform="translate(277.240354331 19.7133956693)scale(0.08 -0.08)">
      <use xlink:href="#BitstreamVeraSans-Roman-5a"/>
      <use x="68.505859375" xlink:href="#BitstreamVeraSans-Roman-65"/>
      <use x="130.029296875" xlink:href="#BitstreamVeraSans-Roman-72"/>
      <use x="171.111328125" xlink:href="#BitstreamVeraSans-Roman-6f"/>
      <use x="232.29296875" xlink:href="#BitstreamVeraSans-Roman-4f"/>
      <use x="311.00390625" xlink:href="#BitstreamVeraSans-Roman-6e"/>
      <use x="374.3828125" xlink:href="#BitstreamVeraSans-Roman-65"/>
      <use x="435.90625" xlink:href="#BitstreamVeraSans-Roman-4c"/>
      <use x="491.603515625" xlink:href="#BitstreamVeraSans-Roman-6f"/>
      <use x="552.78515625" xlink:href="#BitstreamVeraSans-Roman-73"/>
      <use x="604.884765625" xlink:href="#BitstreamVeraSans-Roman-73"/>
     </g>
    </g>
    <g id="line2d_40">
     <path d="M 257.240354 28.655896 
L 268.440354 28.655896 
" style="fill:none;stroke:#cc0000;stroke-linecap:round;"/>
    </g>
    <g id="line2d_41"/>
    <g id="text_17">
     <!-- L1HingeLoss -->
     <defs>
      <path d="M 45.40625 27.984375 
Q 45.40625 37.75 41.375 43.109375 
Q 37.359375 48.484375 30.078125 48.484375 
Q 22.859375 48.484375 18.828125 43.109375 
Q 14.796875 37.75 14.796875 27.984375 
Q 14.796875 18.265625 18.828125 12.890625 
Q 22.859375 7.515625 30.078125 7.515625 
Q 37.359375 7.515625 41.375 12.890625 
Q 45.40625 18.265625 45.40625 27.984375 
M 54.390625 6.78125 
Q 54.390625 -7.171875 48.1875 -13.984375 
Q 42 -20.796875 29.203125 -20.796875 
Q 24.46875 -20.796875 20.265625 -20.09375 
Q 16.0625 -19.390625 12.109375 -17.921875 
L 12.109375 -9.1875 
Q 16.0625 -11.328125 19.921875 -12.34375 
Q 23.78125 -13.375 27.78125 -13.375 
Q 36.625 -13.375 41.015625 -8.765625 
Q 45.40625 -4.15625 45.40625 5.171875 
L 45.40625 9.625 
Q 42.625 4.78125 38.28125 2.390625 
Q 33.9375 0 27.875 0 
Q 17.828125 0 11.671875 7.65625 
Q 5.515625 15.328125 5.515625 27.984375 
Q 5.515625 40.671875 11.671875 48.328125 
Q 17.828125 56 27.875 56 
Q 33.9375 56 38.28125 53.609375 
Q 42.625 51.21875 45.40625 46.390625 
L 45.40625 54.6875 
L 54.390625 54.6875 
z
" id="BitstreamVeraSans-Roman-67"/>
      <path d="M 9.421875 54.6875 
L 18.40625 54.6875 
L 18.40625 0 
L 9.421875 0 
z
M 9.421875 75.984375 
L 18.40625 75.984375 
L 18.40625 64.59375 
L 9.421875 64.59375 
z
" id="BitstreamVeraSans-Roman-69"/>
      <path d="M 9.8125 72.90625 
L 19.671875 72.90625 
L 19.671875 43.015625 
L 55.515625 43.015625 
L 55.515625 72.90625 
L 65.375 72.90625 
L 65.375 0 
L 55.515625 0 
L 55.515625 34.71875 
L 19.671875 34.71875 
L 19.671875 0 
L 9.8125 0 
z
" id="BitstreamVeraSans-Roman-48"/>
     </defs>
     <g transform="translate(277.240354331 31.4558956693)scale(0.08 -0.08)">
      <use xlink:href="#BitstreamVeraSans-Roman-4c"/>
      <use x="55.712890625" xlink:href="#BitstreamVeraSans-Roman-31"/>
      <use x="119.3359375" xlink:href="#BitstreamVeraSans-Roman-48"/>
      <use x="194.53125" xlink:href="#BitstreamVeraSans-Roman-69"/>
      <use x="222.314453125" xlink:href="#BitstreamVeraSans-Roman-6e"/>
      <use x="285.693359375" xlink:href="#BitstreamVeraSans-Roman-67"/>
      <use x="349.169921875" xlink:href="#BitstreamVeraSans-Roman-65"/>
      <use x="410.693359375" xlink:href="#BitstreamVeraSans-Roman-4c"/>
      <use x="466.390625" xlink:href="#BitstreamVeraSans-Roman-6f"/>
      <use x="527.572265625" xlink:href="#BitstreamVeraSans-Roman-73"/>
      <use x="579.671875" xlink:href="#BitstreamVeraSans-Roman-73"/>
     </g>
    </g>
    <g id="line2d_42">
     <path d="M 257.240354 40.398396 
L 268.440354 40.398396 
" style="fill:none;stroke:#008000;stroke-linecap:round;"/>
    </g>
    <g id="line2d_43"/>
    <g id="text_18">
     <!-- L2HingeLoss -->
     <g transform="translate(277.240354331 43.1983956693)scale(0.08 -0.08)">
      <use xlink:href="#BitstreamVeraSans-Roman-4c"/>
      <use x="55.712890625" xlink:href="#BitstreamVeraSans-Roman-32"/>
      <use x="119.3359375" xlink:href="#BitstreamVeraSans-Roman-48"/>
      <use x="194.53125" xlink:href="#BitstreamVeraSans-Roman-69"/>
      <use x="222.314453125" xlink:href="#BitstreamVeraSans-Roman-6e"/>
      <use x="285.693359375" xlink:href="#BitstreamVeraSans-Roman-67"/>
      <use x="349.169921875" xlink:href="#BitstreamVeraSans-Roman-65"/>
      <use x="410.693359375" xlink:href="#BitstreamVeraSans-Roman-4c"/>
      <use x="466.390625" xlink:href="#BitstreamVeraSans-Roman-6f"/>
      <use x="527.572265625" xlink:href="#BitstreamVeraSans-Roman-73"/>
      <use x="579.671875" xlink:href="#BitstreamVeraSans-Roman-73"/>
     </g>
    </g>
    <g id="line2d_44">
     <path d="M 257.240354 52.140896 
L 268.440354 52.140896 
" style="fill:none;stroke:#455bb6;stroke-dasharray:3.000000,5.000000,1.000000,5.000000;stroke-dashoffset:0.0;"/>
    </g>
    <g id="line2d_45"/>
    <g id="text_19">
     <!-- LogitMarginLoss -->
     <defs>
      <path d="M 18.3125 70.21875 
L 18.3125 54.6875 
L 36.8125 54.6875 
L 36.8125 47.703125 
L 18.3125 47.703125 
L 18.3125 18.015625 
Q 18.3125 11.328125 20.140625 9.421875 
Q 21.96875 7.515625 27.59375 7.515625 
L 36.8125 7.515625 
L 36.8125 0 
L 27.59375 0 
Q 17.1875 0 13.234375 3.875 
Q 9.28125 7.765625 9.28125 18.015625 
L 9.28125 47.703125 
L 2.6875 47.703125 
L 2.6875 54.6875 
L 9.28125 54.6875 
L 9.28125 70.21875 
z
" id="BitstreamVeraSans-Roman-74"/>
      <path d="M 9.8125 72.90625 
L 24.515625 72.90625 
L 43.109375 23.296875 
L 61.8125 72.90625 
L 76.515625 72.90625 
L 76.515625 0 
L 66.890625 0 
L 66.890625 64.015625 
L 48.09375 14.015625 
L 38.1875 14.015625 
L 19.390625 64.015625 
L 19.390625 0 
L 9.8125 0 
z
" id="BitstreamVeraSans-Roman-4d"/>
      <path d="M 34.28125 27.484375 
Q 23.390625 27.484375 19.1875 25 
Q 14.984375 22.515625 14.984375 16.5 
Q 14.984375 11.71875 18.140625 8.90625 
Q 21.296875 6.109375 26.703125 6.109375 
Q 34.1875 6.109375 38.703125 11.40625 
Q 43.21875 16.703125 43.21875 25.484375 
L 43.21875 27.484375 
z
M 52.203125 31.203125 
L 52.203125 0 
L 43.21875 0 
L 43.21875 8.296875 
Q 40.140625 3.328125 35.546875 0.953125 
Q 30.953125 -1.421875 24.3125 -1.421875 
Q 15.921875 -1.421875 10.953125 3.296875 
Q 6 8.015625 6 15.921875 
Q 6 25.140625 12.171875 29.828125 
Q 18.359375 34.515625 30.609375 34.515625 
L 43.21875 34.515625 
L 43.21875 35.40625 
Q 43.21875 41.609375 39.140625 45 
Q 35.0625 48.390625 27.6875 48.390625 
Q 23 48.390625 18.546875 47.265625 
Q 14.109375 46.140625 10.015625 43.890625 
L 10.015625 52.203125 
Q 14.9375 54.109375 19.578125 55.046875 
Q 24.21875 56 28.609375 56 
Q 40.484375 56 46.34375 49.84375 
Q 52.203125 43.703125 52.203125 31.203125 
" id="BitstreamVeraSans-Roman-61"/>
     </defs>
     <g transform="translate(277.240354331 54.9408956693)scale(0.08 -0.08)">
      <use xlink:href="#BitstreamVeraSans-Roman-4c"/>
      <use x="55.697265625" xlink:href="#BitstreamVeraSans-Roman-6f"/>
      <use x="116.87890625" xlink:href="#BitstreamVeraSans-Roman-67"/>
      <use x="180.35546875" xlink:href="#BitstreamVeraSans-Roman-69"/>
      <use x="208.138671875" xlink:href="#BitstreamVeraSans-Roman-74"/>
      <use x="247.34765625" xlink:href="#BitstreamVeraSans-Roman-4d"/>
      <use x="333.626953125" xlink:href="#BitstreamVeraSans-Roman-61"/>
      <use x="394.90625" xlink:href="#BitstreamVeraSans-Roman-72"/>
      <use x="436.00390625" xlink:href="#BitstreamVeraSans-Roman-67"/>
      <use x="499.48046875" xlink:href="#BitstreamVeraSans-Roman-69"/>
      <use x="527.263671875" xlink:href="#BitstreamVeraSans-Roman-6e"/>
      <use x="590.642578125" xlink:href="#BitstreamVeraSans-Roman-4c"/>
      <use x="646.33984375" xlink:href="#BitstreamVeraSans-Roman-6f"/>
      <use x="707.521484375" xlink:href="#BitstreamVeraSans-Roman-73"/>
      <use x="759.62109375" xlink:href="#BitstreamVeraSans-Roman-73"/>
     </g>
    </g>
    <g id="line2d_46">
     <path d="M 257.240354 63.883396 
L 268.440354 63.883396 
" style="fill:none;stroke:#d9ac00;stroke-dasharray:6.000000,6.000000;stroke-dashoffset:0.0;"/>
    </g>
    <g id="line2d_47"/>
    <g id="text_20">
     <!-- ModifiedHuberLoss -->
     <defs>
      <path d="M 45.40625 46.390625 
L 45.40625 75.984375 
L 54.390625 75.984375 
L 54.390625 0 
L 45.40625 0 
L 45.40625 8.203125 
Q 42.578125 3.328125 38.25 0.953125 
Q 33.9375 -1.421875 27.875 -1.421875 
Q 17.96875 -1.421875 11.734375 6.484375 
Q 5.515625 14.40625 5.515625 27.296875 
Q 5.515625 40.1875 11.734375 48.09375 
Q 17.96875 56 27.875 56 
Q 33.9375 56 38.25 53.625 
Q 42.578125 51.265625 45.40625 46.390625 
M 14.796875 27.296875 
Q 14.796875 17.390625 18.875 11.75 
Q 22.953125 6.109375 30.078125 6.109375 
Q 37.203125 6.109375 41.296875 11.75 
Q 45.40625 17.390625 45.40625 27.296875 
Q 45.40625 37.203125 41.296875 42.84375 
Q 37.203125 48.484375 30.078125 48.484375 
Q 22.953125 48.484375 18.875 42.84375 
Q 14.796875 37.203125 14.796875 27.296875 
" id="BitstreamVeraSans-Roman-64"/>
      <path d="M 8.5 21.578125 
L 8.5 54.6875 
L 17.484375 54.6875 
L 17.484375 21.921875 
Q 17.484375 14.15625 20.5 10.265625 
Q 23.53125 6.390625 29.59375 6.390625 
Q 36.859375 6.390625 41.078125 11.03125 
Q 45.3125 15.671875 45.3125 23.6875 
L 45.3125 54.6875 
L 54.296875 54.6875 
L 54.296875 0 
L 45.3125 0 
L 45.3125 8.40625 
Q 42.046875 3.421875 37.71875 1 
Q 33.40625 -1.421875 27.6875 -1.421875 
Q 18.265625 -1.421875 13.375 4.4375 
Q 8.5 10.296875 8.5 21.578125 
" id="BitstreamVeraSans-Roman-75"/>
      <path d="M 37.109375 75.984375 
L 37.109375 68.5 
L 28.515625 68.5 
Q 23.6875 68.5 21.796875 66.546875 
Q 19.921875 64.59375 19.921875 59.515625 
L 19.921875 54.6875 
L 34.71875 54.6875 
L 34.71875 47.703125 
L 19.921875 47.703125 
L 19.921875 0 
L 10.890625 0 
L 10.890625 47.703125 
L 2.296875 47.703125 
L 2.296875 54.6875 
L 10.890625 54.6875 
L 10.890625 58.5 
Q 10.890625 67.625 15.140625 71.796875 
Q 19.390625 75.984375 28.609375 75.984375 
z
" id="BitstreamVeraSans-Roman-66"/>
      <path d="M 48.6875 27.296875 
Q 48.6875 37.203125 44.609375 42.84375 
Q 40.53125 48.484375 33.40625 48.484375 
Q 26.265625 48.484375 22.1875 42.84375 
Q 18.109375 37.203125 18.109375 27.296875 
Q 18.109375 17.390625 22.1875 11.75 
Q 26.265625 6.109375 33.40625 6.109375 
Q 40.53125 6.109375 44.609375 11.75 
Q 48.6875 17.390625 48.6875 27.296875 
M 18.109375 46.390625 
Q 20.953125 51.265625 25.265625 53.625 
Q 29.59375 56 35.59375 56 
Q 45.5625 56 51.78125 48.09375 
Q 58.015625 40.1875 58.015625 27.296875 
Q 58.015625 14.40625 51.78125 6.484375 
Q 45.5625 -1.421875 35.59375 -1.421875 
Q 29.59375 -1.421875 25.265625 0.953125 
Q 20.953125 3.328125 18.109375 8.203125 
L 18.109375 0 
L 9.078125 0 
L 9.078125 75.984375 
L 18.109375 75.984375 
z
" id="BitstreamVeraSans-Roman-62"/>
     </defs>
     <g transform="translate(277.240354331 66.6833956693)scale(0.08 -0.08)">
      <use xlink:href="#BitstreamVeraSans-Roman-4d"/>
      <use x="86.279296875" xlink:href="#BitstreamVeraSans-Roman-6f"/>
      <use x="147.4609375" xlink:href="#BitstreamVeraSans-Roman-64"/>
      <use x="210.9375" xlink:href="#BitstreamVeraSans-Roman-69"/>
      <use x="238.720703125" xlink:href="#BitstreamVeraSans-Roman-66"/>
      <use x="273.92578125" xlink:href="#BitstreamVeraSans-Roman-69"/>
      <use x="301.708984375" xlink:href="#BitstreamVeraSans-Roman-65"/>
      <use x="363.232421875" xlink:href="#BitstreamVeraSans-Roman-64"/>
      <use x="426.708984375" xlink:href="#BitstreamVeraSans-Roman-48"/>
      <use x="501.904296875" xlink:href="#BitstreamVeraSans-Roman-75"/>
      <use x="565.283203125" xlink:href="#BitstreamVeraSans-Roman-62"/>
      <use x="628.759765625" xlink:href="#BitstreamVeraSans-Roman-65"/>
      <use x="690.283203125" xlink:href="#BitstreamVeraSans-Roman-72"/>
      <use x="731.396484375" xlink:href="#BitstreamVeraSans-Roman-4c"/>
      <use x="787.09375" xlink:href="#BitstreamVeraSans-Roman-6f"/>
      <use x="848.275390625" xlink:href="#BitstreamVeraSans-Roman-73"/>
      <use x="900.375" xlink:href="#BitstreamVeraSans-Roman-73"/>
     </g>
    </g>
    <g id="line2d_48">
     <path d="M 257.240354 75.625896 
L 268.440354 75.625896 
" style="fill:none;stroke:#6820cc;stroke-linecap:round;"/>
    </g>
    <g id="line2d_49"/>
    <g id="text_21">
     <!-- PerceptronLoss -->
     <defs>
      <path d="M 19.671875 64.796875 
L 19.671875 37.40625 
L 32.078125 37.40625 
Q 38.96875 37.40625 42.71875 40.96875 
Q 46.484375 44.53125 46.484375 51.125 
Q 46.484375 57.671875 42.71875 61.234375 
Q 38.96875 64.796875 32.078125 64.796875 
z
M 9.8125 72.90625 
L 32.078125 72.90625 
Q 44.34375 72.90625 50.609375 67.359375 
Q 56.890625 61.8125 56.890625 51.125 
Q 56.890625 40.328125 50.609375 34.8125 
Q 44.34375 29.296875 32.078125 29.296875 
L 19.671875 29.296875 
L 19.671875 0 
L 9.8125 0 
z
" id="BitstreamVeraSans-Roman-50"/>
      <path d="M 18.109375 8.203125 
L 18.109375 -20.796875 
L 9.078125 -20.796875 
L 9.078125 54.6875 
L 18.109375 54.6875 
L 18.109375 46.390625 
Q 20.953125 51.265625 25.265625 53.625 
Q 29.59375 56 35.59375 56 
Q 45.5625 56 51.78125 48.09375 
Q 58.015625 40.1875 58.015625 27.296875 
Q 58.015625 14.40625 51.78125 6.484375 
Q 45.5625 -1.421875 35.59375 -1.421875 
Q 29.59375 -1.421875 25.265625 0.953125 
Q 20.953125 3.328125 18.109375 8.203125 
M 48.6875 27.296875 
Q 48.6875 37.203125 44.609375 42.84375 
Q 40.53125 48.484375 33.40625 48.484375 
Q 26.265625 48.484375 22.1875 42.84375 
Q 18.109375 37.203125 18.109375 27.296875 
Q 18.109375 17.390625 22.1875 11.75 
Q 26.265625 6.109375 33.40625 6.109375 
Q 40.53125 6.109375 44.609375 11.75 
Q 48.6875 17.390625 48.6875 27.296875 
" id="BitstreamVeraSans-Roman-70"/>
      <path d="M 48.78125 52.59375 
L 48.78125 44.1875 
Q 44.96875 46.296875 41.140625 47.34375 
Q 37.3125 48.390625 33.40625 48.390625 
Q 24.65625 48.390625 19.8125 42.84375 
Q 14.984375 37.3125 14.984375 27.296875 
Q 14.984375 17.28125 19.8125 11.734375 
Q 24.65625 6.203125 33.40625 6.203125 
Q 37.3125 6.203125 41.140625 7.25 
Q 44.96875 8.296875 48.78125 10.40625 
L 48.78125 2.09375 
Q 45.015625 0.34375 40.984375 -0.53125 
Q 36.96875 -1.421875 32.421875 -1.421875 
Q 20.0625 -1.421875 12.78125 6.34375 
Q 5.515625 14.109375 5.515625 27.296875 
Q 5.515625 40.671875 12.859375 48.328125 
Q 20.21875 56 33.015625 56 
Q 37.15625 56 41.109375 55.140625 
Q 45.0625 54.296875 48.78125 52.59375 
" id="BitstreamVeraSans-Roman-63"/>
     </defs>
     <g transform="translate(277.240354331 78.4258956693)scale(0.08 -0.08)">
      <use xlink:href="#BitstreamVeraSans-Roman-50"/>
      <use x="60.255859375" xlink:href="#BitstreamVeraSans-Roman-65"/>
      <use x="121.779296875" xlink:href="#BitstreamVeraSans-Roman-72"/>
      <use x="162.861328125" xlink:href="#BitstreamVeraSans-Roman-63"/>
      <use x="217.841796875" xlink:href="#BitstreamVeraSans-Roman-65"/>
      <use x="279.365234375" xlink:href="#BitstreamVeraSans-Roman-70"/>
      <use x="342.841796875" xlink:href="#BitstreamVeraSans-Roman-74"/>
      <use x="382.05078125" xlink:href="#BitstreamVeraSans-Roman-72"/>
      <use x="423.1328125" xlink:href="#BitstreamVeraSans-Roman-6f"/>
      <use x="484.314453125" xlink:href="#BitstreamVeraSans-Roman-6e"/>
      <use x="547.693359375" xlink:href="#BitstreamVeraSans-Roman-4c"/>
      <use x="603.390625" xlink:href="#BitstreamVeraSans-Roman-6f"/>
      <use x="664.572265625" xlink:href="#BitstreamVeraSans-Roman-73"/>
      <use x="716.671875" xlink:href="#BitstreamVeraSans-Roman-73"/>
     </g>
    </g>
    <g id="line2d_50">
     <path d="M 257.240354 87.369646 
L 268.440354 87.369646 
" style="fill:none;stroke:#86a600;stroke-linecap:round;"/>
    </g>
    <g id="line2d_51"/>
    <g id="text_22">
     <!-- SmoothedL1HingeLoss with $\gamma$ = 1.0 -->
     <defs>
      <path id="BitstreamVeraSans-Roman-20"/>
      <path d="M 52 44.1875 
Q 55.375 50.25 60.0625 53.125 
Q 64.75 56 71.09375 56 
Q 79.640625 56 84.28125 50.015625 
Q 88.921875 44.046875 88.921875 33.015625 
L 88.921875 0 
L 79.890625 0 
L 79.890625 32.71875 
Q 79.890625 40.578125 77.09375 44.375 
Q 74.3125 48.1875 68.609375 48.1875 
Q 61.625 48.1875 57.5625 43.546875 
Q 53.515625 38.921875 53.515625 30.90625 
L 53.515625 0 
L 44.484375 0 
L 44.484375 32.71875 
Q 44.484375 40.625 41.703125 44.40625 
Q 38.921875 48.1875 33.109375 48.1875 
Q 26.21875 48.1875 22.15625 43.53125 
Q 18.109375 38.875 18.109375 30.90625 
L 18.109375 0 
L 9.078125 0 
L 9.078125 54.6875 
L 18.109375 54.6875 
L 18.109375 46.1875 
Q 21.1875 51.21875 25.484375 53.609375 
Q 29.78125 56 35.6875 56 
Q 41.65625 56 45.828125 52.96875 
Q 50 49.953125 52 44.1875 
" id="BitstreamVeraSans-Roman-6d"/>
      <path d="M 53.515625 70.515625 
L 53.515625 60.890625 
Q 47.90625 63.578125 42.921875 64.890625 
Q 37.9375 66.21875 33.296875 66.21875 
Q 25.25 66.21875 20.875 63.09375 
Q 16.5 59.96875 16.5 54.203125 
Q 16.5 49.359375 19.40625 46.890625 
Q 22.3125 44.4375 30.421875 42.921875 
L 36.375 41.703125 
Q 47.40625 39.59375 52.65625 34.296875 
Q 57.90625 29 57.90625 20.125 
Q 57.90625 9.515625 50.796875 4.046875 
Q 43.703125 -1.421875 29.984375 -1.421875 
Q 24.8125 -1.421875 18.96875 -0.25 
Q 13.140625 0.921875 6.890625 3.21875 
L 6.890625 13.375 
Q 12.890625 10.015625 18.65625 8.296875 
Q 24.421875 6.59375 29.984375 6.59375 
Q 38.421875 6.59375 43.015625 9.90625 
Q 47.609375 13.234375 47.609375 19.390625 
Q 47.609375 24.75 44.3125 27.78125 
Q 41.015625 30.8125 33.5 32.328125 
L 27.484375 33.5 
Q 16.453125 35.6875 11.515625 40.375 
Q 6.59375 45.0625 6.59375 53.421875 
Q 6.59375 63.09375 13.40625 68.65625 
Q 20.21875 74.21875 32.171875 74.21875 
Q 37.3125 74.21875 42.625 73.28125 
Q 47.953125 72.359375 53.515625 70.515625 
" id="BitstreamVeraSans-Roman-53"/>
      <path d="M 10.6875 12.40625 
L 21 12.40625 
L 21 0 
L 10.6875 0 
z
" id="BitstreamVeraSans-Roman-2e"/>
      <path d="M 54.890625 33.015625 
L 54.890625 0 
L 45.90625 0 
L 45.90625 32.71875 
Q 45.90625 40.484375 42.875 44.328125 
Q 39.84375 48.1875 33.796875 48.1875 
Q 26.515625 48.1875 22.3125 43.546875 
Q 18.109375 38.921875 18.109375 30.90625 
L 18.109375 0 
L 9.078125 0 
L 9.078125 75.984375 
L 18.109375 75.984375 
L 18.109375 46.1875 
Q 21.34375 51.125 25.703125 53.5625 
Q 30.078125 56 35.796875 56 
Q 45.21875 56 50.046875 50.171875 
Q 54.890625 44.34375 54.890625 33.015625 
" id="BitstreamVeraSans-Roman-68"/>
      <path d="M 10.59375 45.40625 
L 73.1875 45.40625 
L 73.1875 37.203125 
L 10.59375 37.203125 
z
M 10.59375 25.484375 
L 73.1875 25.484375 
L 73.1875 17.1875 
L 10.59375 17.1875 
z
" id="BitstreamVeraSans-Roman-3d"/>
      <path d="M 4.203125 54.6875 
L 13.1875 54.6875 
L 24.421875 12.015625 
L 35.59375 54.6875 
L 46.1875 54.6875 
L 57.421875 12.015625 
L 68.609375 54.6875 
L 77.59375 54.6875 
L 63.28125 0 
L 52.6875 0 
L 40.921875 44.828125 
L 29.109375 0 
L 18.5 0 
z
" id="BitstreamVeraSans-Roman-77"/>
      <path d="M 29.5 -19.578125 
Q 29.5 -17.328125 30.5 -13.03125 
Q 31.5 -8.734375 32.9375 -3.875 
Q 34.375 0.984375 35.40625 4.109375 
Q 35.796875 9.078125 35.796875 11.625 
Q 35.796875 18.0625 34.515625 23.609375 
Q 33.25 29.15625 29.734375 32.890625 
Q 26.21875 36.625 19.921875 36.625 
Q 16.609375 36.625 13.3125 35.203125 
Q 10.015625 33.796875 7.640625 31.25 
Q 5.28125 28.71875 4.390625 25.484375 
Q 4.203125 24.90625 3.609375 24.90625 
L 2.390625 24.90625 
Q 1.609375 24.90625 1.609375 25.78125 
L 1.609375 26.125 
Q 2.734375 30.609375 5.59375 34.78125 
Q 8.453125 38.96875 12.578125 41.578125 
Q 16.703125 44.1875 21.296875 44.1875 
Q 25.984375 44.1875 29.390625 41.015625 
Q 32.8125 37.84375 34.859375 32.953125 
Q 36.921875 28.078125 37.8125 23.09375 
Q 38.71875 18.109375 38.71875 13.71875 
Q 43.75 27.390625 50 39.59375 
L 51.515625 42.828125 
Q 51.8125 43.109375 52.203125 43.109375 
L 53.421875 43.109375 
Q 54.203125 43.109375 54.203125 42.1875 
Q 54.203125 42 54 41.609375 
L 52.484375 38.484375 
Q 48.140625 29.828125 44.5 20.9375 
Q 40.875 12.0625 38.28125 3.8125 
Q 37.890625 0.4375 36.78125 -5.421875 
Q 35.6875 -11.28125 34.125 -16.328125 
Q 32.5625 -21.390625 31 -21.578125 
Q 29.5 -21.578125 29.5 -19.578125 
" id="Cmmi10-b0"/>
     </defs>
     <g transform="translate(277.240354331 90.1696456693)scale(0.08 -0.08)">
      <use transform="translate(0.0 0.015625)" xlink:href="#BitstreamVeraSans-Roman-53"/>
      <use transform="translate(63.4765625 0.015625)" xlink:href="#BitstreamVeraSans-Roman-6d"/>
      <use transform="translate(160.888671875 0.015625)" xlink:href="#BitstreamVeraSans-Roman-6f"/>
      <use transform="translate(222.0703125 0.015625)" xlink:href="#BitstreamVeraSans-Roman-6f"/>
      <use transform="translate(283.251953125 0.015625)" xlink:href="#BitstreamVeraSans-Roman-74"/>
      <use transform="translate(322.4609375 0.015625)" xlink:href="#BitstreamVeraSans-Roman-68"/>
      <use transform="translate(385.83984375 0.015625)" xlink:href="#BitstreamVeraSans-Roman-65"/>
      <use transform="translate(447.36328125 0.015625)" xlink:href="#BitstreamVeraSans-Roman-64"/>
      <use transform="translate(510.83984375 0.015625)" xlink:href="#BitstreamVeraSans-Roman-4c"/>
      <use transform="translate(566.552734375 0.015625)" xlink:href="#BitstreamVeraSans-Roman-31"/>
      <use transform="translate(630.17578125 0.015625)" xlink:href="#BitstreamVeraSans-Roman-48"/>
      <use transform="translate(705.37109375 0.015625)" xlink:href="#BitstreamVeraSans-Roman-69"/>
      <use transform="translate(733.154296875 0.015625)" xlink:href="#BitstreamVeraSans-Roman-6e"/>
      <use transform="translate(796.533203125 0.015625)" xlink:href="#BitstreamVeraSans-Roman-67"/>
      <use transform="translate(860.009765625 0.015625)" xlink:href="#BitstreamVeraSans-Roman-65"/>
      <use transform="translate(921.533203125 0.015625)" xlink:href="#BitstreamVeraSans-Roman-4c"/>
      <use transform="translate(977.24609375 0.015625)" xlink:href="#BitstreamVeraSans-Roman-6f"/>
      <use transform="translate(1038.42773438 0.015625)" xlink:href="#BitstreamVeraSans-Roman-73"/>
      <use transform="translate(1090.52734375 0.015625)" xlink:href="#BitstreamVeraSans-Roman-73"/>
      <use transform="translate(1142.62695312 0.015625)" xlink:href="#BitstreamVeraSans-Roman-20"/>
      <use transform="translate(1174.4140625 0.015625)" xlink:href="#BitstreamVeraSans-Roman-77"/>
      <use transform="translate(1256.20117188 0.015625)" xlink:href="#BitstreamVeraSans-Roman-69"/>
      <use transform="translate(1283.984375 0.015625)" xlink:href="#BitstreamVeraSans-Roman-74"/>
      <use transform="translate(1323.19335938 0.015625)" xlink:href="#BitstreamVeraSans-Roman-68"/>
      <use transform="translate(1386.57226562 0.015625)" xlink:href="#BitstreamVeraSans-Roman-20"/>
      <use transform="translate(1418.359375 0.015625)" xlink:href="#Cmmi10-b0"/>
      <use transform="translate(1470.06835938 0.015625)" xlink:href="#BitstreamVeraSans-Roman-20"/>
      <use transform="translate(1501.85546875 0.015625)" xlink:href="#BitstreamVeraSans-Roman-3d"/>
      <use transform="translate(1585.64453125 0.015625)" xlink:href="#BitstreamVeraSans-Roman-20"/>
      <use transform="translate(1617.43164062 0.015625)" xlink:href="#BitstreamVeraSans-Roman-31"/>
      <use transform="translate(1681.0546875 0.015625)" xlink:href="#BitstreamVeraSans-Roman-2e"/>
      <use transform="translate(1712.84179688 0.015625)" xlink:href="#BitstreamVeraSans-Roman-30"/>
     </g>
    </g>
    <g id="line2d_52">
     <path d="M 257.240354 99.208396 
L 268.440354 99.208396 
" style="fill:none;stroke:#008868;stroke-dasharray:6.000000,6.000000;stroke-dashoffset:0.0;"/>
    </g>
    <g id="line2d_53"/>
    <g id="text_23">
     <!-- L2MarginLoss -->
     <g transform="translate(277.240354331 102.008395669)scale(0.08 -0.08)">
      <use xlink:href="#BitstreamVeraSans-Roman-4c"/>
      <use x="55.712890625" xlink:href="#BitstreamVeraSans-Roman-32"/>
      <use x="119.3359375" xlink:href="#BitstreamVeraSans-Roman-4d"/>
      <use x="205.615234375" xlink:href="#BitstreamVeraSans-Roman-61"/>
      <use x="266.89453125" xlink:href="#BitstreamVeraSans-Roman-72"/>
      <use x="307.9921875" xlink:href="#BitstreamVeraSans-Roman-67"/>
      <use x="371.46875" xlink:href="#BitstreamVeraSans-Roman-69"/>
      <use x="399.251953125" xlink:href="#BitstreamVeraSans-Roman-6e"/>
      <use x="462.630859375" xlink:href="#BitstreamVeraSans-Roman-4c"/>
      <use x="518.328125" xlink:href="#BitstreamVeraSans-Roman-6f"/>
      <use x="579.509765625" xlink:href="#BitstreamVeraSans-Roman-73"/>
      <use x="631.609375" xlink:href="#BitstreamVeraSans-Roman-73"/>
     </g>
    </g>
    <g id="line2d_54">
     <path d="M 257.240354 110.950896 
L 268.440354 110.950896 
" style="fill:none;stroke:#f27c00;stroke-linecap:round;"/>
    </g>
    <g id="line2d_55"/>
    <g id="text_24">
     <!-- ExpLoss -->
     <defs>
      <path d="M 9.8125 72.90625 
L 55.90625 72.90625 
L 55.90625 64.59375 
L 19.671875 64.59375 
L 19.671875 43.015625 
L 54.390625 43.015625 
L 54.390625 34.71875 
L 19.671875 34.71875 
L 19.671875 8.296875 
L 56.78125 8.296875 
L 56.78125 0 
L 9.8125 0 
z
" id="BitstreamVeraSans-Roman-45"/>
      <path d="M 54.890625 54.6875 
L 35.109375 28.078125 
L 55.90625 0 
L 45.3125 0 
L 29.390625 21.484375 
L 13.484375 0 
L 2.875 0 
L 24.125 28.609375 
L 4.6875 54.6875 
L 15.28125 54.6875 
L 29.78125 35.203125 
L 44.28125 54.6875 
z
" id="BitstreamVeraSans-Roman-78"/>
     </defs>
     <g transform="translate(277.240354331 113.750895669)scale(0.08 -0.08)">
      <use xlink:href="#BitstreamVeraSans-Roman-45"/>
      <use x="63.18359375" xlink:href="#BitstreamVeraSans-Roman-78"/>
      <use x="122.36328125" xlink:href="#BitstreamVeraSans-Roman-70"/>
      <use x="185.83984375" xlink:href="#BitstreamVeraSans-Roman-4c"/>
      <use x="241.537109375" xlink:href="#BitstreamVeraSans-Roman-6f"/>
      <use x="302.71875" xlink:href="#BitstreamVeraSans-Roman-73"/>
      <use x="354.818359375" xlink:href="#BitstreamVeraSans-Roman-73"/>
     </g>
    </g>
    <g id="line2d_56">
     <path d="M 257.240354 122.693396 
L 268.440354 122.693396 
" style="fill:none;stroke:#3410ac;stroke-dasharray:1.000000,3.000000;stroke-dashoffset:0.0;"/>
    </g>
    <g id="line2d_57"/>
    <g id="text_25">
     <!-- SigmoidLoss -->
     <g transform="translate(277.240354331 125.493395669)scale(0.08 -0.08)">
      <use xlink:href="#BitstreamVeraSans-Roman-53"/>
      <use x="63.4765625" xlink:href="#BitstreamVeraSans-Roman-69"/>
      <use x="91.259765625" xlink:href="#BitstreamVeraSans-Roman-67"/>
      <use x="154.736328125" xlink:href="#BitstreamVeraSans-Roman-6d"/>
      <use x="252.1484375" xlink:href="#BitstreamVeraSans-Roman-6f"/>
      <use x="313.330078125" xlink:href="#BitstreamVeraSans-Roman-69"/>
      <use x="341.11328125" xlink:href="#BitstreamVeraSans-Roman-64"/>
      <use x="404.58984375" xlink:href="#BitstreamVeraSans-Roman-4c"/>
      <use x="460.287109375" xlink:href="#BitstreamVeraSans-Roman-6f"/>
      <use x="521.46875" xlink:href="#BitstreamVeraSans-Roman-73"/>
      <use x="573.568359375" xlink:href="#BitstreamVeraSans-Roman-73"/>
     </g>
    </g>
    <g id="line2d_58">
     <path d="M 257.240354 134.435896 
L 268.440354 134.435896 
" style="fill:none;stroke:#439300;stroke-dasharray:1.000000,3.000000;stroke-dashoffset:0.0;"/>
    </g>
    <g id="line2d_59"/>
    <g id="text_26">
     <!-- DWDMarginLoss with q = 1.0 -->
     <defs>
      <path d="M 14.796875 27.296875 
Q 14.796875 17.390625 18.875 11.75 
Q 22.953125 6.109375 30.078125 6.109375 
Q 37.203125 6.109375 41.296875 11.75 
Q 45.40625 17.390625 45.40625 27.296875 
Q 45.40625 37.203125 41.296875 42.84375 
Q 37.203125 48.484375 30.078125 48.484375 
Q 22.953125 48.484375 18.875 42.84375 
Q 14.796875 37.203125 14.796875 27.296875 
M 45.40625 8.203125 
Q 42.578125 3.328125 38.25 0.953125 
Q 33.9375 -1.421875 27.875 -1.421875 
Q 17.96875 -1.421875 11.734375 6.484375 
Q 5.515625 14.40625 5.515625 27.296875 
Q 5.515625 40.1875 11.734375 48.09375 
Q 17.96875 56 27.875 56 
Q 33.9375 56 38.25 53.625 
Q 42.578125 51.265625 45.40625 46.390625 
L 45.40625 54.6875 
L 54.390625 54.6875 
L 54.390625 -20.796875 
L 45.40625 -20.796875 
z
" id="BitstreamVeraSans-Roman-71"/>
      <path d="M 19.671875 64.796875 
L 19.671875 8.109375 
L 31.59375 8.109375 
Q 46.6875 8.109375 53.6875 14.9375 
Q 60.6875 21.78125 60.6875 36.53125 
Q 60.6875 51.171875 53.6875 57.984375 
Q 46.6875 64.796875 31.59375 64.796875 
z
M 9.8125 72.90625 
L 30.078125 72.90625 
Q 51.265625 72.90625 61.171875 64.09375 
Q 71.09375 55.28125 71.09375 36.53125 
Q 71.09375 17.671875 61.125 8.828125 
Q 51.171875 0 30.078125 0 
L 9.8125 0 
z
" id="BitstreamVeraSans-Roman-44"/>
      <path d="M 3.328125 72.90625 
L 13.28125 72.90625 
L 28.609375 11.28125 
L 43.890625 72.90625 
L 54.984375 72.90625 
L 70.3125 11.28125 
L 85.59375 72.90625 
L 95.609375 72.90625 
L 77.296875 0 
L 64.890625 0 
L 49.515625 63.28125 
L 33.984375 0 
L 21.578125 0 
z
" id="BitstreamVeraSans-Roman-57"/>
     </defs>
     <g transform="translate(277.240354331 137.235895669)scale(0.08 -0.08)">
      <use xlink:href="#BitstreamVeraSans-Roman-44"/>
      <use x="77.001953125" xlink:href="#BitstreamVeraSans-Roman-57"/>
      <use x="175.87890625" xlink:href="#BitstreamVeraSans-Roman-44"/>
      <use x="252.880859375" xlink:href="#BitstreamVeraSans-Roman-4d"/>
      <use x="339.16015625" xlink:href="#BitstreamVeraSans-Roman-61"/>
      <use x="400.439453125" xlink:href="#BitstreamVeraSans-Roman-72"/>
      <use x="441.537109375" xlink:href="#BitstreamVeraSans-Roman-67"/>
      <use x="505.013671875" xlink:href="#BitstreamVeraSans-Roman-69"/>
      <use x="532.796875" xlink:href="#BitstreamVeraSans-Roman-6e"/>
      <use x="596.17578125" xlink:href="#BitstreamVeraSans-Roman-4c"/>
      <use x="651.873046875" xlink:href="#BitstreamVeraSans-Roman-6f"/>
      <use x="713.0546875" xlink:href="#BitstreamVeraSans-Roman-73"/>
      <use x="765.154296875" xlink:href="#BitstreamVeraSans-Roman-73"/>
      <use x="817.25390625" xlink:href="#BitstreamVeraSans-Roman-20"/>
      <use x="849.041015625" xlink:href="#BitstreamVeraSans-Roman-77"/>
      <use x="930.828125" xlink:href="#BitstreamVeraSans-Roman-69"/>
      <use x="958.611328125" xlink:href="#BitstreamVeraSans-Roman-74"/>
      <use x="997.8203125" xlink:href="#BitstreamVeraSans-Roman-68"/>
      <use x="1061.19921875" xlink:href="#BitstreamVeraSans-Roman-20"/>
      <use x="1092.98632812" xlink:href="#BitstreamVeraSans-Roman-71"/>
      <use x="1156.46289062" xlink:href="#BitstreamVeraSans-Roman-20"/>
      <use x="1188.25" xlink:href="#BitstreamVeraSans-Roman-3d"/>
      <use x="1272.0390625" xlink:href="#BitstreamVeraSans-Roman-20"/>
      <use x="1303.82617188" xlink:href="#BitstreamVeraSans-Roman-31"/>
      <use x="1367.44921875" xlink:href="#BitstreamVeraSans-Roman-2e"/>
      <use x="1399.23632812" xlink:href="#BitstreamVeraSans-Roman-30"/>
     </g>
    </g>
   </g>
  </g>
 </g>
 <defs>
  <clipPath id="p3f89d7dbac">
   <rect height="249.320708661" width="395.235708661" x="31.3646456693" y="6.43464566929"/>
  </clipPath>
 </defs>
</svg>
