<?xml version="1.0" encoding="utf-8" standalone="no"?>
<!DOCTYPE svg PUBLIC "-//W3C//DTD SVG 1.1//EN"
  "http://www.w3.org/Graphics/SVG/1.1/DTD/svg11.dtd">
<!-- Created with matplotlib (http://matplotlib.org/) -->
<svg height="252pt" version="1.1" viewBox="0 0 252 252" width="252pt" xmlns="http://www.w3.org/2000/svg" xmlns:xlink="http://www.w3.org/1999/xlink">
 <defs>
  <style type="text/css">
*{stroke-linecap:butt;stroke-linejoin:round;stroke-miterlimit:100000;}
  </style>
 </defs>
 <g id="figure_1">
  <g id="patch_1">
   <path d="M 0 252 
L 252 252 
L 252 0 
L 0 0 
L 0 252 
z
" style="fill:none;"/>
  </g>
  <g id="axes_1">
   <g id="patch_2">
    <path d="M 34.244646 218.755354 
L 249.165354 218.755354 
L 249.165354 3.834646 
L 34.244646 3.834646 
z
" style="fill:#ffffff;"/>
   </g>
   <g id="matplotlib.axis_1">
    <g id="xtick_1">
     <g id="line2d_1">
      <path clip-path="url(#p16362d73c2)" d="M 74.542279 218.755354 
L 74.542279 3.834646 
" style="fill:none;stroke:#000000;stroke-dasharray:1.000000,3.000000;stroke-dashoffset:0.0;stroke-width:0.5;"/>
     </g>
     <g id="line2d_2">
      <defs>
       <path d="M 0 0 
L 0 -4 
" id="m1b947d1525" style="stroke:#000000;stroke-width:0.5;"/>
      </defs>
      <g>
       <use style="stroke:#000000;stroke-width:0.5;" x="74.5422785433" xlink:href="#m1b947d1525" y="218.755354331"/>
      </g>
     </g>
     <g id="line2d_3">
      <defs>
       <path d="M 0 0 
L 0 4 
" id="m61f3577316" style="stroke:#000000;stroke-width:0.5;"/>
      </defs>
      <g>
       <use style="stroke:#000000;stroke-width:0.5;" x="74.5422785433" xlink:href="#m61f3577316" y="3.83464566929"/>
      </g>
     </g>
     <g id="text_1">
      <!-- -5 -->
      <defs>
       <path d="M 4.890625 31.390625 
L 31.203125 31.390625 
L 31.203125 23.390625 
L 4.890625 23.390625 
z
" id="BitstreamVeraSans-Roman-2d"/>
       <path d="M 10.796875 72.90625 
L 49.515625 72.90625 
L 49.515625 64.59375 
L 19.828125 64.59375 
L 19.828125 46.734375 
Q 21.96875 47.46875 24.109375 47.828125 
Q 26.265625 48.1875 28.421875 48.1875 
Q 40.625 48.1875 47.75 41.5 
Q 54.890625 34.8125 54.890625 23.390625 
Q 54.890625 11.625 47.5625 5.09375 
Q 40.234375 -1.421875 26.90625 -1.421875 
Q 22.3125 -1.421875 17.546875 -0.640625 
Q 12.796875 0.140625 7.71875 1.703125 
L 7.71875 11.625 
Q 12.109375 9.234375 16.796875 8.0625 
Q 21.484375 6.890625 26.703125 6.890625 
Q 35.15625 6.890625 40.078125 11.328125 
Q 45.015625 15.765625 45.015625 23.390625 
Q 45.015625 31 40.078125 35.4375 
Q 35.15625 39.890625 26.703125 39.890625 
Q 22.75 39.890625 18.8125 39.015625 
Q 14.890625 38.140625 10.796875 36.28125 
z
" id="BitstreamVeraSans-Roman-35"/>
      </defs>
      <g transform="translate(70.5541535433 228.834104331)scale(0.08 -0.08)">
       <use xlink:href="#BitstreamVeraSans-Roman-2d"/>
       <use x="36.083984375" xlink:href="#BitstreamVeraSans-Roman-35"/>
      </g>
     </g>
    </g>
    <g id="xtick_2">
     <g id="line2d_4">
      <path clip-path="url(#p16362d73c2)" d="M 141.705 218.755354 
L 141.705 3.834646 
" style="fill:none;stroke:#000000;stroke-dasharray:1.000000,3.000000;stroke-dashoffset:0.0;stroke-width:0.5;"/>
     </g>
     <g id="line2d_5">
      <g>
       <use style="stroke:#000000;stroke-width:0.5;" x="141.705" xlink:href="#m1b947d1525" y="218.755354331"/>
      </g>
     </g>
     <g id="line2d_6">
      <g>
       <use style="stroke:#000000;stroke-width:0.5;" x="141.705" xlink:href="#m61f3577316" y="3.83464566929"/>
      </g>
     </g>
     <g id="text_2">
      <!-- 0 -->
      <defs>
       <path d="M 31.78125 66.40625 
Q 24.171875 66.40625 20.328125 58.90625 
Q 16.5 51.421875 16.5 36.375 
Q 16.5 21.390625 20.328125 13.890625 
Q 24.171875 6.390625 31.78125 6.390625 
Q 39.453125 6.390625 43.28125 13.890625 
Q 47.125 21.390625 47.125 36.375 
Q 47.125 51.421875 43.28125 58.90625 
Q 39.453125 66.40625 31.78125 66.40625 
M 31.78125 74.21875 
Q 44.046875 74.21875 50.515625 64.515625 
Q 56.984375 54.828125 56.984375 36.375 
Q 56.984375 17.96875 50.515625 8.265625 
Q 44.046875 -1.421875 31.78125 -1.421875 
Q 19.53125 -1.421875 13.0625 8.265625 
Q 6.59375 17.96875 6.59375 36.375 
Q 6.59375 54.828125 13.0625 64.515625 
Q 19.53125 74.21875 31.78125 74.21875 
" id="BitstreamVeraSans-Roman-30"/>
      </defs>
      <g transform="translate(139.16 228.834104331)scale(0.08 -0.08)">
       <use xlink:href="#BitstreamVeraSans-Roman-30"/>
      </g>
     </g>
    </g>
    <g id="xtick_3">
     <g id="line2d_7">
      <path clip-path="url(#p16362d73c2)" d="M 208.867721 218.755354 
L 208.867721 3.834646 
" style="fill:none;stroke:#000000;stroke-dasharray:1.000000,3.000000;stroke-dashoffset:0.0;stroke-width:0.5;"/>
     </g>
     <g id="line2d_8">
      <g>
       <use style="stroke:#000000;stroke-width:0.5;" x="208.867721457" xlink:href="#m1b947d1525" y="218.755354331"/>
      </g>
     </g>
     <g id="line2d_9">
      <g>
       <use style="stroke:#000000;stroke-width:0.5;" x="208.867721457" xlink:href="#m61f3577316" y="3.83464566929"/>
      </g>
     </g>
     <g id="text_3">
      <!-- 5 -->
      <g transform="translate(206.322721457 228.834104331)scale(0.08 -0.08)">
       <use xlink:href="#BitstreamVeraSans-Roman-35"/>
      </g>
     </g>
    </g>
    <g id="text_4">
     <!-- $\hat{y} - y$ -->
     <defs>
      <path d="M 13.484375 53.8125 
L 11.53125 55.90625 
L 25 69.390625 
L 38.375 55.90625 
L 36.375 53.8125 
L 25 63.8125 
z
" id="Cmr10-5e"/>
      <path d="M 10.203125 23 
Q 9.375 23 8.828125 23.625 
Q 8.296875 24.265625 8.296875 25 
Q 8.296875 25.734375 8.828125 26.359375 
Q 9.375 27 10.203125 27 
L 67.578125 27 
Q 68.359375 27 68.875 26.359375 
Q 69.390625 25.734375 69.390625 25 
Q 69.390625 24.265625 68.875 23.625 
Q 68.359375 23 67.578125 23 
z
" id="Cmsy10-a1"/>
      <path d="M 8.40625 -14.3125 
Q 10.5 -17.921875 15.71875 -17.921875 
Q 20.453125 -17.921875 23.921875 -14.59375 
Q 27.390625 -11.28125 29.515625 -6.5625 
Q 31.640625 -1.859375 32.8125 3.078125 
Q 28.375 -1.125 23.1875 -1.125 
Q 19.234375 -1.125 16.453125 0.234375 
Q 13.671875 1.609375 12.125 4.3125 
Q 10.59375 7.03125 10.59375 10.890625 
Q 10.59375 14.15625 11.46875 17.59375 
Q 12.359375 21.046875 13.9375 25.265625 
Q 15.53125 29.5 16.703125 32.625 
Q 18.015625 36.28125 18.015625 38.625 
Q 18.015625 41.609375 15.828125 41.609375 
Q 11.859375 41.609375 9.296875 37.53125 
Q 6.734375 33.453125 5.515625 28.421875 
Q 5.328125 27.78125 4.6875 27.78125 
L 3.515625 27.78125 
Q 2.6875 27.78125 2.6875 28.71875 
L 2.6875 29 
Q 4.296875 34.96875 7.609375 39.578125 
Q 10.9375 44.1875 16.015625 44.1875 
Q 19.578125 44.1875 22.046875 41.84375 
Q 24.515625 39.5 24.515625 35.890625 
Q 24.515625 34.03125 23.6875 31.984375 
Q 23.25 30.765625 21.6875 26.65625 
Q 20.125 22.5625 19.28125 19.875 
Q 18.453125 17.1875 17.921875 14.59375 
Q 17.390625 12.015625 17.390625 9.421875 
Q 17.390625 6.109375 18.796875 3.8125 
Q 20.21875 1.515625 23.296875 1.515625 
Q 29.5 1.515625 34.421875 9.078125 
L 42 39.890625 
Q 42.328125 41.21875 43.546875 42.15625 
Q 44.78125 43.109375 46.1875 43.109375 
Q 47.40625 43.109375 48.3125 42.328125 
Q 49.21875 41.546875 49.21875 40.28125 
Q 49.21875 39.703125 49.125 39.5 
L 39.203125 -0.296875 
Q 37.890625 -5.421875 34.375 -10.109375 
Q 30.859375 -14.796875 25.90625 -17.65625 
Q 20.953125 -20.515625 15.578125 -20.515625 
Q 12.984375 -20.515625 10.4375 -19.5 
Q 7.90625 -18.5 6.34375 -16.5 
Q 4.78125 -14.5 4.78125 -11.8125 
Q 4.78125 -9.078125 6.390625 -7.078125 
Q 8.015625 -5.078125 10.6875 -5.078125 
Q 12.3125 -5.078125 13.40625 -6.078125 
Q 14.5 -7.078125 14.5 -8.6875 
Q 14.5 -10.984375 12.78125 -12.6875 
Q 11.078125 -14.40625 8.796875 -14.40625 
Q 8.6875 -14.359375 8.59375 -14.328125 
Q 8.5 -14.3125 8.40625 -14.3125 
" id="Cmmi10-79"/>
     </defs>
     <g transform="translate(130.1 243.833791831)scale(0.11 -0.11)">
      <use transform="translate(5.724609375 3.609375)" xlink:href="#Cmr10-5e"/>
      <use transform="translate(0.0 0.734375)" xlink:href="#Cmmi10-79"/>
      <use transform="translate(66.58203125 0.734375)" xlink:href="#Cmsy10-a1"/>
      <use transform="translate(161.826171875 0.734375)" xlink:href="#Cmmi10-79"/>
     </g>
    </g>
   </g>
   <g id="matplotlib.axis_2">
    <g id="ytick_1">
     <g id="line2d_10">
      <path clip-path="url(#p16362d73c2)" d="M 34.244646 178.457721 
L 249.165354 178.457721 
" style="fill:none;stroke:#000000;stroke-dasharray:1.000000,3.000000;stroke-dashoffset:0.0;stroke-width:0.5;"/>
     </g>
     <g id="line2d_11">
      <defs>
       <path d="M 0 0 
L 4 0 
" id="m0bfa45c74d" style="stroke:#000000;stroke-width:0.5;"/>
      </defs>
      <g>
       <use style="stroke:#000000;stroke-width:0.5;" x="34.2446456693" xlink:href="#m0bfa45c74d" y="178.457721457"/>
      </g>
     </g>
     <g id="line2d_12">
      <defs>
       <path d="M 0 0 
L -4 0 
" id="m0a0073a06a" style="stroke:#000000;stroke-width:0.5;"/>
      </defs>
      <g>
       <use style="stroke:#000000;stroke-width:0.5;" x="249.165354331" xlink:href="#m0a0073a06a" y="178.457721457"/>
      </g>
     </g>
     <g id="text_5">
      <!-- -5 -->
      <g transform="translate(22.2683956693 180.665221457)scale(0.08 -0.08)">
       <use xlink:href="#BitstreamVeraSans-Roman-2d"/>
       <use x="36.083984375" xlink:href="#BitstreamVeraSans-Roman-35"/>
      </g>
     </g>
    </g>
    <g id="ytick_2">
     <g id="line2d_13">
      <path clip-path="url(#p16362d73c2)" d="M 34.244646 111.295 
L 249.165354 111.295 
" style="fill:none;stroke:#000000;stroke-dasharray:1.000000,3.000000;stroke-dashoffset:0.0;stroke-width:0.5;"/>
     </g>
     <g id="line2d_14">
      <g>
       <use style="stroke:#000000;stroke-width:0.5;" x="34.2446456693" xlink:href="#m0bfa45c74d" y="111.295"/>
      </g>
     </g>
     <g id="line2d_15">
      <g>
       <use style="stroke:#000000;stroke-width:0.5;" x="249.165354331" xlink:href="#m0a0073a06a" y="111.295"/>
      </g>
     </g>
     <g id="text_6">
      <!-- 0 -->
      <g transform="translate(25.1546456693 113.5025)scale(0.08 -0.08)">
       <use xlink:href="#BitstreamVeraSans-Roman-30"/>
      </g>
     </g>
    </g>
    <g id="ytick_3">
     <g id="line2d_16">
      <path clip-path="url(#p16362d73c2)" d="M 34.244646 44.132279 
L 249.165354 44.132279 
" style="fill:none;stroke:#000000;stroke-dasharray:1.000000,3.000000;stroke-dashoffset:0.0;stroke-width:0.5;"/>
     </g>
     <g id="line2d_17">
      <g>
       <use style="stroke:#000000;stroke-width:0.5;" x="34.2446456693" xlink:href="#m0bfa45c74d" y="44.1322785433"/>
      </g>
     </g>
     <g id="line2d_18">
      <g>
       <use style="stroke:#000000;stroke-width:0.5;" x="249.165354331" xlink:href="#m0a0073a06a" y="44.1322785433"/>
      </g>
     </g>
     <g id="text_7">
      <!-- 5 -->
      <g transform="translate(25.1546456693 46.3397785433)scale(0.08 -0.08)">
       <use xlink:href="#BitstreamVeraSans-Roman-35"/>
      </g>
     </g>
    </g>
    <g id="text_8">
     <!-- $L'(\hat{y} - y)$ -->
     <defs>
      <path d="M 3.515625 5.421875 
Q 2.875 5.609375 2.875 6.390625 
L 15.09375 51.8125 
Q 15.671875 53.65625 17.078125 54.78125 
Q 18.5 55.90625 20.3125 55.90625 
Q 22.65625 55.90625 24.4375 54.359375 
Q 26.21875 52.828125 26.21875 50.484375 
Q 26.21875 49.46875 25.6875 48.1875 
L 7.625 4.984375 
Q 7.28125 4.296875 6.6875 4.296875 
Q 6.15625 4.296875 5 4.78125 
Q 3.859375 5.28125 3.515625 5.421875 
" id="Cmsy10-30"/>
      <path d="M 31 -24.8125 
Q 25.4375 -20.40625 21.40625 -14.71875 
Q 17.390625 -9.03125 14.8125 -2.578125 
Q 12.25 3.859375 10.984375 10.890625 
Q 9.71875 17.921875 9.71875 25 
Q 9.71875 32.171875 10.984375 39.203125 
Q 12.25 46.234375 14.859375 52.734375 
Q 17.484375 59.234375 21.53125 64.890625 
Q 25.59375 70.5625 31 74.8125 
Q 31 75 31.5 75 
L 32.421875 75 
Q 32.71875 75 32.953125 74.734375 
Q 33.203125 74.46875 33.203125 74.125 
Q 33.203125 73.6875 33.015625 73.484375 
Q 28.125 68.703125 24.875 63.234375 
Q 21.625 57.765625 19.640625 51.578125 
Q 17.671875 45.40625 16.796875 38.78125 
Q 15.921875 32.171875 15.921875 25 
Q 15.921875 -6.78125 32.90625 -23.296875 
Q 33.203125 -23.578125 33.203125 -24.125 
Q 33.203125 -24.359375 32.9375 -24.671875 
Q 32.671875 -25 32.421875 -25 
L 31.5 -25 
Q 31 -25 31 -24.8125 
" id="Cmr10-28"/>
      <path d="M 4.6875 0 
Q 3.71875 0 3.71875 1.3125 
Q 3.765625 1.5625 3.90625 2.171875 
Q 4.046875 2.78125 4.3125 3.140625 
Q 4.59375 3.515625 4.984375 3.515625 
Q 11.078125 3.515625 13.484375 4.203125 
Q 14.796875 4.640625 15.375 6.890625 
L 29.109375 61.8125 
Q 29.296875 62.796875 29.296875 63.1875 
Q 29.296875 64.265625 28.078125 64.40625 
Q 26.21875 64.796875 20.90625 64.796875 
Q 19.921875 64.796875 19.921875 66.109375 
Q 20.265625 67.390625 20.453125 67.84375 
Q 20.65625 68.3125 21.578125 68.3125 
L 51.125 68.3125 
Q 52 68.3125 52 67 
Q 51.859375 65.96875 51.65625 65.375 
Q 51.46875 64.796875 50.6875 64.796875 
Q 43.3125 64.796875 40.828125 64.3125 
Q 38.375 63.875 37.796875 61.375 
L 24.125 6.5 
Q 23.6875 5.28125 23.6875 4.296875 
Q 23.6875 3.515625 27.09375 3.515625 
L 36.375 3.515625 
Q 44.234375 3.515625 49.109375 6.640625 
Q 54 9.765625 56.34375 13.6875 
Q 58.6875 17.625 60.265625 21.84375 
Q 61.859375 26.078125 62.59375 26.21875 
L 63.484375 26.21875 
Q 64.5 26.21875 64.5 24.90625 
L 55.609375 0.6875 
Q 55.46875 0 54.6875 0 
z
" id="Cmmi10-4c"/>
      <path d="M 6.5 -25 
Q 5.609375 -25 5.609375 -24.125 
Q 5.609375 -23.6875 5.8125 -23.484375 
Q 22.90625 -6.78125 22.90625 25 
Q 22.90625 56.78125 6 73.296875 
Q 5.609375 73.53125 5.609375 74.125 
Q 5.609375 74.46875 5.875 74.734375 
Q 6.15625 75 6.5 75 
L 7.421875 75 
Q 7.71875 75 7.90625 74.8125 
Q 15.09375 69.140625 19.875 61.03125 
Q 24.65625 52.9375 26.875 43.75 
Q 29.109375 34.578125 29.109375 25 
Q 29.109375 17.921875 27.90625 11.0625 
Q 26.703125 4.203125 24.09375 -2.453125 
Q 21.484375 -9.125 17.484375 -14.765625 
Q 13.484375 -20.40625 7.90625 -24.8125 
Q 7.71875 -25 7.421875 -25 
z
" id="Cmr10-29"/>
     </defs>
     <g transform="translate(14.5183956693 131.92)rotate(-90.0)scale(0.11 -0.11)">
      <use xlink:href="#Cmmi10-4c"/>
      <use transform="translate(79.387109375 38.2640625)scale(0.7)" xlink:href="#Cmsy10-30"/>
      <use transform="translate(85.764453125 0.0)" xlink:href="#Cmr10-28"/>
      <use transform="translate(130.307421875 2.875)" xlink:href="#Cmr10-5e"/>
      <use transform="translate(124.5828125 0.0)" xlink:href="#Cmmi10-79"/>
      <use transform="translate(191.16484375 0.0)" xlink:href="#Cmsy10-a1"/>
      <use transform="translate(286.408984375 0.0)" xlink:href="#Cmmi10-79"/>
      <use transform="translate(335.432421875 0.0)" xlink:href="#Cmr10-29"/>
     </g>
    </g>
   </g>
   <g id="line2d_19">
    <path clip-path="url(#p16362d73c2)" d="M 34.244646 111.295 
L 35.023826 -1 
M 36.823602 -1 
L 37.468456 90.138959 
L 38.408734 226.845408 
L 38.668587 253 
M 39.895113 253 
L 40.289291 210.512169 
L 41.095243 90.138959 
L 41.740098 -1 
M 43.539874 -1 
L 44.184728 90.138959 
L 45.125007 226.845408 
L 45.384859 253 
M 46.611385 253 
L 47.005563 210.512169 
L 47.811515 90.138959 
L 48.45637 -1 
M 50.256146 -1 
L 50.901001 90.138959 
L 51.841279 226.845408 
L 52.101131 253 
M 53.327657 253 
L 53.721835 210.512169 
L 54.527788 90.138959 
L 55.172642 -1 
M 56.972418 -1 
L 57.617273 90.138959 
L 58.557551 226.845408 
L 58.817403 253 
M 60.043929 253 
L 60.438107 210.512169 
L 61.24406 90.138959 
L 61.888914 -1 
M 63.68869 -1 
L 64.333545 90.138959 
L 65.273823 226.845408 
L 65.533675 253 
M 66.760201 253 
L 67.154379 210.512169 
L 67.960332 90.138959 
L 68.605186 -1 
M 70.404962 -1 
L 71.049817 90.138959 
L 71.990095 226.845408 
L 72.249947 253 
M 73.476474 253 
L 73.870651 210.512169 
L 74.676604 90.138959 
L 75.321459 -1 
M 77.121235 -1 
L 77.766089 90.138959 
L 78.706367 226.845408 
L 78.96622 253 
M 80.192746 253 
L 80.586923 210.512169 
L 81.392876 90.138959 
L 82.037731 -1 
M 83.837507 -1 
L 84.482361 90.138959 
L 85.422639 226.845408 
L 85.682492 253 
M 86.909018 253 
L 87.303196 210.512169 
L 88.109148 90.138959 
L 88.754003 -1 
M 90.553779 -1 
L 91.198633 90.138959 
L 92.138912 226.845408 
L 92.398764 253 
M 93.62529 253 
L 94.019468 210.512169 
L 94.82542 90.138959 
L 95.470275 -1 
M 97.270051 -1 
L 97.914906 90.138959 
L 98.855184 226.845408 
L 99.115036 253 
M 100.341562 253 
L 100.73574 210.512169 
L 101.541693 90.138959 
L 102.186547 -1 
M 103.986323 -1 
L 104.631178 90.138959 
L 105.571456 226.845408 
L 105.831308 253 
M 107.057834 253 
L 107.452012 210.512169 
L 108.257965 90.138959 
L 108.902819 -1 
M 110.702595 -1 
L 111.34745 90.138959 
L 112.287728 226.845408 
L 112.54758 253 
M 113.774106 253 
L 114.168284 210.512169 
L 114.974237 90.138959 
L 115.619091 -1 
M 117.418867 -1 
L 118.063722 90.138959 
L 119.004 226.845408 
L 119.263852 253 
M 120.490379 253 
L 120.884556 210.512169 
L 121.690509 90.138959 
L 122.335364 -1 
M 124.13514 -1 
L 124.779994 90.138959 
L 125.720272 226.845408 
L 125.980125 253 
M 127.206651 253 
L 127.600828 210.512169 
L 128.406781 90.138959 
L 129.051636 -1 
M 130.851412 -1 
L 131.496266 90.138959 
L 132.436544 226.845408 
L 132.696397 253 
M 133.922923 253 
L 134.317101 210.512169 
L 135.123053 90.138959 
L 135.767908 -1 
M 137.567684 -1 
L 138.212538 90.138959 
L 139.152817 226.845408 
L 139.412669 253 
M 140.639195 253 
L 141.033373 210.512169 
L 141.839325 90.138959 
L 142.48418 -1 
M 144.283956 -1 
L 144.928811 90.138959 
L 145.869089 226.845408 
L 146.128941 253 
M 147.355467 253 
L 147.749645 210.512169 
L 148.555598 90.138959 
L 149.200452 -1 
M 151.000228 -1 
L 151.645083 90.138959 
L 152.585361 226.845408 
L 152.845213 253 
M 154.071739 253 
L 154.465917 210.512169 
L 155.27187 90.138959 
L 155.916724 -1 
M 157.7165 -1 
L 158.361355 90.138959 
L 159.301633 226.845408 
L 159.561485 253 
M 160.788012 253 
L 161.182189 210.512169 
L 161.988142 90.138959 
L 162.632996 -1 
M 164.432773 -1 
L 165.077627 90.138959 
L 166.017905 226.845408 
L 166.277757 253 
M 167.504284 253 
L 167.898461 210.512169 
L 168.704414 90.138959 
L 169.349269 -1 
M 171.149045 -1 
L 171.793899 90.138959 
L 172.734177 226.845408 
L 172.99403 253 
M 174.220556 253 
L 174.614734 210.512169 
L 175.420686 90.138959 
L 176.065541 -1 
M 177.865317 -1 
L 178.510171 90.138959 
L 179.450449 226.845408 
L 179.710302 253 
M 180.936828 253 
L 181.331006 210.512169 
L 182.136958 90.138959 
L 182.781813 -1 
M 184.581589 -1 
L 185.226444 90.138959 
L 186.166722 226.845408 
L 186.426574 253 
M 187.6531 253 
L 188.047278 210.512169 
L 188.85323 90.138959 
L 189.498085 -1 
M 191.297861 -1 
L 191.942716 90.138959 
L 192.882994 226.845408 
L 193.142846 253 
M 194.369372 253 
L 194.76355 210.512169 
L 195.569503 90.138959 
L 196.214357 -1 
M 198.014133 -1 
L 198.658988 90.138959 
L 199.599266 226.845408 
L 199.859118 253 
M 201.085644 253 
L 201.479822 210.512169 
L 202.285775 90.138959 
L 202.930629 -1 
M 204.730405 -1 
L 205.37526 90.138959 
L 206.315538 226.845408 
L 206.57539 253 
M 207.801917 253 
L 208.196094 210.512169 
L 209.002047 90.138959 
L 209.646901 -1 
M 211.446678 -1 
L 212.091532 90.138959 
L 213.03181 226.845408 
L 213.291662 253 
M 214.518189 253 
L 214.912366 210.512169 
L 215.718319 90.138959 
L 216.363174 -1 
M 218.16295 -1 
L 218.807804 90.138959 
L 219.748082 226.845408 
L 220.007935 253 
M 221.234461 253 
L 221.628639 210.512169 
L 222.434591 90.138959 
L 223.079446 -1 
M 224.879222 -1 
L 225.524076 90.138959 
L 226.464354 226.845408 
L 226.724207 253 
M 227.950733 253 
L 228.344911 210.512169 
L 229.150863 90.138959 
L 229.795718 -1 
M 231.595494 -1 
L 232.240349 90.138959 
L 233.180627 226.845408 
L 233.440479 253 
M 234.667005 253 
L 235.061183 210.512169 
L 235.867135 90.138959 
L 236.51199 -1 
M 238.311766 -1 
L 238.956621 90.138959 
L 239.896899 226.845408 
L 240.156751 253 
M 241.383277 253 
L 241.777455 210.512169 
L 242.583408 90.138959 
L 243.228262 -1 
M 245.028038 -1 
L 245.672893 90.138959 
L 246.613171 226.845408 
L 246.873023 253 
M 248.099549 253 
L 248.493727 210.512169 
L 249.165354 111.295 
L 249.165354 111.295 
" style="fill:none;stroke:#00008b;stroke-linecap:round;"/>
   </g>
   <g id="line2d_20">
    <path clip-path="url(#p16362d73c2)" d="M 34.244646 111.295 
L 35.5879 61.686416 
L 36.259527 43.014641 
L 36.796829 32.822641 
L 37.199805 28.390776 
L 37.468456 27.062378 
L 37.602782 26.895835 
L 37.737107 27.062378 
L 38.005758 28.390776 
L 38.408734 32.822641 
L 38.811711 40.034428 
L 39.349013 53.519796 
L 40.154965 80.225595 
L 42.841474 176.325674 
L 43.378776 187.661648 
L 43.781752 193.04261 
L 44.050403 195.028652 
L 44.319054 195.694165 
L 44.453379 195.527622 
L 44.72203 194.199224 
L 45.125007 189.767359 
L 45.527983 182.555572 
L 46.065285 169.070204 
L 46.871237 142.364405 
L 49.557746 46.264326 
L 50.095048 34.928352 
L 50.498024 29.54739 
L 50.766675 27.561348 
L 51.035326 26.895835 
L 51.169651 27.062378 
L 51.438302 28.390776 
L 51.841279 32.822641 
L 52.244255 40.034428 
L 52.781557 53.519796 
L 53.587509 80.225595 
L 56.274018 176.325674 
L 56.81132 187.661648 
L 57.214296 193.04261 
L 57.482947 195.028652 
L 57.751598 195.694165 
L 57.885924 195.527622 
L 58.154575 194.199224 
L 58.557551 189.767359 
L 58.960527 182.555572 
L 59.497829 169.070204 
L 60.303782 142.364405 
L 62.99029 46.264326 
L 63.527592 34.928352 
L 63.930569 29.54739 
L 64.199219 27.561348 
L 64.46787 26.895835 
L 64.602196 27.062378 
L 64.870847 28.390776 
L 65.273823 32.822641 
L 65.676799 40.034428 
L 66.214101 53.519796 
L 67.020054 80.225595 
L 69.706563 176.325674 
L 70.243864 187.661648 
L 70.646841 193.04261 
L 70.915492 195.028652 
L 71.184142 195.694165 
L 71.318468 195.527622 
L 71.587119 194.199224 
L 71.990095 189.767359 
L 72.393071 182.555572 
L 72.930373 169.070204 
L 73.736326 142.364405 
L 76.422835 46.264326 
L 76.960137 34.928352 
L 77.363113 29.54739 
L 77.631764 27.561348 
L 77.900415 26.895835 
L 78.03474 27.062378 
L 78.303391 28.390776 
L 78.706367 32.822641 
L 79.109344 40.034428 
L 79.646645 53.519796 
L 80.452598 80.225595 
L 83.139107 176.325674 
L 83.676409 187.661648 
L 84.079385 193.04261 
L 84.348036 195.028652 
L 84.616687 195.694165 
L 84.751012 195.527622 
L 85.019663 194.199224 
L 85.422639 189.767359 
L 85.825616 182.555572 
L 86.362918 169.070204 
L 87.16887 142.364405 
L 89.855379 46.264326 
L 90.392681 34.928352 
L 90.795657 29.54739 
L 91.064308 27.561348 
L 91.332959 26.895835 
L 91.467284 27.062378 
L 91.735935 28.390776 
L 92.138912 32.822641 
L 92.541888 40.034428 
L 93.07919 53.519796 
L 93.885142 80.225595 
L 96.571651 176.325674 
L 97.108953 187.661648 
L 97.511929 193.04261 
L 97.78058 195.028652 
L 98.049231 195.694165 
L 98.183556 195.527622 
L 98.452207 194.199224 
L 98.855184 189.767359 
L 99.25816 182.555572 
L 99.795462 169.070204 
L 100.601414 142.364405 
L 103.287923 46.264326 
L 103.825225 34.928352 
L 104.228201 29.54739 
L 104.496852 27.561348 
L 104.765503 26.895835 
L 104.899829 27.062378 
L 105.16848 28.390776 
L 105.571456 32.822641 
L 105.974432 40.034428 
L 106.511734 53.519796 
L 107.317687 80.225595 
L 110.004195 176.325674 
L 110.541497 187.661648 
L 110.944474 193.04261 
L 111.213124 195.028652 
L 111.481775 195.694165 
L 111.616101 195.527622 
L 111.884752 194.199224 
L 112.287728 189.767359 
L 112.690704 182.555572 
L 113.228006 169.070204 
L 114.033959 142.364405 
L 116.720468 46.264326 
L 117.257769 34.928352 
L 117.660746 29.54739 
L 117.929397 27.561348 
L 118.198047 26.895835 
L 118.332373 27.062378 
L 118.601024 28.390776 
L 119.004 32.822641 
L 119.406976 40.034428 
L 119.944278 53.519796 
L 120.750231 80.225595 
L 123.43674 176.325674 
L 123.974042 187.661648 
L 124.377018 193.04261 
L 124.645669 195.028652 
L 124.91432 195.694165 
L 125.048645 195.527622 
L 125.317296 194.199224 
L 125.720272 189.767359 
L 126.123249 182.555572 
L 126.66055 169.070204 
L 127.466503 142.364405 
L 130.153012 46.264326 
L 130.690314 34.928352 
L 131.09329 29.54739 
L 131.361941 27.561348 
L 131.630592 26.895835 
L 131.764917 27.062378 
L 132.033568 28.390776 
L 132.436544 32.822641 
L 132.839521 40.034428 
L 133.376823 53.519796 
L 134.182775 80.225595 
L 136.869284 176.325674 
L 137.406586 187.661648 
L 137.809562 193.04261 
L 138.078213 195.028652 
L 138.346864 195.694165 
L 138.481189 195.527622 
L 138.74984 194.199224 
L 139.152817 189.767359 
L 139.555793 182.555572 
L 140.093095 169.070204 
L 140.899047 142.364405 
L 143.585556 46.264326 
L 144.122858 34.928352 
L 144.525834 29.54739 
L 144.794485 27.561348 
L 145.063136 26.895835 
L 145.197462 27.062378 
L 145.466112 28.390776 
L 145.869089 32.822641 
L 146.272065 40.034428 
L 146.809367 53.519796 
L 147.615319 80.225595 
L 150.301828 176.325674 
L 150.83913 187.661648 
L 151.242106 193.04261 
L 151.510757 195.028652 
L 151.779408 195.694165 
L 151.913734 195.527622 
L 152.182385 194.199224 
L 152.585361 189.767359 
L 152.988337 182.555572 
L 153.525639 169.070204 
L 154.331592 142.364405 
L 157.0181 46.264326 
L 157.555402 34.928352 
L 157.958379 29.54739 
L 158.227029 27.561348 
L 158.49568 26.895835 
L 158.630006 27.062378 
L 158.898657 28.390776 
L 159.301633 32.822641 
L 159.704609 40.034428 
L 160.241911 53.519796 
L 161.047864 80.225595 
L 163.734373 176.325674 
L 164.271674 187.661648 
L 164.674651 193.04261 
L 164.943302 195.028652 
L 165.211953 195.694165 
L 165.346278 195.527622 
L 165.614929 194.199224 
L 166.017905 189.767359 
L 166.420881 182.555572 
L 166.958183 169.070204 
L 167.764136 142.364405 
L 170.450645 46.264326 
L 170.987947 34.928352 
L 171.390923 29.54739 
L 171.659574 27.561348 
L 171.928225 26.895835 
L 172.06255 27.062378 
L 172.331201 28.390776 
L 172.734177 32.822641 
L 173.137154 40.034428 
L 173.674455 53.519796 
L 174.480408 80.225595 
L 177.166917 176.325674 
L 177.704219 187.661648 
L 178.107195 193.04261 
L 178.375846 195.028652 
L 178.644497 195.694165 
L 178.778822 195.527622 
L 179.047473 194.199224 
L 179.450449 189.767359 
L 179.853426 182.555572 
L 180.390728 169.070204 
L 181.19668 142.364405 
L 183.883189 46.264326 
L 184.420491 34.928352 
L 184.823467 29.54739 
L 185.092118 27.561348 
L 185.360769 26.895835 
L 185.495094 27.062378 
L 185.763745 28.390776 
L 186.166722 32.822641 
L 186.569698 40.034428 
L 187.107 53.519796 
L 187.912952 80.225595 
L 190.599461 176.325674 
L 191.136763 187.661648 
L 191.539739 193.04261 
L 191.80839 195.028652 
L 192.077041 195.694165 
L 192.211367 195.527622 
L 192.480017 194.199224 
L 192.882994 189.767359 
L 193.28597 182.555572 
L 193.823272 169.070204 
L 194.629225 142.364405 
L 197.315733 46.264326 
L 197.853035 34.928352 
L 198.256011 29.54739 
L 198.524662 27.561348 
L 198.793313 26.895835 
L 198.927639 27.062378 
L 199.19629 28.390776 
L 199.599266 32.822641 
L 200.002242 40.034428 
L 200.539544 53.519796 
L 201.345497 80.225595 
L 204.032006 176.325674 
L 204.569307 187.661648 
L 204.972284 193.04261 
L 205.240934 195.028652 
L 205.509585 195.694165 
L 205.643911 195.527622 
L 205.912562 194.199224 
L 206.315538 189.767359 
L 206.718514 182.555572 
L 207.255816 169.070204 
L 208.061769 142.364405 
L 210.748278 46.264326 
L 211.285579 34.928352 
L 211.688556 29.54739 
L 211.957207 27.561348 
L 212.225858 26.895835 
L 212.360183 27.062378 
L 212.628834 28.390776 
L 213.03181 32.822641 
L 213.434787 40.034428 
L 213.972088 53.519796 
L 214.778041 80.225595 
L 217.46455 176.325674 
L 218.001852 187.661648 
L 218.404828 193.04261 
L 218.673479 195.028652 
L 218.94213 195.694165 
L 219.076455 195.527622 
L 219.345106 194.199224 
L 219.748082 189.767359 
L 220.151059 182.555572 
L 220.68836 169.070204 
L 221.494313 142.364405 
L 224.180822 46.264326 
L 224.718124 34.928352 
L 225.1211 29.54739 
L 225.389751 27.561348 
L 225.658402 26.895835 
L 225.792727 27.062378 
L 226.061378 28.390776 
L 226.464354 32.822641 
L 226.867331 40.034428 
L 227.404633 53.519796 
L 228.210585 80.225595 
L 230.897094 176.325674 
L 231.434396 187.661648 
L 231.837372 193.04261 
L 232.106023 195.028652 
L 232.374674 195.694165 
L 232.508999 195.527622 
L 232.77765 194.199224 
L 233.180627 189.767359 
L 233.583603 182.555572 
L 234.120905 169.070204 
L 234.926857 142.364405 
L 237.613366 46.264326 
L 238.150668 34.928352 
L 238.553644 29.54739 
L 238.822295 27.561348 
L 239.090946 26.895835 
L 239.225272 27.062378 
L 239.493922 28.390776 
L 239.896899 32.822641 
L 240.299875 40.034428 
L 240.837177 53.519796 
L 241.64313 80.225595 
L 244.329638 176.325674 
L 244.86694 187.661648 
L 245.269916 193.04261 
L 245.538567 195.028652 
L 245.807218 195.694165 
L 245.941544 195.527622 
L 246.210195 194.199224 
L 246.613171 189.767359 
L 247.016147 182.555572 
L 247.553449 169.070204 
L 248.359402 142.364405 
L 249.165354 111.295 
L 249.165354 111.295 
" style="fill:none;stroke:#cc0000;stroke-linecap:round;"/>
   </g>
   <g id="patch_3">
    <path d="M 34.244646 3.834646 
L 249.165354 3.834646 
" style="fill:none;stroke:#000000;stroke-linecap:square;stroke-linejoin:miter;"/>
   </g>
   <g id="patch_4">
    <path d="M 249.165354 218.755354 
L 249.165354 3.834646 
" style="fill:none;stroke:#000000;stroke-linecap:square;stroke-linejoin:miter;"/>
   </g>
   <g id="patch_5">
    <path d="M 34.244646 218.755354 
L 249.165354 218.755354 
" style="fill:none;stroke:#000000;stroke-linecap:square;stroke-linejoin:miter;"/>
   </g>
   <g id="patch_6">
    <path d="M 34.244646 218.755354 
L 34.244646 3.834646 
" style="fill:none;stroke:#000000;stroke-linecap:square;stroke-linejoin:miter;"/>
   </g>
   <g id="line2d_21">
    <path clip-path="url(#p16362d73c2)" d="M 34.244646 160.022881 
L 34.916273 164.807251 
L 35.319249 166.564482 
L 35.722226 167.450082 
L 35.990876 167.54877 
L 36.259527 167.252878 
L 36.528178 166.564482 
L 36.931155 164.807251 
L 37.468456 161.158228 
L 38.140084 154.648783 
L 38.946036 144.36739 
L 40.02064 127.557695 
L 43.24445 74.529564 
L 44.050403 65.092128 
L 44.72203 59.425347 
L 45.259332 56.515502 
L 45.662308 55.337122 
L 45.930959 55.04123 
L 46.19961 55.139918 
L 46.468261 55.632494 
L 46.871237 57.101589 
L 47.408539 60.383902 
L 48.080166 66.47736 
L 48.886119 76.345431 
L 49.960722 92.790953 
L 53.587509 151.495598 
L 54.393462 160.022881 
L 55.065089 164.807251 
L 55.468066 166.564482 
L 55.871042 167.450082 
L 56.139693 167.54877 
L 56.408344 167.252878 
L 56.676995 166.564482 
L 57.079971 164.807251 
L 57.617273 161.158228 
L 58.2889 154.648783 
L 59.094853 144.36739 
L 60.169456 127.557695 
L 63.393267 74.529564 
L 64.199219 65.092128 
L 64.870847 59.425347 
L 65.408148 56.515502 
L 65.811125 55.337122 
L 66.079776 55.04123 
L 66.348427 55.139918 
L 66.617077 55.632494 
L 67.020054 57.101589 
L 67.557356 60.383902 
L 68.228983 66.47736 
L 69.034935 76.345431 
L 70.109539 92.790953 
L 73.736326 151.495598 
L 74.542279 160.022881 
L 75.213906 164.807251 
L 75.616882 166.564482 
L 76.019858 167.450082 
L 76.288509 167.54877 
L 76.55716 167.252878 
L 76.825811 166.564482 
L 77.228787 164.807251 
L 77.766089 161.158228 
L 78.437716 154.648783 
L 79.243669 144.36739 
L 80.318273 127.557695 
L 83.542083 74.529564 
L 84.348036 65.092128 
L 85.019663 59.425347 
L 85.556965 56.515502 
L 85.959941 55.337122 
L 86.228592 55.04123 
L 86.497243 55.139918 
L 86.765894 55.632494 
L 87.16887 57.101589 
L 87.706172 60.383902 
L 88.377799 66.47736 
L 89.183752 76.345431 
L 90.258355 92.790953 
L 93.885142 151.495598 
L 94.691095 160.022881 
L 95.362722 164.807251 
L 95.765699 166.564482 
L 96.168675 167.450082 
L 96.437326 167.54877 
L 96.705977 167.252878 
L 96.974628 166.564482 
L 97.377604 164.807251 
L 97.914906 161.158228 
L 98.586533 154.648783 
L 99.392485 144.36739 
L 100.467089 127.557695 
L 103.6909 74.529564 
L 104.496852 65.092128 
L 105.16848 59.425347 
L 105.705781 56.515502 
L 106.108758 55.337122 
L 106.377409 55.04123 
L 106.646059 55.139918 
L 106.91471 55.632494 
L 107.317687 57.101589 
L 107.854988 60.383902 
L 108.526616 66.47736 
L 109.332568 76.345431 
L 110.407172 92.790953 
L 114.033959 151.495598 
L 114.839911 160.022881 
L 115.511539 164.807251 
L 115.914515 166.564482 
L 116.317491 167.450082 
L 116.586142 167.54877 
L 116.854793 167.252878 
L 117.123444 166.564482 
L 117.52642 164.807251 
L 118.063722 161.158228 
L 118.735349 154.648783 
L 119.541302 144.36739 
L 120.615905 127.557695 
L 123.839716 74.529564 
L 124.645669 65.092128 
L 125.317296 59.425347 
L 125.854598 56.515502 
L 126.257574 55.337122 
L 126.526225 55.04123 
L 126.794876 55.139918 
L 127.063527 55.632494 
L 127.466503 57.101589 
L 128.003805 60.383902 
L 128.675432 66.47736 
L 129.481385 76.345431 
L 130.555988 92.790953 
L 134.182775 151.495598 
L 134.988728 160.022881 
L 135.660355 164.807251 
L 136.063331 166.564482 
L 136.466308 167.450082 
L 136.734959 167.54877 
L 137.003609 167.252878 
L 137.27226 166.564482 
L 137.675237 164.807251 
L 138.212538 161.158228 
L 138.884166 154.648783 
L 139.690118 144.36739 
L 140.764722 127.557695 
L 143.988533 74.529564 
L 144.794485 65.092128 
L 145.466112 59.425347 
L 146.003414 56.515502 
L 146.406391 55.337122 
L 146.675041 55.04123 
L 146.943692 55.139918 
L 147.212343 55.632494 
L 147.615319 57.101589 
L 148.152621 60.383902 
L 148.824248 66.47736 
L 149.630201 76.345431 
L 150.704805 92.790953 
L 154.331592 151.495598 
L 155.137544 160.022881 
L 155.809172 164.807251 
L 156.212148 166.564482 
L 156.615124 167.450082 
L 156.883775 167.54877 
L 157.152426 167.252878 
L 157.421077 166.564482 
L 157.824053 164.807251 
L 158.361355 161.158228 
L 159.032982 154.648783 
L 159.838935 144.36739 
L 160.913538 127.557695 
L 164.137349 74.529564 
L 164.943302 65.092128 
L 165.614929 59.425347 
L 166.152231 56.515502 
L 166.555207 55.337122 
L 166.823858 55.04123 
L 167.092509 55.139918 
L 167.36116 55.632494 
L 167.764136 57.101589 
L 168.301438 60.383902 
L 168.973065 66.47736 
L 169.779018 76.345431 
L 170.853621 92.790953 
L 174.480408 151.495598 
L 175.286361 160.022881 
L 175.957988 164.807251 
L 176.360964 166.564482 
L 176.763941 167.450082 
L 177.032591 167.54877 
L 177.301242 167.252878 
L 177.569893 166.564482 
L 177.97287 164.807251 
L 178.510171 161.158228 
L 179.181799 154.648783 
L 179.987751 144.36739 
L 181.062355 127.557695 
L 184.286165 74.529564 
L 185.092118 65.092128 
L 185.763745 59.425347 
L 186.301047 56.515502 
L 186.704023 55.337122 
L 186.972674 55.04123 
L 187.241325 55.139918 
L 187.509976 55.632494 
L 187.912952 57.101589 
L 188.450254 60.383902 
L 189.121881 66.47736 
L 189.927834 76.345431 
L 191.002438 92.790953 
L 194.629225 151.495598 
L 195.435177 160.022881 
L 196.106804 164.807251 
L 196.509781 166.564482 
L 196.912757 167.450082 
L 197.181408 167.54877 
L 197.450059 167.252878 
L 197.71871 166.564482 
L 198.121686 164.807251 
L 198.658988 161.158228 
L 199.330615 154.648783 
L 200.136568 144.36739 
L 201.211171 127.557695 
L 204.434982 74.529564 
L 205.240934 65.092128 
L 205.912562 59.425347 
L 206.449863 56.515502 
L 206.85284 55.337122 
L 207.121491 55.04123 
L 207.390142 55.139918 
L 207.658792 55.632494 
L 208.061769 57.101589 
L 208.599071 60.383902 
L 209.270698 66.47736 
L 210.07665 76.345431 
L 211.151254 92.790953 
L 214.778041 151.495598 
L 215.583994 160.022881 
L 216.255621 164.807251 
L 216.658597 166.564482 
L 217.061573 167.450082 
L 217.330224 167.54877 
L 217.598875 167.252878 
L 217.867526 166.564482 
L 218.270502 164.807251 
L 218.807804 161.158228 
L 219.479431 154.648783 
L 220.285384 144.36739 
L 221.359988 127.557695 
L 224.583798 74.529564 
L 225.389751 65.092128 
L 226.061378 59.425347 
L 226.59868 56.515502 
L 227.001656 55.337122 
L 227.270307 55.04123 
L 227.538958 55.139918 
L 227.807609 55.632494 
L 228.210585 57.101589 
L 228.747887 60.383902 
L 229.419514 66.47736 
L 230.225467 76.345431 
L 231.30007 92.790953 
L 234.926857 151.495598 
L 235.73281 160.022881 
L 236.404437 164.807251 
L 236.807414 166.564482 
L 237.21039 167.450082 
L 237.479041 167.54877 
L 237.747692 167.252878 
L 238.016343 166.564482 
L 238.419319 164.807251 
L 238.956621 161.158228 
L 239.628248 154.648783 
L 240.434201 144.36739 
L 241.508804 127.557695 
L 244.732615 74.529564 
L 245.538567 65.092128 
L 246.210195 59.425347 
L 246.747496 56.515502 
L 247.150473 55.337122 
L 247.419124 55.04123 
L 247.687774 55.139918 
L 247.956425 55.632494 
L 248.359402 57.101589 
L 248.896703 60.383902 
L 249.165354 62.567119 
L 249.165354 62.567119 
" style="fill:none;stroke:#008000;stroke-linecap:round;"/>
   </g>
   <g id="legend_1">
    <g id="patch_7">
     <path d="M 38.244646 45.462146 
L 167.545896 45.462146 
L 167.545896 7.834646 
L 38.244646 7.834646 
z
" style="fill:#ffffff;stroke:#000000;stroke-linejoin:miter;"/>
    </g>
    <g id="line2d_22">
     <path d="M 43.844646 14.313396 
L 55.044646 14.313396 
" style="fill:none;stroke:#00008b;stroke-linecap:round;"/>
    </g>
    <g id="line2d_23"/>
    <g id="text_9">
     <!-- PeriodicLoss with c = 0.5 -->
     <defs>
      <path id="BitstreamVeraSans-Roman-20"/>
      <path d="M 9.8125 72.90625 
L 19.671875 72.90625 
L 19.671875 8.296875 
L 55.171875 8.296875 
L 55.171875 0 
L 9.8125 0 
z
" id="BitstreamVeraSans-Roman-4c"/>
      <path d="M 30.609375 48.390625 
Q 23.390625 48.390625 19.1875 42.75 
Q 14.984375 37.109375 14.984375 27.296875 
Q 14.984375 17.484375 19.15625 11.84375 
Q 23.34375 6.203125 30.609375 6.203125 
Q 37.796875 6.203125 41.984375 11.859375 
Q 46.1875 17.53125 46.1875 27.296875 
Q 46.1875 37.015625 41.984375 42.703125 
Q 37.796875 48.390625 30.609375 48.390625 
M 30.609375 56 
Q 42.328125 56 49.015625 48.375 
Q 55.71875 40.765625 55.71875 27.296875 
Q 55.71875 13.875 49.015625 6.21875 
Q 42.328125 -1.421875 30.609375 -1.421875 
Q 18.84375 -1.421875 12.171875 6.21875 
Q 5.515625 13.875 5.515625 27.296875 
Q 5.515625 40.765625 12.171875 48.375 
Q 18.84375 56 30.609375 56 
" id="BitstreamVeraSans-Roman-6f"/>
      <path d="M 19.671875 64.796875 
L 19.671875 37.40625 
L 32.078125 37.40625 
Q 38.96875 37.40625 42.71875 40.96875 
Q 46.484375 44.53125 46.484375 51.125 
Q 46.484375 57.671875 42.71875 61.234375 
Q 38.96875 64.796875 32.078125 64.796875 
z
M 9.8125 72.90625 
L 32.078125 72.90625 
Q 44.34375 72.90625 50.609375 67.359375 
Q 56.890625 61.8125 56.890625 51.125 
Q 56.890625 40.328125 50.609375 34.8125 
Q 44.34375 29.296875 32.078125 29.296875 
L 19.671875 29.296875 
L 19.671875 0 
L 9.8125 0 
z
" id="BitstreamVeraSans-Roman-50"/>
      <path d="M 10.6875 12.40625 
L 21 12.40625 
L 21 0 
L 10.6875 0 
z
" id="BitstreamVeraSans-Roman-2e"/>
      <path d="M 9.421875 54.6875 
L 18.40625 54.6875 
L 18.40625 0 
L 9.421875 0 
z
M 9.421875 75.984375 
L 18.40625 75.984375 
L 18.40625 64.59375 
L 9.421875 64.59375 
z
" id="BitstreamVeraSans-Roman-69"/>
      <path d="M 54.890625 33.015625 
L 54.890625 0 
L 45.90625 0 
L 45.90625 32.71875 
Q 45.90625 40.484375 42.875 44.328125 
Q 39.84375 48.1875 33.796875 48.1875 
Q 26.515625 48.1875 22.3125 43.546875 
Q 18.109375 38.921875 18.109375 30.90625 
L 18.109375 0 
L 9.078125 0 
L 9.078125 75.984375 
L 18.109375 75.984375 
L 18.109375 46.1875 
Q 21.34375 51.125 25.703125 53.5625 
Q 30.078125 56 35.796875 56 
Q 45.21875 56 50.046875 50.171875 
Q 54.890625 44.34375 54.890625 33.015625 
" id="BitstreamVeraSans-Roman-68"/>
      <path d="M 10.59375 45.40625 
L 73.1875 45.40625 
L 73.1875 37.203125 
L 10.59375 37.203125 
z
M 10.59375 25.484375 
L 73.1875 25.484375 
L 73.1875 17.1875 
L 10.59375 17.1875 
z
" id="BitstreamVeraSans-Roman-3d"/>
      <path d="M 4.203125 54.6875 
L 13.1875 54.6875 
L 24.421875 12.015625 
L 35.59375 54.6875 
L 46.1875 54.6875 
L 57.421875 12.015625 
L 68.609375 54.6875 
L 77.59375 54.6875 
L 63.28125 0 
L 52.6875 0 
L 40.921875 44.828125 
L 29.109375 0 
L 18.5 0 
z
" id="BitstreamVeraSans-Roman-77"/>
      <path d="M 56.203125 29.59375 
L 56.203125 25.203125 
L 14.890625 25.203125 
Q 15.484375 15.921875 20.484375 11.0625 
Q 25.484375 6.203125 34.421875 6.203125 
Q 39.59375 6.203125 44.453125 7.46875 
Q 49.3125 8.734375 54.109375 11.28125 
L 54.109375 2.78125 
Q 49.265625 0.734375 44.1875 -0.34375 
Q 39.109375 -1.421875 33.890625 -1.421875 
Q 20.796875 -1.421875 13.15625 6.1875 
Q 5.515625 13.8125 5.515625 26.8125 
Q 5.515625 40.234375 12.765625 48.109375 
Q 20.015625 56 32.328125 56 
Q 43.359375 56 49.78125 48.890625 
Q 56.203125 41.796875 56.203125 29.59375 
M 47.21875 32.234375 
Q 47.125 39.59375 43.09375 43.984375 
Q 39.0625 48.390625 32.421875 48.390625 
Q 24.90625 48.390625 20.390625 44.140625 
Q 15.875 39.890625 15.1875 32.171875 
z
" id="BitstreamVeraSans-Roman-65"/>
      <path d="M 45.40625 46.390625 
L 45.40625 75.984375 
L 54.390625 75.984375 
L 54.390625 0 
L 45.40625 0 
L 45.40625 8.203125 
Q 42.578125 3.328125 38.25 0.953125 
Q 33.9375 -1.421875 27.875 -1.421875 
Q 17.96875 -1.421875 11.734375 6.484375 
Q 5.515625 14.40625 5.515625 27.296875 
Q 5.515625 40.1875 11.734375 48.09375 
Q 17.96875 56 27.875 56 
Q 33.9375 56 38.25 53.625 
Q 42.578125 51.265625 45.40625 46.390625 
M 14.796875 27.296875 
Q 14.796875 17.390625 18.875 11.75 
Q 22.953125 6.109375 30.078125 6.109375 
Q 37.203125 6.109375 41.296875 11.75 
Q 45.40625 17.390625 45.40625 27.296875 
Q 45.40625 37.203125 41.296875 42.84375 
Q 37.203125 48.484375 30.078125 48.484375 
Q 22.953125 48.484375 18.875 42.84375 
Q 14.796875 37.203125 14.796875 27.296875 
" id="BitstreamVeraSans-Roman-64"/>
      <path d="M 18.3125 70.21875 
L 18.3125 54.6875 
L 36.8125 54.6875 
L 36.8125 47.703125 
L 18.3125 47.703125 
L 18.3125 18.015625 
Q 18.3125 11.328125 20.140625 9.421875 
Q 21.96875 7.515625 27.59375 7.515625 
L 36.8125 7.515625 
L 36.8125 0 
L 27.59375 0 
Q 17.1875 0 13.234375 3.875 
Q 9.28125 7.765625 9.28125 18.015625 
L 9.28125 47.703125 
L 2.6875 47.703125 
L 2.6875 54.6875 
L 9.28125 54.6875 
L 9.28125 70.21875 
z
" id="BitstreamVeraSans-Roman-74"/>
      <path d="M 41.109375 46.296875 
Q 39.59375 47.171875 37.8125 47.578125 
Q 36.03125 48 33.890625 48 
Q 26.265625 48 22.1875 43.046875 
Q 18.109375 38.09375 18.109375 28.8125 
L 18.109375 0 
L 9.078125 0 
L 9.078125 54.6875 
L 18.109375 54.6875 
L 18.109375 46.1875 
Q 20.953125 51.171875 25.484375 53.578125 
Q 30.03125 56 36.53125 56 
Q 37.453125 56 38.578125 55.875 
Q 39.703125 55.765625 41.0625 55.515625 
z
" id="BitstreamVeraSans-Roman-72"/>
      <path d="M 44.28125 53.078125 
L 44.28125 44.578125 
Q 40.484375 46.53125 36.375 47.5 
Q 32.28125 48.484375 27.875 48.484375 
Q 21.1875 48.484375 17.84375 46.4375 
Q 14.5 44.390625 14.5 40.28125 
Q 14.5 37.15625 16.890625 35.375 
Q 19.28125 33.59375 26.515625 31.984375 
L 29.59375 31.296875 
Q 39.15625 29.25 43.1875 25.515625 
Q 47.21875 21.78125 47.21875 15.09375 
Q 47.21875 7.46875 41.1875 3.015625 
Q 35.15625 -1.421875 24.609375 -1.421875 
Q 20.21875 -1.421875 15.453125 -0.5625 
Q 10.6875 0.296875 5.421875 2 
L 5.421875 11.28125 
Q 10.40625 8.6875 15.234375 7.390625 
Q 20.0625 6.109375 24.8125 6.109375 
Q 31.15625 6.109375 34.5625 8.28125 
Q 37.984375 10.453125 37.984375 14.40625 
Q 37.984375 18.0625 35.515625 20.015625 
Q 33.0625 21.96875 24.703125 23.78125 
L 21.578125 24.515625 
Q 13.234375 26.265625 9.515625 29.90625 
Q 5.8125 33.546875 5.8125 39.890625 
Q 5.8125 47.609375 11.28125 51.796875 
Q 16.75 56 26.8125 56 
Q 31.78125 56 36.171875 55.265625 
Q 40.578125 54.546875 44.28125 53.078125 
" id="BitstreamVeraSans-Roman-73"/>
      <path d="M 48.78125 52.59375 
L 48.78125 44.1875 
Q 44.96875 46.296875 41.140625 47.34375 
Q 37.3125 48.390625 33.40625 48.390625 
Q 24.65625 48.390625 19.8125 42.84375 
Q 14.984375 37.3125 14.984375 27.296875 
Q 14.984375 17.28125 19.8125 11.734375 
Q 24.65625 6.203125 33.40625 6.203125 
Q 37.3125 6.203125 41.140625 7.25 
Q 44.96875 8.296875 48.78125 10.40625 
L 48.78125 2.09375 
Q 45.015625 0.34375 40.984375 -0.53125 
Q 36.96875 -1.421875 32.421875 -1.421875 
Q 20.0625 -1.421875 12.78125 6.34375 
Q 5.515625 14.109375 5.515625 27.296875 
Q 5.515625 40.671875 12.859375 48.328125 
Q 20.21875 56 33.015625 56 
Q 37.15625 56 41.109375 55.140625 
Q 45.0625 54.296875 48.78125 52.59375 
" id="BitstreamVeraSans-Roman-63"/>
     </defs>
     <g transform="translate(63.8446456693 17.1133956693)scale(0.08 -0.08)">
      <use xlink:href="#BitstreamVeraSans-Roman-50"/>
      <use x="60.255859375" xlink:href="#BitstreamVeraSans-Roman-65"/>
      <use x="121.779296875" xlink:href="#BitstreamVeraSans-Roman-72"/>
      <use x="162.892578125" xlink:href="#BitstreamVeraSans-Roman-69"/>
      <use x="190.67578125" xlink:href="#BitstreamVeraSans-Roman-6f"/>
      <use x="251.857421875" xlink:href="#BitstreamVeraSans-Roman-64"/>
      <use x="315.333984375" xlink:href="#BitstreamVeraSans-Roman-69"/>
      <use x="343.1171875" xlink:href="#BitstreamVeraSans-Roman-63"/>
      <use x="398.09765625" xlink:href="#BitstreamVeraSans-Roman-4c"/>
      <use x="453.794921875" xlink:href="#BitstreamVeraSans-Roman-6f"/>
      <use x="514.9765625" xlink:href="#BitstreamVeraSans-Roman-73"/>
      <use x="567.076171875" xlink:href="#BitstreamVeraSans-Roman-73"/>
      <use x="619.17578125" xlink:href="#BitstreamVeraSans-Roman-20"/>
      <use x="650.962890625" xlink:href="#BitstreamVeraSans-Roman-77"/>
      <use x="732.75" xlink:href="#BitstreamVeraSans-Roman-69"/>
      <use x="760.533203125" xlink:href="#BitstreamVeraSans-Roman-74"/>
      <use x="799.7421875" xlink:href="#BitstreamVeraSans-Roman-68"/>
      <use x="863.12109375" xlink:href="#BitstreamVeraSans-Roman-20"/>
      <use x="894.908203125" xlink:href="#BitstreamVeraSans-Roman-63"/>
      <use x="949.888671875" xlink:href="#BitstreamVeraSans-Roman-20"/>
      <use x="981.67578125" xlink:href="#BitstreamVeraSans-Roman-3d"/>
      <use x="1065.46484375" xlink:href="#BitstreamVeraSans-Roman-20"/>
      <use x="1097.25195312" xlink:href="#BitstreamVeraSans-Roman-30"/>
      <use x="1160.875" xlink:href="#BitstreamVeraSans-Roman-2e"/>
      <use x="1192.66210938" xlink:href="#BitstreamVeraSans-Roman-35"/>
     </g>
    </g>
    <g id="line2d_24">
     <path d="M 43.844646 26.055896 
L 55.044646 26.055896 
" style="fill:none;stroke:#cc0000;stroke-linecap:round;"/>
    </g>
    <g id="line2d_25"/>
    <g id="text_10">
     <!-- PeriodicLoss with c = 1.0 -->
     <defs>
      <path d="M 12.40625 8.296875 
L 28.515625 8.296875 
L 28.515625 63.921875 
L 10.984375 60.40625 
L 10.984375 69.390625 
L 28.421875 72.90625 
L 38.28125 72.90625 
L 38.28125 8.296875 
L 54.390625 8.296875 
L 54.390625 0 
L 12.40625 0 
z
" id="BitstreamVeraSans-Roman-31"/>
     </defs>
     <g transform="translate(63.8446456693 28.8558956693)scale(0.08 -0.08)">
      <use xlink:href="#BitstreamVeraSans-Roman-50"/>
      <use x="60.255859375" xlink:href="#BitstreamVeraSans-Roman-65"/>
      <use x="121.779296875" xlink:href="#BitstreamVeraSans-Roman-72"/>
      <use x="162.892578125" xlink:href="#BitstreamVeraSans-Roman-69"/>
      <use x="190.67578125" xlink:href="#BitstreamVeraSans-Roman-6f"/>
      <use x="251.857421875" xlink:href="#BitstreamVeraSans-Roman-64"/>
      <use x="315.333984375" xlink:href="#BitstreamVeraSans-Roman-69"/>
      <use x="343.1171875" xlink:href="#BitstreamVeraSans-Roman-63"/>
      <use x="398.09765625" xlink:href="#BitstreamVeraSans-Roman-4c"/>
      <use x="453.794921875" xlink:href="#BitstreamVeraSans-Roman-6f"/>
      <use x="514.9765625" xlink:href="#BitstreamVeraSans-Roman-73"/>
      <use x="567.076171875" xlink:href="#BitstreamVeraSans-Roman-73"/>
      <use x="619.17578125" xlink:href="#BitstreamVeraSans-Roman-20"/>
      <use x="650.962890625" xlink:href="#BitstreamVeraSans-Roman-77"/>
      <use x="732.75" xlink:href="#BitstreamVeraSans-Roman-69"/>
      <use x="760.533203125" xlink:href="#BitstreamVeraSans-Roman-74"/>
      <use x="799.7421875" xlink:href="#BitstreamVeraSans-Roman-68"/>
      <use x="863.12109375" xlink:href="#BitstreamVeraSans-Roman-20"/>
      <use x="894.908203125" xlink:href="#BitstreamVeraSans-Roman-63"/>
      <use x="949.888671875" xlink:href="#BitstreamVeraSans-Roman-20"/>
      <use x="981.67578125" xlink:href="#BitstreamVeraSans-Roman-3d"/>
      <use x="1065.46484375" xlink:href="#BitstreamVeraSans-Roman-20"/>
      <use x="1097.25195312" xlink:href="#BitstreamVeraSans-Roman-31"/>
      <use x="1160.875" xlink:href="#BitstreamVeraSans-Roman-2e"/>
      <use x="1192.66210938" xlink:href="#BitstreamVeraSans-Roman-30"/>
     </g>
    </g>
    <g id="line2d_26">
     <path d="M 43.844646 37.798396 
L 55.044646 37.798396 
" style="fill:none;stroke:#008000;stroke-linecap:round;"/>
    </g>
    <g id="line2d_27"/>
    <g id="text_11">
     <!-- PeriodicLoss with c = 1.5 -->
     <g transform="translate(63.8446456693 40.5983956693)scale(0.08 -0.08)">
      <use xlink:href="#BitstreamVeraSans-Roman-50"/>
      <use x="60.255859375" xlink:href="#BitstreamVeraSans-Roman-65"/>
      <use x="121.779296875" xlink:href="#BitstreamVeraSans-Roman-72"/>
      <use x="162.892578125" xlink:href="#BitstreamVeraSans-Roman-69"/>
      <use x="190.67578125" xlink:href="#BitstreamVeraSans-Roman-6f"/>
      <use x="251.857421875" xlink:href="#BitstreamVeraSans-Roman-64"/>
      <use x="315.333984375" xlink:href="#BitstreamVeraSans-Roman-69"/>
      <use x="343.1171875" xlink:href="#BitstreamVeraSans-Roman-63"/>
      <use x="398.09765625" xlink:href="#BitstreamVeraSans-Roman-4c"/>
      <use x="453.794921875" xlink:href="#BitstreamVeraSans-Roman-6f"/>
      <use x="514.9765625" xlink:href="#BitstreamVeraSans-Roman-73"/>
      <use x="567.076171875" xlink:href="#BitstreamVeraSans-Roman-73"/>
      <use x="619.17578125" xlink:href="#BitstreamVeraSans-Roman-20"/>
      <use x="650.962890625" xlink:href="#BitstreamVeraSans-Roman-77"/>
      <use x="732.75" xlink:href="#BitstreamVeraSans-Roman-69"/>
      <use x="760.533203125" xlink:href="#BitstreamVeraSans-Roman-74"/>
      <use x="799.7421875" xlink:href="#BitstreamVeraSans-Roman-68"/>
      <use x="863.12109375" xlink:href="#BitstreamVeraSans-Roman-20"/>
      <use x="894.908203125" xlink:href="#BitstreamVeraSans-Roman-63"/>
      <use x="949.888671875" xlink:href="#BitstreamVeraSans-Roman-20"/>
      <use x="981.67578125" xlink:href="#BitstreamVeraSans-Roman-3d"/>
      <use x="1065.46484375" xlink:href="#BitstreamVeraSans-Roman-20"/>
      <use x="1097.25195312" xlink:href="#BitstreamVeraSans-Roman-31"/>
      <use x="1160.875" xlink:href="#BitstreamVeraSans-Roman-2e"/>
      <use x="1192.66210938" xlink:href="#BitstreamVeraSans-Roman-35"/>
     </g>
    </g>
   </g>
  </g>
 </g>
 <defs>
  <clipPath id="p16362d73c2">
   <rect height="214.920708661" width="214.920708661" x="34.2446456693" y="3.83464566929"/>
  </clipPath>
 </defs>
</svg>
