<?xml version="1.0" encoding="utf-8" standalone="no"?>
<!DOCTYPE svg PUBLIC "-//W3C//DTD SVG 1.1//EN"
  "http://www.w3.org/Graphics/SVG/1.1/DTD/svg11.dtd">
<!-- Created with matplotlib (http://matplotlib.org/) -->
<svg height="252pt" version="1.1" viewBox="0 0 252 252" width="252pt" xmlns="http://www.w3.org/2000/svg" xmlns:xlink="http://www.w3.org/1999/xlink">
 <defs>
  <style type="text/css">
*{stroke-linecap:butt;stroke-linejoin:round;stroke-miterlimit:100000;}
  </style>
 </defs>
 <g id="figure_1">
  <g id="patch_1">
   <path d="M 0 252 
L 252 252 
L 252 0 
L 0 0 
L 0 252 
z
" style="fill:none;"/>
  </g>
  <g id="axes_1">
   <g id="patch_2">
    <path d="M 39.104646 214.907854 
L 242.730354 214.907854 
L 242.730354 11.282146 
L 39.104646 11.282146 
z
" style="fill:#ffffff;"/>
   </g>
   <g id="matplotlib.axis_1">
    <g id="xtick_1">
     <g id="line2d_1">
      <path clip-path="url(#pbaa1ae7fa8)" d="M 39.104646 214.907854 
L 39.104646 11.282146 
" style="fill:none;stroke:#000000;stroke-dasharray:1.000000,3.000000;stroke-dashoffset:0.0;stroke-width:0.5;"/>
     </g>
     <g id="line2d_2">
      <defs>
       <path d="M 0 0 
L 0 -4 
" id="mc9900597c6" style="stroke:#000000;stroke-width:0.5;"/>
      </defs>
      <g>
       <use style="stroke:#000000;stroke-width:0.5;" x="39.1046456693" xlink:href="#mc9900597c6" y="214.907854331"/>
      </g>
     </g>
     <g id="line2d_3">
      <defs>
       <path d="M 0 0 
L 0 4 
" id="mbf6e1ec402" style="stroke:#000000;stroke-width:0.5;"/>
      </defs>
      <g>
       <use style="stroke:#000000;stroke-width:0.5;" x="39.1046456693" xlink:href="#mbf6e1ec402" y="11.2821456693"/>
      </g>
     </g>
     <g id="text_1">
      <!-- -1.0 -->
      <defs>
       <path d="M 31.78125 66.40625 
Q 24.171875 66.40625 20.328125 58.90625 
Q 16.5 51.421875 16.5 36.375 
Q 16.5 21.390625 20.328125 13.890625 
Q 24.171875 6.390625 31.78125 6.390625 
Q 39.453125 6.390625 43.28125 13.890625 
Q 47.125 21.390625 47.125 36.375 
Q 47.125 51.421875 43.28125 58.90625 
Q 39.453125 66.40625 31.78125 66.40625 
M 31.78125 74.21875 
Q 44.046875 74.21875 50.515625 64.515625 
Q 56.984375 54.828125 56.984375 36.375 
Q 56.984375 17.96875 50.515625 8.265625 
Q 44.046875 -1.421875 31.78125 -1.421875 
Q 19.53125 -1.421875 13.0625 8.265625 
Q 6.59375 17.96875 6.59375 36.375 
Q 6.59375 54.828125 13.0625 64.515625 
Q 19.53125 74.21875 31.78125 74.21875 
" id="BitstreamVeraSans-Roman-30"/>
       <path d="M 12.40625 8.296875 
L 28.515625 8.296875 
L 28.515625 63.921875 
L 10.984375 60.40625 
L 10.984375 69.390625 
L 28.421875 72.90625 
L 38.28125 72.90625 
L 38.28125 8.296875 
L 54.390625 8.296875 
L 54.390625 0 
L 12.40625 0 
z
" id="BitstreamVeraSans-Roman-31"/>
       <path d="M 10.6875 12.40625 
L 21 12.40625 
L 21 0 
L 10.6875 0 
z
" id="BitstreamVeraSans-Roman-2e"/>
       <path d="M 4.890625 31.390625 
L 31.203125 31.390625 
L 31.203125 23.390625 
L 4.890625 23.390625 
z
" id="BitstreamVeraSans-Roman-2d"/>
      </defs>
      <g transform="translate(31.3002706693 224.986604331)scale(0.08 -0.08)">
       <use xlink:href="#BitstreamVeraSans-Roman-2d"/>
       <use x="36.083984375" xlink:href="#BitstreamVeraSans-Roman-31"/>
       <use x="99.70703125" xlink:href="#BitstreamVeraSans-Roman-2e"/>
       <use x="131.494140625" xlink:href="#BitstreamVeraSans-Roman-30"/>
      </g>
     </g>
    </g>
    <g id="xtick_2">
     <g id="line2d_4">
      <path clip-path="url(#pbaa1ae7fa8)" d="M 90.011073 214.907854 
L 90.011073 11.282146 
" style="fill:none;stroke:#000000;stroke-dasharray:1.000000,3.000000;stroke-dashoffset:0.0;stroke-width:0.5;"/>
     </g>
     <g id="line2d_5">
      <g>
       <use style="stroke:#000000;stroke-width:0.5;" x="90.0110728346" xlink:href="#mc9900597c6" y="214.907854331"/>
      </g>
     </g>
     <g id="line2d_6">
      <g>
       <use style="stroke:#000000;stroke-width:0.5;" x="90.0110728346" xlink:href="#mbf6e1ec402" y="11.2821456693"/>
      </g>
     </g>
     <g id="text_2">
      <!-- -0.5 -->
      <defs>
       <path d="M 10.796875 72.90625 
L 49.515625 72.90625 
L 49.515625 64.59375 
L 19.828125 64.59375 
L 19.828125 46.734375 
Q 21.96875 47.46875 24.109375 47.828125 
Q 26.265625 48.1875 28.421875 48.1875 
Q 40.625 48.1875 47.75 41.5 
Q 54.890625 34.8125 54.890625 23.390625 
Q 54.890625 11.625 47.5625 5.09375 
Q 40.234375 -1.421875 26.90625 -1.421875 
Q 22.3125 -1.421875 17.546875 -0.640625 
Q 12.796875 0.140625 7.71875 1.703125 
L 7.71875 11.625 
Q 12.109375 9.234375 16.796875 8.0625 
Q 21.484375 6.890625 26.703125 6.890625 
Q 35.15625 6.890625 40.078125 11.328125 
Q 45.015625 15.765625 45.015625 23.390625 
Q 45.015625 31 40.078125 35.4375 
Q 35.15625 39.890625 26.703125 39.890625 
Q 22.75 39.890625 18.8125 39.015625 
Q 14.890625 38.140625 10.796875 36.28125 
z
" id="BitstreamVeraSans-Roman-35"/>
      </defs>
      <g transform="translate(82.2066978346 224.986604331)scale(0.08 -0.08)">
       <use xlink:href="#BitstreamVeraSans-Roman-2d"/>
       <use x="36.083984375" xlink:href="#BitstreamVeraSans-Roman-30"/>
       <use x="99.70703125" xlink:href="#BitstreamVeraSans-Roman-2e"/>
       <use x="131.494140625" xlink:href="#BitstreamVeraSans-Roman-35"/>
      </g>
     </g>
    </g>
    <g id="xtick_3">
     <g id="line2d_7">
      <path clip-path="url(#pbaa1ae7fa8)" d="M 140.9175 214.907854 
L 140.9175 11.282146 
" style="fill:none;stroke:#000000;stroke-dasharray:1.000000,3.000000;stroke-dashoffset:0.0;stroke-width:0.5;"/>
     </g>
     <g id="line2d_8">
      <g>
       <use style="stroke:#000000;stroke-width:0.5;" x="140.9175" xlink:href="#mc9900597c6" y="214.907854331"/>
      </g>
     </g>
     <g id="line2d_9">
      <g>
       <use style="stroke:#000000;stroke-width:0.5;" x="140.9175" xlink:href="#mbf6e1ec402" y="11.2821456693"/>
      </g>
     </g>
     <g id="text_3">
      <!-- 0.0 -->
      <g transform="translate(134.55625 224.986604331)scale(0.08 -0.08)">
       <use xlink:href="#BitstreamVeraSans-Roman-30"/>
       <use x="63.623046875" xlink:href="#BitstreamVeraSans-Roman-2e"/>
       <use x="95.41015625" xlink:href="#BitstreamVeraSans-Roman-30"/>
      </g>
     </g>
    </g>
    <g id="xtick_4">
     <g id="line2d_10">
      <path clip-path="url(#pbaa1ae7fa8)" d="M 191.823927 214.907854 
L 191.823927 11.282146 
" style="fill:none;stroke:#000000;stroke-dasharray:1.000000,3.000000;stroke-dashoffset:0.0;stroke-width:0.5;"/>
     </g>
     <g id="line2d_11">
      <g>
       <use style="stroke:#000000;stroke-width:0.5;" x="191.823927165" xlink:href="#mc9900597c6" y="214.907854331"/>
      </g>
     </g>
     <g id="line2d_12">
      <g>
       <use style="stroke:#000000;stroke-width:0.5;" x="191.823927165" xlink:href="#mbf6e1ec402" y="11.2821456693"/>
      </g>
     </g>
     <g id="text_4">
      <!-- 0.5 -->
      <g transform="translate(185.462677165 224.986604331)scale(0.08 -0.08)">
       <use xlink:href="#BitstreamVeraSans-Roman-30"/>
       <use x="63.623046875" xlink:href="#BitstreamVeraSans-Roman-2e"/>
       <use x="95.41015625" xlink:href="#BitstreamVeraSans-Roman-35"/>
      </g>
     </g>
    </g>
    <g id="xtick_5">
     <g id="line2d_13">
      <path clip-path="url(#pbaa1ae7fa8)" d="M 242.730354 214.907854 
L 242.730354 11.282146 
" style="fill:none;stroke:#000000;stroke-dasharray:1.000000,3.000000;stroke-dashoffset:0.0;stroke-width:0.5;"/>
     </g>
     <g id="line2d_14">
      <g>
       <use style="stroke:#000000;stroke-width:0.5;" x="242.730354331" xlink:href="#mc9900597c6" y="214.907854331"/>
      </g>
     </g>
     <g id="line2d_15">
      <g>
       <use style="stroke:#000000;stroke-width:0.5;" x="242.730354331" xlink:href="#mbf6e1ec402" y="11.2821456693"/>
      </g>
     </g>
     <g id="text_5">
      <!-- 1.0 -->
      <g transform="translate(236.369104331 224.986604331)scale(0.08 -0.08)">
       <use xlink:href="#BitstreamVeraSans-Roman-31"/>
       <use x="63.623046875" xlink:href="#BitstreamVeraSans-Roman-2e"/>
       <use x="95.41015625" xlink:href="#BitstreamVeraSans-Roman-30"/>
      </g>
     </g>
    </g>
    <g id="text_6">
     <!-- $\hat{y} - y$ -->
     <defs>
      <path d="M 13.484375 53.8125 
L 11.53125 55.90625 
L 25 69.390625 
L 38.375 55.90625 
L 36.375 53.8125 
L 25 63.8125 
z
" id="Cmr10-5e"/>
      <path d="M 10.203125 23 
Q 9.375 23 8.828125 23.625 
Q 8.296875 24.265625 8.296875 25 
Q 8.296875 25.734375 8.828125 26.359375 
Q 9.375 27 10.203125 27 
L 67.578125 27 
Q 68.359375 27 68.875 26.359375 
Q 69.390625 25.734375 69.390625 25 
Q 69.390625 24.265625 68.875 23.625 
Q 68.359375 23 67.578125 23 
z
" id="Cmsy10-a1"/>
      <path d="M 8.40625 -14.3125 
Q 10.5 -17.921875 15.71875 -17.921875 
Q 20.453125 -17.921875 23.921875 -14.59375 
Q 27.390625 -11.28125 29.515625 -6.5625 
Q 31.640625 -1.859375 32.8125 3.078125 
Q 28.375 -1.125 23.1875 -1.125 
Q 19.234375 -1.125 16.453125 0.234375 
Q 13.671875 1.609375 12.125 4.3125 
Q 10.59375 7.03125 10.59375 10.890625 
Q 10.59375 14.15625 11.46875 17.59375 
Q 12.359375 21.046875 13.9375 25.265625 
Q 15.53125 29.5 16.703125 32.625 
Q 18.015625 36.28125 18.015625 38.625 
Q 18.015625 41.609375 15.828125 41.609375 
Q 11.859375 41.609375 9.296875 37.53125 
Q 6.734375 33.453125 5.515625 28.421875 
Q 5.328125 27.78125 4.6875 27.78125 
L 3.515625 27.78125 
Q 2.6875 27.78125 2.6875 28.71875 
L 2.6875 29 
Q 4.296875 34.96875 7.609375 39.578125 
Q 10.9375 44.1875 16.015625 44.1875 
Q 19.578125 44.1875 22.046875 41.84375 
Q 24.515625 39.5 24.515625 35.890625 
Q 24.515625 34.03125 23.6875 31.984375 
Q 23.25 30.765625 21.6875 26.65625 
Q 20.125 22.5625 19.28125 19.875 
Q 18.453125 17.1875 17.921875 14.59375 
Q 17.390625 12.015625 17.390625 9.421875 
Q 17.390625 6.109375 18.796875 3.8125 
Q 20.21875 1.515625 23.296875 1.515625 
Q 29.5 1.515625 34.421875 9.078125 
L 42 39.890625 
Q 42.328125 41.21875 43.546875 42.15625 
Q 44.78125 43.109375 46.1875 43.109375 
Q 47.40625 43.109375 48.3125 42.328125 
Q 49.21875 41.546875 49.21875 40.28125 
Q 49.21875 39.703125 49.125 39.5 
L 39.203125 -0.296875 
Q 37.890625 -5.421875 34.375 -10.109375 
Q 30.859375 -14.796875 25.90625 -17.65625 
Q 20.953125 -20.515625 15.578125 -20.515625 
Q 12.984375 -20.515625 10.4375 -19.5 
Q 7.90625 -18.5 6.34375 -16.5 
Q 4.78125 -14.5 4.78125 -11.8125 
Q 4.78125 -9.078125 6.390625 -7.078125 
Q 8.015625 -5.078125 10.6875 -5.078125 
Q 12.3125 -5.078125 13.40625 -6.078125 
Q 14.5 -7.078125 14.5 -8.6875 
Q 14.5 -10.984375 12.78125 -12.6875 
Q 11.078125 -14.40625 8.796875 -14.40625 
Q 8.6875 -14.359375 8.59375 -14.328125 
Q 8.5 -14.3125 8.40625 -14.3125 
" id="Cmmi10-79"/>
     </defs>
     <g transform="translate(129.3125 239.986291831)scale(0.11 -0.11)">
      <use transform="translate(5.724609375 3.609375)" xlink:href="#Cmr10-5e"/>
      <use transform="translate(0.0 0.734375)" xlink:href="#Cmmi10-79"/>
      <use transform="translate(66.58203125 0.734375)" xlink:href="#Cmsy10-a1"/>
      <use transform="translate(161.826171875 0.734375)" xlink:href="#Cmmi10-79"/>
     </g>
    </g>
   </g>
   <g id="matplotlib.axis_2">
    <g id="ytick_1">
     <g id="line2d_16">
      <path clip-path="url(#pbaa1ae7fa8)" d="M 39.104646 214.907854 
L 242.730354 214.907854 
" style="fill:none;stroke:#000000;stroke-dasharray:1.000000,3.000000;stroke-dashoffset:0.0;stroke-width:0.5;"/>
     </g>
     <g id="line2d_17">
      <defs>
       <path d="M 0 0 
L 4 0 
" id="mb520031a5f" style="stroke:#000000;stroke-width:0.5;"/>
      </defs>
      <g>
       <use style="stroke:#000000;stroke-width:0.5;" x="39.1046456693" xlink:href="#mb520031a5f" y="214.907854331"/>
      </g>
     </g>
     <g id="line2d_18">
      <defs>
       <path d="M 0 0 
L -4 0 
" id="m1b6f08dfcf" style="stroke:#000000;stroke-width:0.5;"/>
      </defs>
      <g>
       <use style="stroke:#000000;stroke-width:0.5;" x="242.730354331" xlink:href="#m1b6f08dfcf" y="214.907854331"/>
      </g>
     </g>
     <g id="text_7">
      <!-- 0.0 -->
      <g transform="translate(22.3821456693 217.115354331)scale(0.08 -0.08)">
       <use xlink:href="#BitstreamVeraSans-Roman-30"/>
       <use x="63.623046875" xlink:href="#BitstreamVeraSans-Roman-2e"/>
       <use x="95.41015625" xlink:href="#BitstreamVeraSans-Roman-30"/>
      </g>
     </g>
    </g>
    <g id="ytick_2">
     <g id="line2d_19">
      <path clip-path="url(#pbaa1ae7fa8)" d="M 39.104646 164.001427 
L 242.730354 164.001427 
" style="fill:none;stroke:#000000;stroke-dasharray:1.000000,3.000000;stroke-dashoffset:0.0;stroke-width:0.5;"/>
     </g>
     <g id="line2d_20">
      <g>
       <use style="stroke:#000000;stroke-width:0.5;" x="39.1046456693" xlink:href="#mb520031a5f" y="164.001427165"/>
      </g>
     </g>
     <g id="line2d_21">
      <g>
       <use style="stroke:#000000;stroke-width:0.5;" x="242.730354331" xlink:href="#m1b6f08dfcf" y="164.001427165"/>
      </g>
     </g>
     <g id="text_8">
      <!-- 0.5 -->
      <g transform="translate(22.3821456693 166.208927165)scale(0.08 -0.08)">
       <use xlink:href="#BitstreamVeraSans-Roman-30"/>
       <use x="63.623046875" xlink:href="#BitstreamVeraSans-Roman-2e"/>
       <use x="95.41015625" xlink:href="#BitstreamVeraSans-Roman-35"/>
      </g>
     </g>
    </g>
    <g id="ytick_3">
     <g id="line2d_22">
      <path clip-path="url(#pbaa1ae7fa8)" d="M 39.104646 113.095 
L 242.730354 113.095 
" style="fill:none;stroke:#000000;stroke-dasharray:1.000000,3.000000;stroke-dashoffset:0.0;stroke-width:0.5;"/>
     </g>
     <g id="line2d_23">
      <g>
       <use style="stroke:#000000;stroke-width:0.5;" x="39.1046456693" xlink:href="#mb520031a5f" y="113.095"/>
      </g>
     </g>
     <g id="line2d_24">
      <g>
       <use style="stroke:#000000;stroke-width:0.5;" x="242.730354331" xlink:href="#m1b6f08dfcf" y="113.095"/>
      </g>
     </g>
     <g id="text_9">
      <!-- 1.0 -->
      <g transform="translate(22.3821456693 115.3025)scale(0.08 -0.08)">
       <use xlink:href="#BitstreamVeraSans-Roman-31"/>
       <use x="63.623046875" xlink:href="#BitstreamVeraSans-Roman-2e"/>
       <use x="95.41015625" xlink:href="#BitstreamVeraSans-Roman-30"/>
      </g>
     </g>
    </g>
    <g id="ytick_4">
     <g id="line2d_25">
      <path clip-path="url(#pbaa1ae7fa8)" d="M 39.104646 62.188573 
L 242.730354 62.188573 
" style="fill:none;stroke:#000000;stroke-dasharray:1.000000,3.000000;stroke-dashoffset:0.0;stroke-width:0.5;"/>
     </g>
     <g id="line2d_26">
      <g>
       <use style="stroke:#000000;stroke-width:0.5;" x="39.1046456693" xlink:href="#mb520031a5f" y="62.1885728346"/>
      </g>
     </g>
     <g id="line2d_27">
      <g>
       <use style="stroke:#000000;stroke-width:0.5;" x="242.730354331" xlink:href="#m1b6f08dfcf" y="62.1885728346"/>
      </g>
     </g>
     <g id="text_10">
      <!-- 1.5 -->
      <g transform="translate(22.3821456693 64.3960728346)scale(0.08 -0.08)">
       <use xlink:href="#BitstreamVeraSans-Roman-31"/>
       <use x="63.623046875" xlink:href="#BitstreamVeraSans-Roman-2e"/>
       <use x="95.41015625" xlink:href="#BitstreamVeraSans-Roman-35"/>
      </g>
     </g>
    </g>
    <g id="ytick_5">
     <g id="line2d_28">
      <path clip-path="url(#pbaa1ae7fa8)" d="M 39.104646 11.282146 
L 242.730354 11.282146 
" style="fill:none;stroke:#000000;stroke-dasharray:1.000000,3.000000;stroke-dashoffset:0.0;stroke-width:0.5;"/>
     </g>
     <g id="line2d_29">
      <g>
       <use style="stroke:#000000;stroke-width:0.5;" x="39.1046456693" xlink:href="#mb520031a5f" y="11.2821456693"/>
      </g>
     </g>
     <g id="line2d_30">
      <g>
       <use style="stroke:#000000;stroke-width:0.5;" x="242.730354331" xlink:href="#m1b6f08dfcf" y="11.2821456693"/>
      </g>
     </g>
     <g id="text_11">
      <!-- 2.0 -->
      <defs>
       <path d="M 19.1875 8.296875 
L 53.609375 8.296875 
L 53.609375 0 
L 7.328125 0 
L 7.328125 8.296875 
Q 12.9375 14.109375 22.625 23.890625 
Q 32.328125 33.6875 34.8125 36.53125 
Q 39.546875 41.84375 41.421875 45.53125 
Q 43.3125 49.21875 43.3125 52.78125 
Q 43.3125 58.59375 39.234375 62.25 
Q 35.15625 65.921875 28.609375 65.921875 
Q 23.96875 65.921875 18.8125 64.3125 
Q 13.671875 62.703125 7.8125 59.421875 
L 7.8125 69.390625 
Q 13.765625 71.78125 18.9375 73 
Q 24.125 74.21875 28.421875 74.21875 
Q 39.75 74.21875 46.484375 68.546875 
Q 53.21875 62.890625 53.21875 53.421875 
Q 53.21875 48.921875 51.53125 44.890625 
Q 49.859375 40.875 45.40625 35.40625 
Q 44.1875 33.984375 37.640625 27.21875 
Q 31.109375 20.453125 19.1875 8.296875 
" id="BitstreamVeraSans-Roman-32"/>
      </defs>
      <g transform="translate(22.3821456693 13.4896456693)scale(0.08 -0.08)">
       <use xlink:href="#BitstreamVeraSans-Roman-32"/>
       <use x="63.623046875" xlink:href="#BitstreamVeraSans-Roman-2e"/>
       <use x="95.41015625" xlink:href="#BitstreamVeraSans-Roman-30"/>
      </g>
     </g>
    </g>
    <g id="text_12">
     <!-- $L(\hat{y} - y)$ -->
     <defs>
      <path d="M 31 -24.8125 
Q 25.4375 -20.40625 21.40625 -14.71875 
Q 17.390625 -9.03125 14.8125 -2.578125 
Q 12.25 3.859375 10.984375 10.890625 
Q 9.71875 17.921875 9.71875 25 
Q 9.71875 32.171875 10.984375 39.203125 
Q 12.25 46.234375 14.859375 52.734375 
Q 17.484375 59.234375 21.53125 64.890625 
Q 25.59375 70.5625 31 74.8125 
Q 31 75 31.5 75 
L 32.421875 75 
Q 32.71875 75 32.953125 74.734375 
Q 33.203125 74.46875 33.203125 74.125 
Q 33.203125 73.6875 33.015625 73.484375 
Q 28.125 68.703125 24.875 63.234375 
Q 21.625 57.765625 19.640625 51.578125 
Q 17.671875 45.40625 16.796875 38.78125 
Q 15.921875 32.171875 15.921875 25 
Q 15.921875 -6.78125 32.90625 -23.296875 
Q 33.203125 -23.578125 33.203125 -24.125 
Q 33.203125 -24.359375 32.9375 -24.671875 
Q 32.671875 -25 32.421875 -25 
L 31.5 -25 
Q 31 -25 31 -24.8125 
" id="Cmr10-28"/>
      <path d="M 6.5 -25 
Q 5.609375 -25 5.609375 -24.125 
Q 5.609375 -23.6875 5.8125 -23.484375 
Q 22.90625 -6.78125 22.90625 25 
Q 22.90625 56.78125 6 73.296875 
Q 5.609375 73.53125 5.609375 74.125 
Q 5.609375 74.46875 5.875 74.734375 
Q 6.15625 75 6.5 75 
L 7.421875 75 
Q 7.71875 75 7.90625 74.8125 
Q 15.09375 69.140625 19.875 61.03125 
Q 24.65625 52.9375 26.875 43.75 
Q 29.109375 34.578125 29.109375 25 
Q 29.109375 17.921875 27.90625 11.0625 
Q 26.703125 4.203125 24.09375 -2.453125 
Q 21.484375 -9.125 17.484375 -14.765625 
Q 13.484375 -20.40625 7.90625 -24.8125 
Q 7.71875 -25 7.421875 -25 
z
" id="Cmr10-29"/>
      <path d="M 4.6875 0 
Q 3.71875 0 3.71875 1.3125 
Q 3.765625 1.5625 3.90625 2.171875 
Q 4.046875 2.78125 4.3125 3.140625 
Q 4.59375 3.515625 4.984375 3.515625 
Q 11.078125 3.515625 13.484375 4.203125 
Q 14.796875 4.640625 15.375 6.890625 
L 29.109375 61.8125 
Q 29.296875 62.796875 29.296875 63.1875 
Q 29.296875 64.265625 28.078125 64.40625 
Q 26.21875 64.796875 20.90625 64.796875 
Q 19.921875 64.796875 19.921875 66.109375 
Q 20.265625 67.390625 20.453125 67.84375 
Q 20.65625 68.3125 21.578125 68.3125 
L 51.125 68.3125 
Q 52 68.3125 52 67 
Q 51.859375 65.96875 51.65625 65.375 
Q 51.46875 64.796875 50.6875 64.796875 
Q 43.3125 64.796875 40.828125 64.3125 
Q 38.375 63.875 37.796875 61.375 
L 24.125 6.5 
Q 23.6875 5.28125 23.6875 4.296875 
Q 23.6875 3.515625 27.09375 3.515625 
L 36.375 3.515625 
Q 44.234375 3.515625 49.109375 6.640625 
Q 54 9.765625 56.34375 13.6875 
Q 58.6875 17.625 60.265625 21.84375 
Q 61.859375 26.078125 62.59375 26.21875 
L 63.484375 26.21875 
Q 64.5 26.21875 64.5 24.90625 
L 55.609375 0.6875 
Q 55.46875 0 54.6875 0 
z
" id="Cmmi10-4c"/>
     </defs>
     <g transform="translate(14.6321456693 132.73)rotate(-90.0)scale(0.11 -0.11)">
      <use xlink:href="#Cmmi10-4c"/>
      <use transform="translate(68.017578125 0.0)" xlink:href="#Cmr10-28"/>
      <use transform="translate(112.560546875 2.875)" xlink:href="#Cmr10-5e"/>
      <use transform="translate(106.8359375 0.0)" xlink:href="#Cmmi10-79"/>
      <use transform="translate(173.41796875 0.0)" xlink:href="#Cmsy10-a1"/>
      <use transform="translate(268.662109375 0.0)" xlink:href="#Cmmi10-79"/>
      <use transform="translate(317.685546875 0.0)" xlink:href="#Cmr10-29"/>
     </g>
    </g>
   </g>
   <g id="line2d_31">
    <path clip-path="url(#pbaa1ae7fa8)" d="M 39.104646 214.907854 
L 40.122774 214.10503 
L 41.140903 211.709216 
L 42.159031 207.758198 
L 43.17716 202.314284 
L 44.195288 195.463329 
L 45.213417 187.313377 
L 46.231545 177.992956 
L 48.267803 156.444805 
L 51.322188 119.487882 
L 54.376574 81.633098 
L 56.412831 58.540945 
L 58.449088 38.876623 
L 59.467217 30.726671 
L 60.485345 23.875716 
L 61.503474 18.431802 
L 62.521602 14.480784 
L 63.539731 12.08497 
L 64.557859 11.282146 
L 65.575988 12.08497 
L 66.594116 14.480784 
L 67.612245 18.431802 
L 68.630373 23.875716 
L 69.648502 30.726671 
L 70.666631 38.876623 
L 71.684759 48.197044 
L 73.721016 69.745195 
L 76.775402 106.702118 
L 79.829787 144.556902 
L 81.866044 167.649055 
L 83.902302 187.313377 
L 84.92043 195.463329 
L 85.938559 202.314284 
L 86.956687 207.758198 
L 87.974816 211.709216 
L 88.992944 214.10503 
L 90.011073 214.907854 
L 91.029201 214.10503 
L 92.04733 211.709216 
L 93.065458 207.758198 
L 94.083587 202.314284 
L 95.101716 195.463329 
L 96.119844 187.313377 
L 97.137973 177.992956 
L 99.17423 156.444805 
L 102.228615 119.487882 
L 105.283001 81.633098 
L 107.319258 58.540945 
L 109.355515 38.876623 
L 110.373644 30.726671 
L 111.391772 23.875716 
L 112.409901 18.431802 
L 113.428029 14.480784 
L 114.446158 12.08497 
L 115.464286 11.282146 
L 116.482415 12.08497 
L 117.500544 14.480784 
L 118.518672 18.431802 
L 119.536801 23.875716 
L 120.554929 30.726671 
L 121.573058 38.876623 
L 122.591186 48.197044 
L 124.627443 69.745195 
L 127.681829 106.702118 
L 130.736215 144.556902 
L 132.772472 167.649055 
L 134.808729 187.313377 
L 135.826857 195.463329 
L 136.844986 202.314284 
L 137.863114 207.758198 
L 138.881243 211.709216 
L 139.899371 214.10503 
L 140.9175 214.907854 
L 141.935629 214.10503 
L 142.953757 211.709216 
L 143.971886 207.758198 
L 144.990014 202.314284 
L 146.008143 195.463329 
L 147.026271 187.313377 
L 148.0444 177.992956 
L 150.080657 156.444805 
L 153.135043 119.487882 
L 156.189428 81.633098 
L 158.225685 58.540945 
L 160.261942 38.876623 
L 161.280071 30.726671 
L 162.298199 23.875716 
L 163.316328 18.431802 
L 164.334456 14.480784 
L 165.352585 12.08497 
L 166.370714 11.282146 
L 167.388842 12.08497 
L 168.406971 14.480784 
L 169.425099 18.431802 
L 170.443228 23.875716 
L 171.461356 30.726671 
L 172.479485 38.876623 
L 173.497613 48.197044 
L 175.53387 69.745195 
L 178.588256 106.702118 
L 181.642642 144.556902 
L 183.678899 167.649055 
L 185.715156 187.313377 
L 186.733284 195.463329 
L 187.751413 202.314284 
L 188.769542 207.758198 
L 189.78767 211.709216 
L 190.805799 214.10503 
L 191.823927 214.907854 
L 192.842056 214.10503 
L 193.860184 211.709216 
L 194.878313 207.758198 
L 195.896441 202.314284 
L 196.91457 195.463329 
L 197.932698 187.313377 
L 198.950827 177.992956 
L 200.987084 156.444805 
L 204.04147 119.487882 
L 207.095855 81.633098 
L 209.132112 58.540945 
L 211.168369 38.876623 
L 212.186498 30.726671 
L 213.204627 23.875716 
L 214.222755 18.431802 
L 215.240884 14.480784 
L 216.259012 12.08497 
L 217.277141 11.282146 
L 218.295269 12.08497 
L 219.313398 14.480784 
L 220.331526 18.431802 
L 221.349655 23.875716 
L 222.367783 30.726671 
L 223.385912 38.876623 
L 224.404041 48.197044 
L 226.440298 69.745195 
L 229.494683 106.702118 
L 232.549069 144.556902 
L 234.585326 167.649055 
L 236.621583 187.313377 
L 237.639712 195.463329 
L 238.65784 202.314284 
L 239.675969 207.758198 
L 240.694097 211.709216 
L 241.712226 214.10503 
L 242.730354 214.907854 
L 242.730354 214.907854 
" style="fill:none;stroke:#00008b;stroke-linecap:round;"/>
   </g>
   <g id="line2d_32">
    <path clip-path="url(#pbaa1ae7fa8)" d="M 39.104646 214.907854 
L 40.122774 214.70695 
L 41.140903 214.10503 
L 42.159031 213.104469 
L 43.17716 211.709216 
L 44.195288 209.924779 
L 45.213417 207.758198 
L 46.231545 205.218025 
L 47.249674 202.314284 
L 49.285931 195.463329 
L 51.322188 187.313377 
L 53.358445 177.992956 
L 55.394702 167.649055 
L 58.449088 150.574811 
L 62.521602 125.855534 
L 70.666631 75.615189 
L 73.721016 58.540945 
L 75.757273 48.197044 
L 77.79353 38.876623 
L 79.829787 30.726671 
L 81.866044 23.875716 
L 82.884173 20.971975 
L 83.902302 18.431802 
L 84.92043 16.265221 
L 85.938559 14.480784 
L 86.956687 13.085531 
L 87.974816 12.08497 
L 88.992944 11.48305 
L 90.011073 11.282146 
L 91.029201 11.48305 
L 92.04733 12.08497 
L 93.065458 13.085531 
L 94.083587 14.480784 
L 95.101716 16.265221 
L 96.119844 18.431802 
L 97.137973 20.971975 
L 98.156101 23.875716 
L 100.192358 30.726671 
L 102.228615 38.876623 
L 104.264872 48.197044 
L 106.30113 58.540945 
L 109.355515 75.615189 
L 113.428029 100.334466 
L 121.573058 150.574811 
L 124.627443 167.649055 
L 126.6637 177.992956 
L 128.699957 187.313377 
L 130.736215 195.463329 
L 132.772472 202.314284 
L 133.7906 205.218025 
L 134.808729 207.758198 
L 135.826857 209.924779 
L 136.844986 211.709216 
L 137.863114 213.104469 
L 138.881243 214.10503 
L 139.899371 214.70695 
L 140.9175 214.907854 
L 141.935629 214.70695 
L 142.953757 214.10503 
L 143.971886 213.104469 
L 144.990014 211.709216 
L 146.008143 209.924779 
L 147.026271 207.758198 
L 148.0444 205.218025 
L 149.062528 202.314284 
L 151.098785 195.463329 
L 153.135043 187.313377 
L 155.1713 177.992956 
L 157.207557 167.649055 
L 160.261942 150.574811 
L 164.334456 125.855534 
L 172.479485 75.615189 
L 175.53387 58.540945 
L 177.570128 48.197044 
L 179.606385 38.876623 
L 181.642642 30.726671 
L 183.678899 23.875716 
L 184.697027 20.971975 
L 185.715156 18.431802 
L 186.733284 16.265221 
L 187.751413 14.480784 
L 188.769542 13.085531 
L 189.78767 12.08497 
L 190.805799 11.48305 
L 191.823927 11.282146 
L 192.842056 11.48305 
L 193.860184 12.08497 
L 194.878313 13.085531 
L 195.896441 14.480784 
L 196.91457 16.265221 
L 197.932698 18.431802 
L 198.950827 20.971975 
L 199.968956 23.875716 
L 202.005213 30.726671 
L 204.04147 38.876623 
L 206.077727 48.197044 
L 208.113984 58.540945 
L 211.168369 75.615189 
L 215.240884 100.334466 
L 223.385912 150.574811 
L 226.440298 167.649055 
L 228.476555 177.992956 
L 230.512812 187.313377 
L 232.549069 195.463329 
L 234.585326 202.314284 
L 235.603455 205.218025 
L 236.621583 207.758198 
L 237.639712 209.924779 
L 238.65784 211.709216 
L 239.675969 213.104469 
L 240.694097 214.10503 
L 241.712226 214.70695 
L 242.730354 214.907854 
L 242.730354 214.907854 
" style="fill:none;stroke:#cc0000;stroke-linecap:round;"/>
   </g>
   <g id="patch_3">
    <path d="M 39.104646 11.282146 
L 242.730354 11.282146 
" style="fill:none;stroke:#000000;stroke-linecap:square;stroke-linejoin:miter;"/>
   </g>
   <g id="patch_4">
    <path d="M 242.730354 214.907854 
L 242.730354 11.282146 
" style="fill:none;stroke:#000000;stroke-linecap:square;stroke-linejoin:miter;"/>
   </g>
   <g id="patch_5">
    <path d="M 39.104646 214.907854 
L 242.730354 214.907854 
" style="fill:none;stroke:#000000;stroke-linecap:square;stroke-linejoin:miter;"/>
   </g>
   <g id="patch_6">
    <path d="M 39.104646 214.907854 
L 39.104646 11.282146 
" style="fill:none;stroke:#000000;stroke-linecap:square;stroke-linejoin:miter;"/>
   </g>
   <g id="line2d_33">
    <path clip-path="url(#pbaa1ae7fa8)" d="M 39.104646 62.188573 
L 42.159031 51.539038 
L 45.213417 41.860278 
L 47.249674 36.023173 
L 49.285931 30.726671 
L 51.322188 26.007923 
L 53.358445 21.900029 
L 55.394702 18.431802 
L 57.430959 15.627569 
L 58.449088 14.480784 
L 59.467217 13.507001 
L 60.485345 12.707929 
L 61.503474 12.08497 
L 62.521602 11.639218 
L 63.539731 11.371453 
L 64.557859 11.282146 
L 65.575988 11.371453 
L 66.594116 11.639218 
L 67.612245 12.08497 
L 68.630373 12.707929 
L 69.648502 13.507001 
L 70.666631 14.480784 
L 71.684759 15.627569 
L 73.721016 18.431802 
L 75.757273 21.900029 
L 77.79353 26.007923 
L 79.829787 30.726671 
L 81.866044 36.023173 
L 83.902302 41.860278 
L 86.956687 51.539038 
L 90.011073 62.188573 
L 93.065458 73.640932 
L 97.137973 89.845946 
L 104.264872 119.487882 
L 110.373644 144.556902 
L 114.446158 160.264492 
L 117.500544 171.200977 
L 120.554929 181.221097 
L 122.591186 187.313377 
L 124.627443 192.885068 
L 126.6637 197.897089 
L 128.699957 202.314284 
L 130.736215 206.105671 
L 132.772472 209.244654 
L 134.808729 211.709216 
L 135.826857 212.682999 
L 136.844986 213.482071 
L 137.863114 214.10503 
L 138.881243 214.550782 
L 139.899371 214.818547 
L 140.9175 214.907854 
L 141.935629 214.818547 
L 142.953757 214.550782 
L 143.971886 214.10503 
L 144.990014 213.482071 
L 146.008143 212.682999 
L 147.026271 211.709216 
L 148.0444 210.562431 
L 150.080657 207.758198 
L 152.116914 204.289971 
L 154.153171 200.182077 
L 156.189428 195.463329 
L 158.225685 190.166827 
L 160.261942 184.329722 
L 163.316328 174.650962 
L 166.370714 164.001427 
L 169.425099 152.549068 
L 173.497613 136.344054 
L 180.624513 106.702118 
L 186.733284 81.633098 
L 190.805799 65.925508 
L 193.860184 54.989023 
L 196.91457 44.968903 
L 198.950827 38.876623 
L 200.987084 33.304932 
L 203.023341 28.292911 
L 205.059598 23.875716 
L 207.095855 20.084329 
L 209.132112 16.945346 
L 211.168369 14.480784 
L 212.186498 13.507001 
L 213.204627 12.707929 
L 214.222755 12.08497 
L 215.240884 11.639218 
L 216.259012 11.371453 
L 217.277141 11.282146 
L 218.295269 11.371453 
L 219.313398 11.639218 
L 220.331526 12.08497 
L 221.349655 12.707929 
L 222.367783 13.507001 
L 223.385912 14.480784 
L 224.404041 15.627569 
L 226.440298 18.431802 
L 228.476555 21.900029 
L 230.512812 26.007923 
L 232.549069 30.726671 
L 234.585326 36.023173 
L 236.621583 41.860278 
L 239.675969 51.539038 
L 242.730354 62.188573 
L 242.730354 62.188573 
" style="fill:none;stroke:#008000;stroke-linecap:round;"/>
   </g>
   <g id="legend_1">
    <g id="patch_7">
     <path d="M 109.429104 131.90875 
L 238.730354 131.90875 
L 238.730354 94.28125 
L 109.429104 94.28125 
z
" style="fill:#ffffff;stroke:#000000;stroke-linejoin:miter;"/>
    </g>
    <g id="line2d_34">
     <path d="M 115.029104 100.76 
L 126.229104 100.76 
" style="fill:none;stroke:#00008b;stroke-linecap:round;"/>
    </g>
    <g id="line2d_35"/>
    <g id="text_13">
     <!-- PeriodicLoss with c = 0.5 -->
     <defs>
      <path id="BitstreamVeraSans-Roman-20"/>
      <path d="M 9.8125 72.90625 
L 19.671875 72.90625 
L 19.671875 8.296875 
L 55.171875 8.296875 
L 55.171875 0 
L 9.8125 0 
z
" id="BitstreamVeraSans-Roman-4c"/>
      <path d="M 30.609375 48.390625 
Q 23.390625 48.390625 19.1875 42.75 
Q 14.984375 37.109375 14.984375 27.296875 
Q 14.984375 17.484375 19.15625 11.84375 
Q 23.34375 6.203125 30.609375 6.203125 
Q 37.796875 6.203125 41.984375 11.859375 
Q 46.1875 17.53125 46.1875 27.296875 
Q 46.1875 37.015625 41.984375 42.703125 
Q 37.796875 48.390625 30.609375 48.390625 
M 30.609375 56 
Q 42.328125 56 49.015625 48.375 
Q 55.71875 40.765625 55.71875 27.296875 
Q 55.71875 13.875 49.015625 6.21875 
Q 42.328125 -1.421875 30.609375 -1.421875 
Q 18.84375 -1.421875 12.171875 6.21875 
Q 5.515625 13.875 5.515625 27.296875 
Q 5.515625 40.765625 12.171875 48.375 
Q 18.84375 56 30.609375 56 
" id="BitstreamVeraSans-Roman-6f"/>
      <path d="M 19.671875 64.796875 
L 19.671875 37.40625 
L 32.078125 37.40625 
Q 38.96875 37.40625 42.71875 40.96875 
Q 46.484375 44.53125 46.484375 51.125 
Q 46.484375 57.671875 42.71875 61.234375 
Q 38.96875 64.796875 32.078125 64.796875 
z
M 9.8125 72.90625 
L 32.078125 72.90625 
Q 44.34375 72.90625 50.609375 67.359375 
Q 56.890625 61.8125 56.890625 51.125 
Q 56.890625 40.328125 50.609375 34.8125 
Q 44.34375 29.296875 32.078125 29.296875 
L 19.671875 29.296875 
L 19.671875 0 
L 9.8125 0 
z
" id="BitstreamVeraSans-Roman-50"/>
      <path d="M 9.421875 54.6875 
L 18.40625 54.6875 
L 18.40625 0 
L 9.421875 0 
z
M 9.421875 75.984375 
L 18.40625 75.984375 
L 18.40625 64.59375 
L 9.421875 64.59375 
z
" id="BitstreamVeraSans-Roman-69"/>
      <path d="M 54.890625 33.015625 
L 54.890625 0 
L 45.90625 0 
L 45.90625 32.71875 
Q 45.90625 40.484375 42.875 44.328125 
Q 39.84375 48.1875 33.796875 48.1875 
Q 26.515625 48.1875 22.3125 43.546875 
Q 18.109375 38.921875 18.109375 30.90625 
L 18.109375 0 
L 9.078125 0 
L 9.078125 75.984375 
L 18.109375 75.984375 
L 18.109375 46.1875 
Q 21.34375 51.125 25.703125 53.5625 
Q 30.078125 56 35.796875 56 
Q 45.21875 56 50.046875 50.171875 
Q 54.890625 44.34375 54.890625 33.015625 
" id="BitstreamVeraSans-Roman-68"/>
      <path d="M 10.59375 45.40625 
L 73.1875 45.40625 
L 73.1875 37.203125 
L 10.59375 37.203125 
z
M 10.59375 25.484375 
L 73.1875 25.484375 
L 73.1875 17.1875 
L 10.59375 17.1875 
z
" id="BitstreamVeraSans-Roman-3d"/>
      <path d="M 4.203125 54.6875 
L 13.1875 54.6875 
L 24.421875 12.015625 
L 35.59375 54.6875 
L 46.1875 54.6875 
L 57.421875 12.015625 
L 68.609375 54.6875 
L 77.59375 54.6875 
L 63.28125 0 
L 52.6875 0 
L 40.921875 44.828125 
L 29.109375 0 
L 18.5 0 
z
" id="BitstreamVeraSans-Roman-77"/>
      <path d="M 56.203125 29.59375 
L 56.203125 25.203125 
L 14.890625 25.203125 
Q 15.484375 15.921875 20.484375 11.0625 
Q 25.484375 6.203125 34.421875 6.203125 
Q 39.59375 6.203125 44.453125 7.46875 
Q 49.3125 8.734375 54.109375 11.28125 
L 54.109375 2.78125 
Q 49.265625 0.734375 44.1875 -0.34375 
Q 39.109375 -1.421875 33.890625 -1.421875 
Q 20.796875 -1.421875 13.15625 6.1875 
Q 5.515625 13.8125 5.515625 26.8125 
Q 5.515625 40.234375 12.765625 48.109375 
Q 20.015625 56 32.328125 56 
Q 43.359375 56 49.78125 48.890625 
Q 56.203125 41.796875 56.203125 29.59375 
M 47.21875 32.234375 
Q 47.125 39.59375 43.09375 43.984375 
Q 39.0625 48.390625 32.421875 48.390625 
Q 24.90625 48.390625 20.390625 44.140625 
Q 15.875 39.890625 15.1875 32.171875 
z
" id="BitstreamVeraSans-Roman-65"/>
      <path d="M 45.40625 46.390625 
L 45.40625 75.984375 
L 54.390625 75.984375 
L 54.390625 0 
L 45.40625 0 
L 45.40625 8.203125 
Q 42.578125 3.328125 38.25 0.953125 
Q 33.9375 -1.421875 27.875 -1.421875 
Q 17.96875 -1.421875 11.734375 6.484375 
Q 5.515625 14.40625 5.515625 27.296875 
Q 5.515625 40.1875 11.734375 48.09375 
Q 17.96875 56 27.875 56 
Q 33.9375 56 38.25 53.625 
Q 42.578125 51.265625 45.40625 46.390625 
M 14.796875 27.296875 
Q 14.796875 17.390625 18.875 11.75 
Q 22.953125 6.109375 30.078125 6.109375 
Q 37.203125 6.109375 41.296875 11.75 
Q 45.40625 17.390625 45.40625 27.296875 
Q 45.40625 37.203125 41.296875 42.84375 
Q 37.203125 48.484375 30.078125 48.484375 
Q 22.953125 48.484375 18.875 42.84375 
Q 14.796875 37.203125 14.796875 27.296875 
" id="BitstreamVeraSans-Roman-64"/>
      <path d="M 18.3125 70.21875 
L 18.3125 54.6875 
L 36.8125 54.6875 
L 36.8125 47.703125 
L 18.3125 47.703125 
L 18.3125 18.015625 
Q 18.3125 11.328125 20.140625 9.421875 
Q 21.96875 7.515625 27.59375 7.515625 
L 36.8125 7.515625 
L 36.8125 0 
L 27.59375 0 
Q 17.1875 0 13.234375 3.875 
Q 9.28125 7.765625 9.28125 18.015625 
L 9.28125 47.703125 
L 2.6875 47.703125 
L 2.6875 54.6875 
L 9.28125 54.6875 
L 9.28125 70.21875 
z
" id="BitstreamVeraSans-Roman-74"/>
      <path d="M 41.109375 46.296875 
Q 39.59375 47.171875 37.8125 47.578125 
Q 36.03125 48 33.890625 48 
Q 26.265625 48 22.1875 43.046875 
Q 18.109375 38.09375 18.109375 28.8125 
L 18.109375 0 
L 9.078125 0 
L 9.078125 54.6875 
L 18.109375 54.6875 
L 18.109375 46.1875 
Q 20.953125 51.171875 25.484375 53.578125 
Q 30.03125 56 36.53125 56 
Q 37.453125 56 38.578125 55.875 
Q 39.703125 55.765625 41.0625 55.515625 
z
" id="BitstreamVeraSans-Roman-72"/>
      <path d="M 44.28125 53.078125 
L 44.28125 44.578125 
Q 40.484375 46.53125 36.375 47.5 
Q 32.28125 48.484375 27.875 48.484375 
Q 21.1875 48.484375 17.84375 46.4375 
Q 14.5 44.390625 14.5 40.28125 
Q 14.5 37.15625 16.890625 35.375 
Q 19.28125 33.59375 26.515625 31.984375 
L 29.59375 31.296875 
Q 39.15625 29.25 43.1875 25.515625 
Q 47.21875 21.78125 47.21875 15.09375 
Q 47.21875 7.46875 41.1875 3.015625 
Q 35.15625 -1.421875 24.609375 -1.421875 
Q 20.21875 -1.421875 15.453125 -0.5625 
Q 10.6875 0.296875 5.421875 2 
L 5.421875 11.28125 
Q 10.40625 8.6875 15.234375 7.390625 
Q 20.0625 6.109375 24.8125 6.109375 
Q 31.15625 6.109375 34.5625 8.28125 
Q 37.984375 10.453125 37.984375 14.40625 
Q 37.984375 18.0625 35.515625 20.015625 
Q 33.0625 21.96875 24.703125 23.78125 
L 21.578125 24.515625 
Q 13.234375 26.265625 9.515625 29.90625 
Q 5.8125 33.546875 5.8125 39.890625 
Q 5.8125 47.609375 11.28125 51.796875 
Q 16.75 56 26.8125 56 
Q 31.78125 56 36.171875 55.265625 
Q 40.578125 54.546875 44.28125 53.078125 
" id="BitstreamVeraSans-Roman-73"/>
      <path d="M 48.78125 52.59375 
L 48.78125 44.1875 
Q 44.96875 46.296875 41.140625 47.34375 
Q 37.3125 48.390625 33.40625 48.390625 
Q 24.65625 48.390625 19.8125 42.84375 
Q 14.984375 37.3125 14.984375 27.296875 
Q 14.984375 17.28125 19.8125 11.734375 
Q 24.65625 6.203125 33.40625 6.203125 
Q 37.3125 6.203125 41.140625 7.25 
Q 44.96875 8.296875 48.78125 10.40625 
L 48.78125 2.09375 
Q 45.015625 0.34375 40.984375 -0.53125 
Q 36.96875 -1.421875 32.421875 -1.421875 
Q 20.0625 -1.421875 12.78125 6.34375 
Q 5.515625 14.109375 5.515625 27.296875 
Q 5.515625 40.671875 12.859375 48.328125 
Q 20.21875 56 33.015625 56 
Q 37.15625 56 41.109375 55.140625 
Q 45.0625 54.296875 48.78125 52.59375 
" id="BitstreamVeraSans-Roman-63"/>
     </defs>
     <g transform="translate(135.029104331 103.56)scale(0.08 -0.08)">
      <use xlink:href="#BitstreamVeraSans-Roman-50"/>
      <use x="60.255859375" xlink:href="#BitstreamVeraSans-Roman-65"/>
      <use x="121.779296875" xlink:href="#BitstreamVeraSans-Roman-72"/>
      <use x="162.892578125" xlink:href="#BitstreamVeraSans-Roman-69"/>
      <use x="190.67578125" xlink:href="#BitstreamVeraSans-Roman-6f"/>
      <use x="251.857421875" xlink:href="#BitstreamVeraSans-Roman-64"/>
      <use x="315.333984375" xlink:href="#BitstreamVeraSans-Roman-69"/>
      <use x="343.1171875" xlink:href="#BitstreamVeraSans-Roman-63"/>
      <use x="398.09765625" xlink:href="#BitstreamVeraSans-Roman-4c"/>
      <use x="453.794921875" xlink:href="#BitstreamVeraSans-Roman-6f"/>
      <use x="514.9765625" xlink:href="#BitstreamVeraSans-Roman-73"/>
      <use x="567.076171875" xlink:href="#BitstreamVeraSans-Roman-73"/>
      <use x="619.17578125" xlink:href="#BitstreamVeraSans-Roman-20"/>
      <use x="650.962890625" xlink:href="#BitstreamVeraSans-Roman-77"/>
      <use x="732.75" xlink:href="#BitstreamVeraSans-Roman-69"/>
      <use x="760.533203125" xlink:href="#BitstreamVeraSans-Roman-74"/>
      <use x="799.7421875" xlink:href="#BitstreamVeraSans-Roman-68"/>
      <use x="863.12109375" xlink:href="#BitstreamVeraSans-Roman-20"/>
      <use x="894.908203125" xlink:href="#BitstreamVeraSans-Roman-63"/>
      <use x="949.888671875" xlink:href="#BitstreamVeraSans-Roman-20"/>
      <use x="981.67578125" xlink:href="#BitstreamVeraSans-Roman-3d"/>
      <use x="1065.46484375" xlink:href="#BitstreamVeraSans-Roman-20"/>
      <use x="1097.25195312" xlink:href="#BitstreamVeraSans-Roman-30"/>
      <use x="1160.875" xlink:href="#BitstreamVeraSans-Roman-2e"/>
      <use x="1192.66210938" xlink:href="#BitstreamVeraSans-Roman-35"/>
     </g>
    </g>
    <g id="line2d_36">
     <path d="M 115.029104 112.5025 
L 126.229104 112.5025 
" style="fill:none;stroke:#cc0000;stroke-linecap:round;"/>
    </g>
    <g id="line2d_37"/>
    <g id="text_14">
     <!-- PeriodicLoss with c = 1.0 -->
     <g transform="translate(135.029104331 115.3025)scale(0.08 -0.08)">
      <use xlink:href="#BitstreamVeraSans-Roman-50"/>
      <use x="60.255859375" xlink:href="#BitstreamVeraSans-Roman-65"/>
      <use x="121.779296875" xlink:href="#BitstreamVeraSans-Roman-72"/>
      <use x="162.892578125" xlink:href="#BitstreamVeraSans-Roman-69"/>
      <use x="190.67578125" xlink:href="#BitstreamVeraSans-Roman-6f"/>
      <use x="251.857421875" xlink:href="#BitstreamVeraSans-Roman-64"/>
      <use x="315.333984375" xlink:href="#BitstreamVeraSans-Roman-69"/>
      <use x="343.1171875" xlink:href="#BitstreamVeraSans-Roman-63"/>
      <use x="398.09765625" xlink:href="#BitstreamVeraSans-Roman-4c"/>
      <use x="453.794921875" xlink:href="#BitstreamVeraSans-Roman-6f"/>
      <use x="514.9765625" xlink:href="#BitstreamVeraSans-Roman-73"/>
      <use x="567.076171875" xlink:href="#BitstreamVeraSans-Roman-73"/>
      <use x="619.17578125" xlink:href="#BitstreamVeraSans-Roman-20"/>
      <use x="650.962890625" xlink:href="#BitstreamVeraSans-Roman-77"/>
      <use x="732.75" xlink:href="#BitstreamVeraSans-Roman-69"/>
      <use x="760.533203125" xlink:href="#BitstreamVeraSans-Roman-74"/>
      <use x="799.7421875" xlink:href="#BitstreamVeraSans-Roman-68"/>
      <use x="863.12109375" xlink:href="#BitstreamVeraSans-Roman-20"/>
      <use x="894.908203125" xlink:href="#BitstreamVeraSans-Roman-63"/>
      <use x="949.888671875" xlink:href="#BitstreamVeraSans-Roman-20"/>
      <use x="981.67578125" xlink:href="#BitstreamVeraSans-Roman-3d"/>
      <use x="1065.46484375" xlink:href="#BitstreamVeraSans-Roman-20"/>
      <use x="1097.25195312" xlink:href="#BitstreamVeraSans-Roman-31"/>
      <use x="1160.875" xlink:href="#BitstreamVeraSans-Roman-2e"/>
      <use x="1192.66210938" xlink:href="#BitstreamVeraSans-Roman-30"/>
     </g>
    </g>
    <g id="line2d_38">
     <path d="M 115.029104 124.245 
L 126.229104 124.245 
" style="fill:none;stroke:#008000;stroke-linecap:round;"/>
    </g>
    <g id="line2d_39"/>
    <g id="text_15">
     <!-- PeriodicLoss with c = 1.5 -->
     <g transform="translate(135.029104331 127.045)scale(0.08 -0.08)">
      <use xlink:href="#BitstreamVeraSans-Roman-50"/>
      <use x="60.255859375" xlink:href="#BitstreamVeraSans-Roman-65"/>
      <use x="121.779296875" xlink:href="#BitstreamVeraSans-Roman-72"/>
      <use x="162.892578125" xlink:href="#BitstreamVeraSans-Roman-69"/>
      <use x="190.67578125" xlink:href="#BitstreamVeraSans-Roman-6f"/>
      <use x="251.857421875" xlink:href="#BitstreamVeraSans-Roman-64"/>
      <use x="315.333984375" xlink:href="#BitstreamVeraSans-Roman-69"/>
      <use x="343.1171875" xlink:href="#BitstreamVeraSans-Roman-63"/>
      <use x="398.09765625" xlink:href="#BitstreamVeraSans-Roman-4c"/>
      <use x="453.794921875" xlink:href="#BitstreamVeraSans-Roman-6f"/>
      <use x="514.9765625" xlink:href="#BitstreamVeraSans-Roman-73"/>
      <use x="567.076171875" xlink:href="#BitstreamVeraSans-Roman-73"/>
      <use x="619.17578125" xlink:href="#BitstreamVeraSans-Roman-20"/>
      <use x="650.962890625" xlink:href="#BitstreamVeraSans-Roman-77"/>
      <use x="732.75" xlink:href="#BitstreamVeraSans-Roman-69"/>
      <use x="760.533203125" xlink:href="#BitstreamVeraSans-Roman-74"/>
      <use x="799.7421875" xlink:href="#BitstreamVeraSans-Roman-68"/>
      <use x="863.12109375" xlink:href="#BitstreamVeraSans-Roman-20"/>
      <use x="894.908203125" xlink:href="#BitstreamVeraSans-Roman-63"/>
      <use x="949.888671875" xlink:href="#BitstreamVeraSans-Roman-20"/>
      <use x="981.67578125" xlink:href="#BitstreamVeraSans-Roman-3d"/>
      <use x="1065.46484375" xlink:href="#BitstreamVeraSans-Roman-20"/>
      <use x="1097.25195312" xlink:href="#BitstreamVeraSans-Roman-31"/>
      <use x="1160.875" xlink:href="#BitstreamVeraSans-Roman-2e"/>
      <use x="1192.66210938" xlink:href="#BitstreamVeraSans-Roman-35"/>
     </g>
    </g>
   </g>
  </g>
 </g>
 <defs>
  <clipPath id="pbaa1ae7fa8">
   <rect height="203.625708661" width="203.625708661" x="39.1046456693" y="11.2821456693"/>
  </clipPath>
 </defs>
</svg>
