<?xml version="1.0" encoding="utf-8" standalone="no"?>
<!DOCTYPE svg PUBLIC "-//W3C//DTD SVG 1.1//EN"
  "http://www.w3.org/Graphics/SVG/1.1/DTD/svg11.dtd">
<!-- Created with matplotlib (http://matplotlib.org/) -->
<svg height="288pt" version="1.1" viewBox="0 0 432 288" width="432pt" xmlns="http://www.w3.org/2000/svg" xmlns:xlink="http://www.w3.org/1999/xlink">
 <defs>
  <style type="text/css">
*{stroke-linecap:butt;stroke-linejoin:round;stroke-miterlimit:100000;}
  </style>
 </defs>
 <g id="figure_1">
  <g id="patch_1">
   <path d="M 0 288 
L 432 288 
L 432 0 
L 0 0 
L 0 288 
z
" style="fill:none;"/>
  </g>
  <g id="axes_1">
   <g id="patch_2">
    <path d="M 27.764646 258.165354 
L 429.165354 258.165354 
L 429.165354 2.834646 
L 27.764646 2.834646 
z
" style="fill:#ffffff;"/>
   </g>
   <g id="PathCollection_1">
    <defs>
     <path d="M 0 2 
C 0.530406 2 1.03916 1.789267 1.414214 1.414214 
C 1.789267 1.03916 2 0.530406 2 0 
C 2 -0.530406 1.789267 -1.03916 1.414214 -1.414214 
C 1.03916 -1.789267 0.530406 -2 0 -2 
C -0.530406 -2 -1.03916 -1.789267 -1.414214 -1.414214 
C -1.789267 -1.03916 -2 -0.530406 -2 0 
C -2 0.530406 -1.789267 1.03916 -1.414214 1.414214 
C -1.03916 1.789267 -0.530406 2 0 2 
z
" id="m2187b2e667" style="stroke:#000000;"/>
    </defs>
    <g clip-path="url(#p8d1bb69635)">
     <use style="fill:#00008b;stroke:#000000;" x="151.326499034" xlink:href="#m2187b2e667" y="100.39024662"/>
     <use style="fill:#00008b;stroke:#000000;" x="123.276135047" xlink:href="#m2187b2e667" y="150.57316892"/>
     <use style="fill:#00008b;stroke:#000000;" x="95.2257710593" xlink:href="#m2187b2e667" y="130.5"/>
     <use style="fill:#00008b;stroke:#000000;" x="81.2005890655" xlink:href="#m2187b2e667" y="140.53658446"/>
     <use style="fill:#00008b;stroke:#000000;" x="137.301317041" xlink:href="#m2187b2e667" y="90.3536621602"/>
     <use style="fill:#00008b;stroke:#000000;" x="193.402045016" xlink:href="#m2187b2e667" y="60.2439087803"/>
     <use style="fill:#00008b;stroke:#000000;" x="81.2005890655" xlink:href="#m2187b2e667" y="110.42683108"/>
     <use style="fill:#00008b;stroke:#000000;" x="137.301317041" xlink:href="#m2187b2e667" y="110.42683108"/>
     <use style="fill:#00008b;stroke:#000000;" x="53.150225078" xlink:href="#m2187b2e667" y="160.60975338"/>
     <use style="fill:#00008b;stroke:#000000;" x="123.276135047" xlink:href="#m2187b2e667" y="140.53658446"/>
     <use style="fill:#00008b;stroke:#000000;" x="193.402045016" xlink:href="#m2187b2e667" y="80.3170777002"/>
     <use style="fill:#00008b;stroke:#000000;" x="109.250953053" xlink:href="#m2187b2e667" y="110.42683108"/>
     <use style="fill:#00008b;stroke:#000000;" x="109.250953053" xlink:href="#m2187b2e667" y="150.57316892"/>
     <use style="fill:#00008b;stroke:#000000;" x="39.1250430842" xlink:href="#m2187b2e667" y="150.57316892"/>
     <use style="fill:#00008b;stroke:#000000;" x="249.502772991" xlink:href="#m2187b2e667" y="50.2073243203"/>
     <use style="fill:#00008b;stroke:#000000;" x="235.477590997" xlink:href="#m2187b2e667" y="10.0609864805"/>
     <use style="fill:#00008b;stroke:#000000;" x="193.402045016" xlink:href="#m2187b2e667" y="60.2439087803"/>
     <use style="fill:#00008b;stroke:#000000;" x="151.326499034" xlink:href="#m2187b2e667" y="100.39024662"/>
     <use style="fill:#00008b;stroke:#000000;" x="235.477590997" xlink:href="#m2187b2e667" y="70.2804932402"/>
     <use style="fill:#00008b;stroke:#000000;" x="151.326499034" xlink:href="#m2187b2e667" y="70.2804932402"/>
     <use style="fill:#00008b;stroke:#000000;" x="193.402045016" xlink:href="#m2187b2e667" y="110.42683108"/>
     <use style="fill:#00008b;stroke:#000000;" x="151.326499034" xlink:href="#m2187b2e667" y="80.3170777002"/>
     <use style="fill:#00008b;stroke:#000000;" x="81.2005890655" xlink:href="#m2187b2e667" y="90.3536621602"/>
     <use style="fill:#00008b;stroke:#000000;" x="151.326499034" xlink:href="#m2187b2e667" y="120.46341554"/>
     <use style="fill:#00008b;stroke:#000000;" x="109.250953053" xlink:href="#m2187b2e667" y="110.42683108"/>
     <use style="fill:#00008b;stroke:#000000;" x="137.301317041" xlink:href="#m2187b2e667" y="150.57316892"/>
     <use style="fill:#00008b;stroke:#000000;" x="137.301317041" xlink:href="#m2187b2e667" y="110.42683108"/>
     <use style="fill:#00008b;stroke:#000000;" x="165.351681028" xlink:href="#m2187b2e667" y="100.39024662"/>
     <use style="fill:#00008b;stroke:#000000;" x="165.351681028" xlink:href="#m2187b2e667" y="110.42683108"/>
     <use style="fill:#00008b;stroke:#000000;" x="95.2257710593" xlink:href="#m2187b2e667" y="130.5"/>
     <use style="fill:#00008b;stroke:#000000;" x="109.250953053" xlink:href="#m2187b2e667" y="140.53658446"/>
     <use style="fill:#00008b;stroke:#000000;" x="193.402045016" xlink:href="#m2187b2e667" y="110.42683108"/>
     <use style="fill:#00008b;stroke:#000000;" x="165.351681028" xlink:href="#m2187b2e667" y="40.1707398603"/>
     <use style="fill:#00008b;stroke:#000000;" x="207.427227009" xlink:href="#m2187b2e667" y="30.1341554004"/>
     <use style="fill:#00008b;stroke:#000000;" x="123.276135047" xlink:href="#m2187b2e667" y="140.53658446"/>
     <use style="fill:#00008b;stroke:#000000;" x="137.301317041" xlink:href="#m2187b2e667" y="130.5"/>
     <use style="fill:#00008b;stroke:#000000;" x="207.427227009" xlink:href="#m2187b2e667" y="100.39024662"/>
     <use style="fill:#00008b;stroke:#000000;" x="123.276135047" xlink:href="#m2187b2e667" y="90.3536621602"/>
     <use style="fill:#00008b;stroke:#000000;" x="53.150225078" xlink:href="#m2187b2e667" y="150.57316892"/>
     <use style="fill:#00008b;stroke:#000000;" x="151.326499034" xlink:href="#m2187b2e667" y="110.42683108"/>
     <use style="fill:#00008b;stroke:#000000;" x="137.301317041" xlink:href="#m2187b2e667" y="100.39024662"/>
     <use style="fill:#00008b;stroke:#000000;" x="67.1754070718" xlink:href="#m2187b2e667" y="220.82926014"/>
     <use style="fill:#00008b;stroke:#000000;" x="53.150225078" xlink:href="#m2187b2e667" y="130.5"/>
     <use style="fill:#00008b;stroke:#000000;" x="137.301317041" xlink:href="#m2187b2e667" y="100.39024662"/>
     <use style="fill:#00008b;stroke:#000000;" x="151.326499034" xlink:href="#m2187b2e667" y="70.2804932402"/>
     <use style="fill:#00008b;stroke:#000000;" x="109.250953053" xlink:href="#m2187b2e667" y="150.57316892"/>
     <use style="fill:#00008b;stroke:#000000;" x="151.326499034" xlink:href="#m2187b2e667" y="70.2804932402"/>
     <use style="fill:#00008b;stroke:#000000;" x="81.2005890655" xlink:href="#m2187b2e667" y="130.5"/>
     <use style="fill:#00008b;stroke:#000000;" x="179.376863022" xlink:href="#m2187b2e667" y="80.3170777002"/>
     <use style="fill:#00008b;stroke:#000000;" x="137.301317041" xlink:href="#m2187b2e667" y="120.46341554"/>
    </g>
   </g>
   <g id="PathCollection_2">
    <defs>
     <path d="M 0 2 
C 0.530406 2 1.03916 1.789267 1.414214 1.414214 
C 1.789267 1.03916 2 0.530406 2 0 
C 2 -0.530406 1.789267 -1.03916 1.414214 -1.414214 
C 1.03916 -1.789267 0.530406 -2 0 -2 
C -0.530406 -2 -1.03916 -1.789267 -1.414214 -1.414214 
C -1.789267 -1.03916 -2 -0.530406 -2 0 
C -2 0.530406 -1.789267 1.03916 -1.414214 1.414214 
C -1.03916 1.789267 -0.530406 2 0 2 
z
" id="m334ef2f7c3" style="stroke:#000000;"/>
    </defs>
    <g clip-path="url(#p8d1bb69635)">
     <use style="fill:#cc0000;stroke:#000000;" x="417.804956916" xlink:href="#m334ef2f7c3" y="130.5"/>
     <use style="fill:#cc0000;stroke:#000000;" x="333.653864953" xlink:href="#m334ef2f7c3" y="130.5"/>
     <use style="fill:#cc0000;stroke:#000000;" x="403.779774922" xlink:href="#m334ef2f7c3" y="140.53658446"/>
     <use style="fill:#cc0000;stroke:#000000;" x="207.427227009" xlink:href="#m334ef2f7c3" y="220.82926014"/>
     <use style="fill:#cc0000;stroke:#000000;" x="347.679046947" xlink:href="#m334ef2f7c3" y="170.64633784"/>
     <use style="fill:#cc0000;stroke:#000000;" x="235.477590997" xlink:href="#m334ef2f7c3" y="170.64633784"/>
     <use style="fill:#cc0000;stroke:#000000;" x="319.628682959" xlink:href="#m334ef2f7c3" y="120.46341554"/>
     <use style="fill:#cc0000;stroke:#000000;" x="123.276135047" xlink:href="#m334ef2f7c3" y="210.79267568"/>
     <use style="fill:#cc0000;stroke:#000000;" x="361.704228941" xlink:href="#m334ef2f7c3" y="160.60975338"/>
     <use style="fill:#cc0000;stroke:#000000;" x="165.351681028" xlink:href="#m334ef2f7c3" y="180.6829223"/>
     <use style="fill:#cc0000;stroke:#000000;" x="137.301317041" xlink:href="#m334ef2f7c3" y="250.93901352"/>
     <use style="fill:#cc0000;stroke:#000000;" x="263.527954984" xlink:href="#m334ef2f7c3" y="150.57316892"/>
     <use style="fill:#cc0000;stroke:#000000;" x="277.553136978" xlink:href="#m334ef2f7c3" y="230.8658446"/>
     <use style="fill:#cc0000;stroke:#000000;" x="291.578318972" xlink:href="#m334ef2f7c3" y="160.60975338"/>
     <use style="fill:#cc0000;stroke:#000000;" x="221.452409003" xlink:href="#m334ef2f7c3" y="160.60975338"/>
     <use style="fill:#cc0000;stroke:#000000;" x="375.729410934" xlink:href="#m334ef2f7c3" y="140.53658446"/>
     <use style="fill:#cc0000;stroke:#000000;" x="221.452409003" xlink:href="#m334ef2f7c3" y="150.57316892"/>
     <use style="fill:#cc0000;stroke:#000000;" x="249.502772991" xlink:href="#m334ef2f7c3" y="180.6829223"/>
     <use style="fill:#cc0000;stroke:#000000;" x="305.603500966" xlink:href="#m334ef2f7c3" y="230.8658446"/>
     <use style="fill:#cc0000;stroke:#000000;" x="221.452409003" xlink:href="#m334ef2f7c3" y="200.75609122"/>
     <use style="fill:#cc0000;stroke:#000000;" x="263.527954984" xlink:href="#m334ef2f7c3" y="130.5"/>
     <use style="fill:#cc0000;stroke:#000000;" x="291.578318972" xlink:href="#m334ef2f7c3" y="170.64633784"/>
     <use style="fill:#cc0000;stroke:#000000;" x="319.628682959" xlink:href="#m334ef2f7c3" y="200.75609122"/>
     <use style="fill:#cc0000;stroke:#000000;" x="291.578318972" xlink:href="#m334ef2f7c3" y="170.64633784"/>
     <use style="fill:#cc0000;stroke:#000000;" x="333.653864953" xlink:href="#m334ef2f7c3" y="160.60975338"/>
     <use style="fill:#cc0000;stroke:#000000;" x="361.704228941" xlink:href="#m334ef2f7c3" y="150.57316892"/>
     <use style="fill:#cc0000;stroke:#000000;" x="389.754592928" xlink:href="#m334ef2f7c3" y="170.64633784"/>
     <use style="fill:#cc0000;stroke:#000000;" x="375.729410934" xlink:href="#m334ef2f7c3" y="150.57316892"/>
     <use style="fill:#cc0000;stroke:#000000;" x="277.553136978" xlink:href="#m334ef2f7c3" y="160.60975338"/>
     <use style="fill:#cc0000;stroke:#000000;" x="235.477590997" xlink:href="#m334ef2f7c3" y="190.71950676"/>
     <use style="fill:#cc0000;stroke:#000000;" x="207.427227009" xlink:href="#m334ef2f7c3" y="210.79267568"/>
     <use style="fill:#cc0000;stroke:#000000;" x="207.427227009" xlink:href="#m334ef2f7c3" y="210.79267568"/>
     <use style="fill:#cc0000;stroke:#000000;" x="249.502772991" xlink:href="#m334ef2f7c3" y="180.6829223"/>
     <use style="fill:#cc0000;stroke:#000000;" x="277.553136978" xlink:href="#m334ef2f7c3" y="180.6829223"/>
     <use style="fill:#cc0000;stroke:#000000;" x="193.402045016" xlink:href="#m334ef2f7c3" y="150.57316892"/>
     <use style="fill:#cc0000;stroke:#000000;" x="277.553136978" xlink:href="#m334ef2f7c3" y="110.42683108"/>
     <use style="fill:#cc0000;stroke:#000000;" x="375.729410934" xlink:href="#m334ef2f7c3" y="140.53658446"/>
     <use style="fill:#cc0000;stroke:#000000;" x="319.628682959" xlink:href="#m334ef2f7c3" y="220.82926014"/>
     <use style="fill:#cc0000;stroke:#000000;" x="221.452409003" xlink:href="#m334ef2f7c3" y="150.57316892"/>
     <use style="fill:#cc0000;stroke:#000000;" x="207.427227009" xlink:href="#m334ef2f7c3" y="200.75609122"/>
     <use style="fill:#cc0000;stroke:#000000;" x="207.427227009" xlink:href="#m334ef2f7c3" y="190.71950676"/>
     <use style="fill:#cc0000;stroke:#000000;" x="291.578318972" xlink:href="#m334ef2f7c3" y="150.57316892"/>
     <use style="fill:#cc0000;stroke:#000000;" x="249.502772991" xlink:href="#m334ef2f7c3" y="190.71950676"/>
     <use style="fill:#cc0000;stroke:#000000;" x="137.301317041" xlink:href="#m334ef2f7c3" y="220.82926014"/>
     <use style="fill:#cc0000;stroke:#000000;" x="221.452409003" xlink:href="#m334ef2f7c3" y="180.6829223"/>
     <use style="fill:#cc0000;stroke:#000000;" x="235.477590997" xlink:href="#m334ef2f7c3" y="150.57316892"/>
     <use style="fill:#cc0000;stroke:#000000;" x="235.477590997" xlink:href="#m334ef2f7c3" y="160.60975338"/>
     <use style="fill:#cc0000;stroke:#000000;" x="305.603500966" xlink:href="#m334ef2f7c3" y="160.60975338"/>
     <use style="fill:#cc0000;stroke:#000000;" x="151.326499034" xlink:href="#m334ef2f7c3" y="200.75609122"/>
     <use style="fill:#cc0000;stroke:#000000;" x="235.477590997" xlink:href="#m334ef2f7c3" y="170.64633784"/>
    </g>
   </g>
   <g id="patch_3">
    <path d="M 27.764646 2.834646 
L 429.165354 2.834646 
" style="fill:none;stroke:#000000;stroke-linecap:square;stroke-linejoin:miter;"/>
   </g>
   <g id="patch_4">
    <path d="M 429.165354 258.165354 
L 429.165354 2.834646 
" style="fill:none;stroke:#000000;stroke-linecap:square;stroke-linejoin:miter;"/>
   </g>
   <g id="patch_5">
    <path d="M 27.764646 258.165354 
L 429.165354 258.165354 
" style="fill:none;stroke:#000000;stroke-linecap:square;stroke-linejoin:miter;"/>
   </g>
   <g id="patch_6">
    <path d="M 27.764646 258.165354 
L 27.764646 2.834646 
" style="fill:none;stroke:#000000;stroke-linecap:square;stroke-linejoin:miter;"/>
   </g>
   <g id="matplotlib.axis_1">
    <g id="xtick_1">
     <g id="line2d_1">
      <defs>
       <path d="M 0 0 
L 0 -4 
" id="mdea02713eb" style="stroke:#000000;stroke-width:0.5;"/>
      </defs>
      <g>
       <use style="stroke:#000000;stroke-width:0.5;" x="137.301317041" xlink:href="#mdea02713eb" y="258.165354331"/>
      </g>
     </g>
     <g id="line2d_2">
      <defs>
       <path d="M 0 0 
L 0 4 
" id="mb35e254965" style="stroke:#000000;stroke-width:0.5;"/>
      </defs>
      <g>
       <use style="stroke:#000000;stroke-width:0.5;" x="137.301317041" xlink:href="#mb35e254965" y="2.83464566929"/>
      </g>
     </g>
     <g id="text_1">
      <!-- 5 -->
      <defs>
       <path d="M 10.796875 72.90625 
L 49.515625 72.90625 
L 49.515625 64.59375 
L 19.828125 64.59375 
L 19.828125 46.734375 
Q 21.96875 47.46875 24.109375 47.828125 
Q 26.265625 48.1875 28.421875 48.1875 
Q 40.625 48.1875 47.75 41.5 
Q 54.890625 34.8125 54.890625 23.390625 
Q 54.890625 11.625 47.5625 5.09375 
Q 40.234375 -1.421875 26.90625 -1.421875 
Q 22.3125 -1.421875 17.546875 -0.640625 
Q 12.796875 0.140625 7.71875 1.703125 
L 7.71875 11.625 
Q 12.109375 9.234375 16.796875 8.0625 
Q 21.484375 6.890625 26.703125 6.890625 
Q 35.15625 6.890625 40.078125 11.328125 
Q 45.015625 15.765625 45.015625 23.390625 
Q 45.015625 31 40.078125 35.4375 
Q 35.15625 39.890625 26.703125 39.890625 
Q 22.75 39.890625 18.8125 39.015625 
Q 14.890625 38.140625 10.796875 36.28125 
z
" id="BitstreamVeraSans-Roman-35"/>
      </defs>
      <g transform="translate(134.756317041 268.244104331)scale(0.08 -0.08)">
       <use xlink:href="#BitstreamVeraSans-Roman-35"/>
      </g>
     </g>
    </g>
    <g id="xtick_2">
     <g id="line2d_3">
      <g>
       <use style="stroke:#000000;stroke-width:0.5;" x="277.553136978" xlink:href="#mdea02713eb" y="258.165354331"/>
      </g>
     </g>
     <g id="line2d_4">
      <g>
       <use style="stroke:#000000;stroke-width:0.5;" x="277.553136978" xlink:href="#mb35e254965" y="2.83464566929"/>
      </g>
     </g>
     <g id="text_2">
      <!-- 6 -->
      <defs>
       <path d="M 33.015625 40.375 
Q 26.375 40.375 22.484375 35.828125 
Q 18.609375 31.296875 18.609375 23.390625 
Q 18.609375 15.53125 22.484375 10.953125 
Q 26.375 6.390625 33.015625 6.390625 
Q 39.65625 6.390625 43.53125 10.953125 
Q 47.40625 15.53125 47.40625 23.390625 
Q 47.40625 31.296875 43.53125 35.828125 
Q 39.65625 40.375 33.015625 40.375 
M 52.59375 71.296875 
L 52.59375 62.3125 
Q 48.875 64.0625 45.09375 64.984375 
Q 41.3125 65.921875 37.59375 65.921875 
Q 27.828125 65.921875 22.671875 59.328125 
Q 17.53125 52.734375 16.796875 39.40625 
Q 19.671875 43.65625 24.015625 45.921875 
Q 28.375 48.1875 33.59375 48.1875 
Q 44.578125 48.1875 50.953125 41.515625 
Q 57.328125 34.859375 57.328125 23.390625 
Q 57.328125 12.15625 50.6875 5.359375 
Q 44.046875 -1.421875 33.015625 -1.421875 
Q 20.359375 -1.421875 13.671875 8.265625 
Q 6.984375 17.96875 6.984375 36.375 
Q 6.984375 53.65625 15.1875 63.9375 
Q 23.390625 74.21875 37.203125 74.21875 
Q 40.921875 74.21875 44.703125 73.484375 
Q 48.484375 72.75 52.59375 71.296875 
" id="BitstreamVeraSans-Roman-36"/>
      </defs>
      <g transform="translate(275.008136978 268.244104331)scale(0.08 -0.08)">
       <use xlink:href="#BitstreamVeraSans-Roman-36"/>
      </g>
     </g>
    </g>
    <g id="xtick_3">
     <g id="line2d_5">
      <g>
       <use style="stroke:#000000;stroke-width:0.5;" x="417.804956916" xlink:href="#mdea02713eb" y="258.165354331"/>
      </g>
     </g>
     <g id="line2d_6">
      <g>
       <use style="stroke:#000000;stroke-width:0.5;" x="417.804956916" xlink:href="#mb35e254965" y="2.83464566929"/>
      </g>
     </g>
     <g id="text_3">
      <!-- 7 -->
      <defs>
       <path d="M 8.203125 72.90625 
L 55.078125 72.90625 
L 55.078125 68.703125 
L 28.609375 0 
L 18.3125 0 
L 43.21875 64.59375 
L 8.203125 64.59375 
z
" id="BitstreamVeraSans-Roman-37"/>
      </defs>
      <g transform="translate(415.259956916 268.244104331)scale(0.08 -0.08)">
       <use xlink:href="#BitstreamVeraSans-Roman-37"/>
      </g>
     </g>
    </g>
    <g id="text_4">
     <!-- Sepal length [cm] -->
     <defs>
      <path id="BitstreamVeraSans-Roman-20"/>
      <path d="M 8.59375 75.984375 
L 29.296875 75.984375 
L 29.296875 69 
L 17.578125 69 
L 17.578125 -6.203125 
L 29.296875 -6.203125 
L 29.296875 -13.1875 
L 8.59375 -13.1875 
z
" id="BitstreamVeraSans-Roman-5b"/>
      <path d="M 30.421875 75.984375 
L 30.421875 -13.1875 
L 9.71875 -13.1875 
L 9.71875 -6.203125 
L 21.390625 -6.203125 
L 21.390625 69 
L 9.71875 69 
L 9.71875 75.984375 
z
" id="BitstreamVeraSans-Roman-5d"/>
      <path d="M 54.890625 33.015625 
L 54.890625 0 
L 45.90625 0 
L 45.90625 32.71875 
Q 45.90625 40.484375 42.875 44.328125 
Q 39.84375 48.1875 33.796875 48.1875 
Q 26.515625 48.1875 22.3125 43.546875 
Q 18.109375 38.921875 18.109375 30.90625 
L 18.109375 0 
L 9.078125 0 
L 9.078125 54.6875 
L 18.109375 54.6875 
L 18.109375 46.1875 
Q 21.34375 51.125 25.703125 53.5625 
Q 30.078125 56 35.796875 56 
Q 45.21875 56 50.046875 50.171875 
Q 54.890625 44.34375 54.890625 33.015625 
" id="BitstreamVeraSans-Roman-6e"/>
      <path d="M 52 44.1875 
Q 55.375 50.25 60.0625 53.125 
Q 64.75 56 71.09375 56 
Q 79.640625 56 84.28125 50.015625 
Q 88.921875 44.046875 88.921875 33.015625 
L 88.921875 0 
L 79.890625 0 
L 79.890625 32.71875 
Q 79.890625 40.578125 77.09375 44.375 
Q 74.3125 48.1875 68.609375 48.1875 
Q 61.625 48.1875 57.5625 43.546875 
Q 53.515625 38.921875 53.515625 30.90625 
L 53.515625 0 
L 44.484375 0 
L 44.484375 32.71875 
Q 44.484375 40.625 41.703125 44.40625 
Q 38.921875 48.1875 33.109375 48.1875 
Q 26.21875 48.1875 22.15625 43.53125 
Q 18.109375 38.875 18.109375 30.90625 
L 18.109375 0 
L 9.078125 0 
L 9.078125 54.6875 
L 18.109375 54.6875 
L 18.109375 46.1875 
Q 21.1875 51.21875 25.484375 53.609375 
Q 29.78125 56 35.6875 56 
Q 41.65625 56 45.828125 52.96875 
Q 50 49.953125 52 44.1875 
" id="BitstreamVeraSans-Roman-6d"/>
      <path d="M 9.421875 75.984375 
L 18.40625 75.984375 
L 18.40625 0 
L 9.421875 0 
z
" id="BitstreamVeraSans-Roman-6c"/>
      <path d="M 53.515625 70.515625 
L 53.515625 60.890625 
Q 47.90625 63.578125 42.921875 64.890625 
Q 37.9375 66.21875 33.296875 66.21875 
Q 25.25 66.21875 20.875 63.09375 
Q 16.5 59.96875 16.5 54.203125 
Q 16.5 49.359375 19.40625 46.890625 
Q 22.3125 44.4375 30.421875 42.921875 
L 36.375 41.703125 
Q 47.40625 39.59375 52.65625 34.296875 
Q 57.90625 29 57.90625 20.125 
Q 57.90625 9.515625 50.796875 4.046875 
Q 43.703125 -1.421875 29.984375 -1.421875 
Q 24.8125 -1.421875 18.96875 -0.25 
Q 13.140625 0.921875 6.890625 3.21875 
L 6.890625 13.375 
Q 12.890625 10.015625 18.65625 8.296875 
Q 24.421875 6.59375 29.984375 6.59375 
Q 38.421875 6.59375 43.015625 9.90625 
Q 47.609375 13.234375 47.609375 19.390625 
Q 47.609375 24.75 44.3125 27.78125 
Q 41.015625 30.8125 33.5 32.328125 
L 27.484375 33.5 
Q 16.453125 35.6875 11.515625 40.375 
Q 6.59375 45.0625 6.59375 53.421875 
Q 6.59375 63.09375 13.40625 68.65625 
Q 20.21875 74.21875 32.171875 74.21875 
Q 37.3125 74.21875 42.625 73.28125 
Q 47.953125 72.359375 53.515625 70.515625 
" id="BitstreamVeraSans-Roman-53"/>
      <path d="M 54.890625 33.015625 
L 54.890625 0 
L 45.90625 0 
L 45.90625 32.71875 
Q 45.90625 40.484375 42.875 44.328125 
Q 39.84375 48.1875 33.796875 48.1875 
Q 26.515625 48.1875 22.3125 43.546875 
Q 18.109375 38.921875 18.109375 30.90625 
L 18.109375 0 
L 9.078125 0 
L 9.078125 75.984375 
L 18.109375 75.984375 
L 18.109375 46.1875 
Q 21.34375 51.125 25.703125 53.5625 
Q 30.078125 56 35.796875 56 
Q 45.21875 56 50.046875 50.171875 
Q 54.890625 44.34375 54.890625 33.015625 
" id="BitstreamVeraSans-Roman-68"/>
      <path d="M 48.78125 52.59375 
L 48.78125 44.1875 
Q 44.96875 46.296875 41.140625 47.34375 
Q 37.3125 48.390625 33.40625 48.390625 
Q 24.65625 48.390625 19.8125 42.84375 
Q 14.984375 37.3125 14.984375 27.296875 
Q 14.984375 17.28125 19.8125 11.734375 
Q 24.65625 6.203125 33.40625 6.203125 
Q 37.3125 6.203125 41.140625 7.25 
Q 44.96875 8.296875 48.78125 10.40625 
L 48.78125 2.09375 
Q 45.015625 0.34375 40.984375 -0.53125 
Q 36.96875 -1.421875 32.421875 -1.421875 
Q 20.0625 -1.421875 12.78125 6.34375 
Q 5.515625 14.109375 5.515625 27.296875 
Q 5.515625 40.671875 12.859375 48.328125 
Q 20.21875 56 33.015625 56 
Q 37.15625 56 41.109375 55.140625 
Q 45.0625 54.296875 48.78125 52.59375 
" id="BitstreamVeraSans-Roman-63"/>
      <path d="M 56.203125 29.59375 
L 56.203125 25.203125 
L 14.890625 25.203125 
Q 15.484375 15.921875 20.484375 11.0625 
Q 25.484375 6.203125 34.421875 6.203125 
Q 39.59375 6.203125 44.453125 7.46875 
Q 49.3125 8.734375 54.109375 11.28125 
L 54.109375 2.78125 
Q 49.265625 0.734375 44.1875 -0.34375 
Q 39.109375 -1.421875 33.890625 -1.421875 
Q 20.796875 -1.421875 13.15625 6.1875 
Q 5.515625 13.8125 5.515625 26.8125 
Q 5.515625 40.234375 12.765625 48.109375 
Q 20.015625 56 32.328125 56 
Q 43.359375 56 49.78125 48.890625 
Q 56.203125 41.796875 56.203125 29.59375 
M 47.21875 32.234375 
Q 47.125 39.59375 43.09375 43.984375 
Q 39.0625 48.390625 32.421875 48.390625 
Q 24.90625 48.390625 20.390625 44.140625 
Q 15.875 39.890625 15.1875 32.171875 
z
" id="BitstreamVeraSans-Roman-65"/>
      <path d="M 45.40625 27.984375 
Q 45.40625 37.75 41.375 43.109375 
Q 37.359375 48.484375 30.078125 48.484375 
Q 22.859375 48.484375 18.828125 43.109375 
Q 14.796875 37.75 14.796875 27.984375 
Q 14.796875 18.265625 18.828125 12.890625 
Q 22.859375 7.515625 30.078125 7.515625 
Q 37.359375 7.515625 41.375 12.890625 
Q 45.40625 18.265625 45.40625 27.984375 
M 54.390625 6.78125 
Q 54.390625 -7.171875 48.1875 -13.984375 
Q 42 -20.796875 29.203125 -20.796875 
Q 24.46875 -20.796875 20.265625 -20.09375 
Q 16.0625 -19.390625 12.109375 -17.921875 
L 12.109375 -9.1875 
Q 16.0625 -11.328125 19.921875 -12.34375 
Q 23.78125 -13.375 27.78125 -13.375 
Q 36.625 -13.375 41.015625 -8.765625 
Q 45.40625 -4.15625 45.40625 5.171875 
L 45.40625 9.625 
Q 42.625 4.78125 38.28125 2.390625 
Q 33.9375 0 27.875 0 
Q 17.828125 0 11.671875 7.65625 
Q 5.515625 15.328125 5.515625 27.984375 
Q 5.515625 40.671875 11.671875 48.328125 
Q 17.828125 56 27.875 56 
Q 33.9375 56 38.28125 53.609375 
Q 42.625 51.21875 45.40625 46.390625 
L 45.40625 54.6875 
L 54.390625 54.6875 
z
" id="BitstreamVeraSans-Roman-67"/>
      <path d="M 34.28125 27.484375 
Q 23.390625 27.484375 19.1875 25 
Q 14.984375 22.515625 14.984375 16.5 
Q 14.984375 11.71875 18.140625 8.90625 
Q 21.296875 6.109375 26.703125 6.109375 
Q 34.1875 6.109375 38.703125 11.40625 
Q 43.21875 16.703125 43.21875 25.484375 
L 43.21875 27.484375 
z
M 52.203125 31.203125 
L 52.203125 0 
L 43.21875 0 
L 43.21875 8.296875 
Q 40.140625 3.328125 35.546875 0.953125 
Q 30.953125 -1.421875 24.3125 -1.421875 
Q 15.921875 -1.421875 10.953125 3.296875 
Q 6 8.015625 6 15.921875 
Q 6 25.140625 12.171875 29.828125 
Q 18.359375 34.515625 30.609375 34.515625 
L 43.21875 34.515625 
L 43.21875 35.40625 
Q 43.21875 41.609375 39.140625 45 
Q 35.0625 48.390625 27.6875 48.390625 
Q 23 48.390625 18.546875 47.265625 
Q 14.109375 46.140625 10.015625 43.890625 
L 10.015625 52.203125 
Q 14.9375 54.109375 19.578125 55.046875 
Q 24.21875 56 28.609375 56 
Q 40.484375 56 46.34375 49.84375 
Q 52.203125 43.703125 52.203125 31.203125 
" id="BitstreamVeraSans-Roman-61"/>
      <path d="M 18.3125 70.21875 
L 18.3125 54.6875 
L 36.8125 54.6875 
L 36.8125 47.703125 
L 18.3125 47.703125 
L 18.3125 18.015625 
Q 18.3125 11.328125 20.140625 9.421875 
Q 21.96875 7.515625 27.59375 7.515625 
L 36.8125 7.515625 
L 36.8125 0 
L 27.59375 0 
Q 17.1875 0 13.234375 3.875 
Q 9.28125 7.765625 9.28125 18.015625 
L 9.28125 47.703125 
L 2.6875 47.703125 
L 2.6875 54.6875 
L 9.28125 54.6875 
L 9.28125 70.21875 
z
" id="BitstreamVeraSans-Roman-74"/>
      <path d="M 18.109375 8.203125 
L 18.109375 -20.796875 
L 9.078125 -20.796875 
L 9.078125 54.6875 
L 18.109375 54.6875 
L 18.109375 46.390625 
Q 20.953125 51.265625 25.265625 53.625 
Q 29.59375 56 35.59375 56 
Q 45.5625 56 51.78125 48.09375 
Q 58.015625 40.1875 58.015625 27.296875 
Q 58.015625 14.40625 51.78125 6.484375 
Q 45.5625 -1.421875 35.59375 -1.421875 
Q 29.59375 -1.421875 25.265625 0.953125 
Q 20.953125 3.328125 18.109375 8.203125 
M 48.6875 27.296875 
Q 48.6875 37.203125 44.609375 42.84375 
Q 40.53125 48.484375 33.40625 48.484375 
Q 26.265625 48.484375 22.1875 42.84375 
Q 18.109375 37.203125 18.109375 27.296875 
Q 18.109375 17.390625 22.1875 11.75 
Q 26.265625 6.109375 33.40625 6.109375 
Q 40.53125 6.109375 44.609375 11.75 
Q 48.6875 17.390625 48.6875 27.296875 
" id="BitstreamVeraSans-Roman-70"/>
     </defs>
     <g transform="translate(179.498671875 283.266135581)scale(0.11 -0.11)">
      <use xlink:href="#BitstreamVeraSans-Roman-53"/>
      <use x="63.4765625" xlink:href="#BitstreamVeraSans-Roman-65"/>
      <use x="125.0" xlink:href="#BitstreamVeraSans-Roman-70"/>
      <use x="188.4765625" xlink:href="#BitstreamVeraSans-Roman-61"/>
      <use x="249.755859375" xlink:href="#BitstreamVeraSans-Roman-6c"/>
      <use x="277.5390625" xlink:href="#BitstreamVeraSans-Roman-20"/>
      <use x="309.326171875" xlink:href="#BitstreamVeraSans-Roman-6c"/>
      <use x="337.109375" xlink:href="#BitstreamVeraSans-Roman-65"/>
      <use x="398.6328125" xlink:href="#BitstreamVeraSans-Roman-6e"/>
      <use x="462.01171875" xlink:href="#BitstreamVeraSans-Roman-67"/>
      <use x="525.48828125" xlink:href="#BitstreamVeraSans-Roman-74"/>
      <use x="564.697265625" xlink:href="#BitstreamVeraSans-Roman-68"/>
      <use x="628.076171875" xlink:href="#BitstreamVeraSans-Roman-20"/>
      <use x="659.86328125" xlink:href="#BitstreamVeraSans-Roman-5b"/>
      <use x="698.876953125" xlink:href="#BitstreamVeraSans-Roman-63"/>
      <use x="753.857421875" xlink:href="#BitstreamVeraSans-Roman-6d"/>
      <use x="851.26953125" xlink:href="#BitstreamVeraSans-Roman-5d"/>
     </g>
    </g>
   </g>
   <g id="matplotlib.axis_2">
    <g id="ytick_1">
     <g id="line2d_7">
      <defs>
       <path d="M 0 0 
L 4 0 
" id="m8018d6dfb5" style="stroke:#000000;stroke-width:0.5;"/>
      </defs>
      <g>
       <use style="stroke:#000000;stroke-width:0.5;" x="27.7646456693" xlink:href="#m8018d6dfb5" y="250.93901352"/>
      </g>
     </g>
     <g id="line2d_8">
      <defs>
       <path d="M 0 0 
L -4 0 
" id="m8168e43f3f" style="stroke:#000000;stroke-width:0.5;"/>
      </defs>
      <g>
       <use style="stroke:#000000;stroke-width:0.5;" x="429.165354331" xlink:href="#m8168e43f3f" y="250.93901352"/>
      </g>
     </g>
     <g id="text_5">
      <!-- 2 -->
      <defs>
       <path d="M 19.1875 8.296875 
L 53.609375 8.296875 
L 53.609375 0 
L 7.328125 0 
L 7.328125 8.296875 
Q 12.9375 14.109375 22.625 23.890625 
Q 32.328125 33.6875 34.8125 36.53125 
Q 39.546875 41.84375 41.421875 45.53125 
Q 43.3125 49.21875 43.3125 52.78125 
Q 43.3125 58.59375 39.234375 62.25 
Q 35.15625 65.921875 28.609375 65.921875 
Q 23.96875 65.921875 18.8125 64.3125 
Q 13.671875 62.703125 7.8125 59.421875 
L 7.8125 69.390625 
Q 13.765625 71.78125 18.9375 73 
Q 24.125 74.21875 28.421875 74.21875 
Q 39.75 74.21875 46.484375 68.546875 
Q 53.21875 62.890625 53.21875 53.421875 
Q 53.21875 48.921875 51.53125 44.890625 
Q 49.859375 40.875 45.40625 35.40625 
Q 44.1875 33.984375 37.640625 27.21875 
Q 31.109375 20.453125 19.1875 8.296875 
" id="BitstreamVeraSans-Roman-32"/>
      </defs>
      <g transform="translate(18.6746456693 253.14651352)scale(0.08 -0.08)">
       <use xlink:href="#BitstreamVeraSans-Roman-32"/>
      </g>
     </g>
    </g>
    <g id="ytick_2">
     <g id="line2d_9">
      <g>
       <use style="stroke:#000000;stroke-width:0.5;" x="27.7646456693" xlink:href="#m8018d6dfb5" y="150.57316892"/>
      </g>
     </g>
     <g id="line2d_10">
      <g>
       <use style="stroke:#000000;stroke-width:0.5;" x="429.165354331" xlink:href="#m8168e43f3f" y="150.57316892"/>
      </g>
     </g>
     <g id="text_6">
      <!-- 3 -->
      <defs>
       <path d="M 40.578125 39.3125 
Q 47.65625 37.796875 51.625 33 
Q 55.609375 28.21875 55.609375 21.1875 
Q 55.609375 10.40625 48.1875 4.484375 
Q 40.765625 -1.421875 27.09375 -1.421875 
Q 22.515625 -1.421875 17.65625 -0.515625 
Q 12.796875 0.390625 7.625 2.203125 
L 7.625 11.71875 
Q 11.71875 9.328125 16.59375 8.109375 
Q 21.484375 6.890625 26.8125 6.890625 
Q 36.078125 6.890625 40.9375 10.546875 
Q 45.796875 14.203125 45.796875 21.1875 
Q 45.796875 27.640625 41.28125 31.265625 
Q 36.765625 34.90625 28.71875 34.90625 
L 20.21875 34.90625 
L 20.21875 43.015625 
L 29.109375 43.015625 
Q 36.375 43.015625 40.234375 45.921875 
Q 44.09375 48.828125 44.09375 54.296875 
Q 44.09375 59.90625 40.109375 62.90625 
Q 36.140625 65.921875 28.71875 65.921875 
Q 24.65625 65.921875 20.015625 65.03125 
Q 15.375 64.15625 9.8125 62.3125 
L 9.8125 71.09375 
Q 15.4375 72.65625 20.34375 73.4375 
Q 25.25 74.21875 29.59375 74.21875 
Q 40.828125 74.21875 47.359375 69.109375 
Q 53.90625 64.015625 53.90625 55.328125 
Q 53.90625 49.265625 50.4375 45.09375 
Q 46.96875 40.921875 40.578125 39.3125 
" id="BitstreamVeraSans-Roman-33"/>
      </defs>
      <g transform="translate(18.6746456693 152.78066892)scale(0.08 -0.08)">
       <use xlink:href="#BitstreamVeraSans-Roman-33"/>
      </g>
     </g>
    </g>
    <g id="ytick_3">
     <g id="line2d_11">
      <g>
       <use style="stroke:#000000;stroke-width:0.5;" x="27.7646456693" xlink:href="#m8018d6dfb5" y="50.2073243203"/>
      </g>
     </g>
     <g id="line2d_12">
      <g>
       <use style="stroke:#000000;stroke-width:0.5;" x="429.165354331" xlink:href="#m8168e43f3f" y="50.2073243203"/>
      </g>
     </g>
     <g id="text_7">
      <!-- 4 -->
      <defs>
       <path d="M 37.796875 64.3125 
L 12.890625 25.390625 
L 37.796875 25.390625 
z
M 35.203125 72.90625 
L 47.609375 72.90625 
L 47.609375 25.390625 
L 58.015625 25.390625 
L 58.015625 17.1875 
L 47.609375 17.1875 
L 47.609375 0 
L 37.796875 0 
L 37.796875 17.1875 
L 4.890625 17.1875 
L 4.890625 26.703125 
z
" id="BitstreamVeraSans-Roman-34"/>
      </defs>
      <g transform="translate(18.6746456693 52.4148243203)scale(0.08 -0.08)">
       <use xlink:href="#BitstreamVeraSans-Roman-34"/>
      </g>
     </g>
    </g>
    <g id="text_8">
     <!-- Sepal width [cm] -->
     <defs>
      <path d="M 4.203125 54.6875 
L 13.1875 54.6875 
L 24.421875 12.015625 
L 35.59375 54.6875 
L 46.1875 54.6875 
L 57.421875 12.015625 
L 68.609375 54.6875 
L 77.59375 54.6875 
L 63.28125 0 
L 52.6875 0 
L 40.921875 44.828125 
L 29.109375 0 
L 18.5 0 
z
" id="BitstreamVeraSans-Roman-77"/>
      <path d="M 9.421875 54.6875 
L 18.40625 54.6875 
L 18.40625 0 
L 9.421875 0 
z
M 9.421875 75.984375 
L 18.40625 75.984375 
L 18.40625 64.59375 
L 9.421875 64.59375 
z
" id="BitstreamVeraSans-Roman-69"/>
      <path d="M 45.40625 46.390625 
L 45.40625 75.984375 
L 54.390625 75.984375 
L 54.390625 0 
L 45.40625 0 
L 45.40625 8.203125 
Q 42.578125 3.328125 38.25 0.953125 
Q 33.9375 -1.421875 27.875 -1.421875 
Q 17.96875 -1.421875 11.734375 6.484375 
Q 5.515625 14.40625 5.515625 27.296875 
Q 5.515625 40.1875 11.734375 48.09375 
Q 17.96875 56 27.875 56 
Q 33.9375 56 38.25 53.625 
Q 42.578125 51.265625 45.40625 46.390625 
M 14.796875 27.296875 
Q 14.796875 17.390625 18.875 11.75 
Q 22.953125 6.109375 30.078125 6.109375 
Q 37.203125 6.109375 41.296875 11.75 
Q 45.40625 17.390625 45.40625 27.296875 
Q 45.40625 37.203125 41.296875 42.84375 
Q 37.203125 48.484375 30.078125 48.484375 
Q 22.953125 48.484375 18.875 42.84375 
Q 14.796875 37.203125 14.796875 27.296875 
" id="BitstreamVeraSans-Roman-64"/>
     </defs>
     <g transform="translate(11.3869894193 177.094453125)rotate(-90.0)scale(0.11 -0.11)">
      <use xlink:href="#BitstreamVeraSans-Roman-53"/>
      <use x="63.4765625" xlink:href="#BitstreamVeraSans-Roman-65"/>
      <use x="125.0" xlink:href="#BitstreamVeraSans-Roman-70"/>
      <use x="188.4765625" xlink:href="#BitstreamVeraSans-Roman-61"/>
      <use x="249.755859375" xlink:href="#BitstreamVeraSans-Roman-6c"/>
      <use x="277.5390625" xlink:href="#BitstreamVeraSans-Roman-20"/>
      <use x="309.326171875" xlink:href="#BitstreamVeraSans-Roman-77"/>
      <use x="391.11328125" xlink:href="#BitstreamVeraSans-Roman-69"/>
      <use x="418.896484375" xlink:href="#BitstreamVeraSans-Roman-64"/>
      <use x="482.373046875" xlink:href="#BitstreamVeraSans-Roman-74"/>
      <use x="521.58203125" xlink:href="#BitstreamVeraSans-Roman-68"/>
      <use x="584.9609375" xlink:href="#BitstreamVeraSans-Roman-20"/>
      <use x="616.748046875" xlink:href="#BitstreamVeraSans-Roman-5b"/>
      <use x="655.76171875" xlink:href="#BitstreamVeraSans-Roman-63"/>
      <use x="710.7421875" xlink:href="#BitstreamVeraSans-Roman-6d"/>
      <use x="808.154296875" xlink:href="#BitstreamVeraSans-Roman-5d"/>
     </g>
    </g>
   </g>
   <g id="legend_1">
    <g id="patch_7">
     <path d="M 360.769104 32.609646 
L 425.165354 32.609646 
L 425.165354 6.834646 
L 360.769104 6.834646 
z
" style="fill:#ffffff;stroke:#000000;stroke-linejoin:miter;"/>
    </g>
    <g id="PathCollection_3">
     <path d="M 371.969104 16.142146 
C 372.499511 16.142146 373.008264 15.931413 373.383318 15.556359 
C 373.758372 15.181305 373.969104 14.672552 373.969104 14.142146 
C 373.969104 13.611739 373.758372 13.102986 373.383318 12.727932 
C 373.008264 12.352878 372.499511 12.142146 371.969104 12.142146 
C 371.438698 12.142146 370.929945 12.352878 370.554891 12.727932 
C 370.179837 13.102986 369.969104 13.611739 369.969104 14.142146 
C 369.969104 14.672552 370.179837 15.181305 370.554891 15.556359 
C 370.929945 15.931413 371.438698 16.142146 371.969104 16.142146 
z
" style="fill:#00008b;stroke:#000000;"/>
     <path d="M 371.969104 16.142146 
C 372.499511 16.142146 373.008264 15.931413 373.383318 15.556359 
C 373.758372 15.181305 373.969104 14.672552 373.969104 14.142146 
C 373.969104 13.611739 373.758372 13.102986 373.383318 12.727932 
C 373.008264 12.352878 372.499511 12.142146 371.969104 12.142146 
C 371.438698 12.142146 370.929945 12.352878 370.554891 12.727932 
C 370.179837 13.102986 369.969104 13.611739 369.969104 14.142146 
C 369.969104 14.672552 370.179837 15.181305 370.554891 15.556359 
C 370.929945 15.931413 371.438698 16.142146 371.969104 16.142146 
z
" style="fill:#00008b;stroke:#000000;"/>
     <path d="M 371.969104 16.142146 
C 372.499511 16.142146 373.008264 15.931413 373.383318 15.556359 
C 373.758372 15.181305 373.969104 14.672552 373.969104 14.142146 
C 373.969104 13.611739 373.758372 13.102986 373.383318 12.727932 
C 373.008264 12.352878 372.499511 12.142146 371.969104 12.142146 
C 371.438698 12.142146 370.929945 12.352878 370.554891 12.727932 
C 370.179837 13.102986 369.969104 13.611739 369.969104 14.142146 
C 369.969104 14.672552 370.179837 15.181305 370.554891 15.556359 
C 370.929945 15.931413 371.438698 16.142146 371.969104 16.142146 
z
" style="fill:#00008b;stroke:#000000;"/>
    </g>
    <g id="text_9">
     <!-- setosa -->
     <defs>
      <path d="M 5.09375 25.90625 
Q 5.09375 32.796875 7.09375 37.9375 
Q 9.09375 43.09375 12.390625 46.5 
Q 15.703125 49.90625 20 51.59375 
Q 24.296875 53.296875 28.796875 53.296875 
Q 39.296875 53.296875 44.890625 46.75 
Q 50.5 40.203125 50.5 26.796875 
Q 50.5 26.203125 50.5 25.25 
Q 50.5 24.296875 50.40625 23.5 
L 14.796875 23.5 
Q 15.40625 15.40625 19.5 11.203125 
Q 23.59375 7 32.296875 7 
Q 37.203125 7 40.546875 7.84375 
Q 43.90625 8.703125 45.59375 9.5 
L 46.90625 1.703125 
Q 45.203125 0.796875 40.953125 -0.203125 
Q 36.703125 -1.203125 31.296875 -1.203125 
Q 24.5 -1.203125 19.546875 0.84375 
Q 14.59375 2.90625 11.390625 6.5 
Q 8.203125 10.09375 6.640625 15.046875 
Q 5.09375 20 5.09375 25.90625 
M 40.796875 31 
Q 40.90625 37.296875 37.65625 41.34375 
Q 34.40625 45.40625 28.703125 45.40625 
Q 25.5 45.40625 23.046875 44.15625 
Q 20.59375 42.90625 18.890625 40.90625 
Q 17.203125 38.90625 16.25 36.296875 
Q 15.296875 33.703125 15 31 
z
" id="Ubuntu-65"/>
      <path d="M 16.703125 52 
L 36.40625 52 
L 36.40625 44.203125 
L 16.703125 44.203125 
L 16.703125 20.203125 
Q 16.703125 16.296875 17.296875 13.75 
Q 17.90625 11.203125 19.09375 9.75 
Q 20.296875 8.296875 22.09375 7.6875 
Q 23.90625 7.09375 26.296875 7.09375 
Q 30.5 7.09375 33.046875 8.046875 
Q 35.59375 9 36.59375 9.40625 
L 38.40625 1.703125 
Q 37 1 33.5 -0.046875 
Q 30 -1.09375 25.5 -1.09375 
Q 20.203125 -1.09375 16.75 0.25 
Q 13.296875 1.59375 11.1875 4.296875 
Q 9.09375 7 8.25 10.953125 
Q 7.40625 14.90625 7.40625 20.09375 
L 7.40625 66.5 
L 16.703125 68.09375 
z
" id="Ubuntu-74"/>
      <path d="M 53.90625 26 
Q 53.90625 19.796875 52.09375 14.796875 
Q 50.296875 9.796875 47.046875 6.1875 
Q 43.796875 2.59375 39.296875 0.640625 
Q 34.796875 -1.296875 29.5 -1.296875 
Q 24.203125 -1.296875 19.703125 0.640625 
Q 15.203125 2.59375 11.953125 6.1875 
Q 8.703125 9.796875 6.890625 14.796875 
Q 5.09375 19.796875 5.09375 26 
Q 5.09375 32.09375 6.890625 37.140625 
Q 8.703125 42.203125 11.953125 45.796875 
Q 15.203125 49.40625 19.703125 51.34375 
Q 24.203125 53.296875 29.5 53.296875 
Q 34.796875 53.296875 39.296875 51.34375 
Q 43.796875 49.40625 47.046875 45.796875 
Q 50.296875 42.203125 52.09375 37.140625 
Q 53.90625 32.09375 53.90625 26 
M 44.203125 26 
Q 44.203125 34.796875 40.25 39.9375 
Q 36.296875 45.09375 29.5 45.09375 
Q 22.703125 45.09375 18.75 39.9375 
Q 14.796875 34.796875 14.796875 26 
Q 14.796875 17.203125 18.75 12.046875 
Q 22.703125 6.90625 29.5 6.90625 
Q 36.296875 6.90625 40.25 12.046875 
Q 44.203125 17.203125 44.203125 26 
" id="Ubuntu-6f"/>
      <path d="M 25.59375 6.703125 
Q 28.90625 6.703125 31.453125 6.84375 
Q 34 7 35.703125 7.40625 
L 35.703125 22.90625 
Q 34.703125 23.40625 32.453125 23.75 
Q 30.203125 24.09375 27 24.09375 
Q 24.90625 24.09375 22.546875 23.796875 
Q 20.203125 23.5 18.25 22.546875 
Q 16.296875 21.59375 15 19.9375 
Q 13.703125 18.296875 13.703125 15.59375 
Q 13.703125 10.59375 16.890625 8.640625 
Q 20.09375 6.703125 25.59375 6.703125 
M 24.796875 53.296875 
Q 30.40625 53.296875 34.25 51.84375 
Q 38.09375 50.40625 40.4375 47.75 
Q 42.796875 45.09375 43.796875 41.4375 
Q 44.796875 37.796875 44.796875 33.40625 
L 44.796875 0.90625 
Q 43.59375 0.703125 41.4375 0.34375 
Q 39.296875 0 36.59375 -0.296875 
Q 33.90625 -0.59375 30.75 -0.84375 
Q 27.59375 -1.09375 24.5 -1.09375 
Q 20.09375 -1.09375 16.390625 -0.1875 
Q 12.703125 0.703125 10 2.640625 
Q 7.296875 4.59375 5.796875 7.796875 
Q 4.296875 11 4.296875 15.5 
Q 4.296875 19.796875 6.046875 22.890625 
Q 7.796875 26 10.796875 27.890625 
Q 13.796875 29.796875 17.796875 30.6875 
Q 21.796875 31.59375 26.203125 31.59375 
Q 27.59375 31.59375 29.09375 31.4375 
Q 30.59375 31.296875 31.9375 31.046875 
Q 33.296875 30.796875 34.296875 30.59375 
Q 35.296875 30.40625 35.703125 30.296875 
L 35.703125 32.90625 
Q 35.703125 35.203125 35.203125 37.453125 
Q 34.703125 39.703125 33.390625 41.453125 
Q 32.09375 43.203125 29.84375 44.25 
Q 27.59375 45.296875 24 45.296875 
Q 19.40625 45.296875 15.953125 44.640625 
Q 12.5 44 10.796875 43.296875 
L 9.703125 51 
Q 11.5 51.796875 15.703125 52.546875 
Q 19.90625 53.296875 24.796875 53.296875 
" id="Ubuntu-61"/>
      <path d="M 20.09375 6.703125 
Q 25.796875 6.703125 28.546875 8.203125 
Q 31.296875 9.703125 31.296875 13 
Q 31.296875 16.40625 28.59375 18.40625 
Q 25.90625 20.40625 19.703125 22.90625 
Q 16.703125 24.09375 13.953125 25.34375 
Q 11.203125 26.59375 9.203125 28.296875 
Q 7.203125 30 6 32.390625 
Q 4.796875 34.796875 4.796875 38.296875 
Q 4.796875 45.203125 9.890625 49.25 
Q 15 53.296875 23.796875 53.296875 
Q 26 53.296875 28.203125 53.046875 
Q 30.40625 52.796875 32.296875 52.4375 
Q 34.203125 52.09375 35.640625 51.6875 
Q 37.09375 51.296875 37.90625 51 
L 36.203125 43 
Q 34.703125 43.796875 31.5 44.640625 
Q 28.296875 45.5 23.796875 45.5 
Q 19.90625 45.5 17 43.953125 
Q 14.09375 42.40625 14.09375 39.09375 
Q 14.09375 37.40625 14.75 36.09375 
Q 15.40625 34.796875 16.75 33.75 
Q 18.09375 32.703125 20.09375 31.796875 
Q 22.09375 30.90625 24.90625 29.90625 
Q 28.59375 28.5 31.5 27.140625 
Q 34.40625 25.796875 36.453125 24 
Q 38.5 22.203125 39.59375 19.640625 
Q 40.703125 17.09375 40.703125 13.40625 
Q 40.703125 6.203125 35.34375 2.5 
Q 30 -1.203125 20.09375 -1.203125 
Q 13.203125 -1.203125 9.296875 -0.046875 
Q 5.40625 1.09375 4 1.703125 
L 5.703125 9.703125 
Q 7.296875 9.09375 10.796875 7.890625 
Q 14.296875 6.703125 20.09375 6.703125 
" id="Ubuntu-73"/>
     </defs>
     <g transform="translate(386.369104331 16.2421456693)scale(0.08 -0.08)">
      <use xlink:href="#Ubuntu-73"/>
      <use x="44.5999908447" xlink:href="#Ubuntu-65"/>
      <use x="100.499984741" xlink:href="#Ubuntu-74"/>
      <use x="140.684356689" xlink:href="#Ubuntu-6f"/>
      <use x="199.684341431" xlink:href="#Ubuntu-73"/>
      <use x="244.284332275" xlink:href="#Ubuntu-61"/>
     </g>
    </g>
    <g id="PathCollection_4">
     <path d="M 371.969104 27.829646 
C 372.499511 27.829646 373.008264 27.618913 373.383318 27.243859 
C 373.758372 26.868805 373.969104 26.360052 373.969104 25.829646 
C 373.969104 25.299239 373.758372 24.790486 373.383318 24.415432 
C 373.008264 24.040378 372.499511 23.829646 371.969104 23.829646 
C 371.438698 23.829646 370.929945 24.040378 370.554891 24.415432 
C 370.179837 24.790486 369.969104 25.299239 369.969104 25.829646 
C 369.969104 26.360052 370.179837 26.868805 370.554891 27.243859 
C 370.929945 27.618913 371.438698 27.829646 371.969104 27.829646 
z
" style="fill:#cc0000;stroke:#000000;"/>
     <path d="M 371.969104 27.829646 
C 372.499511 27.829646 373.008264 27.618913 373.383318 27.243859 
C 373.758372 26.868805 373.969104 26.360052 373.969104 25.829646 
C 373.969104 25.299239 373.758372 24.790486 373.383318 24.415432 
C 373.008264 24.040378 372.499511 23.829646 371.969104 23.829646 
C 371.438698 23.829646 370.929945 24.040378 370.554891 24.415432 
C 370.179837 24.790486 369.969104 25.299239 369.969104 25.829646 
C 369.969104 26.360052 370.179837 26.868805 370.554891 27.243859 
C 370.929945 27.618913 371.438698 27.829646 371.969104 27.829646 
z
" style="fill:#cc0000;stroke:#000000;"/>
     <path d="M 371.969104 27.829646 
C 372.499511 27.829646 373.008264 27.618913 373.383318 27.243859 
C 373.758372 26.868805 373.969104 26.360052 373.969104 25.829646 
C 373.969104 25.299239 373.758372 24.790486 373.383318 24.415432 
C 373.008264 24.040378 372.499511 23.829646 371.969104 23.829646 
C 371.438698 23.829646 370.929945 24.040378 370.554891 24.415432 
C 370.179837 24.790486 369.969104 25.299239 369.969104 25.829646 
C 369.969104 26.360052 370.179837 26.868805 370.554891 27.243859 
C 370.929945 27.618913 371.438698 27.829646 371.969104 27.829646 
z
" style="fill:#cc0000;stroke:#000000;"/>
    </g>
    <g id="text_10">
     <!-- versicolor -->
     <defs>
      <path d="M 48.59375 52 
Q 44.703125 37.40625 39.453125 24 
Q 34.203125 10.59375 29.296875 0 
L 20.90625 0 
Q 16 10.59375 10.75 24 
Q 5.5 37.40625 1.59375 52 
L 11.59375 52 
Q 12.796875 47.09375 14.4375 41.546875 
Q 16.09375 36 17.9375 30.546875 
Q 19.796875 25.09375 21.6875 20 
Q 23.59375 14.90625 25.296875 10.90625 
Q 27 14.90625 28.890625 20 
Q 30.796875 25.09375 32.640625 30.546875 
Q 34.5 36 36.140625 41.546875 
Q 37.796875 47.09375 39 52 
z
" id="Ubuntu-76"/>
      <path d="M 17.296875 0 
L 8 0 
L 8 52 
L 17.296875 52 
z
M 12.59375 61.40625 
Q 10.09375 61.40625 8.34375 63.046875 
Q 6.59375 64.703125 6.59375 67.5 
Q 6.59375 70.296875 8.34375 71.9375 
Q 10.09375 73.59375 12.59375 73.59375 
Q 15.09375 73.59375 16.84375 71.9375 
Q 18.59375 70.296875 18.59375 67.5 
Q 18.59375 64.703125 16.84375 63.046875 
Q 15.09375 61.40625 12.59375 61.40625 
" id="Ubuntu-69"/>
      <path d="M 27.203125 53.09375 
Q 28.40625 53.09375 29.953125 52.9375 
Q 31.5 52.796875 33 52.546875 
Q 34.5 52.296875 35.75 52.046875 
Q 37 51.796875 37.59375 51.59375 
L 36 43.5 
Q 34.90625 43.90625 32.34375 44.453125 
Q 29.796875 45 25.796875 45 
Q 23.203125 45 20.640625 44.453125 
Q 18.09375 43.90625 17.296875 43.703125 
L 17.296875 0 
L 8 0 
L 8 49.796875 
Q 11.296875 51 16.1875 52.046875 
Q 21.09375 53.09375 27.203125 53.09375 
" id="Ubuntu-72"/>
      <path d="M 23.59375 -1 
Q 15 -0.796875 11.390625 2.703125 
Q 7.796875 6.203125 7.796875 13.59375 
L 7.796875 76 
L 17.09375 77.59375 
L 17.09375 15.09375 
Q 17.09375 12.796875 17.5 11.296875 
Q 17.90625 9.796875 18.796875 8.890625 
Q 19.703125 8 21.203125 7.546875 
Q 22.703125 7.09375 24.90625 6.796875 
z
" id="Ubuntu-6c"/>
      <path d="M 30.59375 -1.203125 
Q 24.296875 -1.203125 19.546875 0.796875 
Q 14.796875 2.796875 11.546875 6.390625 
Q 8.296875 10 6.6875 14.953125 
Q 5.09375 19.90625 5.09375 25.90625 
Q 5.09375 31.90625 6.84375 36.90625 
Q 8.59375 41.90625 11.796875 45.546875 
Q 15 49.203125 19.640625 51.25 
Q 24.296875 53.296875 30 53.296875 
Q 33.5 53.296875 37 52.6875 
Q 40.5 52.09375 43.703125 50.796875 
L 41.59375 42.90625 
Q 39.5 43.90625 36.75 44.5 
Q 34 45.09375 30.90625 45.09375 
Q 23.09375 45.09375 18.9375 40.1875 
Q 14.796875 35.296875 14.796875 25.90625 
Q 14.796875 21.703125 15.75 18.203125 
Q 16.703125 14.703125 18.75 12.203125 
Q 20.796875 9.703125 24 8.34375 
Q 27.203125 7 31.796875 7 
Q 35.5 7 38.5 7.703125 
Q 41.5 8.40625 43.203125 9.203125 
L 44.5 1.40625 
Q 43.703125 0.90625 42.203125 0.453125 
Q 40.703125 0 38.796875 -0.34375 
Q 36.90625 -0.703125 34.75 -0.953125 
Q 32.59375 -1.203125 30.59375 -1.203125 
" id="Ubuntu-63"/>
     </defs>
     <g transform="translate(386.369104331 27.9296456693)scale(0.08 -0.08)">
      <use xlink:href="#Ubuntu-76"/>
      <use x="50.1843719482" xlink:href="#Ubuntu-65"/>
      <use x="106.084365845" xlink:href="#Ubuntu-72"/>
      <use x="144.684356689" xlink:href="#Ubuntu-73"/>
      <use x="189.284347534" xlink:href="#Ubuntu-69"/>
      <use x="214.584335327" xlink:href="#Ubuntu-63"/>
      <use x="261.068695068" xlink:href="#Ubuntu-6f"/>
      <use x="320.06867981" xlink:href="#Ubuntu-6c"/>
      <use x="347.368667603" xlink:href="#Ubuntu-6f"/>
      <use x="406.368652344" xlink:href="#Ubuntu-72"/>
     </g>
    </g>
   </g>
  </g>
 </g>
 <defs>
  <clipPath id="p8d1bb69635">
   <rect height="255.330708661" width="401.400708661" x="27.7646456693" y="2.83464566929"/>
  </clipPath>
 </defs>
</svg>
