<?xml version="1.0" encoding="utf-8" standalone="no"?>
<!DOCTYPE svg PUBLIC "-//W3C//DTD SVG 1.1//EN"
  "http://www.w3.org/Graphics/SVG/1.1/DTD/svg11.dtd">
<!-- Created with matplotlib (http://matplotlib.org/) -->
<svg height="288pt" version="1.1" viewBox="0 0 288 288" width="288pt" xmlns="http://www.w3.org/2000/svg" xmlns:xlink="http://www.w3.org/1999/xlink">
 <defs>
  <style type="text/css">
*{stroke-linecap:butt;stroke-linejoin:round;stroke-miterlimit:100000;}
  </style>
 </defs>
 <g id="figure_1">
  <g id="patch_1">
   <path d="M 0 288 
L 288 288 
L 288 0 
L 0 0 
L 0 288 
z
" style="fill:none;"/>
  </g>
  <g id="axes_1">
   <g id="patch_2">
    <path d="M 32.515333 255.889667 
L 285.165354 255.889667 
L 285.165354 3.239646 
L 32.515333 3.239646 
z
" style="fill:#ffffff;"/>
   </g>
   <g id="line2d_1">
    <path clip-path="url(#pc8c79e25c3)" d="M 53.569502 129.564656 
L 158.840344 24.293814 
L 264.111186 129.564656 
L 264.111186 129.564656 
L 158.840344 234.835498 
L 53.569502 129.564656 
L 53.569502 129.564656 
" style="fill:none;stroke:#00008b;stroke-linecap:round;"/>
   </g>
   <g id="line2d_2">
    <path clip-path="url(#pc8c79e25c3)" d="M 53.569502 129.564656 
L 53.569502 128.511948 
L 54.095856 119.005991 
L 54.62221 114.679359 
L 55.674918 108.594704 
L 56.727627 103.95226 
L 58.306689 98.330797 
L 59.885752 93.635718 
L 61.991169 88.298486 
L 64.096586 83.666569 
L 66.728357 78.592514 
L 69.360128 74.107977 
L 72.518253 69.307626 
L 75.676378 65.023103 
L 78.834504 61.138609 
L 83.045337 56.506692 
L 86.729817 52.864321 
L 90.940651 49.116679 
L 94.62513 46.148041 
L 98.835964 43.063605 
L 103.573152 39.968642 
L 107.257631 37.800063 
L 111.468465 35.557794 
L 115.679298 33.547121 
L 120.416486 31.557502 
L 125.680028 29.6521 
L 131.469925 27.915131 
L 136.733467 26.641354 
L 140.417946 25.914985 
L 146.734197 24.988602 
L 153.050447 24.45172 
L 159.366698 24.293814 
L 165.682948 24.514883 
L 171.999199 25.114927 
L 177.789095 26.009729 
L 184.105346 27.367723 
L 189.895242 28.978367 
L 195.158784 30.757444 
L 200.422326 32.852334 
L 205.159514 35.03144 
L 209.896702 37.505305 
L 214.107536 39.968642 
L 218.31837 42.705684 
L 223.055557 46.148041 
L 227.266391 49.569343 
L 227.266391 49.558816 
L 232.003579 53.874921 
L 235.688059 57.622563 
L 235.688059 57.612036 
L 239.898892 62.401859 
L 239.898892 62.391332 
L 243.583372 67.117993 
L 243.583372 67.107466 
L 246.741497 71.644639 
L 246.741497 71.634112 
L 249.899622 76.750275 
L 249.899622 76.739748 
L 252.531393 81.571679 
L 252.531393 81.561152 
L 254.63681 85.929892 
L 254.63681 85.908838 
L 256.742227 90.877622 
L 256.742227 90.867095 
L 258.32129 95.141091 
L 258.32129 95.120037 
L 259.900352 100.099348 
L 259.900352 100.078293 
L 260.953061 103.994369 
L 260.953061 103.95226 
L 262.005769 108.636813 
L 262.005769 108.594704 
L 263.058477 114.742522 
L 263.058477 114.679359 
L 263.584832 119.100735 
L 263.584832 119.005991 
L 264.111186 130.617365 
L 263.584832 140.123322 
L 263.058477 144.449953 
L 262.005769 150.534608 
L 260.953061 155.177052 
L 259.373998 160.798515 
L 257.794935 165.493595 
L 255.689519 170.830826 
L 253.584102 175.462743 
L 250.952331 180.536798 
L 248.32056 185.021336 
L 245.162434 189.821686 
L 242.004309 194.10621 
L 238.846184 197.990704 
L 234.63535 202.622621 
L 230.950871 206.264992 
L 226.740037 210.012634 
L 223.055557 212.981272 
L 218.844724 216.065707 
L 214.107536 219.16067 
L 210.423056 221.329249 
L 206.212223 223.571518 
L 202.001389 225.582191 
L 197.264201 227.57181 
L 192.000659 229.477213 
L 186.210763 231.214181 
L 180.947221 232.487959 
L 177.262741 233.214327 
L 170.946491 234.140711 
L 164.63024 234.677592 
L 158.31399 234.835498 
L 151.997739 234.61443 
L 145.681488 234.014386 
L 139.891592 233.119584 
L 133.575342 231.76159 
L 127.785445 230.150946 
L 122.521903 228.371869 
L 117.258361 226.276979 
L 112.521173 224.097873 
L 107.783985 221.624008 
L 103.573152 219.16067 
L 99.362318 216.423628 
L 94.62513 212.981272 
L 90.414296 209.559969 
L 90.414296 209.570496 
L 85.677108 205.254392 
L 81.992629 201.50675 
L 81.992629 201.517277 
L 77.781795 196.727454 
L 77.781795 196.737981 
L 74.097316 192.01132 
L 74.097316 192.021847 
L 70.939191 187.484674 
L 70.939191 187.495201 
L 67.781065 182.379038 
L 67.781065 182.389565 
L 65.149294 177.557633 
L 65.149294 177.56816 
L 63.043877 173.19942 
L 63.043877 173.220474 
L 60.938461 168.251691 
L 60.938461 168.262218 
L 59.359398 163.988222 
L 59.359398 164.009276 
L 57.780335 159.029965 
L 57.780335 159.051019 
L 56.727627 155.134944 
L 56.727627 155.177052 
L 55.674918 150.4925 
L 55.674918 150.534608 
L 54.62221 144.386791 
L 54.62221 144.449953 
L 54.095856 140.028578 
L 54.095856 140.123322 
L 53.569502 129.564656 
L 53.569502 130.617365 
" style="fill:none;stroke:#cc0000;stroke-linecap:round;"/>
   </g>
   <g id="patch_3">
    <path d="M 32.515333 3.239646 
L 285.165354 3.239646 
" style="fill:none;stroke:#000000;stroke-linecap:square;stroke-linejoin:miter;"/>
   </g>
   <g id="patch_4">
    <path d="M 285.165354 255.889667 
L 285.165354 3.239646 
" style="fill:none;stroke:#000000;stroke-linecap:square;stroke-linejoin:miter;"/>
   </g>
   <g id="patch_5">
    <path d="M 32.515333 255.889667 
L 285.165354 255.889667 
" style="fill:none;stroke:#000000;stroke-linecap:square;stroke-linejoin:miter;"/>
   </g>
   <g id="patch_6">
    <path d="M 32.515333 255.889667 
L 32.515333 3.239646 
" style="fill:none;stroke:#000000;stroke-linecap:square;stroke-linejoin:miter;"/>
   </g>
   <g id="matplotlib.axis_1">
    <g id="xtick_1">
     <g id="line2d_3">
      <defs>
       <path d="M 0 0 
L 0 -4 
" id="m2f51a6aa88" style="stroke:#000000;stroke-width:0.5;"/>
      </defs>
      <g>
       <use style="stroke:#000000;stroke-width:0.5;" x="53.5695015994" xlink:href="#m2f51a6aa88" y="255.889666831"/>
      </g>
     </g>
     <g id="line2d_4">
      <defs>
       <path d="M 0 0 
L 0 4 
" id="mf6cd3f73c2" style="stroke:#000000;stroke-width:0.5;"/>
      </defs>
      <g>
       <use style="stroke:#000000;stroke-width:0.5;" x="53.5695015994" xlink:href="#mf6cd3f73c2" y="3.23964566929"/>
      </g>
     </g>
     <g id="text_1">
      <!-- -1 -->
      <defs>
       <path d="M 12.40625 8.296875 
L 28.515625 8.296875 
L 28.515625 63.921875 
L 10.984375 60.40625 
L 10.984375 69.390625 
L 28.421875 72.90625 
L 38.28125 72.90625 
L 38.28125 8.296875 
L 54.390625 8.296875 
L 54.390625 0 
L 12.40625 0 
z
" id="BitstreamVeraSans-Roman-31"/>
       <path d="M 4.890625 31.390625 
L 31.203125 31.390625 
L 31.203125 23.390625 
L 4.890625 23.390625 
z
" id="BitstreamVeraSans-Roman-2d"/>
      </defs>
      <g transform="translate(49.5813765994 265.968416831)scale(0.08 -0.08)">
       <use xlink:href="#BitstreamVeraSans-Roman-2d"/>
       <use x="36.083984375" xlink:href="#BitstreamVeraSans-Roman-31"/>
      </g>
     </g>
    </g>
    <g id="xtick_2">
     <g id="line2d_5">
      <g>
       <use style="stroke:#000000;stroke-width:0.5;" x="158.84034375" xlink:href="#m2f51a6aa88" y="255.889666831"/>
      </g>
     </g>
     <g id="line2d_6">
      <g>
       <use style="stroke:#000000;stroke-width:0.5;" x="158.84034375" xlink:href="#mf6cd3f73c2" y="3.23964566929"/>
      </g>
     </g>
     <g id="text_2">
      <!-- 0 -->
      <defs>
       <path d="M 31.78125 66.40625 
Q 24.171875 66.40625 20.328125 58.90625 
Q 16.5 51.421875 16.5 36.375 
Q 16.5 21.390625 20.328125 13.890625 
Q 24.171875 6.390625 31.78125 6.390625 
Q 39.453125 6.390625 43.28125 13.890625 
Q 47.125 21.390625 47.125 36.375 
Q 47.125 51.421875 43.28125 58.90625 
Q 39.453125 66.40625 31.78125 66.40625 
M 31.78125 74.21875 
Q 44.046875 74.21875 50.515625 64.515625 
Q 56.984375 54.828125 56.984375 36.375 
Q 56.984375 17.96875 50.515625 8.265625 
Q 44.046875 -1.421875 31.78125 -1.421875 
Q 19.53125 -1.421875 13.0625 8.265625 
Q 6.59375 17.96875 6.59375 36.375 
Q 6.59375 54.828125 13.0625 64.515625 
Q 19.53125 74.21875 31.78125 74.21875 
" id="BitstreamVeraSans-Roman-30"/>
      </defs>
      <g transform="translate(156.29534375 265.968416831)scale(0.08 -0.08)">
       <use xlink:href="#BitstreamVeraSans-Roman-30"/>
      </g>
     </g>
    </g>
    <g id="xtick_3">
     <g id="line2d_7">
      <g>
       <use style="stroke:#000000;stroke-width:0.5;" x="264.111185901" xlink:href="#m2f51a6aa88" y="255.889666831"/>
      </g>
     </g>
     <g id="line2d_8">
      <g>
       <use style="stroke:#000000;stroke-width:0.5;" x="264.111185901" xlink:href="#mf6cd3f73c2" y="3.23964566929"/>
      </g>
     </g>
     <g id="text_3">
      <!-- 1 -->
      <g transform="translate(261.566185901 265.968416831)scale(0.08 -0.08)">
       <use xlink:href="#BitstreamVeraSans-Roman-31"/>
      </g>
     </g>
    </g>
    <g id="text_4">
     <!-- $\theta_1$ -->
     <defs>
      <path d="M 16.109375 -1.125 
Q 11.578125 -1.125 8.84375 2.1875 
Q 6.109375 5.515625 5.046875 10.203125 
Q 4 14.890625 4 19.484375 
L 4 19.578125 
Q 4 24.5625 4.953125 29.921875 
Q 5.90625 35.296875 7.703125 40.640625 
Q 9.515625 46 11.625 50.203125 
Q 13.09375 53.125 15.40625 56.734375 
Q 17.71875 60.359375 20.578125 63.5 
Q 23.4375 66.65625 26.734375 68.578125 
Q 30.03125 70.515625 33.40625 70.515625 
L 33.5 70.515625 
Q 37.109375 70.515625 39.515625 68.5 
Q 41.9375 66.5 43.28125 63.375 
Q 44.625 60.25 45.15625 56.6875 
Q 45.703125 53.125 45.703125 49.90625 
Q 45.703125 42.328125 43.65625 34.4375 
Q 41.609375 26.5625 37.984375 19.1875 
Q 36.625 16.40625 34.203125 12.640625 
Q 31.78125 8.890625 29.078125 5.90625 
Q 26.375 2.9375 23 0.90625 
Q 19.625 -1.125 16.21875 -1.125 
z
M 16.3125 1.515625 
Q 19.625 1.515625 22.671875 5.046875 
Q 25.734375 8.59375 28.03125 13.640625 
Q 30.328125 18.703125 32.0625 24 
Q 33.796875 29.296875 34.625 33.015625 
L 14.203125 33.015625 
Q 12.640625 26.703125 11.765625 22.140625 
Q 10.890625 17.578125 10.890625 13.1875 
Q 10.890625 1.515625 16.3125 1.515625 
M 14.984375 36.53125 
L 35.5 36.53125 
Q 36.578125 40.921875 37.203125 43.875 
Q 37.84375 46.828125 38.28125 50.09375 
Q 38.71875 53.375 38.71875 56.203125 
Q 38.71875 67.921875 33.40625 67.921875 
Q 27.046875 67.921875 22.4375 57.6875 
Q 17.828125 47.46875 14.984375 36.53125 
" id="Cmmi10-b5"/>
      <path d="M 9.28125 0 
L 9.28125 3.515625 
Q 21.78125 3.515625 21.78125 6.6875 
L 21.78125 59.1875 
Q 16.609375 56.6875 8.6875 56.6875 
L 8.6875 60.203125 
Q 20.953125 60.203125 27.203125 66.609375 
L 28.609375 66.609375 
Q 28.953125 66.609375 29.265625 66.328125 
Q 29.59375 66.0625 29.59375 65.71875 
L 29.59375 6.6875 
Q 29.59375 3.515625 42.09375 3.515625 
L 42.09375 0 
z
" id="Cmr10-31"/>
     </defs>
     <g transform="translate(153.94534375 280.990448081)scale(0.11 -0.11)">
      <use transform="translate(0.0 0.484375)" xlink:href="#Cmmi10-b5"/>
      <use transform="translate(46.923828125 -16.521875)scale(0.7)" xlink:href="#Cmr10-31"/>
     </g>
    </g>
   </g>
   <g id="matplotlib.axis_2">
    <g id="ytick_1">
     <g id="line2d_9">
      <defs>
       <path d="M 0 0 
L 4 0 
" id="m0f1a04c297" style="stroke:#000000;stroke-width:0.5;"/>
      </defs>
      <g>
       <use style="stroke:#000000;stroke-width:0.5;" x="32.5153331693" xlink:href="#m0f1a04c297" y="234.835498401"/>
      </g>
     </g>
     <g id="line2d_10">
      <defs>
       <path d="M 0 0 
L -4 0 
" id="m0f5f74a750" style="stroke:#000000;stroke-width:0.5;"/>
      </defs>
      <g>
       <use style="stroke:#000000;stroke-width:0.5;" x="285.165354331" xlink:href="#m0f5f74a750" y="234.835498401"/>
      </g>
     </g>
     <g id="text_5">
      <!-- -1 -->
      <g transform="translate(20.5390831693 237.042998401)scale(0.08 -0.08)">
       <use xlink:href="#BitstreamVeraSans-Roman-2d"/>
       <use x="36.083984375" xlink:href="#BitstreamVeraSans-Roman-31"/>
      </g>
     </g>
    </g>
    <g id="ytick_2">
     <g id="line2d_11">
      <g>
       <use style="stroke:#000000;stroke-width:0.5;" x="32.5153331693" xlink:href="#m0f1a04c297" y="129.56465625"/>
      </g>
     </g>
     <g id="line2d_12">
      <g>
       <use style="stroke:#000000;stroke-width:0.5;" x="285.165354331" xlink:href="#m0f5f74a750" y="129.56465625"/>
      </g>
     </g>
     <g id="text_6">
      <!-- 0 -->
      <g transform="translate(23.4253331693 131.77215625)scale(0.08 -0.08)">
       <use xlink:href="#BitstreamVeraSans-Roman-30"/>
      </g>
     </g>
    </g>
    <g id="ytick_3">
     <g id="line2d_13">
      <g>
       <use style="stroke:#000000;stroke-width:0.5;" x="32.5153331693" xlink:href="#m0f1a04c297" y="24.2938140994"/>
      </g>
     </g>
     <g id="line2d_14">
      <g>
       <use style="stroke:#000000;stroke-width:0.5;" x="285.165354331" xlink:href="#m0f5f74a750" y="24.2938140994"/>
      </g>
     </g>
     <g id="text_7">
      <!-- 1 -->
      <g transform="translate(23.4253331693 26.5013140994)scale(0.08 -0.08)">
       <use xlink:href="#BitstreamVeraSans-Roman-31"/>
      </g>
     </g>
    </g>
    <g id="text_8">
     <!-- $\theta_2$ -->
     <defs>
      <path d="M 4.984375 0 
L 4.984375 2.6875 
Q 4.984375 2.9375 5.171875 3.21875 
L 20.703125 20.40625 
Q 24.21875 24.21875 26.40625 26.796875 
Q 28.609375 29.390625 30.75 32.765625 
Q 32.90625 36.140625 34.15625 39.625 
Q 35.40625 43.109375 35.40625 47.015625 
Q 35.40625 51.125 33.890625 54.859375 
Q 32.375 58.59375 29.375 60.84375 
Q 26.375 63.09375 22.125 63.09375 
Q 17.78125 63.09375 14.3125 60.46875 
Q 10.84375 57.859375 9.421875 53.71875 
Q 9.8125 53.8125 10.5 53.8125 
Q 12.75 53.8125 14.328125 52.296875 
Q 15.921875 50.78125 15.921875 48.390625 
Q 15.921875 46.09375 14.328125 44.5 
Q 12.75 42.921875 10.5 42.921875 
Q 8.15625 42.921875 6.5625 44.546875 
Q 4.984375 46.1875 4.984375 48.390625 
Q 4.984375 52.15625 6.390625 55.4375 
Q 7.8125 58.734375 10.46875 61.296875 
Q 13.140625 63.875 16.484375 65.234375 
Q 19.828125 66.609375 23.578125 66.609375 
Q 29.296875 66.609375 34.21875 64.1875 
Q 39.15625 61.765625 42.03125 57.34375 
Q 44.921875 52.9375 44.921875 47.015625 
Q 44.921875 42.671875 43.015625 38.765625 
Q 41.109375 34.859375 38.125 31.65625 
Q 35.15625 28.46875 30.515625 24.40625 
Q 25.875 20.359375 24.421875 19 
L 13.09375 8.109375 
L 22.703125 8.109375 
Q 29.78125 8.109375 34.546875 8.21875 
Q 39.3125 8.34375 39.59375 8.59375 
Q 40.765625 9.859375 42 17.828125 
L 44.921875 17.828125 
L 42.09375 0 
z
" id="Cmr10-32"/>
     </defs>
     <g transform="translate(13.2514269193 134.45965625)rotate(-90.0)scale(0.11 -0.11)">
      <use transform="translate(0.0 0.484375)" xlink:href="#Cmmi10-b5"/>
      <use transform="translate(46.923828125 -16.521875)scale(0.7)" xlink:href="#Cmr10-32"/>
     </g>
    </g>
   </g>
   <g id="line2d_15">
    <path clip-path="url(#pc8c79e25c3)" d="M 53.569502 129.564656 
L 57.253981 122.490456 
L 61.991169 114.174059 
L 66.728357 106.573504 
L 71.465545 99.562466 
L 76.729087 92.361941 
L 81.992629 85.698296 
L 86.203463 80.697931 
L 91.993359 74.255356 
L 97.783255 68.265445 
L 104.62586 61.707071 
L 109.889402 57.001465 
L 115.679298 52.137952 
L 122.521903 46.790193 
L 127.259091 43.316255 
L 132.522633 39.65283 
L 140.417946 34.557721 
L 149.365968 29.304706 
L 155.155864 26.178162 
L 158.840344 24.293814 
L 165.156594 27.567737 
L 171.472845 31.094311 
L 177.789095 34.884061 
L 183.578992 38.600122 
L 192.000659 44.45318 
L 196.737847 47.990281 
L 201.475035 51.716868 
L 206.212223 55.643471 
L 212.002119 60.73858 
L 217.792015 66.191609 
L 223.055557 71.486733 
L 223.055557 71.476206 
L 229.371808 78.297756 
L 235.161704 85.056144 
L 239.898892 90.99342 
L 244.109726 96.62541 
L 244.109726 96.614883 
L 248.846914 103.394325 
L 253.057747 109.879009 
L 257.268581 116.868993 
L 257.268581 116.858466 
L 261.479415 124.45902 
L 261.479415 124.448493 
L 264.111186 129.564656 
L 264.111186 129.564656 
L 260.426706 136.638857 
L 255.689519 144.955253 
L 250.952331 152.555808 
L 246.215143 159.566846 
L 240.951601 166.767372 
L 235.688059 173.431016 
L 231.477225 178.431381 
L 225.687329 184.873957 
L 219.897432 190.863868 
L 213.054827 197.422241 
L 207.791285 202.127848 
L 202.001389 206.991361 
L 195.158784 212.339119 
L 190.421596 215.813057 
L 185.158054 219.476483 
L 177.262741 224.571591 
L 168.31472 229.824606 
L 162.524823 232.95115 
L 158.840344 234.835498 
L 152.524093 231.561575 
L 146.207843 228.035002 
L 139.891592 224.245252 
L 134.101696 220.529191 
L 125.680028 214.676132 
L 120.942841 211.139032 
L 116.205653 207.412444 
L 111.468465 203.485842 
L 105.678568 198.390733 
L 99.888672 192.937703 
L 94.62513 187.64258 
L 94.62513 187.653107 
L 88.30888 180.831556 
L 82.518983 174.073168 
L 77.781795 168.135893 
L 73.570962 162.503903 
L 73.570962 162.51443 
L 68.833774 155.734988 
L 64.62294 149.250304 
L 60.412106 142.26032 
L 60.412106 142.270847 
L 56.201273 134.670292 
L 56.201273 134.680819 
L 53.569502 129.564656 
L 53.569502 129.564656 
" style="fill:none;stroke:#008000;stroke-dasharray:6.000000,6.000000;stroke-dashoffset:0.0;"/>
   </g>
   <g id="line2d_16">
    <path clip-path="url(#pc8c79e25c3)" d="M 53.569502 129.564656 
L 58.306689 129.459385 
L 64.62294 128.985667 
L 70.939191 128.122446 
L 76.729087 126.985521 
L 80.413566 126.080191 
L 84.6244 124.880104 
L 90.414296 122.911539 
L 90.414296 122.901012 
L 93.572422 121.669343 
L 98.30961 119.58498 
L 103.046797 117.216386 
L 107.257631 114.847793 
L 111.468465 112.216021 
L 115.152944 109.668467 
L 118.837424 106.889317 
L 123.048257 103.383798 
L 123.048257 103.373271 
L 125.680028 100.983623 
L 128.838154 97.88866 
L 131.996279 94.509466 
L 134.62805 91.456611 
L 137.259821 88.151107 
L 139.891592 84.540317 
L 141.997009 81.403246 
L 144.102426 78.002998 
L 146.207843 74.286937 
L 148.31326 70.170847 
L 149.892322 66.760072 
L 151.471385 62.980849 
L 153.050447 58.717379 
L 154.62951 53.76965 
L 154.62951 53.759123 
L 155.682218 49.864102 
L 156.734927 45.221658 
L 157.787635 39.168584 
L 157.787635 39.115949 
L 158.31399 34.757736 
L 158.840344 24.293814 
L 159.366698 34.85248 
L 159.366698 34.757736 
L 159.893052 39.179111 
L 159.893052 39.115949 
L 160.945761 45.263766 
L 160.945761 45.221658 
L 161.998469 49.90621 
L 161.998469 49.864102 
L 163.051177 53.780177 
L 163.051177 53.759123 
L 164.63024 58.738434 
L 164.63024 58.717379 
L 166.209303 62.991376 
L 166.209303 62.980849 
L 168.31472 67.949632 
L 168.31472 67.928578 
L 170.420136 72.297318 
L 170.420136 72.286791 
L 172.525553 76.202866 
L 172.525553 76.192339 
L 174.63097 79.750494 
L 174.63097 79.739967 
L 177.262741 83.792894 
L 177.262741 83.782367 
L 179.894512 87.456319 
L 183.052637 91.467138 
L 183.052637 91.456611 
L 185.684408 94.519993 
L 185.684408 94.509466 
L 188.842534 97.88866 
L 192.000659 100.99415 
L 192.000659 100.983623 
L 195.685139 104.299654 
L 195.685139 104.289127 
L 198.843264 106.889317 
L 203.054097 110.047442 
L 206.212223 112.216021 
L 211.475765 115.458363 
L 215.160244 117.490091 
L 219.371078 119.58498 
L 224.108266 121.669343 
L 229.371808 123.669489 
L 234.63535 125.353823 
L 240.425246 126.869723 
L 245.688789 127.943485 
L 252.005039 128.869869 
L 258.32129 129.40675 
L 264.111186 129.564656 
L 260.953061 129.617292 
L 257.268581 129.785725 
L 250.952331 130.385769 
L 245.162434 131.280571 
L 238.846184 132.638565 
L 233.056287 134.249209 
L 227.266391 136.217773 
L 227.266391 136.228301 
L 224.108266 137.459969 
L 219.371078 139.544332 
L 214.63389 141.912926 
L 210.423056 144.28152 
L 206.212223 146.913291 
L 202.527743 149.460845 
L 198.843264 152.239996 
L 194.63243 155.745515 
L 194.63243 155.756042 
L 192.000659 158.14569 
L 188.842534 161.240653 
L 185.684408 164.619847 
L 183.052637 167.672701 
L 180.420866 170.978206 
L 177.789095 174.588995 
L 175.683678 177.726067 
L 173.578262 181.126315 
L 171.472845 184.842375 
L 169.367428 188.958465 
L 167.788365 192.369241 
L 166.209303 196.148464 
L 164.63024 200.411933 
L 163.051177 205.359663 
L 163.051177 205.37019 
L 161.998469 209.265211 
L 160.945761 213.907655 
L 159.893052 219.960728 
L 159.893052 220.013364 
L 159.366698 224.371577 
L 158.840344 234.835498 
L 158.31399 224.276833 
L 158.31399 224.371577 
L 157.787635 219.950201 
L 157.787635 220.013364 
L 156.734927 213.865547 
L 156.734927 213.907655 
L 155.682218 209.223103 
L 155.682218 209.265211 
L 154.62951 205.349136 
L 154.62951 205.37019 
L 153.050447 200.390879 
L 153.050447 200.411933 
L 151.471385 196.137937 
L 151.471385 196.148464 
L 149.365968 191.17968 
L 149.365968 191.200734 
L 147.260551 186.831994 
L 147.260551 186.842521 
L 145.155134 182.926446 
L 145.155134 182.936973 
L 143.049717 179.378819 
L 143.049717 179.389346 
L 140.417946 175.336418 
L 140.417946 175.346946 
L 137.786175 171.672993 
L 134.62805 167.662174 
L 134.62805 167.672701 
L 131.996279 164.60932 
L 131.996279 164.619847 
L 128.838154 161.240653 
L 125.680028 158.135163 
L 125.680028 158.14569 
L 121.995549 154.829658 
L 121.995549 154.840185 
L 118.837424 152.239996 
L 114.62659 149.08187 
L 111.468465 146.913291 
L 106.204923 143.670949 
L 102.520443 141.639222 
L 98.30961 139.544332 
L 93.572422 137.459969 
L 88.30888 135.459823 
L 83.045337 133.77549 
L 77.255441 132.25959 
L 71.991899 131.185827 
L 65.675648 130.259444 
L 59.359398 129.722563 
L 53.569502 129.564656 
L 53.569502 129.564656 
" style="fill:none;stroke:#455bb6;stroke-dasharray:3.000000,5.000000,1.000000,5.000000;stroke-dashoffset:0.0;"/>
   </g>
   <g id="line2d_17">
    <path clip-path="url(#pc8c79e25c3)" d="M 53.569502 129.564656 
L 56.727627 128.122446 
L 60.938461 126.069664 
L 60.938461 126.04861 
L 64.096586 124.416912 
L 64.096586 124.395858 
L 66.728357 122.964174 
L 66.728357 122.953647 
L 69.360128 121.469328 
L 69.360128 121.448274 
L 73.044607 119.258641 
L 73.044607 119.237587 
L 75.676378 117.595361 
L 79.360858 115.184659 
L 79.360858 115.174132 
L 82.518983 113.026607 
L 82.518983 113.01608 
L 86.203463 110.384309 
L 86.203463 110.373782 
L 89.361588 108.036769 
L 89.361588 108.026242 
L 93.046067 105.162875 
L 96.204193 102.625848 
L 99.888672 99.541412 
L 103.046797 96.814897 
L 106.731277 93.509393 
L 109.889402 90.582863 
L 113.047527 87.593171 
L 113.047527 87.572117 
L 115.679298 84.971928 
L 119.363778 81.140069 
L 122.521903 77.760875 
L 122.521903 77.739821 
L 125.680028 74.234302 
L 128.838154 70.602458 
L 128.838154 70.59193 
L 131.996279 66.823234 
L 131.996279 66.812707 
L 135.154404 62.865051 
L 137.786175 59.443748 
L 140.944301 55.159225 
L 140.944301 55.138171 
L 143.049717 52.148479 
L 145.681488 48.232404 
L 147.786905 44.937426 
L 149.892322 41.49507 
L 151.997739 37.873753 
L 151.997739 37.863226 
L 154.103156 34.031367 
L 154.103156 34.010313 
L 155.682218 30.957458 
L 157.261281 27.725644 
L 158.840344 24.293814 
L 160.945761 28.862569 
L 160.945761 28.82046 
L 162.524823 32.031221 
L 162.524823 31.989113 
L 164.63024 36.010459 
L 164.63024 35.999932 
L 164.63024 35.96835 
L 166.735657 39.737047 
L 166.735657 39.705465 
L 168.841074 43.274147 
L 168.841074 43.242566 
L 171.472845 47.453399 
L 171.472845 47.421818 
L 173.578262 50.632579 
L 173.578262 50.600998 
L 176.210033 54.432856 
L 176.210033 54.401275 
L 178.841804 58.054173 
L 178.841804 58.033119 
L 181.999929 62.212371 
L 181.999929 62.191317 
L 185.158054 66.181082 
L 185.158054 66.160028 
L 187.789825 69.370789 
L 187.789825 69.349735 
L 190.947951 73.055268 
L 190.947951 73.034214 
L 194.106076 76.602896 
L 194.106076 76.592368 
L 194.106076 76.581841 
L 197.264201 80.034725 
L 197.264201 80.024198 
L 200.422326 83.361284 
L 200.422326 83.350757 
L 203.580452 86.561517 
L 203.580452 86.55099 
L 207.264931 90.109145 
L 207.264931 90.08809 
L 210.423056 93.046201 
L 210.423056 93.035674 
L 210.423056 93.025147 
L 214.107536 96.362233 
L 214.107536 96.341178 
L 217.265661 99.109802 
L 217.265661 99.099275 
L 220.950141 102.204764 
L 220.950141 102.194237 
L 225.160974 105.594485 
L 225.160974 105.583958 
L 228.3191 108.036769 
L 228.3191 108.026242 
L 232.003579 110.773811 
L 232.003579 110.763284 
L 235.161704 113.026607 
L 235.161704 113.01608 
L 238.846184 115.54258 
L 238.846184 115.532053 
L 243.057017 118.279622 
L 243.057017 118.269095 
L 243.057017 118.258568 
L 246.215143 120.216605 
L 246.215143 120.206078 
L 249.899622 122.374658 
L 249.899622 122.364131 
L 253.057747 124.132681 
L 253.057747 124.111627 
L 255.689519 125.522256 
L 255.689519 125.511729 
L 258.847644 127.122373 
L 258.847644 127.101319 
L 262.005769 128.627746 
L 262.005769 128.606692 
L 264.111186 129.564656 
L 264.111186 129.564656 
L 260.953061 131.006867 
L 256.742227 133.059648 
L 256.742227 133.080702 
L 253.584102 134.7124 
L 253.584102 134.733455 
L 250.952331 136.165138 
L 250.952331 136.175665 
L 248.32056 137.659984 
L 248.32056 137.681038 
L 244.63608 139.870672 
L 244.63608 139.891726 
L 242.004309 141.533951 
L 238.31983 143.944653 
L 238.31983 143.95518 
L 235.161704 146.102706 
L 235.161704 146.113233 
L 231.477225 148.745004 
L 231.477225 148.755531 
L 228.3191 151.092543 
L 228.3191 151.103071 
L 224.63462 153.966437 
L 221.476495 156.503465 
L 217.792015 159.5879 
L 214.63389 162.314415 
L 210.949411 165.61992 
L 207.791285 168.546449 
L 204.63316 171.536141 
L 204.63316 171.557195 
L 202.001389 174.157385 
L 198.31691 177.989244 
L 195.158784 181.368438 
L 195.158784 181.389492 
L 192.000659 184.895011 
L 188.842534 188.526855 
L 188.842534 188.537382 
L 185.684408 192.306078 
L 185.684408 192.316605 
L 182.526283 196.264262 
L 179.894512 199.685564 
L 176.736387 203.970087 
L 176.736387 203.991142 
L 174.63097 206.980834 
L 171.999199 210.896909 
L 169.893782 214.191886 
L 167.788365 217.634243 
L 165.682948 221.25556 
L 165.682948 221.266087 
L 163.577532 225.097946 
L 163.577532 225.119 
L 161.998469 228.171854 
L 160.419406 231.403669 
L 158.840344 234.835498 
L 156.734927 230.266744 
L 156.734927 230.308852 
L 155.155864 227.098092 
L 155.155864 227.1402 
L 153.050447 223.118854 
L 153.050447 223.129381 
L 153.050447 223.160962 
L 150.945031 219.392266 
L 150.945031 219.423847 
L 148.839614 215.855166 
L 148.839614 215.886747 
L 146.207843 211.675913 
L 146.207843 211.707494 
L 144.102426 208.496734 
L 144.102426 208.528315 
L 141.470655 204.696456 
L 141.470655 204.728038 
L 138.838884 201.075139 
L 138.838884 201.096193 
L 135.680758 196.916941 
L 135.680758 196.937995 
L 132.522633 192.94823 
L 132.522633 192.969284 
L 129.890862 189.758524 
L 129.890862 189.779578 
L 126.732737 186.074044 
L 126.732737 186.095098 
L 123.574612 182.526417 
L 123.574612 182.536944 
L 123.574612 182.547471 
L 120.416486 179.094587 
L 120.416486 179.105115 
L 117.258361 175.768029 
L 117.258361 175.778556 
L 114.100236 172.567795 
L 114.100236 172.578322 
L 110.415756 169.020168 
L 110.415756 169.041222 
L 107.257631 166.083111 
L 107.257631 166.093638 
L 107.257631 166.104166 
L 103.573152 162.76708 
L 103.573152 162.788134 
L 100.415026 160.019511 
L 100.415026 160.030038 
L 96.730547 156.924548 
L 96.730547 156.935075 
L 92.519713 153.534827 
L 92.519713 153.545354 
L 89.361588 151.092543 
L 89.361588 151.103071 
L 85.677108 148.355502 
L 85.677108 148.366029 
L 82.518983 146.102706 
L 82.518983 146.113233 
L 78.834504 143.586732 
L 78.834504 143.59726 
L 74.62367 140.849691 
L 74.62367 140.860218 
L 74.62367 140.870745 
L 71.465545 138.912707 
L 71.465545 138.923234 
L 67.781065 136.754655 
L 67.781065 136.765182 
L 64.62294 134.996632 
L 64.62294 135.017686 
L 61.991169 133.607057 
L 61.991169 133.617584 
L 58.833044 132.00694 
L 58.833044 132.027994 
L 55.674918 130.501567 
L 55.674918 130.522621 
L 53.569502 129.564656 
L 53.569502 129.564656 
" style="fill:none;stroke:#d9ac00;stroke-dasharray:6.000000,6.000000;stroke-dashoffset:0.0;"/>
   </g>
   <g id="line2d_18">
    <path clip-path="url(#pc8c79e25c3)" d="M 53.569502 129.564656 
L 60.412106 126.038083 
L 67.781065 121.953574 
L 75.150024 117.553253 
L 75.150024 117.542726 
L 80.939921 113.837192 
L 86.729817 109.889536 
L 91.467005 106.457706 
L 96.730547 102.425833 
L 103.046797 97.235981 
L 108.31034 92.583009 
L 113.573882 87.603699 
L 117.258361 83.919219 
L 122.521903 78.308283 
L 126.206383 74.118504 
L 130.417216 69.065503 
L 130.417216 69.054976 
L 133.575342 65.044157 
L 136.733467 60.84385 
L 140.417946 55.653998 
L 144.102426 50.15886 
L 147.786905 44.305801 
L 151.471385 38.073767 
L 154.62951 32.399669 
L 157.787635 26.378177 
L 158.840344 24.293814 
L 161.998469 30.441631 
L 161.998469 30.431104 
L 165.156594 36.221001 
L 168.841074 42.568832 
L 173.051907 49.348275 
L 173.051907 49.337747 
L 176.736387 54.896048 
L 176.736387 54.885521 
L 179.894512 59.391113 
L 183.578992 64.370424 
L 183.578992 64.359897 
L 187.263471 69.065503 
L 187.263471 69.054976 
L 190.421596 72.886835 
L 195.158784 78.308283 
L 199.895972 83.371811 
L 204.106806 87.614226 
L 204.106806 87.603699 
L 207.264931 90.635499 
L 212.002119 94.951603 
L 212.002119 94.941076 
L 215.686599 98.130783 
L 215.686599 98.120256 
L 219.371078 101.162583 
L 223.581912 104.478615 
L 229.898162 109.142113 
L 234.63535 112.43709 
L 243.057017 117.869066 
L 248.846914 121.343003 
L 255.689519 125.185389 
L 262.532123 128.775125 
L 264.111186 129.564656 
L 264.111186 129.564656 
L 257.268581 133.091229 
L 249.899622 137.175738 
L 242.530663 141.576059 
L 242.530663 141.586586 
L 236.740767 145.29212 
L 230.950871 149.239777 
L 226.213683 152.671606 
L 220.950141 156.703479 
L 214.63389 161.893332 
L 209.370348 166.546303 
L 204.106806 171.525614 
L 200.422326 175.210093 
L 195.158784 180.821029 
L 191.474305 185.010809 
L 187.263471 190.063809 
L 187.263471 190.074336 
L 184.105346 194.085155 
L 180.947221 198.285462 
L 177.262741 203.475315 
L 173.578262 208.970452 
L 169.893782 214.823511 
L 166.209303 221.055545 
L 163.051177 226.729644 
L 159.893052 232.751136 
L 158.840344 234.835498 
L 155.682218 228.687681 
L 155.682218 228.698208 
L 152.524093 222.908312 
L 148.839614 216.56048 
L 144.62878 209.781038 
L 144.62878 209.791565 
L 140.944301 204.233265 
L 140.944301 204.243792 
L 137.786175 199.7382 
L 134.101696 194.758889 
L 134.101696 194.769416 
L 130.417216 190.063809 
L 130.417216 190.074336 
L 127.259091 186.242478 
L 122.521903 180.821029 
L 117.784715 175.757502 
L 113.573882 171.515087 
L 113.573882 171.525614 
L 110.415756 168.493814 
L 105.678568 164.177709 
L 105.678568 164.188236 
L 101.994089 160.99853 
L 101.994089 161.009057 
L 98.30961 157.966729 
L 94.098776 154.650698 
L 87.782525 149.9872 
L 83.045337 146.692222 
L 74.62367 141.260247 
L 68.833774 137.786309 
L 61.991169 133.943923 
L 55.148564 130.354188 
L 53.569502 129.564656 
L 53.569502 129.564656 
" style="fill:none;stroke:#6820cc;stroke-dasharray:1.000000,3.000000;stroke-dashoffset:0.0;"/>
   </g>
  </g>
 </g>
 <defs>
  <clipPath id="pc8c79e25c3">
   <rect height="252.650021161" width="252.650021161" x="32.5153331693" y="3.23964566929"/>
  </clipPath>
 </defs>
</svg>
