<?xml version="1.0" encoding="utf-8" standalone="no"?>
<!DOCTYPE svg PUBLIC "-//W3C//DTD SVG 1.1//EN"
  "http://www.w3.org/Graphics/SVG/1.1/DTD/svg11.dtd">
<!-- Created with matplotlib (http://matplotlib.org/) -->
<svg height="288pt" version="1.1" viewBox="0 0 288 288" width="288pt" xmlns="http://www.w3.org/2000/svg" xmlns:xlink="http://www.w3.org/1999/xlink">
 <defs>
  <style type="text/css">
*{stroke-linecap:butt;stroke-linejoin:round;stroke-miterlimit:100000;}
  </style>
 </defs>
 <g id="figure_1">
  <g id="patch_1">
   <path d="M 0 288 
L 288 288 
L 288 0 
L 0 0 
L 0 288 
z
" style="fill:none;"/>
  </g>
  <g id="axes_1">
   <g id="patch_2">
    <path d="M 32.052489 256.294667 
L 281.912511 256.294667 
L 281.912511 6.434646 
L 32.052489 6.434646 
z
" style="fill:#ffffff;"/>
   </g>
   <g id="line2d_1">
    <path clip-path="url(#pb8df07d017)" d="M 3.870096 103.182263 
L 32.072765 131.384932 
L 49.021393 148.33356 
L 63.351242 162.663409 
L 78.917475 178.229642 
L 93.268165 192.580332 
L 108.653621 207.965788 
L 126.479181 225.791348 
L 134.399808 233.711975 
L 142.320435 241.632602 
L 145.793273 245.10544 
L 149.266111 248.578278 
L 152.738949 252.051116 
L 156.211787 255.523954 
L 158.10495 255.172217 
L 159.998113 253.279054 
L 161.891275 251.385891 
L 163.784438 249.492729 
L 167.570764 245.706403 
L 171.35709 241.920077 
L 178.974747 234.302419 
L 186.592405 226.684762 
L 203.436994 209.840172 
L 219.464196 193.812971 
L 236.128767 177.1484 
L 250.156787 163.12038 
L 267.283408 145.993759 
L 283.382937 129.894229 
L 289 124.277167 
" style="fill:none;stroke:#00008b;stroke-linecap:round;"/>
   </g>
   <g id="line2d_2">
    <path clip-path="url(#pb8df07d017)" d="M 33.272533 11.290992 
L 34.492577 16.099679 
L 45.773644 58.305257 
L 57.054712 96.436154 
L 63.834163 117.391089 
L 70.613614 136.874451 
L 76.345554 152.199309 
L 82.077494 166.472214 
L 88.303987 180.784577 
L 94.53048 193.855629 
L 100.270756 204.806287 
L 106.011032 214.701929 
L 112.165214 224.139237 
L 118.319397 232.363899 
L 125.449621 240.376594 
L 132.579845 246.761496 
L 138.916346 251.069567 
L 145.252848 254.092078 
L 150.809389 255.684608 
L 156.36593 256.288581 
L 162.424051 255.820634 
L 168.482172 254.177602 
L 174.576298 251.339225 
L 180.670424 247.311753 
L 187.40826 241.474739 
L 194.146096 234.184161 
L 200.556976 225.897888 
L 206.967857 216.295696 
L 213.633685 204.91619 
L 220.299514 192.114023 
L 225.910722 180.234484 
L 231.521929 167.346839 
L 238.372578 150.245772 
L 245.223226 131.642059 
L 251.663038 112.783844 
L 258.10285 92.597808 
L 268.419928 57.490548 
L 278.737006 18.975234 
L 280.324758 12.745298 
" style="fill:none;stroke:#cc0000;stroke-linecap:round;"/>
   </g>
   <g id="patch_3">
    <path d="M 32.052489 6.434646 
L 281.912511 6.434646 
" style="fill:none;stroke:#000000;stroke-linecap:square;stroke-linejoin:miter;"/>
   </g>
   <g id="patch_4">
    <path d="M 281.912511 256.294667 
L 281.912511 6.434646 
" style="fill:none;stroke:#000000;stroke-linecap:square;stroke-linejoin:miter;"/>
   </g>
   <g id="patch_5">
    <path d="M 32.052489 256.294667 
L 281.912511 256.294667 
" style="fill:none;stroke:#000000;stroke-linecap:square;stroke-linejoin:miter;"/>
   </g>
   <g id="patch_6">
    <path d="M 32.052489 256.294667 
L 32.052489 6.434646 
" style="fill:none;stroke:#000000;stroke-linecap:square;stroke-linejoin:miter;"/>
   </g>
   <g id="matplotlib.axis_1">
    <g id="xtick_1">
     <g id="line2d_3">
      <defs>
       <path d="M 0 0 
L 0 -4 
" id="m2570f54f4b" style="stroke:#000000;stroke-width:0.5;"/>
      </defs>
      <g>
       <use style="stroke:#000000;stroke-width:0.5;" x="32.0524894193" xlink:href="#m2570f54f4b" y="256.294666831"/>
      </g>
     </g>
     <g id="line2d_4">
      <defs>
       <path d="M 0 0 
L 0 4 
" id="mc67fe32cf1" style="stroke:#000000;stroke-width:0.5;"/>
      </defs>
      <g>
       <use style="stroke:#000000;stroke-width:0.5;" x="32.0524894193" xlink:href="#mc67fe32cf1" y="6.43464566929"/>
      </g>
     </g>
     <g id="text_1">
      <!-- -4 -->
      <defs>
       <path d="M 4.890625 31.390625 
L 31.203125 31.390625 
L 31.203125 23.390625 
L 4.890625 23.390625 
z
" id="BitstreamVeraSans-Roman-2d"/>
       <path d="M 37.796875 64.3125 
L 12.890625 25.390625 
L 37.796875 25.390625 
z
M 35.203125 72.90625 
L 47.609375 72.90625 
L 47.609375 25.390625 
L 58.015625 25.390625 
L 58.015625 17.1875 
L 47.609375 17.1875 
L 47.609375 0 
L 37.796875 0 
L 37.796875 17.1875 
L 4.890625 17.1875 
L 4.890625 26.703125 
z
" id="BitstreamVeraSans-Roman-34"/>
      </defs>
      <g transform="translate(28.0643644193 266.373416831)scale(0.08 -0.08)">
       <use xlink:href="#BitstreamVeraSans-Roman-2d"/>
       <use x="36.083984375" xlink:href="#BitstreamVeraSans-Roman-34"/>
      </g>
     </g>
    </g>
    <g id="xtick_2">
     <g id="line2d_5">
      <g>
       <use style="stroke:#000000;stroke-width:0.5;" x="94.5174947096" xlink:href="#m2570f54f4b" y="256.294666831"/>
      </g>
     </g>
     <g id="line2d_6">
      <g>
       <use style="stroke:#000000;stroke-width:0.5;" x="94.5174947096" xlink:href="#mc67fe32cf1" y="6.43464566929"/>
      </g>
     </g>
     <g id="text_2">
      <!-- -2 -->
      <defs>
       <path d="M 19.1875 8.296875 
L 53.609375 8.296875 
L 53.609375 0 
L 7.328125 0 
L 7.328125 8.296875 
Q 12.9375 14.109375 22.625 23.890625 
Q 32.328125 33.6875 34.8125 36.53125 
Q 39.546875 41.84375 41.421875 45.53125 
Q 43.3125 49.21875 43.3125 52.78125 
Q 43.3125 58.59375 39.234375 62.25 
Q 35.15625 65.921875 28.609375 65.921875 
Q 23.96875 65.921875 18.8125 64.3125 
Q 13.671875 62.703125 7.8125 59.421875 
L 7.8125 69.390625 
Q 13.765625 71.78125 18.9375 73 
Q 24.125 74.21875 28.421875 74.21875 
Q 39.75 74.21875 46.484375 68.546875 
Q 53.21875 62.890625 53.21875 53.421875 
Q 53.21875 48.921875 51.53125 44.890625 
Q 49.859375 40.875 45.40625 35.40625 
Q 44.1875 33.984375 37.640625 27.21875 
Q 31.109375 20.453125 19.1875 8.296875 
" id="BitstreamVeraSans-Roman-32"/>
      </defs>
      <g transform="translate(90.5293697096 266.373416831)scale(0.08 -0.08)">
       <use xlink:href="#BitstreamVeraSans-Roman-2d"/>
       <use x="36.083984375" xlink:href="#BitstreamVeraSans-Roman-32"/>
      </g>
     </g>
    </g>
    <g id="xtick_3">
     <g id="line2d_7">
      <g>
       <use style="stroke:#000000;stroke-width:0.5;" x="156.9825" xlink:href="#m2570f54f4b" y="256.294666831"/>
      </g>
     </g>
     <g id="line2d_8">
      <g>
       <use style="stroke:#000000;stroke-width:0.5;" x="156.9825" xlink:href="#mc67fe32cf1" y="6.43464566929"/>
      </g>
     </g>
     <g id="text_3">
      <!-- 0 -->
      <defs>
       <path d="M 31.78125 66.40625 
Q 24.171875 66.40625 20.328125 58.90625 
Q 16.5 51.421875 16.5 36.375 
Q 16.5 21.390625 20.328125 13.890625 
Q 24.171875 6.390625 31.78125 6.390625 
Q 39.453125 6.390625 43.28125 13.890625 
Q 47.125 21.390625 47.125 36.375 
Q 47.125 51.421875 43.28125 58.90625 
Q 39.453125 66.40625 31.78125 66.40625 
M 31.78125 74.21875 
Q 44.046875 74.21875 50.515625 64.515625 
Q 56.984375 54.828125 56.984375 36.375 
Q 56.984375 17.96875 50.515625 8.265625 
Q 44.046875 -1.421875 31.78125 -1.421875 
Q 19.53125 -1.421875 13.0625 8.265625 
Q 6.59375 17.96875 6.59375 36.375 
Q 6.59375 54.828125 13.0625 64.515625 
Q 19.53125 74.21875 31.78125 74.21875 
" id="BitstreamVeraSans-Roman-30"/>
      </defs>
      <g transform="translate(154.4375 266.373416831)scale(0.08 -0.08)">
       <use xlink:href="#BitstreamVeraSans-Roman-30"/>
      </g>
     </g>
    </g>
    <g id="xtick_4">
     <g id="line2d_9">
      <g>
       <use style="stroke:#000000;stroke-width:0.5;" x="219.44750529" xlink:href="#m2570f54f4b" y="256.294666831"/>
      </g>
     </g>
     <g id="line2d_10">
      <g>
       <use style="stroke:#000000;stroke-width:0.5;" x="219.44750529" xlink:href="#mc67fe32cf1" y="6.43464566929"/>
      </g>
     </g>
     <g id="text_4">
      <!-- 2 -->
      <g transform="translate(216.90250529 266.373416831)scale(0.08 -0.08)">
       <use xlink:href="#BitstreamVeraSans-Roman-32"/>
      </g>
     </g>
    </g>
    <g id="xtick_5">
     <g id="line2d_11">
      <g>
       <use style="stroke:#000000;stroke-width:0.5;" x="281.912510581" xlink:href="#m2570f54f4b" y="256.294666831"/>
      </g>
     </g>
     <g id="line2d_12">
      <g>
       <use style="stroke:#000000;stroke-width:0.5;" x="281.912510581" xlink:href="#mc67fe32cf1" y="6.43464566929"/>
      </g>
     </g>
     <g id="text_5">
      <!-- 4 -->
      <g transform="translate(279.367510581 266.373416831)scale(0.08 -0.08)">
       <use xlink:href="#BitstreamVeraSans-Roman-34"/>
      </g>
     </g>
    </g>
    <g id="text_6">
     <!-- $\theta_1$ -->
     <defs>
      <path d="M 16.109375 -1.125 
Q 11.578125 -1.125 8.84375 2.1875 
Q 6.109375 5.515625 5.046875 10.203125 
Q 4 14.890625 4 19.484375 
L 4 19.578125 
Q 4 24.5625 4.953125 29.921875 
Q 5.90625 35.296875 7.703125 40.640625 
Q 9.515625 46 11.625 50.203125 
Q 13.09375 53.125 15.40625 56.734375 
Q 17.71875 60.359375 20.578125 63.5 
Q 23.4375 66.65625 26.734375 68.578125 
Q 30.03125 70.515625 33.40625 70.515625 
L 33.5 70.515625 
Q 37.109375 70.515625 39.515625 68.5 
Q 41.9375 66.5 43.28125 63.375 
Q 44.625 60.25 45.15625 56.6875 
Q 45.703125 53.125 45.703125 49.90625 
Q 45.703125 42.328125 43.65625 34.4375 
Q 41.609375 26.5625 37.984375 19.1875 
Q 36.625 16.40625 34.203125 12.640625 
Q 31.78125 8.890625 29.078125 5.90625 
Q 26.375 2.9375 23 0.90625 
Q 19.625 -1.125 16.21875 -1.125 
z
M 16.3125 1.515625 
Q 19.625 1.515625 22.671875 5.046875 
Q 25.734375 8.59375 28.03125 13.640625 
Q 30.328125 18.703125 32.0625 24 
Q 33.796875 29.296875 34.625 33.015625 
L 14.203125 33.015625 
Q 12.640625 26.703125 11.765625 22.140625 
Q 10.890625 17.578125 10.890625 13.1875 
Q 10.890625 1.515625 16.3125 1.515625 
M 14.984375 36.53125 
L 35.5 36.53125 
Q 36.578125 40.921875 37.203125 43.875 
Q 37.84375 46.828125 38.28125 50.09375 
Q 38.71875 53.375 38.71875 56.203125 
Q 38.71875 67.921875 33.40625 67.921875 
Q 27.046875 67.921875 22.4375 57.6875 
Q 17.828125 47.46875 14.984375 36.53125 
" id="Cmmi10-b5"/>
      <path d="M 9.28125 0 
L 9.28125 3.515625 
Q 21.78125 3.515625 21.78125 6.6875 
L 21.78125 59.1875 
Q 16.609375 56.6875 8.6875 56.6875 
L 8.6875 60.203125 
Q 20.953125 60.203125 27.203125 66.609375 
L 28.609375 66.609375 
Q 28.953125 66.609375 29.265625 66.328125 
Q 29.59375 66.0625 29.59375 65.71875 
L 29.59375 6.6875 
Q 29.59375 3.515625 42.09375 3.515625 
L 42.09375 0 
z
" id="Cmr10-31"/>
     </defs>
     <g transform="translate(152.0875 281.395448081)scale(0.11 -0.11)">
      <use transform="translate(0.0 0.484375)" xlink:href="#Cmmi10-b5"/>
      <use transform="translate(46.923828125 -16.521875)scale(0.7)" xlink:href="#Cmr10-31"/>
     </g>
    </g>
   </g>
   <g id="matplotlib.axis_2">
    <g id="ytick_1">
     <g id="line2d_13">
      <defs>
       <path d="M 0 0 
L 4 0 
" id="m16f852178d" style="stroke:#000000;stroke-width:0.5;"/>
      </defs>
      <g>
       <use style="stroke:#000000;stroke-width:0.5;" x="32.0524894193" xlink:href="#m16f852178d" y="256.294666831"/>
      </g>
     </g>
     <g id="line2d_14">
      <defs>
       <path d="M 0 0 
L -4 0 
" id="m4ba7c05c2b" style="stroke:#000000;stroke-width:0.5;"/>
      </defs>
      <g>
       <use style="stroke:#000000;stroke-width:0.5;" x="281.912510581" xlink:href="#m4ba7c05c2b" y="256.294666831"/>
      </g>
     </g>
     <g id="text_7">
      <!-- 0 -->
      <g transform="translate(22.9624894193 258.502166831)scale(0.08 -0.08)">
       <use xlink:href="#BitstreamVeraSans-Roman-30"/>
      </g>
     </g>
    </g>
    <g id="ytick_2">
     <g id="line2d_15">
      <g>
       <use style="stroke:#000000;stroke-width:0.5;" x="32.0524894193" xlink:href="#m16f852178d" y="193.82966154"/>
      </g>
     </g>
     <g id="line2d_16">
      <g>
       <use style="stroke:#000000;stroke-width:0.5;" x="281.912510581" xlink:href="#m4ba7c05c2b" y="193.82966154"/>
      </g>
     </g>
     <g id="text_8">
      <!-- 2 -->
      <g transform="translate(22.9624894193 196.03716154)scale(0.08 -0.08)">
       <use xlink:href="#BitstreamVeraSans-Roman-32"/>
      </g>
     </g>
    </g>
    <g id="ytick_3">
     <g id="line2d_17">
      <g>
       <use style="stroke:#000000;stroke-width:0.5;" x="32.0524894193" xlink:href="#m16f852178d" y="131.36465625"/>
      </g>
     </g>
     <g id="line2d_18">
      <g>
       <use style="stroke:#000000;stroke-width:0.5;" x="281.912510581" xlink:href="#m4ba7c05c2b" y="131.36465625"/>
      </g>
     </g>
     <g id="text_9">
      <!-- 4 -->
      <g transform="translate(22.9624894193 133.57215625)scale(0.08 -0.08)">
       <use xlink:href="#BitstreamVeraSans-Roman-34"/>
      </g>
     </g>
    </g>
    <g id="ytick_4">
     <g id="line2d_19">
      <g>
       <use style="stroke:#000000;stroke-width:0.5;" x="32.0524894193" xlink:href="#m16f852178d" y="68.8996509596"/>
      </g>
     </g>
     <g id="line2d_20">
      <g>
       <use style="stroke:#000000;stroke-width:0.5;" x="281.912510581" xlink:href="#m4ba7c05c2b" y="68.8996509596"/>
      </g>
     </g>
     <g id="text_10">
      <!-- 6 -->
      <defs>
       <path d="M 33.015625 40.375 
Q 26.375 40.375 22.484375 35.828125 
Q 18.609375 31.296875 18.609375 23.390625 
Q 18.609375 15.53125 22.484375 10.953125 
Q 26.375 6.390625 33.015625 6.390625 
Q 39.65625 6.390625 43.53125 10.953125 
Q 47.40625 15.53125 47.40625 23.390625 
Q 47.40625 31.296875 43.53125 35.828125 
Q 39.65625 40.375 33.015625 40.375 
M 52.59375 71.296875 
L 52.59375 62.3125 
Q 48.875 64.0625 45.09375 64.984375 
Q 41.3125 65.921875 37.59375 65.921875 
Q 27.828125 65.921875 22.671875 59.328125 
Q 17.53125 52.734375 16.796875 39.40625 
Q 19.671875 43.65625 24.015625 45.921875 
Q 28.375 48.1875 33.59375 48.1875 
Q 44.578125 48.1875 50.953125 41.515625 
Q 57.328125 34.859375 57.328125 23.390625 
Q 57.328125 12.15625 50.6875 5.359375 
Q 44.046875 -1.421875 33.015625 -1.421875 
Q 20.359375 -1.421875 13.671875 8.265625 
Q 6.984375 17.96875 6.984375 36.375 
Q 6.984375 53.65625 15.1875 63.9375 
Q 23.390625 74.21875 37.203125 74.21875 
Q 40.921875 74.21875 44.703125 73.484375 
Q 48.484375 72.75 52.59375 71.296875 
" id="BitstreamVeraSans-Roman-36"/>
      </defs>
      <g transform="translate(22.9624894193 71.1071509596)scale(0.08 -0.08)">
       <use xlink:href="#BitstreamVeraSans-Roman-36"/>
      </g>
     </g>
    </g>
    <g id="ytick_5">
     <g id="line2d_21">
      <g>
       <use style="stroke:#000000;stroke-width:0.5;" x="32.0524894193" xlink:href="#m16f852178d" y="6.43464566929"/>
      </g>
     </g>
     <g id="line2d_22">
      <g>
       <use style="stroke:#000000;stroke-width:0.5;" x="281.912510581" xlink:href="#m4ba7c05c2b" y="6.43464566929"/>
      </g>
     </g>
     <g id="text_11">
      <!-- 8 -->
      <defs>
       <path d="M 31.78125 34.625 
Q 24.75 34.625 20.71875 30.859375 
Q 16.703125 27.09375 16.703125 20.515625 
Q 16.703125 13.921875 20.71875 10.15625 
Q 24.75 6.390625 31.78125 6.390625 
Q 38.8125 6.390625 42.859375 10.171875 
Q 46.921875 13.96875 46.921875 20.515625 
Q 46.921875 27.09375 42.890625 30.859375 
Q 38.875 34.625 31.78125 34.625 
M 21.921875 38.8125 
Q 15.578125 40.375 12.03125 44.71875 
Q 8.5 49.078125 8.5 55.328125 
Q 8.5 64.0625 14.71875 69.140625 
Q 20.953125 74.21875 31.78125 74.21875 
Q 42.671875 74.21875 48.875 69.140625 
Q 55.078125 64.0625 55.078125 55.328125 
Q 55.078125 49.078125 51.53125 44.71875 
Q 48 40.375 41.703125 38.8125 
Q 48.828125 37.15625 52.796875 32.3125 
Q 56.78125 27.484375 56.78125 20.515625 
Q 56.78125 9.90625 50.3125 4.234375 
Q 43.84375 -1.421875 31.78125 -1.421875 
Q 19.734375 -1.421875 13.25 4.234375 
Q 6.78125 9.90625 6.78125 20.515625 
Q 6.78125 27.484375 10.78125 32.3125 
Q 14.796875 37.15625 21.921875 38.8125 
M 18.3125 54.390625 
Q 18.3125 48.734375 21.84375 45.5625 
Q 25.390625 42.390625 31.78125 42.390625 
Q 38.140625 42.390625 41.71875 45.5625 
Q 45.3125 48.734375 45.3125 54.390625 
Q 45.3125 60.0625 41.71875 63.234375 
Q 38.140625 66.40625 31.78125 66.40625 
Q 25.390625 66.40625 21.84375 63.234375 
Q 18.3125 60.0625 18.3125 54.390625 
" id="BitstreamVeraSans-Roman-38"/>
      </defs>
      <g transform="translate(22.9624894193 8.64214566929)scale(0.08 -0.08)">
       <use xlink:href="#BitstreamVeraSans-Roman-38"/>
      </g>
     </g>
    </g>
    <g id="text_12">
     <!-- $g(\theta_1)$ -->
     <defs>
      <path d="M 31 -24.8125 
Q 25.4375 -20.40625 21.40625 -14.71875 
Q 17.390625 -9.03125 14.8125 -2.578125 
Q 12.25 3.859375 10.984375 10.890625 
Q 9.71875 17.921875 9.71875 25 
Q 9.71875 32.171875 10.984375 39.203125 
Q 12.25 46.234375 14.859375 52.734375 
Q 17.484375 59.234375 21.53125 64.890625 
Q 25.59375 70.5625 31 74.8125 
Q 31 75 31.5 75 
L 32.421875 75 
Q 32.71875 75 32.953125 74.734375 
Q 33.203125 74.46875 33.203125 74.125 
Q 33.203125 73.6875 33.015625 73.484375 
Q 28.125 68.703125 24.875 63.234375 
Q 21.625 57.765625 19.640625 51.578125 
Q 17.671875 45.40625 16.796875 38.78125 
Q 15.921875 32.171875 15.921875 25 
Q 15.921875 -6.78125 32.90625 -23.296875 
Q 33.203125 -23.578125 33.203125 -24.125 
Q 33.203125 -24.359375 32.9375 -24.671875 
Q 32.671875 -25 32.421875 -25 
L 31.5 -25 
Q 31 -25 31 -24.8125 
" id="Cmr10-28"/>
      <path d="M 6.5 -25 
Q 5.609375 -25 5.609375 -24.125 
Q 5.609375 -23.6875 5.8125 -23.484375 
Q 22.90625 -6.78125 22.90625 25 
Q 22.90625 56.78125 6 73.296875 
Q 5.609375 73.53125 5.609375 74.125 
Q 5.609375 74.46875 5.875 74.734375 
Q 6.15625 75 6.5 75 
L 7.421875 75 
Q 7.71875 75 7.90625 74.8125 
Q 15.09375 69.140625 19.875 61.03125 
Q 24.65625 52.9375 26.875 43.75 
Q 29.109375 34.578125 29.109375 25 
Q 29.109375 17.921875 27.90625 11.0625 
Q 26.703125 4.203125 24.09375 -2.453125 
Q 21.484375 -9.125 17.484375 -14.765625 
Q 13.484375 -20.40625 7.90625 -24.8125 
Q 7.71875 -25 7.421875 -25 
z
" id="Cmr10-29"/>
      <path d="M 1.421875 -14.3125 
Q 1.421875 -11.859375 3.09375 -10.03125 
Q 4.78125 -8.203125 7.171875 -8.203125 
Q 8.796875 -8.203125 9.890625 -9.203125 
Q 10.984375 -10.203125 10.984375 -11.8125 
Q 10.984375 -13.625 9.953125 -15.0625 
Q 8.9375 -16.5 7.328125 -17.09375 
Q 10.015625 -17.921875 15.71875 -17.921875 
Q 20.3125 -17.921875 24.125 -14.375 
Q 27.9375 -10.84375 29.109375 -6.203125 
L 31.984375 5.515625 
Q 26.5625 0 20.703125 0 
Q 16.40625 0 13.34375 2.1875 
Q 10.296875 4.390625 8.6875 8.046875 
Q 7.078125 11.71875 7.078125 15.828125 
Q 7.078125 20.40625 8.953125 25.4375 
Q 10.84375 30.46875 14.234375 34.765625 
Q 17.625 39.0625 22.015625 41.625 
Q 26.421875 44.1875 31.296875 44.1875 
Q 34.234375 44.1875 36.578125 42.578125 
Q 38.921875 40.96875 40.28125 38.28125 
Q 41.265625 42.1875 44.578125 42.1875 
Q 45.84375 42.1875 46.71875 41.421875 
Q 47.609375 40.671875 47.609375 39.40625 
Q 47.609375 39.109375 47.578125 38.953125 
Q 47.5625 38.8125 47.515625 38.625 
L 36.078125 -6.78125 
Q 35.296875 -9.90625 33.203125 -12.5 
Q 31.109375 -15.09375 28.265625 -16.828125 
Q 25.4375 -18.5625 22.0625 -19.53125 
Q 18.703125 -20.515625 15.578125 -20.515625 
Q 9.859375 -20.515625 5.640625 -19.40625 
Q 1.421875 -18.3125 1.421875 -14.3125 
M 20.90625 2.59375 
Q 27.296875 2.59375 33.5 11.375 
L 39.015625 33.203125 
Q 38.328125 36.671875 36.28125 39.140625 
Q 34.234375 41.609375 31.109375 41.609375 
Q 27.78125 41.609375 24.828125 38.890625 
Q 21.875 36.1875 19.921875 32.421875 
Q 18.0625 28.8125 16.328125 22.046875 
Q 14.59375 15.28125 14.59375 11.375 
Q 14.59375 7.953125 16.15625 5.265625 
Q 17.71875 2.59375 20.90625 2.59375 
" id="Cmmi10-67"/>
     </defs>
     <g transform="translate(15.2124894193 143.13465625)rotate(-90.0)scale(0.11 -0.11)">
      <use xlink:href="#Cmmi10-67"/>
      <use transform="translate(47.705078125 0.0)" xlink:href="#Cmr10-28"/>
      <use transform="translate(86.5234375 0.0)" xlink:href="#Cmmi10-b5"/>
      <use transform="translate(133.447265625 -17.00625)scale(0.7)" xlink:href="#Cmr10-31"/>
      <use transform="translate(174.824609375 0.0)" xlink:href="#Cmr10-29"/>
     </g>
    </g>
   </g>
   <g id="line2d_23">
    <path clip-path="url(#pb8df07d017)" d="M 34.492577 74.952211 
L 57.054712 126.401516 
L 63.834163 140.26871 
L 70.613614 153.400116 
L 76.345554 163.928515 
L 82.077494 173.930937 
L 94.53048 193.849138 
L 106.011032 210.012564 
L 112.165214 217.808309 
L 118.319397 224.997731 
L 125.449621 232.569191 
L 132.579845 239.326754 
L 138.916346 244.64904 
L 145.252848 249.328546 
L 150.809389 252.903082 
L 156.36593 255.983339 
L 162.424051 253.336875 
L 168.482172 249.486299 
L 174.576298 245.020047 
L 180.670424 239.959248 
L 187.40826 233.671823 
L 194.146096 226.657616 
L 200.556976 219.309039 
L 206.967857 211.302503 
L 220.299514 192.545838 
L 231.521929 174.551038 
L 238.372578 162.57518 
L 245.223226 149.848 
L 251.663038 137.198986 
L 258.10285 123.886062 
L 268.419928 101.173894 
L 278.737006 76.757698 
L 280.324758 72.848853 
" style="fill:none;stroke:#008000;stroke-dasharray:6.000000,6.000000;stroke-dashoffset:0.0;"/>
   </g>
   <g id="line2d_24">
    <path clip-path="url(#pb8df07d017)" d="M 34.492577 240.678416 
L 57.054712 240.678416 
L 70.613614 240.678416 
L 82.077494 240.678416 
L 94.53048 240.678416 
L 106.011032 240.678416 
L 112.165214 240.678416 
L 118.319397 240.678416 
L 121.884509 240.678416 
L 125.449621 240.678416 
L 127.232177 240.713585 
L 129.014733 240.849047 
L 130.797289 241.086246 
L 132.579845 241.425183 
L 134.16397 241.811769 
L 135.748095 242.278703 
L 137.332221 242.825984 
L 138.916346 243.453613 
L 140.500472 244.16159 
L 142.084597 244.949914 
L 143.668722 245.818585 
L 145.252848 246.767604 
L 146.641983 247.665929 
L 148.031118 248.626039 
L 149.420253 249.647934 
L 150.809389 250.731614 
L 152.198524 251.877079 
L 153.587659 253.084328 
L 154.282227 253.711123 
L 154.976794 254.353363 
L 155.671362 255.01105 
L 156.36593 255.684182 
L 156.555246 255.870335 
L 156.744562 256.057635 
L 156.933878 256.246083 
L 157.123195 256.154289 
L 157.501827 255.779657 
L 157.88046 255.409616 
L 158.637725 254.683303 
L 159.39499 253.975351 
L 160.90952 252.614529 
L 162.424051 251.327149 
L 163.938581 250.113213 
L 165.453111 248.972719 
L 166.967641 247.905668 
L 168.482172 246.91206 
L 170.005703 245.986645 
L 171.529235 245.135549 
L 173.052766 244.358771 
L 174.576298 243.656311 
L 176.099829 243.02817 
L 177.623361 242.474347 
L 179.146892 241.994843 
L 180.670424 241.589656 
L 182.354883 241.228179 
L 184.039342 240.95755 
L 185.723801 240.777769 
L 187.40826 240.688835 
L 190.777178 240.678416 
L 194.146096 240.678416 
L 200.556976 240.678416 
L 206.967857 240.678416 
L 220.299514 240.678416 
L 231.521929 240.678416 
L 245.223226 240.678416 
L 258.10285 240.678416 
L 278.737006 240.678416 
" style="fill:none;stroke:#455bb6;stroke-dasharray:3.000000,5.000000,1.000000,5.000000;stroke-dashoffset:0.0;"/>
   </g>
   <g id="line2d_25">
    <path clip-path="url(#pb8df07d017)" d="M 34.492577 244.551246 
L 57.054712 244.551246 
L 70.613614 244.551246 
L 82.077494 244.551246 
L 94.53048 244.551246 
L 106.011032 244.551246 
L 109.088123 244.551246 
L 112.165214 244.562981 
L 115.242306 244.670456 
L 118.319397 244.890213 
L 120.101953 245.068881 
L 121.884509 245.285229 
L 123.667065 245.539258 
L 125.449621 245.830967 
L 129.014733 246.527427 
L 132.579845 247.374608 
L 135.748095 248.253971 
L 138.916346 249.252368 
L 142.084597 250.369798 
L 145.252848 251.602806 
L 148.031118 252.714114 
L 150.809389 253.825422 
L 152.198524 254.381076 
L 153.587659 254.93673 
L 154.282227 255.214558 
L 154.976794 255.492385 
L 155.671362 255.770212 
L 156.36593 256.048039 
L 156.744562 256.199492 
L 157.123195 256.238389 
L 157.501827 256.086936 
L 157.88046 255.935483 
L 158.637725 255.632577 
L 159.39499 255.329671 
L 160.90952 254.723859 
L 162.424051 254.118047 
L 165.453111 252.906422 
L 168.482172 251.694798 
L 171.529235 250.500981 
L 174.576298 249.411416 
L 177.623361 248.431951 
L 180.670424 247.562588 
L 184.039342 246.729555 
L 187.40826 246.031113 
L 190.777178 245.467259 
L 194.146096 245.037994 
L 197.351536 244.754511 
L 200.556976 244.592872 
L 203.762417 244.551246 
L 206.967857 244.551246 
L 220.299514 244.551246 
L 231.521929 244.551246 
L 245.223226 244.551246 
L 258.10285 244.551246 
L 278.737006 244.551246 
" style="fill:none;stroke:#d9ac00;stroke-dasharray:6.000000,6.000000;stroke-dashoffset:0.0;"/>
   </g>
   <g id="line2d_26">
    <path clip-path="url(#pb8df07d017)" d="M 34.492577 206.519763 
L 57.054712 211.477248 
L 70.613614 214.885317 
L 82.077494 218.08869 
L 94.53048 221.986584 
L 106.011032 226.06959 
L 112.165214 228.499959 
L 118.319397 231.135528 
L 125.449621 234.496117 
L 132.579845 238.262393 
L 138.916346 242.038981 
L 145.252848 246.335862 
L 148.031118 248.423866 
L 150.809389 250.661526 
L 152.198524 251.843496 
L 153.587659 253.071962 
L 154.976794 254.350732 
L 156.36593 255.684103 
L 156.744562 256.057631 
L 157.123195 256.154288 
L 157.501827 255.77961 
L 157.88046 255.409373 
L 158.637725 254.681812 
L 159.39499 253.970814 
L 160.90952 252.595608 
L 162.424051 251.278408 
L 165.453111 248.799793 
L 168.482172 246.503501 
L 174.576298 242.339678 
L 180.670424 238.666229 
L 187.40826 235.051945 
L 194.146096 231.812867 
L 200.556976 229.014579 
L 206.967857 226.446518 
L 220.299514 221.699536 
L 231.521929 218.196452 
L 245.223226 214.39211 
L 258.10285 211.194553 
L 278.737006 206.66954 
" style="fill:none;stroke:#6820cc;stroke-dasharray:1.000000,3.000000;stroke-dashoffset:0.0;"/>
   </g>
   <g id="legend_1">
    <g id="patch_7">
     <path d="M 74.458125 83.327146 
L 239.506875 83.327146 
L 239.506875 10.434646 
L 74.458125 10.434646 
z
" style="fill:#ffffff;stroke:#000000;stroke-linejoin:miter;"/>
    </g>
    <g id="line2d_27">
     <path d="M 80.058125 17.042146 
L 91.258125 17.042146 
" style="fill:none;stroke:#00008b;stroke-linecap:round;"/>
    </g>
    <g id="line2d_28"/>
    <g id="text_13">
     <!-- L1Penalty -->
     <defs>
      <path d="M 50.296875 8.40625 
L 50.296875 0 
L 8.59375 0 
L 8.59375 69.296875 
L 18.296875 69.296875 
L 18.296875 8.40625 
z
" id="Ubuntu-4c"/>
      <path d="M 9.296875 55 
Q 15 57.203125 20.390625 60.640625 
Q 25.796875 64.09375 30.296875 69.296875 
L 36.90625 69.296875 
L 36.90625 0 
L 27.59375 0 
L 27.59375 56.40625 
Q 26.40625 55.296875 24.65625 54.09375 
Q 22.90625 52.90625 20.84375 51.796875 
Q 18.796875 50.703125 16.546875 49.703125 
Q 14.296875 48.703125 12.203125 48 
z
" id="Ubuntu-31"/>
      <path d="M 8 50.5 
Q 11.203125 51.296875 16.5 52.1875 
Q 21.796875 53.09375 28.703125 53.09375 
Q 34.90625 53.09375 39 51.34375 
Q 43.09375 49.59375 45.546875 46.4375 
Q 48 43.296875 49 38.890625 
Q 50 34.5 50 29.203125 
L 50 0 
L 40.703125 0 
L 40.703125 27.203125 
Q 40.703125 32 40.046875 35.390625 
Q 39.40625 38.796875 37.90625 40.890625 
Q 36.40625 43 33.90625 43.953125 
Q 31.40625 44.90625 27.703125 44.90625 
Q 26.203125 44.90625 24.59375 44.796875 
Q 23 44.703125 21.546875 44.546875 
Q 20.09375 44.40625 18.9375 44.203125 
Q 17.796875 44 17.296875 43.90625 
L 17.296875 0 
L 8 0 
z
" id="Ubuntu-6e"/>
      <path d="M 23.59375 -1 
Q 15 -0.796875 11.390625 2.703125 
Q 7.796875 6.203125 7.796875 13.59375 
L 7.796875 76 
L 17.09375 77.59375 
L 17.09375 15.09375 
Q 17.09375 12.796875 17.5 11.296875 
Q 17.90625 9.796875 18.796875 8.890625 
Q 19.703125 8 21.203125 7.546875 
Q 22.703125 7.09375 24.90625 6.796875 
z
" id="Ubuntu-6c"/>
      <path d="M 27 70 
Q 41.59375 70 49.4375 64.453125 
Q 57.296875 58.90625 57.296875 47.90625 
Q 57.296875 41.90625 55.140625 37.65625 
Q 53 33.40625 48.953125 30.75 
Q 44.90625 28.09375 39.09375 26.890625 
Q 33.296875 25.703125 26 25.703125 
L 18.296875 25.703125 
L 18.296875 0 
L 8.59375 0 
L 8.59375 68.296875 
Q 12.703125 69.296875 17.75 69.640625 
Q 22.796875 70 27 70 
M 27.796875 61.5 
Q 21.59375 61.5 18.296875 61.203125 
L 18.296875 34 
L 25.59375 34 
Q 30.59375 34 34.59375 34.640625 
Q 38.59375 35.296875 41.34375 36.84375 
Q 44.09375 38.40625 45.59375 41.09375 
Q 47.09375 43.796875 47.09375 48 
Q 47.09375 52 45.546875 54.59375 
Q 44 57.203125 41.34375 58.75 
Q 38.703125 60.296875 35.203125 60.890625 
Q 31.703125 61.5 27.796875 61.5 
" id="Ubuntu-50"/>
      <path d="M 1.90625 -9.703125 
Q 3 -10.203125 4.75 -10.640625 
Q 6.5 -11.09375 8.203125 -11.09375 
Q 13.703125 -11.09375 16.796875 -8.640625 
Q 19.90625 -6.203125 22.40625 -0.703125 
Q 16.09375 11.296875 10.640625 24.75 
Q 5.203125 38.203125 1.59375 52 
L 11.59375 52 
Q 12.703125 47.5 14.25 42.296875 
Q 15.796875 37.09375 17.6875 31.59375 
Q 19.59375 26.09375 21.796875 20.59375 
Q 24 15.09375 26.40625 10 
Q 30.203125 20.5 33 30.796875 
Q 35.796875 41.09375 38.296875 52 
L 47.90625 52 
Q 44.296875 37.296875 39.890625 23.75 
Q 35.5 10.203125 30.40625 -1.59375 
Q 28.40625 -6.09375 26.25 -9.34375 
Q 24.09375 -12.59375 21.5 -14.6875 
Q 18.90625 -16.796875 15.65625 -17.796875 
Q 12.40625 -18.796875 8.296875 -18.796875 
Q 7.203125 -18.796875 6 -18.640625 
Q 4.796875 -18.5 3.640625 -18.25 
Q 2.5 -18 1.546875 -17.703125 
Q 0.59375 -17.40625 0.203125 -17.203125 
z
" id="Ubuntu-79"/>
      <path d="M 5.09375 25.90625 
Q 5.09375 32.796875 7.09375 37.9375 
Q 9.09375 43.09375 12.390625 46.5 
Q 15.703125 49.90625 20 51.59375 
Q 24.296875 53.296875 28.796875 53.296875 
Q 39.296875 53.296875 44.890625 46.75 
Q 50.5 40.203125 50.5 26.796875 
Q 50.5 26.203125 50.5 25.25 
Q 50.5 24.296875 50.40625 23.5 
L 14.796875 23.5 
Q 15.40625 15.40625 19.5 11.203125 
Q 23.59375 7 32.296875 7 
Q 37.203125 7 40.546875 7.84375 
Q 43.90625 8.703125 45.59375 9.5 
L 46.90625 1.703125 
Q 45.203125 0.796875 40.953125 -0.203125 
Q 36.703125 -1.203125 31.296875 -1.203125 
Q 24.5 -1.203125 19.546875 0.84375 
Q 14.59375 2.90625 11.390625 6.5 
Q 8.203125 10.09375 6.640625 15.046875 
Q 5.09375 20 5.09375 25.90625 
M 40.796875 31 
Q 40.90625 37.296875 37.65625 41.34375 
Q 34.40625 45.40625 28.703125 45.40625 
Q 25.5 45.40625 23.046875 44.15625 
Q 20.59375 42.90625 18.890625 40.90625 
Q 17.203125 38.90625 16.25 36.296875 
Q 15.296875 33.703125 15 31 
z
" id="Ubuntu-65"/>
      <path d="M 16.703125 52 
L 36.40625 52 
L 36.40625 44.203125 
L 16.703125 44.203125 
L 16.703125 20.203125 
Q 16.703125 16.296875 17.296875 13.75 
Q 17.90625 11.203125 19.09375 9.75 
Q 20.296875 8.296875 22.09375 7.6875 
Q 23.90625 7.09375 26.296875 7.09375 
Q 30.5 7.09375 33.046875 8.046875 
Q 35.59375 9 36.59375 9.40625 
L 38.40625 1.703125 
Q 37 1 33.5 -0.046875 
Q 30 -1.09375 25.5 -1.09375 
Q 20.203125 -1.09375 16.75 0.25 
Q 13.296875 1.59375 11.1875 4.296875 
Q 9.09375 7 8.25 10.953125 
Q 7.40625 14.90625 7.40625 20.09375 
L 7.40625 66.5 
L 16.703125 68.09375 
z
" id="Ubuntu-74"/>
      <path d="M 25.59375 6.703125 
Q 28.90625 6.703125 31.453125 6.84375 
Q 34 7 35.703125 7.40625 
L 35.703125 22.90625 
Q 34.703125 23.40625 32.453125 23.75 
Q 30.203125 24.09375 27 24.09375 
Q 24.90625 24.09375 22.546875 23.796875 
Q 20.203125 23.5 18.25 22.546875 
Q 16.296875 21.59375 15 19.9375 
Q 13.703125 18.296875 13.703125 15.59375 
Q 13.703125 10.59375 16.890625 8.640625 
Q 20.09375 6.703125 25.59375 6.703125 
M 24.796875 53.296875 
Q 30.40625 53.296875 34.25 51.84375 
Q 38.09375 50.40625 40.4375 47.75 
Q 42.796875 45.09375 43.796875 41.4375 
Q 44.796875 37.796875 44.796875 33.40625 
L 44.796875 0.90625 
Q 43.59375 0.703125 41.4375 0.34375 
Q 39.296875 0 36.59375 -0.296875 
Q 33.90625 -0.59375 30.75 -0.84375 
Q 27.59375 -1.09375 24.5 -1.09375 
Q 20.09375 -1.09375 16.390625 -0.1875 
Q 12.703125 0.703125 10 2.640625 
Q 7.296875 4.59375 5.796875 7.796875 
Q 4.296875 11 4.296875 15.5 
Q 4.296875 19.796875 6.046875 22.890625 
Q 7.796875 26 10.796875 27.890625 
Q 13.796875 29.796875 17.796875 30.6875 
Q 21.796875 31.59375 26.203125 31.59375 
Q 27.59375 31.59375 29.09375 31.4375 
Q 30.59375 31.296875 31.9375 31.046875 
Q 33.296875 30.796875 34.296875 30.59375 
Q 35.296875 30.40625 35.703125 30.296875 
L 35.703125 32.90625 
Q 35.703125 35.203125 35.203125 37.453125 
Q 34.703125 39.703125 33.390625 41.453125 
Q 32.09375 43.203125 29.84375 44.25 
Q 27.59375 45.296875 24 45.296875 
Q 19.40625 45.296875 15.953125 44.640625 
Q 12.5 44 10.796875 43.296875 
L 9.703125 51 
Q 11.5 51.796875 15.703125 52.546875 
Q 19.90625 53.296875 24.796875 53.296875 
" id="Ubuntu-61"/>
     </defs>
     <g transform="translate(100.058125 19.8421456693)scale(0.08 -0.08)">
      <use xlink:href="#Ubuntu-4c"/>
      <use x="51.8999938965" xlink:href="#Ubuntu-31"/>
      <use x="108.299987793" xlink:href="#Ubuntu-50"/>
      <use x="169.053100586" xlink:href="#Ubuntu-65"/>
      <use x="224.953094482" xlink:href="#Ubuntu-6e"/>
      <use x="282.353088379" xlink:href="#Ubuntu-61"/>
      <use x="334.553085327" xlink:href="#Ubuntu-6c"/>
      <use x="361.85307312" xlink:href="#Ubuntu-74"/>
      <use x="402.053070068" xlink:href="#Ubuntu-79"/>
     </g>
    </g>
    <g id="line2d_29">
     <path d="M 80.058125 28.753396 
L 91.258125 28.753396 
" style="fill:none;stroke:#cc0000;stroke-linecap:round;"/>
    </g>
    <g id="line2d_30"/>
    <g id="text_14">
     <!-- L2Penalty -->
     <defs>
      <path d="M 46.703125 51.59375 
Q 46.703125 48 45.25 44.640625 
Q 43.796875 41.296875 41.390625 38.046875 
Q 39 34.796875 36 31.640625 
Q 33 28.5 30 25.5 
Q 28.296875 23.796875 26.046875 21.5 
Q 23.796875 19.203125 21.796875 16.703125 
Q 19.796875 14.203125 18.4375 11.890625 
Q 17.09375 9.59375 17.09375 7.90625 
L 49 7.90625 
L 49 0 
L 7 0 
Q 6.90625 0.59375 6.90625 1.1875 
Q 6.90625 1.796875 6.90625 2.296875 
Q 6.90625 7 8.453125 11.046875 
Q 10 15.09375 12.5 18.6875 
Q 15 22.296875 18.09375 25.5 
Q 21.203125 28.703125 24.203125 31.703125 
Q 26.703125 34.09375 28.953125 36.4375 
Q 31.203125 38.796875 32.953125 41.140625 
Q 34.703125 43.5 35.75 46 
Q 36.796875 48.5 36.796875 51.296875 
Q 36.796875 54.296875 35.84375 56.390625 
Q 34.90625 58.5 33.296875 59.890625 
Q 31.703125 61.296875 29.546875 61.9375 
Q 27.40625 62.59375 25 62.59375 
Q 22.09375 62.59375 19.6875 61.796875 
Q 17.296875 61 15.390625 59.953125 
Q 13.5 58.90625 12.203125 57.75 
Q 10.90625 56.59375 10.203125 56 
L 5.59375 62.59375 
Q 6.5 63.59375 8.296875 65.046875 
Q 10.09375 66.5 12.59375 67.796875 
Q 15.09375 69.09375 18.1875 70 
Q 21.296875 70.90625 24.90625 70.90625 
Q 35.796875 70.90625 41.25 65.84375 
Q 46.703125 60.796875 46.703125 51.59375 
" id="Ubuntu-32"/>
     </defs>
     <g transform="translate(100.058125 31.5533956693)scale(0.08 -0.08)">
      <use xlink:href="#Ubuntu-4c"/>
      <use x="51.8999938965" xlink:href="#Ubuntu-32"/>
      <use x="108.299987793" xlink:href="#Ubuntu-50"/>
      <use x="169.053100586" xlink:href="#Ubuntu-65"/>
      <use x="224.953094482" xlink:href="#Ubuntu-6e"/>
      <use x="282.353088379" xlink:href="#Ubuntu-61"/>
      <use x="334.553085327" xlink:href="#Ubuntu-6c"/>
      <use x="361.85307312" xlink:href="#Ubuntu-74"/>
      <use x="402.053070068" xlink:href="#Ubuntu-79"/>
     </g>
    </g>
    <g id="line2d_31">
     <path d="M 80.058125 40.520896 
L 91.258125 40.520896 
" style="fill:none;stroke:#008000;stroke-dasharray:6.000000,6.000000;stroke-dashoffset:0.0;"/>
    </g>
    <g id="line2d_32"/>
    <g id="text_15">
     <!-- ElasticNetPenalty{Float64}(α = 0.5) -->
     <defs>
      <path id="Ubuntu-20"/>
      <path d="M 5 34.703125 
Q 5 52.09375 11.140625 61.5 
Q 17.296875 70.90625 28.203125 70.90625 
Q 39.09375 70.90625 45.25 61.5 
Q 51.40625 52.09375 51.40625 34.703125 
Q 51.40625 17.296875 45.25 7.890625 
Q 39.09375 -1.5 28.203125 -1.5 
Q 17.296875 -1.5 11.140625 7.890625 
Q 5 17.296875 5 34.703125 
M 41.59375 34.703125 
Q 41.59375 40.40625 40.9375 45.5 
Q 40.296875 50.59375 38.75 54.390625 
Q 37.203125 58.203125 34.59375 60.453125 
Q 32 62.703125 28.203125 62.703125 
Q 24.40625 62.703125 21.796875 60.453125 
Q 19.203125 58.203125 17.640625 54.390625 
Q 16.09375 50.59375 15.4375 45.5 
Q 14.796875 40.40625 14.796875 34.703125 
Q 14.796875 29 15.4375 23.890625 
Q 16.09375 18.796875 17.640625 15 
Q 19.203125 11.203125 21.796875 8.953125 
Q 24.40625 6.703125 28.203125 6.703125 
Q 32 6.703125 34.59375 8.953125 
Q 37.203125 11.203125 38.75 15 
Q 40.296875 18.796875 40.9375 23.890625 
Q 41.59375 29 41.59375 34.703125 
" id="Ubuntu-30"/>
      <path d="M 6.296875 27.796875 
Q 6.296875 37.90625 9.09375 45.65625 
Q 11.90625 53.40625 17.046875 58.703125 
Q 22.203125 64 29.546875 66.75 
Q 36.90625 69.5 46.09375 69.59375 
L 46.796875 61.796875 
Q 40.90625 61.703125 36.046875 60.5 
Q 31.203125 59.296875 27.390625 56.6875 
Q 23.59375 54.09375 21 49.9375 
Q 18.40625 45.796875 17.09375 39.703125 
Q 19.703125 40.90625 22.953125 41.703125 
Q 26.203125 42.5 29.703125 42.5 
Q 35.59375 42.5 39.6875 40.703125 
Q 43.796875 38.90625 46.390625 35.953125 
Q 49 33 50.140625 29.140625 
Q 51.296875 25.296875 51.296875 21.09375 
Q 51.296875 17.296875 50 13.296875 
Q 48.703125 9.296875 46.046875 6 
Q 43.40625 2.703125 39.296875 0.59375 
Q 35.203125 -1.5 29.59375 -1.5 
Q 18.203125 -1.5 12.25 6.296875 
Q 6.296875 14.09375 6.296875 27.796875 
M 28.703125 34.90625 
Q 25.203125 34.90625 22.203125 34.25 
Q 19.203125 33.59375 16.203125 32.296875 
Q 16.09375 31.203125 16.046875 30.046875 
Q 16 28.90625 16 27.796875 
Q 16 23.40625 16.59375 19.5 
Q 17.203125 15.59375 18.75 12.640625 
Q 20.296875 9.703125 22.890625 7.953125 
Q 25.5 6.203125 29.5 6.203125 
Q 32.796875 6.203125 35.09375 7.59375 
Q 37.40625 9 38.90625 11.203125 
Q 40.40625 13.40625 41.046875 15.953125 
Q 41.703125 18.5 41.703125 20.90625 
Q 41.703125 27.703125 38.453125 31.296875 
Q 35.203125 34.90625 28.703125 34.90625 
" id="Ubuntu-36"/>
      <path d="M 4 24 
Q 5.90625 28.40625 9.203125 34.25 
Q 12.5 40.09375 16.640625 46.296875 
Q 20.796875 52.5 25.546875 58.5 
Q 30.296875 64.5 35.09375 69.296875 
L 44 69.296875 
L 44 25.296875 
L 52.203125 25.296875 
L 52.203125 17.703125 
L 44 17.703125 
L 44 0 
L 35 0 
L 35 17.703125 
L 4 17.703125 
z
M 35 58.296875 
Q 32 55.09375 28.953125 51.140625 
Q 25.90625 47.203125 23 42.890625 
Q 20.09375 38.59375 17.546875 34.09375 
Q 15 29.59375 13 25.296875 
L 35 25.296875 
z
" id="Ubuntu-34"/>
      <path d="M 56.09375 0 
Q 53.90625 3.703125 51.046875 8.296875 
Q 48.203125 12.90625 44.890625 17.84375 
Q 41.59375 22.796875 38.046875 27.890625 
Q 34.5 33 31 37.75 
Q 27.5 42.5 24.203125 46.703125 
Q 20.90625 50.90625 18.09375 54.09375 
L 18.09375 0 
L 8.59375 0 
L 8.59375 69.296875 
L 16.296875 69.296875 
Q 21 64.296875 26.34375 57.640625 
Q 31.703125 51 36.953125 43.953125 
Q 42.203125 36.90625 46.84375 30.09375 
Q 51.5 23.296875 54.703125 18 
L 54.703125 69.296875 
L 64.203125 69.296875 
L 64.203125 0 
z
" id="Ubuntu-4e"/>
      <path d="M 19.90625 42.59375 
Q 35 42 42.046875 36 
Q 49.09375 30 49.09375 19.703125 
Q 49.09375 15.09375 47.546875 11.1875 
Q 46 7.296875 42.84375 4.5 
Q 39.703125 1.703125 34.890625 0.09375 
Q 30.09375 -1.5 23.5 -1.5 
Q 20.90625 -1.5 18.203125 -1.09375 
Q 15.5 -0.703125 13.203125 -0.09375 
Q 10.90625 0.5 9.09375 1.09375 
Q 7.296875 1.703125 6.5 2.09375 
L 8.296875 10.203125 
Q 10 9.40625 13.84375 8.09375 
Q 17.703125 6.796875 23.296875 6.796875 
Q 27.796875 6.796875 30.84375 7.796875 
Q 33.90625 8.796875 35.796875 10.5 
Q 37.703125 12.203125 38.546875 14.453125 
Q 39.40625 16.703125 39.40625 19.203125 
Q 39.40625 23 38.09375 25.953125 
Q 36.796875 28.90625 33.5 30.90625 
Q 30.203125 32.90625 24.703125 33.953125 
Q 19.203125 35 10.796875 35 
Q 11.40625 39.90625 11.75 44.203125 
Q 12.09375 48.5 12.390625 52.59375 
Q 12.703125 56.703125 12.890625 60.75 
Q 13.09375 64.796875 13.296875 69.296875 
L 46.703125 69.296875 
L 46.703125 61.40625 
L 21.40625 61.40625 
Q 21.296875 59.90625 21.09375 57.34375 
Q 20.90625 54.796875 20.703125 52.046875 
Q 20.5 49.296875 20.296875 46.6875 
Q 20.09375 44.09375 19.90625 42.59375 
" id="Ubuntu-35"/>
      <path d="M 15.296875 29.90625 
Q 15.296875 42.703125 11.59375 53.59375 
Q 7.90625 64.5 0.703125 73.796875 
L 7.296875 78.296875 
Q 15.09375 68.796875 19.84375 56.4375 
Q 24.59375 44.09375 24.59375 29.90625 
Q 24.59375 15.703125 19.84375 3.34375 
Q 15.09375 -9 7.296875 -18.5 
L 0.703125 -14 
Q 7.90625 -4.703125 11.59375 6.1875 
Q 15.296875 17.09375 15.296875 29.90625 
" id="Ubuntu-29"/>
      <path d="M 17.09375 29.90625 
Q 17.09375 17.09375 20.796875 6.1875 
Q 24.5 -4.703125 31.703125 -14 
L 25.09375 -18.5 
Q 17.296875 -9 12.546875 3.34375 
Q 7.796875 15.703125 7.796875 29.90625 
Q 7.796875 44.09375 12.546875 56.4375 
Q 17.296875 68.796875 25.09375 78.296875 
L 31.703125 73.796875 
Q 24.5 64.5 20.796875 53.59375 
Q 17.09375 42.703125 17.09375 29.90625 
" id="Ubuntu-28"/>
      <path d="M 29.296875 26.296875 
Q 26.90625 26.296875 25.203125 25.4375 
Q 23.5 24.59375 22.34375 23.25 
Q 21.203125 21.90625 20.640625 20.15625 
Q 20.09375 18.40625 20.09375 16.59375 
L 20.09375 -1.40625 
Q 20.09375 -5.5 19.1875 -8.703125 
Q 18.296875 -11.90625 16.09375 -14.09375 
Q 13.90625 -16.296875 10.25 -17.390625 
Q 6.59375 -18.5 1.203125 -18.5 
L 0.796875 -18.5 
L 0.796875 -11.203125 
Q 6.5 -11.203125 8.953125 -9.140625 
Q 11.40625 -7.09375 11.40625 -1.296875 
L 11.40625 14.09375 
Q 11.40625 20.703125 13.15625 24.296875 
Q 14.90625 27.90625 18.09375 29.90625 
Q 14.90625 31.90625 13.15625 35.5 
Q 11.40625 39.09375 11.40625 45.703125 
L 11.40625 61.09375 
Q 11.40625 66.90625 8.953125 68.953125 
Q 6.5 71 0.796875 71 
L 0.796875 78.296875 
L 1.203125 78.296875 
Q 6.59375 78.296875 10.25 77.140625 
Q 13.90625 76 16.09375 73.84375 
Q 18.296875 71.703125 19.1875 68.5 
Q 20.09375 65.296875 20.09375 61.203125 
L 20.09375 43.203125 
Q 20.09375 41.40625 20.640625 39.65625 
Q 21.203125 37.90625 22.34375 36.546875 
Q 23.5 35.203125 25.203125 34.34375 
Q 26.90625 33.5 29.296875 33.5 
z
" id="Ubuntu-7d"/>
      <path d="M 53.90625 26 
Q 53.90625 19.796875 52.09375 14.796875 
Q 50.296875 9.796875 47.046875 6.1875 
Q 43.796875 2.59375 39.296875 0.640625 
Q 34.796875 -1.296875 29.5 -1.296875 
Q 24.203125 -1.296875 19.703125 0.640625 
Q 15.203125 2.59375 11.953125 6.1875 
Q 8.703125 9.796875 6.890625 14.796875 
Q 5.09375 19.796875 5.09375 26 
Q 5.09375 32.09375 6.890625 37.140625 
Q 8.703125 42.203125 11.953125 45.796875 
Q 15.203125 49.40625 19.703125 51.34375 
Q 24.203125 53.296875 29.5 53.296875 
Q 34.796875 53.296875 39.296875 51.34375 
Q 43.796875 49.40625 47.046875 45.796875 
Q 50.296875 42.203125 52.09375 37.140625 
Q 53.90625 32.09375 53.90625 26 
M 44.203125 26 
Q 44.203125 34.796875 40.25 39.9375 
Q 36.296875 45.09375 29.5 45.09375 
Q 22.703125 45.09375 18.75 39.9375 
Q 14.796875 34.796875 14.796875 26 
Q 14.796875 17.203125 18.75 12.046875 
Q 22.703125 6.90625 29.5 6.90625 
Q 36.296875 6.90625 40.25 12.046875 
Q 44.203125 17.203125 44.203125 26 
" id="Ubuntu-6f"/>
      <path d="M 4 33.5 
Q 6.40625 33.5 8.09375 34.34375 
Q 9.796875 35.203125 10.9375 36.546875 
Q 12.09375 37.90625 12.640625 39.65625 
Q 13.203125 41.40625 13.203125 43.203125 
L 13.203125 61.203125 
Q 13.203125 65.296875 14.09375 68.5 
Q 15 71.703125 17.203125 73.84375 
Q 19.40625 76 23.046875 77.140625 
Q 26.703125 78.296875 32.09375 78.296875 
L 32.5 78.296875 
L 32.5 71 
Q 26.796875 71 24.34375 68.953125 
Q 21.90625 66.90625 21.90625 61.09375 
L 21.90625 45.703125 
Q 21.90625 39.09375 20.15625 35.5 
Q 18.40625 31.90625 15.203125 29.90625 
Q 18.40625 27.90625 20.15625 24.296875 
Q 21.90625 20.703125 21.90625 14.09375 
L 21.90625 -1.296875 
Q 21.90625 -7.09375 24.34375 -9.140625 
Q 26.796875 -11.203125 32.5 -11.203125 
L 32.5 -18.5 
L 32.09375 -18.5 
Q 26.703125 -18.5 23.046875 -17.390625 
Q 19.40625 -16.296875 17.203125 -14.09375 
Q 15 -11.90625 14.09375 -8.703125 
Q 13.203125 -5.5 13.203125 -1.40625 
L 13.203125 16.59375 
Q 13.203125 18.40625 12.640625 20.15625 
Q 12.09375 21.90625 10.9375 23.25 
Q 9.796875 24.59375 8.09375 25.4375 
Q 6.40625 26.296875 4 26.296875 
z
" id="Ubuntu-7b"/>
      <path d="M 5.296875 23.203125 
L 51.09375 23.203125 
L 51.09375 15.296875 
L 5.296875 15.296875 
z
M 5.296875 44.5 
L 51.09375 44.5 
L 51.09375 36.59375 
L 5.296875 36.59375 
z
" id="Ubuntu-3d"/>
      <path d="M 31.5 53.09375 
Q 34.296875 53.09375 37.140625 52.796875 
Q 40 52.5 42.5 52.046875 
Q 45 51.59375 47.046875 51.046875 
Q 49.09375 50.5 50.40625 50 
L 50.40625 16.5 
Q 50.40625 13.59375 50.84375 11.84375 
Q 51.296875 10.09375 52.25 9.046875 
Q 53.203125 8 54.75 7.546875 
Q 56.296875 7.09375 58.5 6.796875 
L 57.203125 -1 
Q 52.703125 -1 49.640625 0.34375 
Q 46.59375 1.703125 44.703125 4.09375 
Q 42.203125 2.203125 38.296875 0.546875 
Q 34.40625 -1.09375 29 -1.09375 
Q 23.09375 -1.09375 18.640625 0.90625 
Q 14.203125 2.90625 11.203125 6.5 
Q 8.203125 10.09375 6.640625 15.046875 
Q 5.09375 20 5.09375 25.90625 
Q 5.09375 32.203125 6.9375 37.25 
Q 8.796875 42.296875 12.25 45.796875 
Q 15.703125 49.296875 20.59375 51.1875 
Q 25.5 53.09375 31.5 53.09375 
M 29.703125 7 
Q 33.796875 7 36.9375 8.34375 
Q 40.09375 9.703125 41.703125 10.90625 
Q 41.09375 13.59375 41.09375 16.90625 
L 41.09375 43.59375 
Q 40.296875 43.90625 37.640625 44.34375 
Q 35 44.796875 31.90625 44.796875 
Q 23.90625 44.796875 19.34375 39.890625 
Q 14.796875 35 14.796875 25.90625 
Q 14.796875 21.90625 15.59375 18.453125 
Q 16.40625 15 18.203125 12.453125 
Q 20 9.90625 22.84375 8.453125 
Q 25.703125 7 29.703125 7 
" id="Ubuntu-3b1"/>
      <path d="M 17.296875 0 
L 8 0 
L 8 52 
L 17.296875 52 
z
M 12.59375 61.40625 
Q 10.09375 61.40625 8.34375 63.046875 
Q 6.59375 64.703125 6.59375 67.5 
Q 6.59375 70.296875 8.34375 71.9375 
Q 10.09375 73.59375 12.59375 73.59375 
Q 15.09375 73.59375 16.84375 71.9375 
Q 18.59375 70.296875 18.59375 67.5 
Q 18.59375 64.703125 16.84375 63.046875 
Q 15.09375 61.40625 12.59375 61.40625 
" id="Ubuntu-69"/>
      <path d="M 8.59375 0 
L 8.59375 69.296875 
L 50.40625 69.296875 
L 50.40625 61 
L 18.296875 61 
L 18.296875 40.09375 
L 46.796875 40.09375 
L 46.796875 31.90625 
L 18.296875 31.90625 
L 18.296875 0 
z
" id="Ubuntu-46"/>
      <path d="M 8.59375 0 
L 8.59375 69.296875 
L 50.90625 69.296875 
L 50.90625 61 
L 18.296875 61 
L 18.296875 40.40625 
L 47.296875 40.40625 
L 47.296875 32.296875 
L 18.296875 32.296875 
L 18.296875 8.296875 
L 53.40625 8.296875 
L 53.40625 0 
z
" id="Ubuntu-45"/>
      <path d="M 19 5.40625 
Q 19 2.703125 17.203125 0.703125 
Q 15.40625 -1.296875 12.296875 -1.296875 
Q 9.203125 -1.296875 7.390625 0.703125 
Q 5.59375 2.703125 5.59375 5.40625 
Q 5.59375 8.09375 7.390625 10.09375 
Q 9.203125 12.09375 12.296875 12.09375 
Q 15.40625 12.09375 17.203125 10.09375 
Q 19 8.09375 19 5.40625 
" id="Ubuntu-2e"/>
      <path d="M 20.09375 6.703125 
Q 25.796875 6.703125 28.546875 8.203125 
Q 31.296875 9.703125 31.296875 13 
Q 31.296875 16.40625 28.59375 18.40625 
Q 25.90625 20.40625 19.703125 22.90625 
Q 16.703125 24.09375 13.953125 25.34375 
Q 11.203125 26.59375 9.203125 28.296875 
Q 7.203125 30 6 32.390625 
Q 4.796875 34.796875 4.796875 38.296875 
Q 4.796875 45.203125 9.890625 49.25 
Q 15 53.296875 23.796875 53.296875 
Q 26 53.296875 28.203125 53.046875 
Q 30.40625 52.796875 32.296875 52.4375 
Q 34.203125 52.09375 35.640625 51.6875 
Q 37.09375 51.296875 37.90625 51 
L 36.203125 43 
Q 34.703125 43.796875 31.5 44.640625 
Q 28.296875 45.5 23.796875 45.5 
Q 19.90625 45.5 17 43.953125 
Q 14.09375 42.40625 14.09375 39.09375 
Q 14.09375 37.40625 14.75 36.09375 
Q 15.40625 34.796875 16.75 33.75 
Q 18.09375 32.703125 20.09375 31.796875 
Q 22.09375 30.90625 24.90625 29.90625 
Q 28.59375 28.5 31.5 27.140625 
Q 34.40625 25.796875 36.453125 24 
Q 38.5 22.203125 39.59375 19.640625 
Q 40.703125 17.09375 40.703125 13.40625 
Q 40.703125 6.203125 35.34375 2.5 
Q 30 -1.203125 20.09375 -1.203125 
Q 13.203125 -1.203125 9.296875 -0.046875 
Q 5.40625 1.09375 4 1.703125 
L 5.703125 9.703125 
Q 7.296875 9.09375 10.796875 7.890625 
Q 14.296875 6.703125 20.09375 6.703125 
" id="Ubuntu-73"/>
      <path d="M 30.59375 -1.203125 
Q 24.296875 -1.203125 19.546875 0.796875 
Q 14.796875 2.796875 11.546875 6.390625 
Q 8.296875 10 6.6875 14.953125 
Q 5.09375 19.90625 5.09375 25.90625 
Q 5.09375 31.90625 6.84375 36.90625 
Q 8.59375 41.90625 11.796875 45.546875 
Q 15 49.203125 19.640625 51.25 
Q 24.296875 53.296875 30 53.296875 
Q 33.5 53.296875 37 52.6875 
Q 40.5 52.09375 43.703125 50.796875 
L 41.59375 42.90625 
Q 39.5 43.90625 36.75 44.5 
Q 34 45.09375 30.90625 45.09375 
Q 23.09375 45.09375 18.9375 40.1875 
Q 14.796875 35.296875 14.796875 25.90625 
Q 14.796875 21.703125 15.75 18.203125 
Q 16.703125 14.703125 18.75 12.203125 
Q 20.796875 9.703125 24 8.34375 
Q 27.203125 7 31.796875 7 
Q 35.5 7 38.5 7.703125 
Q 41.5 8.40625 43.203125 9.203125 
L 44.5 1.40625 
Q 43.703125 0.90625 42.203125 0.453125 
Q 40.703125 0 38.796875 -0.34375 
Q 36.90625 -0.703125 34.75 -0.953125 
Q 32.59375 -1.203125 30.59375 -1.203125 
" id="Ubuntu-63"/>
     </defs>
     <g transform="translate(100.058125 43.3208956693)scale(0.08 -0.08)">
      <use xlink:href="#Ubuntu-45"/>
      <use x="57.0999908447" xlink:href="#Ubuntu-6c"/>
      <use x="84.3999786377" xlink:href="#Ubuntu-61"/>
      <use x="136.599975586" xlink:href="#Ubuntu-73"/>
      <use x="181.199966431" xlink:href="#Ubuntu-74"/>
      <use x="221.399963379" xlink:href="#Ubuntu-69"/>
      <use x="246.699951172" xlink:href="#Ubuntu-63"/>
      <use x="293.199935913" xlink:href="#Ubuntu-4e"/>
      <use x="365.999923706" xlink:href="#Ubuntu-65"/>
      <use x="421.899917603" xlink:href="#Ubuntu-74"/>
      <use x="462.099914551" xlink:href="#Ubuntu-50"/>
      <use x="522.853027344" xlink:href="#Ubuntu-65"/>
      <use x="578.75302124" xlink:href="#Ubuntu-6e"/>
      <use x="636.153015137" xlink:href="#Ubuntu-61"/>
      <use x="688.353012085" xlink:href="#Ubuntu-6c"/>
      <use x="715.652999878" xlink:href="#Ubuntu-74"/>
      <use x="755.852996826" xlink:href="#Ubuntu-79"/>
      <use x="805.552993774" xlink:href="#Ubuntu-7b"/>
      <use x="838.852981567" xlink:href="#Ubuntu-46"/>
      <use x="892.552978516" xlink:href="#Ubuntu-6c"/>
      <use x="919.852966309" xlink:href="#Ubuntu-6f"/>
      <use x="978.85295105" xlink:href="#Ubuntu-61"/>
      <use x="1031.052948" xlink:href="#Ubuntu-74"/>
      <use x="1071.25294495" xlink:href="#Ubuntu-36"/>
      <use x="1127.65293884" xlink:href="#Ubuntu-34"/>
      <use x="1184.05293274" xlink:href="#Ubuntu-7d"/>
      <use x="1217.35292053" xlink:href="#Ubuntu-28"/>
      <use x="1249.75291443" xlink:href="#Ubuntu-3b1"/>
      <use x="1310.35290527" xlink:href="#Ubuntu-20"/>
      <use x="1333.45289612" xlink:href="#Ubuntu-3d"/>
      <use x="1389.85289001" xlink:href="#Ubuntu-20"/>
      <use x="1412.95288086" xlink:href="#Ubuntu-30"/>
      <use x="1469.35287476" xlink:href="#Ubuntu-2e"/>
      <use x="1493.9528656" xlink:href="#Ubuntu-35"/>
      <use x="1550.3528595" xlink:href="#Ubuntu-29"/>
     </g>
    </g>
    <g id="line2d_33">
     <path d="M 80.058125 52.288396 
L 91.258125 52.288396 
" style="fill:none;stroke:#455bb6;stroke-dasharray:3.000000,5.000000,1.000000,5.000000;stroke-dashoffset:0.0;"/>
    </g>
    <g id="line2d_34"/>
    <g id="text_16">
     <!-- MCPPenalty{Float64}(γ = 1.0) -->
     <defs>
      <path d="M 38.40625 -1.5 
Q 31.09375 -1.5 25.09375 0.890625 
Q 19.09375 3.296875 14.796875 7.890625 
Q 10.5 12.5 8.140625 19.25 
Q 5.796875 26 5.796875 34.703125 
Q 5.796875 43.40625 8.4375 50.15625 
Q 11.09375 56.90625 15.59375 61.5 
Q 20.09375 66.09375 26.09375 68.5 
Q 32.09375 70.90625 38.90625 70.90625 
Q 43.203125 70.90625 46.640625 70.296875 
Q 50.09375 69.703125 52.640625 68.890625 
Q 55.203125 68.09375 56.796875 67.296875 
Q 58.40625 66.5 59 66.09375 
L 56.203125 58.09375 
Q 55.296875 58.703125 53.59375 59.390625 
Q 51.90625 60.09375 49.75 60.796875 
Q 47.59375 61.5 45.046875 61.953125 
Q 42.5 62.40625 39.90625 62.40625 
Q 34.40625 62.40625 30 60.5 
Q 25.59375 58.59375 22.5 55 
Q 19.40625 51.40625 17.75 46.25 
Q 16.09375 41.09375 16.09375 34.703125 
Q 16.09375 28.5 17.546875 23.390625 
Q 19 18.296875 21.890625 14.640625 
Q 24.796875 11 29.140625 9 
Q 33.5 7 39.296875 7 
Q 46 7 50.390625 8.390625 
Q 54.796875 9.796875 57 10.90625 
L 59.5 2.90625 
Q 58.796875 2.40625 57 1.65625 
Q 55.203125 0.90625 52.5 0.203125 
Q 49.796875 -0.5 46.1875 -1 
Q 42.59375 -1.5 38.40625 -1.5 
" id="Ubuntu-43"/>
      <path d="M 12.203125 52 
Q 13.5 48.40625 15.203125 43.34375 
Q 16.90625 38.296875 18.59375 32.59375 
Q 20.296875 26.90625 21.84375 21.046875 
Q 23.40625 15.203125 24.5 10.09375 
Q 26.796875 14.40625 28.9375 19.65625 
Q 31.09375 24.90625 32.9375 30.453125 
Q 34.796875 36 36.1875 41.546875 
Q 37.59375 47.09375 38.5 52 
L 47.796875 52 
Q 46.796875 47 45.046875 40.703125 
Q 43.296875 34.40625 40.75 27.453125 
Q 38.203125 20.5 34.75 13.203125 
Q 31.296875 5.90625 26.796875 -1.09375 
Q 28.40625 -9.703125 29.203125 -18.5 
L 20.40625 -18.5 
Q 20 -12.703125 18.84375 -6.25 
Q 17.703125 0.203125 16.140625 6.75 
Q 14.59375 13.296875 12.75 19.75 
Q 10.90625 26.203125 8.953125 32.046875 
Q 7 37.90625 5.140625 43 
Q 3.296875 48.09375 1.796875 52 
z
" id="Ubuntu-3b3"/>
      <path d="M 39.703125 9.59375 
Q 38.703125 12 37.046875 15.703125 
Q 35.40625 19.40625 33.5 23.703125 
Q 31.59375 28 29.4375 32.546875 
Q 27.296875 37.09375 25.390625 41.140625 
Q 23.5 45.203125 21.84375 48.390625 
Q 20.203125 51.59375 19.203125 53.296875 
Q 18.09375 41.5 17.390625 27.75 
Q 16.703125 14 16.203125 0 
L 6.703125 0 
Q 7.09375 9 7.59375 18.140625 
Q 8.09375 27.296875 8.75 36.140625 
Q 9.40625 45 10.15625 53.390625 
Q 10.90625 61.796875 11.796875 69.296875 
L 20.296875 69.296875 
Q 23 64.90625 26.09375 58.90625 
Q 29.203125 52.90625 32.296875 46.34375 
Q 35.40625 39.796875 38.296875 33.25 
Q 41.203125 26.703125 43.59375 21.296875 
Q 46 26.703125 48.890625 33.25 
Q 51.796875 39.796875 54.890625 46.34375 
Q 58 52.90625 61.09375 58.90625 
Q 64.203125 64.90625 66.90625 69.296875 
L 75.40625 69.296875 
Q 78.796875 35.796875 80.5 0 
L 71 0 
Q 70.5 14 69.796875 27.75 
Q 69.09375 41.5 68 53.296875 
Q 67 51.59375 65.34375 48.390625 
Q 63.703125 45.203125 61.796875 41.140625 
Q 59.90625 37.09375 57.75 32.546875 
Q 55.59375 28 53.6875 23.703125 
Q 51.796875 19.40625 50.140625 15.703125 
Q 48.5 12 47.5 9.59375 
z
" id="Ubuntu-4d"/>
     </defs>
     <g transform="translate(100.058125 55.0883956693)scale(0.08 -0.08)">
      <use xlink:href="#Ubuntu-4d"/>
      <use x="87.0999908447" xlink:href="#Ubuntu-43"/>
      <use x="149.099975586" xlink:href="#Ubuntu-50"/>
      <use x="209.899963379" xlink:href="#Ubuntu-50"/>
      <use x="270.653076172" xlink:href="#Ubuntu-65"/>
      <use x="326.553070068" xlink:href="#Ubuntu-6e"/>
      <use x="383.953063965" xlink:href="#Ubuntu-61"/>
      <use x="436.153060913" xlink:href="#Ubuntu-6c"/>
      <use x="463.453048706" xlink:href="#Ubuntu-74"/>
      <use x="503.653045654" xlink:href="#Ubuntu-79"/>
      <use x="553.353042603" xlink:href="#Ubuntu-7b"/>
      <use x="586.653030396" xlink:href="#Ubuntu-46"/>
      <use x="640.353027344" xlink:href="#Ubuntu-6c"/>
      <use x="667.653015137" xlink:href="#Ubuntu-6f"/>
      <use x="726.652999878" xlink:href="#Ubuntu-61"/>
      <use x="778.852996826" xlink:href="#Ubuntu-74"/>
      <use x="819.052993774" xlink:href="#Ubuntu-36"/>
      <use x="875.452987671" xlink:href="#Ubuntu-34"/>
      <use x="931.852981567" xlink:href="#Ubuntu-7d"/>
      <use x="965.15296936" xlink:href="#Ubuntu-28"/>
      <use x="997.552963257" xlink:href="#Ubuntu-3b3"/>
      <use x="1047.85295105" xlink:href="#Ubuntu-20"/>
      <use x="1070.95294189" xlink:href="#Ubuntu-3d"/>
      <use x="1127.35293579" xlink:href="#Ubuntu-20"/>
      <use x="1150.45292664" xlink:href="#Ubuntu-31"/>
      <use x="1206.85292053" xlink:href="#Ubuntu-2e"/>
      <use x="1231.45291138" xlink:href="#Ubuntu-30"/>
      <use x="1287.85290527" xlink:href="#Ubuntu-29"/>
     </g>
    </g>
    <g id="line2d_35">
     <path d="M 80.058125 64.055896 
L 91.258125 64.055896 
" style="fill:none;stroke:#d9ac00;stroke-dasharray:6.000000,6.000000;stroke-dashoffset:0.0;"/>
    </g>
    <g id="line2d_36"/>
    <g id="text_17">
     <!-- SCADPenalty{Float64}(a = 3.7, γ = 0.4) -->
     <defs>
      <path d="M 22.59375 6.796875 
Q 31.5 6.796875 35.34375 10.296875 
Q 39.203125 13.796875 39.203125 19.703125 
Q 39.203125 23.5 37.59375 26.09375 
Q 36 28.703125 33.390625 30.25 
Q 30.796875 31.796875 27.34375 32.4375 
Q 23.90625 33.09375 20.296875 33.09375 
L 17.90625 33.09375 
L 17.90625 40.703125 
L 21.203125 40.703125 
Q 23.703125 40.703125 26.34375 41.203125 
Q 29 41.703125 31.203125 43 
Q 33.40625 44.296875 34.796875 46.546875 
Q 36.203125 48.796875 36.203125 52.203125 
Q 36.203125 55 35.203125 57 
Q 34.203125 59 32.546875 60.296875 
Q 30.90625 61.59375 28.75 62.140625 
Q 26.59375 62.703125 24.203125 62.703125 
Q 19.40625 62.703125 16.046875 61.296875 
Q 12.703125 59.90625 10.40625 58.40625 
L 6.796875 65.5 
Q 8 66.296875 9.84375 67.25 
Q 11.703125 68.203125 14 69 
Q 16.296875 69.796875 18.9375 70.34375 
Q 21.59375 70.90625 24.5 70.90625 
Q 30 70.90625 34 69.546875 
Q 38 68.203125 40.59375 65.75 
Q 43.203125 63.296875 44.5 59.9375 
Q 45.796875 56.59375 45.796875 52.703125 
Q 45.796875 47.296875 42.6875 43.4375 
Q 39.59375 39.59375 35.203125 37.59375 
Q 37.90625 36.796875 40.40625 35.296875 
Q 42.90625 33.796875 44.75 31.5 
Q 46.59375 29.203125 47.75 26.203125 
Q 48.90625 23.203125 48.90625 19.5 
Q 48.90625 15 47.34375 11.140625 
Q 45.796875 7.296875 42.546875 4.5 
Q 39.296875 1.703125 34.390625 0.09375 
Q 29.5 -1.5 22.796875 -1.5 
Q 20.203125 -1.5 17.453125 -1.09375 
Q 14.703125 -0.703125 12.296875 -0.09375 
Q 9.90625 0.5 8.09375 1.09375 
Q 6.296875 1.703125 5.5 2.09375 
L 7.296875 10.203125 
Q 9 9.40625 12.953125 8.09375 
Q 16.90625 6.796875 22.59375 6.796875 
" id="Ubuntu-33"/>
      <path d="M 16.296875 0 
Q 16.90625 8 19.15625 16.84375 
Q 21.40625 25.703125 24.703125 34.046875 
Q 28 42.40625 31.953125 49.546875 
Q 35.90625 56.703125 39.703125 61.203125 
L 6 61.203125 
L 6 69.296875 
L 50.09375 69.296875 
L 50.09375 61.59375 
Q 46.796875 57.796875 42.796875 51.140625 
Q 38.796875 44.5 35.25 36.25 
Q 31.703125 28 29.140625 18.640625 
Q 26.59375 9.296875 26 0 
z
" id="Ubuntu-37"/>
      <path d="M 24.703125 6.90625 
Q 39.90625 6.90625 39.90625 17.296875 
Q 39.90625 20.5 38.546875 22.75 
Q 37.203125 25 34.890625 26.640625 
Q 32.59375 28.296875 29.640625 29.5 
Q 26.703125 30.703125 23.40625 31.90625 
Q 19.59375 33.203125 16.1875 34.84375 
Q 12.796875 36.5 10.296875 38.75 
Q 7.796875 41 6.34375 44.09375 
Q 4.90625 47.203125 4.90625 51.59375 
Q 4.90625 60.703125 11.09375 65.796875 
Q 17.296875 70.90625 28.203125 70.90625 
Q 34.5 70.90625 39.640625 69.546875 
Q 44.796875 68.203125 47.203125 66.59375 
L 44.09375 58.703125 
Q 42 60 37.84375 61.25 
Q 33.703125 62.5 28.203125 62.5 
Q 25.40625 62.5 23 61.890625 
Q 20.59375 61.296875 18.796875 60.09375 
Q 17 58.90625 15.953125 57.046875 
Q 14.90625 55.203125 14.90625 52.703125 
Q 14.90625 49.90625 16 48 
Q 17.09375 46.09375 19.09375 44.640625 
Q 21.09375 43.203125 23.75 42 
Q 26.40625 40.796875 29.59375 39.59375 
Q 34.09375 37.796875 37.84375 36 
Q 41.59375 34.203125 44.34375 31.703125 
Q 47.09375 29.203125 48.59375 25.75 
Q 50.09375 22.296875 50.09375 17.40625 
Q 50.09375 8.296875 43.4375 3.390625 
Q 36.796875 -1.5 24.703125 -1.5 
Q 20.59375 -1.5 17.140625 -0.953125 
Q 13.703125 -0.40625 11 0.34375 
Q 8.296875 1.09375 6.34375 1.9375 
Q 4.40625 2.796875 3.296875 3.40625 
L 6.203125 11.40625 
Q 8.5 10.09375 13.203125 8.5 
Q 17.90625 6.90625 24.703125 6.90625 
" id="Ubuntu-53"/>
      <path d="M 17.796875 11.40625 
Q 17.90625 10.59375 17.90625 9.84375 
Q 17.90625 9.09375 17.90625 8.296875 
Q 17.90625 2 16.046875 -4.140625 
Q 14.203125 -10.296875 11 -15.90625 
L 3.796875 -13.59375 
Q 6.296875 -8.5 7.09375 -3.25 
Q 7.90625 2 7.90625 6.59375 
Q 7.90625 7.90625 7.84375 9.09375 
Q 7.796875 10.296875 7.703125 11.40625 
z
" id="Ubuntu-2c"/>
      <path d="M 54.90625 0 
Q 53.203125 4.5 51.703125 8.84375 
Q 50.203125 13.203125 48.59375 17.703125 
L 17.203125 17.703125 
L 10.90625 0 
L 0.796875 0 
Q 4.796875 11 8.296875 20.34375 
Q 11.796875 29.703125 15.140625 38.09375 
Q 18.5 46.5 21.796875 54.140625 
Q 25.09375 61.796875 28.703125 69.296875 
L 37.59375 69.296875 
Q 41.203125 61.796875 44.5 54.140625 
Q 47.796875 46.5 51.140625 38.09375 
Q 54.5 29.703125 58 20.34375 
Q 61.5 11 65.5 0 
z
M 45.796875 25.703125 
Q 42.59375 34.40625 39.4375 42.546875 
Q 36.296875 50.703125 32.90625 58.203125 
Q 29.40625 50.703125 26.25 42.546875 
Q 23.09375 34.40625 20 25.703125 
z
" id="Ubuntu-41"/>
      <path d="M 65.5 34.703125 
Q 65.5 25.703125 62.703125 19.046875 
Q 59.90625 12.40625 54.796875 8.046875 
Q 49.703125 3.703125 42.59375 1.546875 
Q 35.5 -0.59375 27 -0.59375 
Q 22.796875 -0.59375 17.75 -0.25 
Q 12.703125 0.09375 8.59375 1.09375 
L 8.59375 68.296875 
Q 12.703125 69.296875 17.75 69.640625 
Q 22.796875 70 27 70 
Q 35.5 70 42.59375 67.84375 
Q 49.703125 65.703125 54.796875 61.34375 
Q 59.90625 57 62.703125 50.34375 
Q 65.5 43.703125 65.5 34.703125 
M 27.796875 7.90625 
Q 41.59375 7.90625 48.390625 14.953125 
Q 55.203125 22 55.203125 34.703125 
Q 55.203125 47.40625 48.390625 54.453125 
Q 41.59375 61.5 27.796875 61.5 
Q 23.703125 61.5 21.453125 61.390625 
Q 19.203125 61.296875 18.296875 61.203125 
L 18.296875 8.203125 
Q 19.203125 8.09375 21.453125 8 
Q 23.703125 7.90625 27.796875 7.90625 
" id="Ubuntu-44"/>
     </defs>
     <g transform="translate(100.058125 66.8558956693)scale(0.08 -0.08)">
      <use xlink:href="#Ubuntu-53"/>
      <use x="53.1999969482" xlink:href="#Ubuntu-43"/>
      <use x="115.231231689" xlink:href="#Ubuntu-41"/>
      <use x="181.531219482" xlink:href="#Ubuntu-44"/>
      <use x="252.831207275" xlink:href="#Ubuntu-50"/>
      <use x="313.584320068" xlink:href="#Ubuntu-65"/>
      <use x="369.484313965" xlink:href="#Ubuntu-6e"/>
      <use x="426.884307861" xlink:href="#Ubuntu-61"/>
      <use x="479.08430481" xlink:href="#Ubuntu-6c"/>
      <use x="506.384292603" xlink:href="#Ubuntu-74"/>
      <use x="546.584289551" xlink:href="#Ubuntu-79"/>
      <use x="596.284286499" xlink:href="#Ubuntu-7b"/>
      <use x="629.584274292" xlink:href="#Ubuntu-46"/>
      <use x="683.28427124" xlink:href="#Ubuntu-6c"/>
      <use x="710.584259033" xlink:href="#Ubuntu-6f"/>
      <use x="769.584243774" xlink:href="#Ubuntu-61"/>
      <use x="821.784240723" xlink:href="#Ubuntu-74"/>
      <use x="861.984237671" xlink:href="#Ubuntu-36"/>
      <use x="918.384231567" xlink:href="#Ubuntu-34"/>
      <use x="974.784225464" xlink:href="#Ubuntu-7d"/>
      <use x="1008.08421326" xlink:href="#Ubuntu-28"/>
      <use x="1040.48420715" xlink:href="#Ubuntu-61"/>
      <use x="1092.6842041" xlink:href="#Ubuntu-20"/>
      <use x="1115.78419495" xlink:href="#Ubuntu-3d"/>
      <use x="1172.18418884" xlink:href="#Ubuntu-20"/>
      <use x="1195.28417969" xlink:href="#Ubuntu-33"/>
      <use x="1251.68417358" xlink:href="#Ubuntu-2e"/>
      <use x="1276.28416443" xlink:href="#Ubuntu-37"/>
      <use x="1332.68415833" xlink:href="#Ubuntu-2c"/>
      <use x="1357.28414917" xlink:href="#Ubuntu-20"/>
      <use x="1380.38414001" xlink:href="#Ubuntu-3b3"/>
      <use x="1430.68412781" xlink:href="#Ubuntu-20"/>
      <use x="1453.78411865" xlink:href="#Ubuntu-3d"/>
      <use x="1510.18411255" xlink:href="#Ubuntu-20"/>
      <use x="1533.28410339" xlink:href="#Ubuntu-30"/>
      <use x="1589.68409729" xlink:href="#Ubuntu-2e"/>
      <use x="1614.28408813" xlink:href="#Ubuntu-34"/>
      <use x="1670.68408203" xlink:href="#Ubuntu-29"/>
     </g>
    </g>
    <g id="line2d_37">
     <path d="M 80.058125 75.823396 
L 91.258125 75.823396 
" style="fill:none;stroke:#6820cc;stroke-dasharray:1.000000,3.000000;stroke-dashoffset:0.0;"/>
    </g>
    <g id="line2d_38"/>
    <g id="text_18">
     <!-- LogPenalty{Float64}(η = 1.0) -->
     <defs>
      <path d="M 40.59375 5.203125 
Q 39.40625 4.40625 35.953125 3.15625 
Q 32.5 1.90625 27.90625 1.90625 
Q 23.203125 1.90625 19.046875 3.40625 
Q 14.90625 4.90625 11.796875 8.046875 
Q 8.703125 11.203125 6.890625 15.890625 
Q 5.09375 20.59375 5.09375 27.09375 
Q 5.09375 32.796875 6.796875 37.546875 
Q 8.5 42.296875 11.75 45.75 
Q 15 49.203125 19.703125 51.140625 
Q 24.40625 53.09375 30.296875 53.09375 
Q 36.796875 53.09375 41.640625 52.140625 
Q 46.5 51.203125 49.796875 50.40625 
L 49.796875 4 
Q 49.796875 -8 43.59375 -13.390625 
Q 37.40625 -18.796875 24.796875 -18.796875 
Q 19.90625 -18.796875 15.546875 -18 
Q 11.203125 -17.203125 8 -16.09375 
L 9.703125 -8 
Q 12.5 -9.09375 16.546875 -9.9375 
Q 20.59375 -10.796875 25 -10.796875 
Q 33.296875 -10.796875 36.9375 -7.5 
Q 40.59375 -4.203125 40.59375 3 
z
M 40.5 43.796875 
Q 39.09375 44.203125 36.75 44.546875 
Q 34.40625 44.90625 30.40625 44.90625 
Q 22.90625 44.90625 18.84375 40 
Q 14.796875 35.09375 14.796875 27 
Q 14.796875 22.5 15.9375 19.296875 
Q 17.09375 16.09375 19.046875 14 
Q 21 11.90625 23.546875 10.90625 
Q 26.09375 9.90625 28.796875 9.90625 
Q 32.5 9.90625 35.59375 10.953125 
Q 38.703125 12 40.5 13.40625 
z
" id="Ubuntu-67"/>
      <path d="M 8 50.5 
Q 11.203125 51.296875 16.5 52.1875 
Q 21.796875 53.09375 28.703125 53.09375 
Q 34.90625 53.09375 39 51.34375 
Q 43.09375 49.59375 45.546875 46.4375 
Q 48 43.296875 49 38.890625 
Q 50 34.5 50 29.203125 
L 50 -18.5 
L 40.703125 -18.5 
L 40.703125 27.203125 
Q 40.703125 32 40.046875 35.390625 
Q 39.40625 38.796875 37.90625 40.890625 
Q 36.40625 43 33.90625 43.953125 
Q 31.40625 44.90625 27.703125 44.90625 
Q 26.203125 44.90625 24.59375 44.796875 
Q 23 44.703125 21.546875 44.546875 
Q 20.09375 44.40625 18.9375 44.203125 
Q 17.796875 44 17.296875 43.90625 
L 17.296875 0 
L 8 0 
z
" id="Ubuntu-3b7"/>
     </defs>
     <g transform="translate(100.058125 78.6233956693)scale(0.08 -0.08)">
      <use xlink:href="#Ubuntu-4c"/>
      <use x="51.8843688965" xlink:href="#Ubuntu-6f"/>
      <use x="110.884353638" xlink:href="#Ubuntu-67"/>
      <use x="168.684341431" xlink:href="#Ubuntu-50"/>
      <use x="229.437454224" xlink:href="#Ubuntu-65"/>
      <use x="285.33744812" xlink:href="#Ubuntu-6e"/>
      <use x="342.737442017" xlink:href="#Ubuntu-61"/>
      <use x="394.937438965" xlink:href="#Ubuntu-6c"/>
      <use x="422.237426758" xlink:href="#Ubuntu-74"/>
      <use x="462.437423706" xlink:href="#Ubuntu-79"/>
      <use x="512.137420654" xlink:href="#Ubuntu-7b"/>
      <use x="545.437408447" xlink:href="#Ubuntu-46"/>
      <use x="599.137405396" xlink:href="#Ubuntu-6c"/>
      <use x="626.437393188" xlink:href="#Ubuntu-6f"/>
      <use x="685.43737793" xlink:href="#Ubuntu-61"/>
      <use x="737.637374878" xlink:href="#Ubuntu-74"/>
      <use x="777.837371826" xlink:href="#Ubuntu-36"/>
      <use x="834.237365723" xlink:href="#Ubuntu-34"/>
      <use x="890.637359619" xlink:href="#Ubuntu-7d"/>
      <use x="923.937347412" xlink:href="#Ubuntu-28"/>
      <use x="956.337341309" xlink:href="#Ubuntu-3b7"/>
      <use x="1013.73733521" xlink:href="#Ubuntu-20"/>
      <use x="1036.83732605" xlink:href="#Ubuntu-3d"/>
      <use x="1093.23731995" xlink:href="#Ubuntu-20"/>
      <use x="1116.33731079" xlink:href="#Ubuntu-31"/>
      <use x="1172.73730469" xlink:href="#Ubuntu-2e"/>
      <use x="1197.33729553" xlink:href="#Ubuntu-30"/>
      <use x="1253.73728943" xlink:href="#Ubuntu-29"/>
     </g>
    </g>
   </g>
  </g>
 </g>
 <defs>
  <clipPath id="pb8df07d017">
   <rect height="249.860021161" width="249.860021161" x="32.0524894193" y="6.43464566929"/>
  </clipPath>
 </defs>
</svg>
