<?xml version="1.0" encoding="utf-8" standalone="no"?>
<!DOCTYPE svg PUBLIC "-//W3C//DTD SVG 1.1//EN"
  "http://www.w3.org/Graphics/SVG/1.1/DTD/svg11.dtd">
<!-- Created with matplotlib (http://matplotlib.org/) -->
<svg height="288pt" version="1.1" viewBox="0 0 432 288" width="432pt" xmlns="http://www.w3.org/2000/svg" xmlns:xlink="http://www.w3.org/1999/xlink">
 <defs>
  <style type="text/css">
*{stroke-linecap:butt;stroke-linejoin:round;stroke-miterlimit:100000;}
  </style>
 </defs>
 <g id="figure_1">
  <g id="patch_1">
   <path d="M 0 288 
L 432 288 
L 432 0 
L 0 0 
L 0 288 
z
" style="fill:none;"/>
  </g>
  <g id="axes_1">
   <g id="patch_2">
    <path d="M 14.844646 273.965354 
L 429.165354 273.965354 
L 429.165354 18.634646 
L 14.844646 18.634646 
z
" style="fill:#ffffff;"/>
   </g>
   <g id="line2d_1">
    <path clip-path="url(#pd12edfc961)" d="M 26.570703 134.252075 
L 30.518871 122.34538 
L 34.467039 110.67782 
L 38.415206 99.365976 
L 42.363374 88.52287 
L 46.311541 78.256844 
L 50.259709 68.670472 
L 54.207877 59.859538 
L 58.156044 51.912079 
L 62.104212 44.907501 
L 66.05238 38.915794 
L 70.000547 33.996824 
L 73.948715 30.199739 
L 77.896882 27.56248 
L 81.84505 26.111396 
L 85.793218 25.860986 
L 89.741385 26.813753 
L 93.689553 28.960177 
L 97.63772 32.278811 
L 101.585888 36.736496 
L 105.534056 42.288693 
L 109.482223 48.879927 
L 113.430391 56.444339 
L 117.378558 64.906349 
L 121.326726 74.181406 
L 125.274894 84.176839 
L 129.223061 94.792775 
L 133.171229 105.923144 
L 137.119396 117.456735 
L 141.067564 129.278307 
L 145.015732 141.269745 
L 148.963899 153.311232 
L 152.912067 165.282455 
L 156.860234 177.063801 
L 160.808402 188.537556 
L 164.75657 199.589076 
L 168.704737 210.107938 
L 172.652905 219.989043 
L 176.601073 229.13366 
L 180.54924 237.450421 
L 184.497408 244.856226 
L 188.445575 251.277079 
L 192.393743 256.648826 
L 196.341911 260.917793 
L 200.290078 264.041327 
L 204.238246 265.988218 
L 208.186413 266.739014 
L 212.134581 266.286212 
L 216.082749 264.634337 
L 220.030916 261.799894 
L 223.979084 257.811204 
L 227.927251 252.70812 
L 231.875419 246.541631 
L 235.823587 239.373351 
L 239.771754 231.274902 
L 243.719922 222.327201 
L 247.668089 212.619652 
L 251.616257 202.249247 
L 255.564425 191.319606 
L 259.512592 179.939934 
L 263.46076 168.223932 
L 267.408927 156.288663 
L 271.357095 144.25338 
L 275.305263 132.238335 
L 279.25343 120.36358 
L 283.201598 108.747762 
L 287.149766 97.506944 
L 291.097933 86.753439 
L 295.046101 76.594694 
L 298.994268 67.13221 
L 302.942436 58.460534 
L 306.890604 50.666311 
L 310.838771 43.827417 
L 314.786939 38.012186 
L 318.735106 33.278719 
L 322.683274 29.674314 
L 326.631442 27.234984 
L 330.579609 25.985101 
L 334.527777 25.937155 
L 338.475944 27.091624 
L 342.424112 29.436973 
L 346.37228 32.949768 
L 350.320447 37.594911 
L 354.268615 43.325989 
L 358.216782 50.085739 
L 362.16495 57.80662 
L 366.113118 66.411486 
L 370.061285 75.814362 
L 374.009453 85.921297 
L 377.95762 96.631305 
L 381.905788 107.837376 
L 385.853956 119.427542 
L 389.802123 131.285999 
L 393.750291 143.29426 
L 397.698459 155.332343 
L 401.646626 167.279967 
L 405.594794 179.017757 
L 409.542961 190.42843 
L 413.491129 201.397977 
L 417.439297 211.816792 
" style="fill:none;stroke:#00008b;stroke-linecap:round;"/>
   </g>
   <g id="PathCollection_1">
    <defs>
     <path d="M 0 2 
C 0.530406 2 1.03916 1.789267 1.414214 1.414214 
C 1.789267 1.03916 2 0.530406 2 0 
C 2 -0.530406 1.789267 -1.03916 1.414214 -1.414214 
C 1.03916 -1.789267 0.530406 -2 0 -2 
C -0.530406 -2 -1.03916 -1.789267 -1.414214 -1.414214 
C -1.789267 -1.03916 -2 -0.530406 -2 0 
C -2 0.530406 -1.789267 1.03916 -1.414214 1.414214 
C -1.03916 1.789267 -0.530406 2 0 2 
z
" id="md4ef79cfc1" style="stroke:#000000;"/>
    </defs>
    <g clip-path="url(#pd12edfc961)">
     <use style="fill:#00008b;stroke:#000000;" x="26.5707034616" xlink:href="#md4ef79cfc1" y="134.252074867"/>
     <use style="fill:#00008b;stroke:#000000;" x="30.5188710684" xlink:href="#md4ef79cfc1" y="122.345379503"/>
     <use style="fill:#00008b;stroke:#000000;" x="34.4670386753" xlink:href="#md4ef79cfc1" y="110.677820351"/>
     <use style="fill:#00008b;stroke:#000000;" x="38.4152062821" xlink:href="#md4ef79cfc1" y="99.3659758048"/>
     <use style="fill:#00008b;stroke:#000000;" x="42.3633738889" xlink:href="#md4ef79cfc1" y="88.5228700765"/>
     <use style="fill:#00008b;stroke:#000000;" x="46.3115414958" xlink:href="#md4ef79cfc1" y="78.256843894"/>
     <use style="fill:#00008b;stroke:#000000;" x="50.2597091026" xlink:href="#md4ef79cfc1" y="68.6704719975"/>
     <use style="fill:#00008b;stroke:#000000;" x="54.2078767095" xlink:href="#md4ef79cfc1" y="59.8595382462"/>
     <use style="fill:#00008b;stroke:#000000;" x="58.1560443163" xlink:href="#md4ef79cfc1" y="51.9120785775"/>
     <use style="fill:#00008b;stroke:#000000;" x="62.1042119231" xlink:href="#md4ef79cfc1" y="44.9075013814"/>
     <use style="fill:#00008b;stroke:#000000;" x="66.05237953" xlink:href="#md4ef79cfc1" y="38.9157940778"/>
     <use style="fill:#00008b;stroke:#000000;" x="70.0005471368" xlink:href="#md4ef79cfc1" y="33.9968238255"/>
     <use style="fill:#00008b;stroke:#000000;" x="73.9487147436" xlink:href="#md4ef79cfc1" y="30.1997393494"/>
     <use style="fill:#00008b;stroke:#000000;" x="77.8968823505" xlink:href="#md4ef79cfc1" y="27.5624798622"/>
     <use style="fill:#00008b;stroke:#000000;" x="81.8450499573" xlink:href="#md4ef79cfc1" y="26.1113959891"/>
     <use style="fill:#00008b;stroke:#000000;" x="85.7932175641" xlink:href="#md4ef79cfc1" y="25.8609864805"/>
     <use style="fill:#00008b;stroke:#000000;" x="89.741385171" xlink:href="#md4ef79cfc1" y="26.8137533453"/>
     <use style="fill:#00008b;stroke:#000000;" x="93.6895527778" xlink:href="#md4ef79cfc1" y="28.960176852"/>
     <use style="fill:#00008b;stroke:#000000;" x="97.6377203847" xlink:href="#md4ef79cfc1" y="32.2788106465"/>
     <use style="fill:#00008b;stroke:#000000;" x="101.585887991" xlink:href="#md4ef79cfc1" y="36.7364960369"/>
     <use style="fill:#00008b;stroke:#000000;" x="105.534055598" xlink:href="#md4ef79cfc1" y="42.2886933042"/>
     <use style="fill:#00008b;stroke:#000000;" x="109.482223205" xlink:href="#md4ef79cfc1" y="48.8799267287"/>
     <use style="fill:#00008b;stroke:#000000;" x="113.430390812" xlink:href="#md4ef79cfc1" y="56.4443388847"/>
     <use style="fill:#00008b;stroke:#000000;" x="117.378558419" xlink:href="#md4ef79cfc1" y="64.9063486665"/>
     <use style="fill:#00008b;stroke:#000000;" x="121.326726026" xlink:href="#md4ef79cfc1" y="74.1814064696"/>
     <use style="fill:#00008b;stroke:#000000;" x="125.274893633" xlink:href="#md4ef79cfc1" y="84.1768389822"/>
     <use style="fill:#00008b;stroke:#000000;" x="129.223061239" xlink:href="#md4ef79cfc1" y="94.7927751467"/>
     <use style="fill:#00008b;stroke:#000000;" x="133.171228846" xlink:href="#md4ef79cfc1" y="105.923144038"/>
     <use style="fill:#00008b;stroke:#000000;" x="137.119396453" xlink:href="#md4ef79cfc1" y="117.45673469"/>
     <use style="fill:#00008b;stroke:#000000;" x="141.06756406" xlink:href="#md4ef79cfc1" y="129.278307276"/>
     <use style="fill:#00008b;stroke:#000000;" x="145.015731667" xlink:href="#md4ef79cfc1" y="141.269744552"/>
     <use style="fill:#00008b;stroke:#000000;" x="148.963899274" xlink:href="#md4ef79cfc1" y="153.31123204"/>
     <use style="fill:#00008b;stroke:#000000;" x="152.91206688" xlink:href="#md4ef79cfc1" y="165.282455177"/>
     <use style="fill:#00008b;stroke:#000000;" x="156.860234487" xlink:href="#md4ef79cfc1" y="177.063801459"/>
     <use style="fill:#00008b;stroke:#000000;" x="160.808402094" xlink:href="#md4ef79cfc1" y="188.537555568"/>
     <use style="fill:#00008b;stroke:#000000;" x="164.756569701" xlink:href="#md4ef79cfc1" y="199.589075546"/>
     <use style="fill:#00008b;stroke:#000000;" x="168.704737308" xlink:href="#md4ef79cfc1" y="210.107938259"/>
     <use style="fill:#00008b;stroke:#000000;" x="172.652904915" xlink:href="#md4ef79cfc1" y="219.989042707"/>
     <use style="fill:#00008b;stroke:#000000;" x="176.601072521" xlink:href="#md4ef79cfc1" y="229.13366016"/>
     <use style="fill:#00008b;stroke:#000000;" x="180.549240128" xlink:href="#md4ef79cfc1" y="237.450420625"/>
     <use style="fill:#00008b;stroke:#000000;" x="184.497407735" xlink:href="#md4ef79cfc1" y="244.856225779"/>
     <use style="fill:#00008b;stroke:#000000;" x="188.445575342" xlink:href="#md4ef79cfc1" y="251.277079266"/>
     <use style="fill:#00008b;stroke:#000000;" x="192.393742949" xlink:href="#md4ef79cfc1" y="256.64882604"/>
     <use style="fill:#00008b;stroke:#000000;" x="196.341910556" xlink:href="#md4ef79cfc1" y="260.917793383"/>
     <use style="fill:#00008b;stroke:#000000;" x="200.290078162" xlink:href="#md4ef79cfc1" y="264.041327184"/>
     <use style="fill:#00008b;stroke:#000000;" x="204.238245769" xlink:href="#md4ef79cfc1" y="265.988218127"/>
     <use style="fill:#00008b;stroke:#000000;" x="208.186413376" xlink:href="#md4ef79cfc1" y="266.73901352"/>
     <use style="fill:#00008b;stroke:#000000;" x="212.134580983" xlink:href="#md4ef79cfc1" y="266.286211663"/>
     <use style="fill:#00008b;stroke:#000000;" x="216.08274859" xlink:href="#md4ef79cfc1" y="264.634336805"/>
     <use style="fill:#00008b;stroke:#000000;" x="220.030916197" xlink:href="#md4ef79cfc1" y="261.799893931"/>
     <use style="fill:#00008b;stroke:#000000;" x="223.979083803" xlink:href="#md4ef79cfc1" y="257.811203858"/>
     <use style="fill:#00008b;stroke:#000000;" x="227.92725141" xlink:href="#md4ef79cfc1" y="252.70812026"/>
     <use style="fill:#00008b;stroke:#000000;" x="231.875419017" xlink:href="#md4ef79cfc1" y="246.54163146"/>
     <use style="fill:#00008b;stroke:#000000;" x="235.823586624" xlink:href="#md4ef79cfc1" y="239.373350976"/>
     <use style="fill:#00008b;stroke:#000000;" x="239.771754231" xlink:href="#md4ef79cfc1" y="231.274901897"/>
     <use style="fill:#00008b;stroke:#000000;" x="243.719921838" xlink:href="#md4ef79cfc1" y="222.32720125"/>
     <use style="fill:#00008b;stroke:#000000;" x="247.668089444" xlink:href="#md4ef79cfc1" y="212.619651502"/>
     <use style="fill:#00008b;stroke:#000000;" x="251.616257051" xlink:href="#md4ef79cfc1" y="202.24924728"/>
     <use style="fill:#00008b;stroke:#000000;" x="255.564424658" xlink:href="#md4ef79cfc1" y="191.319606236"/>
     <use style="fill:#00008b;stroke:#000000;" x="259.512592265" xlink:href="#md4ef79cfc1" y="179.93993373"/>
     <use style="fill:#00008b;stroke:#000000;" x="263.460759872" xlink:href="#md4ef79cfc1" y="168.223931689"/>
     <use style="fill:#00008b;stroke:#000000;" x="267.408927479" xlink:href="#md4ef79cfc1" y="156.288662531"/>
     <use style="fill:#00008b;stroke:#000000;" x="271.357095085" xlink:href="#md4ef79cfc1" y="144.253379522"/>
     <use style="fill:#00008b;stroke:#000000;" x="275.305262692" xlink:href="#md4ef79cfc1" y="132.23833523"/>
     <use style="fill:#00008b;stroke:#000000;" x="279.253430299" xlink:href="#md4ef79cfc1" y="120.363580006"/>
     <use style="fill:#00008b;stroke:#000000;" x="283.201597906" xlink:href="#md4ef79cfc1" y="108.74776248"/>
     <use style="fill:#00008b;stroke:#000000;" x="287.149765513" xlink:href="#md4ef79cfc1" y="97.5069440603"/>
     <use style="fill:#00008b;stroke:#000000;" x="291.09793312" xlink:href="#md4ef79cfc1" y="86.7534392889"/>
     <use style="fill:#00008b;stroke:#000000;" x="295.046100726" xlink:href="#md4ef79cfc1" y="76.5946936309"/>
     <use style="fill:#00008b;stroke:#000000;" x="298.994268333" xlink:href="#md4ef79cfc1" y="67.1322099149"/>
     <use style="fill:#00008b;stroke:#000000;" x="302.94243594" xlink:href="#md4ef79cfc1" y="58.4605341502"/>
     <use style="fill:#00008b;stroke:#000000;" x="306.890603547" xlink:href="#md4ef79cfc1" y="50.6663108547"/>
     <use style="fill:#00008b;stroke:#000000;" x="310.838771154" xlink:href="#md4ef79cfc1" y="43.8274173311"/>
     <use style="fill:#00008b;stroke:#000000;" x="314.786938761" xlink:href="#md4ef79cfc1" y="38.0121855428"/>
     <use style="fill:#00008b;stroke:#000000;" x="318.735106367" xlink:href="#md4ef79cfc1" y="33.2787193637"/>
     <use style="fill:#00008b;stroke:#000000;" x="322.683273974" xlink:href="#md4ef79cfc1" y="29.674314023"/>
     <use style="fill:#00008b;stroke:#000000;" x="326.631441581" xlink:href="#md4ef79cfc1" y="27.2349835475"/>
     <use style="fill:#00008b;stroke:#000000;" x="330.579609188" xlink:href="#md4ef79cfc1" y="25.985100921"/>
     <use style="fill:#00008b;stroke:#000000;" x="334.527776795" xlink:href="#md4ef79cfc1" y="25.9371545575"/>
     <use style="fill:#00008b;stroke:#000000;" x="338.475944402" xlink:href="#md4ef79cfc1" y="27.0916235212"/>
     <use style="fill:#00008b;stroke:#000000;" x="342.424112009" xlink:href="#md4ef79cfc1" y="29.4369727399"/>
     <use style="fill:#00008b;stroke:#000000;" x="346.372279615" xlink:href="#md4ef79cfc1" y="32.9497682594"/>
     <use style="fill:#00008b;stroke:#000000;" x="350.320447222" xlink:href="#md4ef79cfc1" y="37.5949113882"/>
     <use style="fill:#00008b;stroke:#000000;" x="354.268614829" xlink:href="#md4ef79cfc1" y="43.3259893914"/>
     <use style="fill:#00008b;stroke:#000000;" x="358.216782436" xlink:href="#md4ef79cfc1" y="50.0857392322"/>
     <use style="fill:#00008b;stroke:#000000;" x="362.164950043" xlink:href="#md4ef79cfc1" y="57.8066197247"/>
     <use style="fill:#00008b;stroke:#000000;" x="366.11311765" xlink:href="#md4ef79cfc1" y="66.411486383"/>
     <use style="fill:#00008b;stroke:#000000;" x="370.061285256" xlink:href="#md4ef79cfc1" y="75.8143622241"/>
     <use style="fill:#00008b;stroke:#000000;" x="374.009452863" xlink:href="#md4ef79cfc1" y="85.9212968205"/>
     <use style="fill:#00008b;stroke:#000000;" x="377.95762047" xlink:href="#md4ef79cfc1" y="96.6313050229"/>
     <use style="fill:#00008b;stroke:#000000;" x="381.905788077" xlink:href="#md4ef79cfc1" y="107.837375969"/>
     <use style="fill:#00008b;stroke:#000000;" x="385.853955684" xlink:href="#md4ef79cfc1" y="119.427542303"/>
     <use style="fill:#00008b;stroke:#000000;" x="389.802123291" xlink:href="#md4ef79cfc1" y="131.285998914"/>
     <use style="fill:#00008b;stroke:#000000;" x="393.750290897" xlink:href="#md4ef79cfc1" y="143.294260023"/>
     <use style="fill:#00008b;stroke:#000000;" x="397.698458504" xlink:href="#md4ef79cfc1" y="155.332343054"/>
     <use style="fill:#00008b;stroke:#000000;" x="401.646626111" xlink:href="#md4ef79cfc1" y="167.279967462"/>
     <use style="fill:#00008b;stroke:#000000;" x="405.594793718" xlink:href="#md4ef79cfc1" y="179.017756532"/>
     <use style="fill:#00008b;stroke:#000000;" x="409.542961325" xlink:href="#md4ef79cfc1" y="190.428430156"/>
     <use style="fill:#00008b;stroke:#000000;" x="413.491128932" xlink:href="#md4ef79cfc1" y="201.397976654"/>
     <use style="fill:#00008b;stroke:#000000;" x="417.439296538" xlink:href="#md4ef79cfc1" y="211.816791946"/>
    </g>
   </g>
   <g id="line2d_2">
    <path clip-path="url(#pd12edfc961)" d="M 30.518871 28.210985 
L 34.467039 31.190202 
L 42.363374 40.557164 
L 50.259709 54.138921 
L 66.05238 91.634522 
L 73.948713 114.053537 
L 89.741387 161.800747 
L 97.637719 185.225413 
L 113.430389 226.544758 
L 137.1194 263.249609 
L 145.015728 266.644071 
L 168.704739 248.448973 
L 184.497404 215.527589 
L 192.39375 194.562942 
L 208.186406 147.771393 
L 231.875427 79.493839 
L 255.564428 34.546243 
L 263.460756 27.825259 
L 287.149758 36.123823 
L 302.942432 63.812067 
L 310.838779 82.902738 
L 334.527781 151.820783 
L 350.320455 198.246614 
L 374.009438 250.53733 
L 405.594786 262.214381 
" style="fill:none;stroke:#cc0000;stroke-linecap:round;"/>
   </g>
   <g id="PathCollection_2">
    <defs>
     <path d="M 0 2 
C 0.530406 2 1.03916 1.789267 1.414214 1.414214 
C 1.789267 1.03916 2 0.530406 2 0 
C 2 -0.530406 1.789267 -1.03916 1.414214 -1.414214 
C 1.03916 -1.789267 0.530406 -2 0 -2 
C -0.530406 -2 -1.03916 -1.789267 -1.414214 -1.414214 
C -1.789267 -1.03916 -2 -0.530406 -2 0 
C -2 0.530406 -1.789267 1.03916 -1.414214 1.414214 
C -1.03916 1.789267 -0.530406 2 0 2 
z
" id="mc3f6b9b697" style="stroke:#000000;"/>
    </defs>
    <g clip-path="url(#pd12edfc961)">
     <use style="fill:#cc0000;stroke:#000000;" x="30.5188711861" xlink:href="#mc3f6b9b697" y="28.2109845406"/>
     <use style="fill:#cc0000;stroke:#000000;" x="34.4670391459" xlink:href="#mc3f6b9b697" y="31.1902015105"/>
     <use style="fill:#cc0000;stroke:#000000;" x="42.3633738889" xlink:href="#mc3f6b9b697" y="40.5571642479"/>
     <use style="fill:#cc0000;stroke:#000000;" x="50.259708632" xlink:href="#mc3f6b9b697" y="54.1389205076"/>
     <use style="fill:#cc0000;stroke:#000000;" x="66.0523804713" xlink:href="#mc3f6b9b697" y="91.6345223987"/>
     <use style="fill:#cc0000;stroke:#000000;" x="73.948712861" xlink:href="#mc3f6b9b697" y="114.053536707"/>
     <use style="fill:#cc0000;stroke:#000000;" x="89.7413870536" xlink:href="#mc3f6b9b697" y="161.800747286"/>
     <use style="fill:#cc0000;stroke:#000000;" x="97.6377194433" xlink:href="#mc3f6b9b697" y="185.225412946"/>
     <use style="fill:#cc0000;stroke:#000000;" x="113.430388929" xlink:href="#mc3f6b9b697" y="226.544757861"/>
     <use style="fill:#cc0000;stroke:#000000;" x="137.119400218" xlink:href="#mc3f6b9b697" y="263.249608534"/>
     <use style="fill:#cc0000;stroke:#000000;" x="145.015727901" xlink:href="#mc3f6b9b697" y="266.64407077"/>
     <use style="fill:#cc0000;stroke:#000000;" x="168.70473919" xlink:href="#mc3f6b9b697" y="248.448972748"/>
     <use style="fill:#cc0000;stroke:#000000;" x="184.49740397" xlink:href="#mc3f6b9b697" y="215.527588608"/>
     <use style="fill:#cc0000;stroke:#000000;" x="192.393750479" xlink:href="#mc3f6b9b697" y="194.562942376"/>
     <use style="fill:#cc0000;stroke:#000000;" x="208.186405846" xlink:href="#mc3f6b9b697" y="147.771392541"/>
     <use style="fill:#cc0000;stroke:#000000;" x="231.875426548" xlink:href="#mc3f6b9b697" y="79.4938394016"/>
     <use style="fill:#cc0000;stroke:#000000;" x="255.564428423" xlink:href="#mc3f6b9b697" y="34.5462428588"/>
     <use style="fill:#cc0000;stroke:#000000;" x="263.460756107" xlink:href="#mc3f6b9b697" y="27.8252585714"/>
     <use style="fill:#cc0000;stroke:#000000;" x="287.149757982" xlink:href="#mc3f6b9b697" y="36.1238226372"/>
     <use style="fill:#cc0000;stroke:#000000;" x="302.942432175" xlink:href="#mc3f6b9b697" y="63.8120672984"/>
     <use style="fill:#cc0000;stroke:#000000;" x="310.838778684" xlink:href="#mc3f6b9b697" y="82.9027379189"/>
     <use style="fill:#cc0000;stroke:#000000;" x="334.52778056" xlink:href="#mc3f6b9b697" y="151.820783471"/>
     <use style="fill:#cc0000;stroke:#000000;" x="350.320454753" xlink:href="#mc3f6b9b697" y="198.246613834"/>
     <use style="fill:#cc0000;stroke:#000000;" x="374.009437802" xlink:href="#mc3f6b9b697" y="250.537329797"/>
     <use style="fill:#cc0000;stroke:#000000;" x="405.594786187" xlink:href="#mc3f6b9b697" y="262.214381296"/>
    </g>
   </g>
   <g id="patch_3">
    <path d="M 14.844646 18.634646 
L 429.165354 18.634646 
" style="fill:none;stroke:#000000;stroke-linecap:square;stroke-linejoin:miter;"/>
   </g>
   <g id="patch_4">
    <path d="M 429.165354 273.965354 
L 429.165354 18.634646 
" style="fill:none;stroke:#000000;stroke-linecap:square;stroke-linejoin:miter;"/>
   </g>
   <g id="patch_5">
    <path d="M 14.844646 273.965354 
L 429.165354 273.965354 
" style="fill:none;stroke:#000000;stroke-linecap:square;stroke-linejoin:miter;"/>
   </g>
   <g id="patch_6">
    <path d="M 14.844646 273.965354 
L 14.844646 18.634646 
" style="fill:none;stroke:#000000;stroke-linecap:square;stroke-linejoin:miter;"/>
   </g>
   <g id="matplotlib.axis_1">
    <g id="xtick_1">
     <g id="line2d_3">
      <defs>
       <path d="M 0 0 
L 0 -4 
" id="m1441ea51ad" style="stroke:#000000;stroke-width:0.5;"/>
      </defs>
      <g>
       <use style="stroke:#000000;stroke-width:0.5;" x="22.6225358548" xlink:href="#m1441ea51ad" y="273.965354331"/>
      </g>
     </g>
     <g id="line2d_4">
      <defs>
       <path d="M 0 0 
L 0 4 
" id="mea86d0157e" style="stroke:#000000;stroke-width:0.5;"/>
      </defs>
      <g>
       <use style="stroke:#000000;stroke-width:0.5;" x="22.6225358548" xlink:href="#mea86d0157e" y="18.6346456693"/>
      </g>
     </g>
     <g id="text_1">
      <!-- 0 -->
      <defs>
       <path d="M 31.78125 66.40625 
Q 24.171875 66.40625 20.328125 58.90625 
Q 16.5 51.421875 16.5 36.375 
Q 16.5 21.390625 20.328125 13.890625 
Q 24.171875 6.390625 31.78125 6.390625 
Q 39.453125 6.390625 43.28125 13.890625 
Q 47.125 21.390625 47.125 36.375 
Q 47.125 51.421875 43.28125 58.90625 
Q 39.453125 66.40625 31.78125 66.40625 
M 31.78125 74.21875 
Q 44.046875 74.21875 50.515625 64.515625 
Q 56.984375 54.828125 56.984375 36.375 
Q 56.984375 17.96875 50.515625 8.265625 
Q 44.046875 -1.421875 31.78125 -1.421875 
Q 19.53125 -1.421875 13.0625 8.265625 
Q 6.59375 17.96875 6.59375 36.375 
Q 6.59375 54.828125 13.0625 64.515625 
Q 19.53125 74.21875 31.78125 74.21875 
" id="BitstreamVeraSans-Roman-30"/>
      </defs>
      <g transform="translate(20.0775358548 284.044104331)scale(0.08 -0.08)">
       <use xlink:href="#BitstreamVeraSans-Roman-30"/>
      </g>
     </g>
    </g>
    <g id="xtick_2">
     <g id="line2d_5">
      <g>
       <use style="stroke:#000000;stroke-width:0.5;" x="220.030916197" xlink:href="#m1441ea51ad" y="273.965354331"/>
      </g>
     </g>
     <g id="line2d_6">
      <g>
       <use style="stroke:#000000;stroke-width:0.5;" x="220.030916197" xlink:href="#mea86d0157e" y="18.6346456693"/>
      </g>
     </g>
     <g id="text_2">
      <!-- 5 -->
      <defs>
       <path d="M 10.796875 72.90625 
L 49.515625 72.90625 
L 49.515625 64.59375 
L 19.828125 64.59375 
L 19.828125 46.734375 
Q 21.96875 47.46875 24.109375 47.828125 
Q 26.265625 48.1875 28.421875 48.1875 
Q 40.625 48.1875 47.75 41.5 
Q 54.890625 34.8125 54.890625 23.390625 
Q 54.890625 11.625 47.5625 5.09375 
Q 40.234375 -1.421875 26.90625 -1.421875 
Q 22.3125 -1.421875 17.546875 -0.640625 
Q 12.796875 0.140625 7.71875 1.703125 
L 7.71875 11.625 
Q 12.109375 9.234375 16.796875 8.0625 
Q 21.484375 6.890625 26.703125 6.890625 
Q 35.15625 6.890625 40.078125 11.328125 
Q 45.015625 15.765625 45.015625 23.390625 
Q 45.015625 31 40.078125 35.4375 
Q 35.15625 39.890625 26.703125 39.890625 
Q 22.75 39.890625 18.8125 39.015625 
Q 14.890625 38.140625 10.796875 36.28125 
z
" id="BitstreamVeraSans-Roman-35"/>
      </defs>
      <g transform="translate(217.485916197 284.044104331)scale(0.08 -0.08)">
       <use xlink:href="#BitstreamVeraSans-Roman-35"/>
      </g>
     </g>
    </g>
    <g id="xtick_3">
     <g id="line2d_7">
      <g>
       <use style="stroke:#000000;stroke-width:0.5;" x="417.439296538" xlink:href="#m1441ea51ad" y="273.965354331"/>
      </g>
     </g>
     <g id="line2d_8">
      <g>
       <use style="stroke:#000000;stroke-width:0.5;" x="417.439296538" xlink:href="#mea86d0157e" y="18.6346456693"/>
      </g>
     </g>
     <g id="text_3">
      <!-- 10 -->
      <defs>
       <path d="M 12.40625 8.296875 
L 28.515625 8.296875 
L 28.515625 63.921875 
L 10.984375 60.40625 
L 10.984375 69.390625 
L 28.421875 72.90625 
L 38.28125 72.90625 
L 38.28125 8.296875 
L 54.390625 8.296875 
L 54.390625 0 
L 12.40625 0 
z
" id="BitstreamVeraSans-Roman-31"/>
      </defs>
      <g transform="translate(412.349296538 284.044104331)scale(0.08 -0.08)">
       <use xlink:href="#BitstreamVeraSans-Roman-31"/>
       <use x="63.623046875" xlink:href="#BitstreamVeraSans-Roman-30"/>
      </g>
     </g>
    </g>
   </g>
   <g id="matplotlib.axis_2">
    <g id="ytick_1">
     <g id="line2d_9">
      <defs>
       <path d="M 0 0 
L 4 0 
" id="m5edacd86da" style="stroke:#000000;stroke-width:0.5;"/>
      </defs>
      <g>
       <use style="stroke:#000000;stroke-width:0.5;" x="14.8446456693" xlink:href="#m5edacd86da" y="266.748258629"/>
      </g>
     </g>
     <g id="line2d_10">
      <defs>
       <path d="M 0 0 
L -4 0 
" id="m757bf53141" style="stroke:#000000;stroke-width:0.5;"/>
      </defs>
      <g>
       <use style="stroke:#000000;stroke-width:0.5;" x="429.165354331" xlink:href="#m757bf53141" y="266.748258629"/>
      </g>
     </g>
     <g id="text_4">
      <!-- -1 -->
      <defs>
       <path d="M 4.890625 31.390625 
L 31.203125 31.390625 
L 31.203125 23.390625 
L 4.890625 23.390625 
z
" id="BitstreamVeraSans-Roman-2d"/>
      </defs>
      <g transform="translate(2.86839566929 268.955758629)scale(0.08 -0.08)">
       <use xlink:href="#BitstreamVeraSans-Roman-2d"/>
       <use x="36.083984375" xlink:href="#BitstreamVeraSans-Roman-31"/>
      </g>
     </g>
    </g>
    <g id="ytick_2">
     <g id="line2d_11">
      <g>
       <use style="stroke:#000000;stroke-width:0.5;" x="14.8446456693" xlink:href="#m5edacd86da" y="146.278938679"/>
      </g>
     </g>
     <g id="line2d_12">
      <g>
       <use style="stroke:#000000;stroke-width:0.5;" x="429.165354331" xlink:href="#m757bf53141" y="146.278938679"/>
      </g>
     </g>
     <g id="text_5">
      <!-- 0 -->
      <g transform="translate(5.75464566929 148.486438679)scale(0.08 -0.08)">
       <use xlink:href="#BitstreamVeraSans-Roman-30"/>
      </g>
     </g>
    </g>
    <g id="ytick_3">
     <g id="line2d_13">
      <g>
       <use style="stroke:#000000;stroke-width:0.5;" x="14.8446456693" xlink:href="#m5edacd86da" y="25.8096187288"/>
      </g>
     </g>
     <g id="line2d_14">
      <g>
       <use style="stroke:#000000;stroke-width:0.5;" x="429.165354331" xlink:href="#m757bf53141" y="25.8096187288"/>
      </g>
     </g>
     <g id="text_6">
      <!-- 1 -->
      <g transform="translate(5.75464566929 28.0171187288)scale(0.08 -0.08)">
       <use xlink:href="#BitstreamVeraSans-Roman-31"/>
      </g>
     </g>
    </g>
   </g>
   <g id="text_7">
    <!-- Multivalue History -->
    <defs>
     <path id="BitstreamVeraSans-Roman-20"/>
     <path d="M 9.8125 72.90625 
L 24.515625 72.90625 
L 43.109375 23.296875 
L 61.8125 72.90625 
L 76.515625 72.90625 
L 76.515625 0 
L 66.890625 0 
L 66.890625 64.015625 
L 48.09375 14.015625 
L 38.1875 14.015625 
L 19.390625 64.015625 
L 19.390625 0 
L 9.8125 0 
z
" id="BitstreamVeraSans-Roman-4d"/>
     <path d="M 41.109375 46.296875 
Q 39.59375 47.171875 37.8125 47.578125 
Q 36.03125 48 33.890625 48 
Q 26.265625 48 22.1875 43.046875 
Q 18.109375 38.09375 18.109375 28.8125 
L 18.109375 0 
L 9.078125 0 
L 9.078125 54.6875 
L 18.109375 54.6875 
L 18.109375 46.1875 
Q 20.953125 51.171875 25.484375 53.578125 
Q 30.03125 56 36.53125 56 
Q 37.453125 56 38.578125 55.875 
Q 39.703125 55.765625 41.0625 55.515625 
z
" id="BitstreamVeraSans-Roman-72"/>
     <path d="M 30.609375 48.390625 
Q 23.390625 48.390625 19.1875 42.75 
Q 14.984375 37.109375 14.984375 27.296875 
Q 14.984375 17.484375 19.15625 11.84375 
Q 23.34375 6.203125 30.609375 6.203125 
Q 37.796875 6.203125 41.984375 11.859375 
Q 46.1875 17.53125 46.1875 27.296875 
Q 46.1875 37.015625 41.984375 42.703125 
Q 37.796875 48.390625 30.609375 48.390625 
M 30.609375 56 
Q 42.328125 56 49.015625 48.375 
Q 55.71875 40.765625 55.71875 27.296875 
Q 55.71875 13.875 49.015625 6.21875 
Q 42.328125 -1.421875 30.609375 -1.421875 
Q 18.84375 -1.421875 12.171875 6.21875 
Q 5.515625 13.875 5.515625 27.296875 
Q 5.515625 40.765625 12.171875 48.375 
Q 18.84375 56 30.609375 56 
" id="BitstreamVeraSans-Roman-6f"/>
     <path d="M 9.421875 75.984375 
L 18.40625 75.984375 
L 18.40625 0 
L 9.421875 0 
z
" id="BitstreamVeraSans-Roman-6c"/>
     <path d="M 56.203125 29.59375 
L 56.203125 25.203125 
L 14.890625 25.203125 
Q 15.484375 15.921875 20.484375 11.0625 
Q 25.484375 6.203125 34.421875 6.203125 
Q 39.59375 6.203125 44.453125 7.46875 
Q 49.3125 8.734375 54.109375 11.28125 
L 54.109375 2.78125 
Q 49.265625 0.734375 44.1875 -0.34375 
Q 39.109375 -1.421875 33.890625 -1.421875 
Q 20.796875 -1.421875 13.15625 6.1875 
Q 5.515625 13.8125 5.515625 26.8125 
Q 5.515625 40.234375 12.765625 48.109375 
Q 20.015625 56 32.328125 56 
Q 43.359375 56 49.78125 48.890625 
Q 56.203125 41.796875 56.203125 29.59375 
M 47.21875 32.234375 
Q 47.125 39.59375 43.09375 43.984375 
Q 39.0625 48.390625 32.421875 48.390625 
Q 24.90625 48.390625 20.390625 44.140625 
Q 15.875 39.890625 15.1875 32.171875 
z
" id="BitstreamVeraSans-Roman-65"/>
     <path d="M 9.421875 54.6875 
L 18.40625 54.6875 
L 18.40625 0 
L 9.421875 0 
z
M 9.421875 75.984375 
L 18.40625 75.984375 
L 18.40625 64.59375 
L 9.421875 64.59375 
z
" id="BitstreamVeraSans-Roman-69"/>
     <path d="M 32.171875 -5.078125 
Q 28.375 -14.84375 24.75 -17.8125 
Q 21.140625 -20.796875 15.09375 -20.796875 
L 7.90625 -20.796875 
L 7.90625 -13.28125 
L 13.1875 -13.28125 
Q 16.890625 -13.28125 18.9375 -11.515625 
Q 21 -9.765625 23.484375 -3.21875 
L 25.09375 0.875 
L 2.984375 54.6875 
L 12.5 54.6875 
L 29.59375 11.921875 
L 46.6875 54.6875 
L 56.203125 54.6875 
z
" id="BitstreamVeraSans-Roman-79"/>
     <path d="M 2.984375 54.6875 
L 12.5 54.6875 
L 29.59375 8.796875 
L 46.6875 54.6875 
L 56.203125 54.6875 
L 35.6875 0 
L 23.484375 0 
z
" id="BitstreamVeraSans-Roman-76"/>
     <path d="M 18.3125 70.21875 
L 18.3125 54.6875 
L 36.8125 54.6875 
L 36.8125 47.703125 
L 18.3125 47.703125 
L 18.3125 18.015625 
Q 18.3125 11.328125 20.140625 9.421875 
Q 21.96875 7.515625 27.59375 7.515625 
L 36.8125 7.515625 
L 36.8125 0 
L 27.59375 0 
Q 17.1875 0 13.234375 3.875 
Q 9.28125 7.765625 9.28125 18.015625 
L 9.28125 47.703125 
L 2.6875 47.703125 
L 2.6875 54.6875 
L 9.28125 54.6875 
L 9.28125 70.21875 
z
" id="BitstreamVeraSans-Roman-74"/>
     <path d="M 8.5 21.578125 
L 8.5 54.6875 
L 17.484375 54.6875 
L 17.484375 21.921875 
Q 17.484375 14.15625 20.5 10.265625 
Q 23.53125 6.390625 29.59375 6.390625 
Q 36.859375 6.390625 41.078125 11.03125 
Q 45.3125 15.671875 45.3125 23.6875 
L 45.3125 54.6875 
L 54.296875 54.6875 
L 54.296875 0 
L 45.3125 0 
L 45.3125 8.40625 
Q 42.046875 3.421875 37.71875 1 
Q 33.40625 -1.421875 27.6875 -1.421875 
Q 18.265625 -1.421875 13.375 4.4375 
Q 8.5 10.296875 8.5 21.578125 
" id="BitstreamVeraSans-Roman-75"/>
     <path d="M 34.28125 27.484375 
Q 23.390625 27.484375 19.1875 25 
Q 14.984375 22.515625 14.984375 16.5 
Q 14.984375 11.71875 18.140625 8.90625 
Q 21.296875 6.109375 26.703125 6.109375 
Q 34.1875 6.109375 38.703125 11.40625 
Q 43.21875 16.703125 43.21875 25.484375 
L 43.21875 27.484375 
z
M 52.203125 31.203125 
L 52.203125 0 
L 43.21875 0 
L 43.21875 8.296875 
Q 40.140625 3.328125 35.546875 0.953125 
Q 30.953125 -1.421875 24.3125 -1.421875 
Q 15.921875 -1.421875 10.953125 3.296875 
Q 6 8.015625 6 15.921875 
Q 6 25.140625 12.171875 29.828125 
Q 18.359375 34.515625 30.609375 34.515625 
L 43.21875 34.515625 
L 43.21875 35.40625 
Q 43.21875 41.609375 39.140625 45 
Q 35.0625 48.390625 27.6875 48.390625 
Q 23 48.390625 18.546875 47.265625 
Q 14.109375 46.140625 10.015625 43.890625 
L 10.015625 52.203125 
Q 14.9375 54.109375 19.578125 55.046875 
Q 24.21875 56 28.609375 56 
Q 40.484375 56 46.34375 49.84375 
Q 52.203125 43.703125 52.203125 31.203125 
" id="BitstreamVeraSans-Roman-61"/>
     <path d="M 44.28125 53.078125 
L 44.28125 44.578125 
Q 40.484375 46.53125 36.375 47.5 
Q 32.28125 48.484375 27.875 48.484375 
Q 21.1875 48.484375 17.84375 46.4375 
Q 14.5 44.390625 14.5 40.28125 
Q 14.5 37.15625 16.890625 35.375 
Q 19.28125 33.59375 26.515625 31.984375 
L 29.59375 31.296875 
Q 39.15625 29.25 43.1875 25.515625 
Q 47.21875 21.78125 47.21875 15.09375 
Q 47.21875 7.46875 41.1875 3.015625 
Q 35.15625 -1.421875 24.609375 -1.421875 
Q 20.21875 -1.421875 15.453125 -0.5625 
Q 10.6875 0.296875 5.421875 2 
L 5.421875 11.28125 
Q 10.40625 8.6875 15.234375 7.390625 
Q 20.0625 6.109375 24.8125 6.109375 
Q 31.15625 6.109375 34.5625 8.28125 
Q 37.984375 10.453125 37.984375 14.40625 
Q 37.984375 18.0625 35.515625 20.015625 
Q 33.0625 21.96875 24.703125 23.78125 
L 21.578125 24.515625 
Q 13.234375 26.265625 9.515625 29.90625 
Q 5.8125 33.546875 5.8125 39.890625 
Q 5.8125 47.609375 11.28125 51.796875 
Q 16.75 56 26.8125 56 
Q 31.78125 56 36.171875 55.265625 
Q 40.578125 54.546875 44.28125 53.078125 
" id="BitstreamVeraSans-Roman-73"/>
     <path d="M 9.8125 72.90625 
L 19.671875 72.90625 
L 19.671875 43.015625 
L 55.515625 43.015625 
L 55.515625 72.90625 
L 65.375 72.90625 
L 65.375 0 
L 55.515625 0 
L 55.515625 34.71875 
L 19.671875 34.71875 
L 19.671875 0 
L 9.8125 0 
z
" id="BitstreamVeraSans-Roman-48"/>
    </defs>
    <g transform="translate(158.64625 13.6346456693)scale(0.14 -0.14)">
     <use xlink:href="#BitstreamVeraSans-Roman-4d"/>
     <use x="86.279296875" xlink:href="#BitstreamVeraSans-Roman-75"/>
     <use x="149.658203125" xlink:href="#BitstreamVeraSans-Roman-6c"/>
     <use x="177.44140625" xlink:href="#BitstreamVeraSans-Roman-74"/>
     <use x="216.650390625" xlink:href="#BitstreamVeraSans-Roman-69"/>
     <use x="244.43359375" xlink:href="#BitstreamVeraSans-Roman-76"/>
     <use x="303.61328125" xlink:href="#BitstreamVeraSans-Roman-61"/>
     <use x="364.892578125" xlink:href="#BitstreamVeraSans-Roman-6c"/>
     <use x="392.67578125" xlink:href="#BitstreamVeraSans-Roman-75"/>
     <use x="456.0546875" xlink:href="#BitstreamVeraSans-Roman-65"/>
     <use x="517.578125" xlink:href="#BitstreamVeraSans-Roman-20"/>
     <use x="549.365234375" xlink:href="#BitstreamVeraSans-Roman-48"/>
     <use x="624.560546875" xlink:href="#BitstreamVeraSans-Roman-69"/>
     <use x="652.34375" xlink:href="#BitstreamVeraSans-Roman-73"/>
     <use x="704.443359375" xlink:href="#BitstreamVeraSans-Roman-74"/>
     <use x="743.65234375" xlink:href="#BitstreamVeraSans-Roman-6f"/>
     <use x="804.833984375" xlink:href="#BitstreamVeraSans-Roman-72"/>
     <use x="845.947265625" xlink:href="#BitstreamVeraSans-Roman-79"/>
    </g>
   </g>
   <g id="legend_1">
    <g id="patch_7">
     <path d="M 373.495354 48.457146 
L 425.165354 48.457146 
L 425.165354 22.634646 
L 373.495354 22.634646 
z
" style="fill:#ffffff;stroke:#000000;stroke-linejoin:miter;"/>
    </g>
    <g id="line2d_15">
     <path d="M 379.095354 29.242146 
L 390.295354 29.242146 
" style="fill:none;stroke:#00008b;stroke-linecap:round;"/>
    </g>
    <g id="line2d_16"/>
    <g id="text_8">
     <!-- mysin -->
     <defs>
      <path d="M 8 50.5 
Q 11.203125 51.296875 16.5 52.1875 
Q 21.796875 53.09375 28.703125 53.09375 
Q 34.90625 53.09375 39 51.34375 
Q 43.09375 49.59375 45.546875 46.4375 
Q 48 43.296875 49 38.890625 
Q 50 34.5 50 29.203125 
L 50 0 
L 40.703125 0 
L 40.703125 27.203125 
Q 40.703125 32 40.046875 35.390625 
Q 39.40625 38.796875 37.90625 40.890625 
Q 36.40625 43 33.90625 43.953125 
Q 31.40625 44.90625 27.703125 44.90625 
Q 26.203125 44.90625 24.59375 44.796875 
Q 23 44.703125 21.546875 44.546875 
Q 20.09375 44.40625 18.9375 44.203125 
Q 17.796875 44 17.296875 43.90625 
L 17.296875 0 
L 8 0 
z
" id="Ubuntu-6e"/>
      <path d="M 8 50.5 
Q 11.203125 51.296875 16.453125 52.1875 
Q 21.703125 53.09375 28.59375 53.09375 
Q 33.59375 53.09375 37 51.75 
Q 40.40625 50.40625 42.703125 47.796875 
Q 43.40625 48.296875 44.90625 49.1875 
Q 46.40625 50.09375 48.59375 50.9375 
Q 50.796875 51.796875 53.5 52.4375 
Q 56.203125 53.09375 59.296875 53.09375 
Q 65.296875 53.09375 69.09375 51.34375 
Q 72.90625 49.59375 75.046875 46.390625 
Q 77.203125 43.203125 77.953125 38.796875 
Q 78.703125 34.40625 78.703125 29.203125 
L 78.703125 0 
L 69.40625 0 
L 69.40625 27.203125 
Q 69.40625 31.796875 68.953125 35.09375 
Q 68.5 38.40625 67.25 40.59375 
Q 66 42.796875 63.84375 43.84375 
Q 61.703125 44.90625 58.296875 44.90625 
Q 53.59375 44.90625 50.546875 43.65625 
Q 47.5 42.40625 46.40625 41.40625 
Q 47.203125 38.796875 47.59375 35.6875 
Q 48 32.59375 48 29.203125 
L 48 0 
L 38.703125 0 
L 38.703125 27.203125 
Q 38.703125 31.796875 38.203125 35.09375 
Q 37.703125 38.40625 36.453125 40.59375 
Q 35.203125 42.796875 33.046875 43.84375 
Q 30.90625 44.90625 27.59375 44.90625 
Q 26.203125 44.90625 24.59375 44.796875 
Q 23 44.703125 21.546875 44.546875 
Q 20.09375 44.40625 18.890625 44.203125 
Q 17.703125 44 17.296875 43.90625 
L 17.296875 0 
L 8 0 
z
" id="Ubuntu-6d"/>
      <path d="M 17.296875 0 
L 8 0 
L 8 52 
L 17.296875 52 
z
M 12.59375 61.40625 
Q 10.09375 61.40625 8.34375 63.046875 
Q 6.59375 64.703125 6.59375 67.5 
Q 6.59375 70.296875 8.34375 71.9375 
Q 10.09375 73.59375 12.59375 73.59375 
Q 15.09375 73.59375 16.84375 71.9375 
Q 18.59375 70.296875 18.59375 67.5 
Q 18.59375 64.703125 16.84375 63.046875 
Q 15.09375 61.40625 12.59375 61.40625 
" id="Ubuntu-69"/>
      <path d="M 20.09375 6.703125 
Q 25.796875 6.703125 28.546875 8.203125 
Q 31.296875 9.703125 31.296875 13 
Q 31.296875 16.40625 28.59375 18.40625 
Q 25.90625 20.40625 19.703125 22.90625 
Q 16.703125 24.09375 13.953125 25.34375 
Q 11.203125 26.59375 9.203125 28.296875 
Q 7.203125 30 6 32.390625 
Q 4.796875 34.796875 4.796875 38.296875 
Q 4.796875 45.203125 9.890625 49.25 
Q 15 53.296875 23.796875 53.296875 
Q 26 53.296875 28.203125 53.046875 
Q 30.40625 52.796875 32.296875 52.4375 
Q 34.203125 52.09375 35.640625 51.6875 
Q 37.09375 51.296875 37.90625 51 
L 36.203125 43 
Q 34.703125 43.796875 31.5 44.640625 
Q 28.296875 45.5 23.796875 45.5 
Q 19.90625 45.5 17 43.953125 
Q 14.09375 42.40625 14.09375 39.09375 
Q 14.09375 37.40625 14.75 36.09375 
Q 15.40625 34.796875 16.75 33.75 
Q 18.09375 32.703125 20.09375 31.796875 
Q 22.09375 30.90625 24.90625 29.90625 
Q 28.59375 28.5 31.5 27.140625 
Q 34.40625 25.796875 36.453125 24 
Q 38.5 22.203125 39.59375 19.640625 
Q 40.703125 17.09375 40.703125 13.40625 
Q 40.703125 6.203125 35.34375 2.5 
Q 30 -1.203125 20.09375 -1.203125 
Q 13.203125 -1.203125 9.296875 -0.046875 
Q 5.40625 1.09375 4 1.703125 
L 5.703125 9.703125 
Q 7.296875 9.09375 10.796875 7.890625 
Q 14.296875 6.703125 20.09375 6.703125 
" id="Ubuntu-73"/>
      <path d="M 1.90625 -9.703125 
Q 3 -10.203125 4.75 -10.640625 
Q 6.5 -11.09375 8.203125 -11.09375 
Q 13.703125 -11.09375 16.796875 -8.640625 
Q 19.90625 -6.203125 22.40625 -0.703125 
Q 16.09375 11.296875 10.640625 24.75 
Q 5.203125 38.203125 1.59375 52 
L 11.59375 52 
Q 12.703125 47.5 14.25 42.296875 
Q 15.796875 37.09375 17.6875 31.59375 
Q 19.59375 26.09375 21.796875 20.59375 
Q 24 15.09375 26.40625 10 
Q 30.203125 20.5 33 30.796875 
Q 35.796875 41.09375 38.296875 52 
L 47.90625 52 
Q 44.296875 37.296875 39.890625 23.75 
Q 35.5 10.203125 30.40625 -1.59375 
Q 28.40625 -6.09375 26.25 -9.34375 
Q 24.09375 -12.59375 21.5 -14.6875 
Q 18.90625 -16.796875 15.65625 -17.796875 
Q 12.40625 -18.796875 8.296875 -18.796875 
Q 7.203125 -18.796875 6 -18.640625 
Q 4.796875 -18.5 3.640625 -18.25 
Q 2.5 -18 1.546875 -17.703125 
Q 0.59375 -17.40625 0.203125 -17.203125 
z
" id="Ubuntu-79"/>
     </defs>
     <g transform="translate(399.095354331 32.0421456693)scale(0.08 -0.08)">
      <use xlink:href="#Ubuntu-6d"/>
      <use x="86.0999908447" xlink:href="#Ubuntu-79"/>
      <use x="135.799987793" xlink:href="#Ubuntu-73"/>
      <use x="180.399978638" xlink:href="#Ubuntu-69"/>
      <use x="205.699966431" xlink:href="#Ubuntu-6e"/>
     </g>
    </g>
    <g id="line2d_17">
     <path d="M 379.095354 40.953396 
L 390.295354 40.953396 
" style="fill:none;stroke:#cc0000;stroke-linecap:round;"/>
    </g>
    <g id="line2d_18"/>
    <g id="text_9">
     <!-- mycos -->
     <defs>
      <path d="M 53.90625 26 
Q 53.90625 19.796875 52.09375 14.796875 
Q 50.296875 9.796875 47.046875 6.1875 
Q 43.796875 2.59375 39.296875 0.640625 
Q 34.796875 -1.296875 29.5 -1.296875 
Q 24.203125 -1.296875 19.703125 0.640625 
Q 15.203125 2.59375 11.953125 6.1875 
Q 8.703125 9.796875 6.890625 14.796875 
Q 5.09375 19.796875 5.09375 26 
Q 5.09375 32.09375 6.890625 37.140625 
Q 8.703125 42.203125 11.953125 45.796875 
Q 15.203125 49.40625 19.703125 51.34375 
Q 24.203125 53.296875 29.5 53.296875 
Q 34.796875 53.296875 39.296875 51.34375 
Q 43.796875 49.40625 47.046875 45.796875 
Q 50.296875 42.203125 52.09375 37.140625 
Q 53.90625 32.09375 53.90625 26 
M 44.203125 26 
Q 44.203125 34.796875 40.25 39.9375 
Q 36.296875 45.09375 29.5 45.09375 
Q 22.703125 45.09375 18.75 39.9375 
Q 14.796875 34.796875 14.796875 26 
Q 14.796875 17.203125 18.75 12.046875 
Q 22.703125 6.90625 29.5 6.90625 
Q 36.296875 6.90625 40.25 12.046875 
Q 44.203125 17.203125 44.203125 26 
" id="Ubuntu-6f"/>
      <path d="M 30.59375 -1.203125 
Q 24.296875 -1.203125 19.546875 0.796875 
Q 14.796875 2.796875 11.546875 6.390625 
Q 8.296875 10 6.6875 14.953125 
Q 5.09375 19.90625 5.09375 25.90625 
Q 5.09375 31.90625 6.84375 36.90625 
Q 8.59375 41.90625 11.796875 45.546875 
Q 15 49.203125 19.640625 51.25 
Q 24.296875 53.296875 30 53.296875 
Q 33.5 53.296875 37 52.6875 
Q 40.5 52.09375 43.703125 50.796875 
L 41.59375 42.90625 
Q 39.5 43.90625 36.75 44.5 
Q 34 45.09375 30.90625 45.09375 
Q 23.09375 45.09375 18.9375 40.1875 
Q 14.796875 35.296875 14.796875 25.90625 
Q 14.796875 21.703125 15.75 18.203125 
Q 16.703125 14.703125 18.75 12.203125 
Q 20.796875 9.703125 24 8.34375 
Q 27.203125 7 31.796875 7 
Q 35.5 7 38.5 7.703125 
Q 41.5 8.40625 43.203125 9.203125 
L 44.5 1.40625 
Q 43.703125 0.90625 42.203125 0.453125 
Q 40.703125 0 38.796875 -0.34375 
Q 36.90625 -0.703125 34.75 -0.953125 
Q 32.59375 -1.203125 30.59375 -1.203125 
" id="Ubuntu-63"/>
     </defs>
     <g transform="translate(399.095354331 43.7533956693)scale(0.08 -0.08)">
      <use xlink:href="#Ubuntu-6d"/>
      <use x="86.0999908447" xlink:href="#Ubuntu-79"/>
      <use x="135.799987793" xlink:href="#Ubuntu-63"/>
      <use x="182.284347534" xlink:href="#Ubuntu-6f"/>
      <use x="241.284332275" xlink:href="#Ubuntu-73"/>
     </g>
    </g>
   </g>
  </g>
 </g>
 <defs>
  <clipPath id="pd12edfc961">
   <rect height="255.330708661" width="414.320708661" x="14.8446456693" y="18.6346456693"/>
  </clipPath>
 </defs>
</svg>
